<svg width="112" height="709" viewBox="0 0 112 709" fill="none" xmlns="http://www.w3.org/2000/svg">
<g clip-path="url(#clip0)">
<path d="M15.0519 556.79L15.0519 247.432C15.0519 227.465 18.1086 210.177 19.6981 191.55C44.2739 179.619 71.1727 179.619 89.7574 191.55C92.0805 210.177 95.504 227.465 95.504 247.432L95.504 557.033L79.1201 566.773L79.1201 608.654L95.504 616.324L92.325 683.041L81.81 683.041C83.644 665.875 26.4228 665.266 30.8245 683.041L19.5759 683.041L14.9297 616.811L34.1257 608.776L34.1257 567.504L15.0519 556.79V556.79Z" stroke="#5F6352" stroke-width="3" stroke-linecap="round" stroke-linejoin="round"/>
<path d="M16.0078 605.733C18.3309 608.29 25.5447 608.29 29.2127 605.733L29.2127 573.348C27.2402 570.998 24.9335 568.947 22.3657 567.261C19.983 568.998 17.8447 571.046 16.0078 573.348L16.0078 605.733Z" stroke="#5F6352" stroke-linecap="round" stroke-linejoin="round"/>
<path d="M97.2051 605.733C94.882 608.29 87.6682 608.29 84.0002 605.733L84.0002 573.348C85.9727 570.998 88.2794 568.947 90.8472 567.261C93.2298 568.998 95.3682 571.046 97.2051 573.348L97.2051 605.733Z" stroke="#5F6352" stroke-linecap="round" stroke-linejoin="round"/>
<path d="M77.2856 205.918L31.9243 205.918C30.1004 207.718 28.6534 209.862 27.667 212.223C26.6806 214.584 26.1744 217.117 26.1777 219.675L26.1777 402.66L45.496 402.66L45.496 503.223L64.5698 503.223L64.5698 402.66L83.6435 402.66L83.6435 219.553C83.6931 216.949 83.1464 214.367 82.0448 212.005C80.9432 209.642 79.3156 207.56 77.2856 205.918V205.918Z" stroke="#5F6352" stroke-linecap="round" stroke-linejoin="round"/>
<path d="M26.5449 372.709L83.7661 372.709" stroke="#5F6352" stroke-miterlimit="10"/>
<path d="M26.2988 274.338L83.52 274.338" stroke="#5F6352" stroke-miterlimit="10"/>
<path d="M41.5 372.467L40.4834 372.467L40.4834 354.935C40.4526 353.803 40.2035 352.687 39.7498 351.648C39.4044 350.67 38.7573 349.825 37.9009 349.235C37.0445 348.644 36.0227 348.339 34.9814 348.361L26.5449 348.361L26.5449 347.5L34.9814 347.5C41 347.5 41.5 354 41.5 354.935L41.5 372.467Z" fill="#5F6352"/>
<path d="M41.5 274L40.4834 274L40.4834 291.532C40.4526 292.664 40.2035 293.78 39.7498 294.819C39.4044 295.797 38.7573 296.642 37.9009 297.232C37.0445 297.822 36.0227 298.128 34.9814 298.106L26.5449 298.106L26.5449 298.967L34.9814 298.967C41 298.967 41.5 292.467 41.5 291.532L41.5 274Z" fill="#5F6352"/>
<path d="M69 274L70.0166 274L70.0166 322.532C70.0474 323.664 70.2965 324.78 70.7502 325.819C71.0956 326.797 71.7427 327.642 72.5991 328.232C73.4555 328.822 74.4773 329.128 75.5186 329.106L83.9551 329.106L83.9551 329.967L75.5186 329.967C69.5 329.967 69 323.467 69 322.532L69 274Z" fill="#5F6352"/>
<rect x="29.5" y="376.5" width="11" height="5" stroke="#5F6352"/>
<rect x="36.5" y="355.5" width="11" height="5" transform="rotate(90 36.5 355.5)" stroke="#5F6352"/>
<rect x="51.5" y="358.5" width="11" height="5" transform="rotate(90 51.5 358.5)" stroke="#5F6352"/>
<rect x="59.5" y="358.5" width="11" height="5" transform="rotate(90 59.5 358.5)" stroke="#5F6352"/>
<rect x="80.5" y="337.5" width="11" height="5" transform="rotate(-180 80.5 337.5)" stroke="#5F6352"/>
<rect x="80.5" y="346.5" width="11" height="5" transform="rotate(-180 80.5 346.5)" stroke="#5F6352"/>
<rect x="78.2096" y="358.512" width="11" height="5" transform="rotate(-150 78.2096 358.512)" stroke="#5F6352"/>
<rect x="68.183" y="367.305" width="11" height="5" transform="rotate(-120 68.183 367.305)" stroke="#5F6352"/>
<rect x="69.5" y="376.5" width="11" height="5" stroke="#5F6352"/>
<rect x="29.5" y="384.5" width="11" height="5" stroke="#5F6352"/>
<rect x="69.5" y="384.5" width="11" height="5" stroke="#5F6352"/>
<rect x="29.5" y="392.5" width="11" height="5" stroke="#5F6352"/>
<rect x="69.5" y="392.5" width="11" height="5" stroke="#5F6352"/>
<path d="M40.5 324C40.5 326.714 40.059 329.148 39.3642 330.885C39.0162 331.755 38.6144 332.426 38.1937 332.871C37.7741 333.314 37.3705 333.5 37 333.5C36.6295 333.5 36.2259 333.314 35.8063 332.871C35.3856 332.426 34.9838 331.755 34.6358 330.885C33.941 329.148 33.5 326.714 33.5 324C33.5 321.286 33.941 318.852 34.6358 317.115C34.9838 316.245 35.3856 315.574 35.8063 315.129C36.2259 314.686 36.6295 314.5 37 314.5C37.3705 314.5 37.7741 314.686 38.1937 315.129C38.6144 315.574 39.0162 316.245 39.3642 317.115C40.059 318.852 40.5 321.286 40.5 324Z" stroke="#5F6352"/>
<path d="M49.5 327.5H61.5V330.5C61.5 333.814 58.8137 336.5 55.5 336.5C52.1863 336.5 49.5 333.814 49.5 330.5V327.5Z" stroke="#5F6352"/>
<path d="M46.5 274.5H64.5V330.5C64.5 335.471 60.4706 339.5 55.5 339.5C50.5294 339.5 46.5 335.471 46.5 330.5V274.5Z" stroke="#5F6352"/>
</g>
<defs>
<clipPath id="clip0">
<rect width="709" height="112" fill="white" transform="translate(0 709) rotate(-90)"/>
</clipPath>
</defs>
</svg>
