<svg width="115" height="712" viewBox="0 0 115 712" fill="none" xmlns="http://www.w3.org/2000/svg">
<g clip-path="url(#clip0)">
<path d="M74.2598 710L38.9 710C19.9663 710 13.0634 685.809 8.83717 671.428C1.39893 646.296 2.24418 620.089 2.24418 594.285L2.24416 134.649C2.24416 111.802 0.0464985 88.0136 8.83714 66.2414C18.304 42.7221 36.3924 17.8588 55.6642 1.99999C74.2598 19.6059 92.5173 41.9156 102.153 64.8974C111.451 87.0728 112.634 111.264 112.634 134.649L112.634 594.285C112.634 620.089 115.17 646.431 106.887 671.428C102.153 686.346 94.2078 710 74.2598 710Z" stroke="#5F6352" stroke-width="3" stroke-linecap="round" stroke-linejoin="round"/>
<path d="M62.9551 515.481L78.0562 515.481L78.0562 620.77L62.9551 620.77L62.9551 644.168L52.573 644.168L52.573 620.77L36.2584 620.77L36.2584 515.481L52.573 515.481L52.573 483.208L19 483.208L19 622.518C19 622.518 19 660.036 27.6292 683.702C28.743 687.196 30.0945 690.611 31.6742 693.922L82.5056 693.922C83.4503 692.305 84.2188 690.592 84.7978 688.812C89.5169 674.962 94.5056 667.566 96.6629 622.518L96.6629 483.208L63.0899 483.208L63.0899 515.481L62.9551 515.481Z" stroke="#5F6352" stroke-linecap="round" stroke-linejoin="round"/>
<path d="M24.1992 299.254L24.1992 237.667" stroke="#5F6352" stroke-miterlimit="2.6131"/>
<path d="M91.1348 298.85L91.1348 237.263" stroke="#5F6352" stroke-miterlimit="2.6131"/>
<path fill-rule="evenodd" clip-rule="evenodd" d="M35.9893 70.9231C22.6409 83.1598 23.9893 128.745 23.9893 128.745L23.9893 140.713L57.2926 140.713L57.832 140.713L91.1353 140.713L91.1353 128.745C91.1353 128.745 92.4837 83.0254 79.0005 70.7886C75.9672 68.0535 72.0335 66.5225 67.9443 66.4856L47.4499 66.4856C43.1958 66.4187 39.0836 68.0109 35.9893 70.9231V70.9231Z" stroke="#5F6352" stroke-linecap="round" stroke-linejoin="round"/>
<path fill-rule="evenodd" clip-rule="evenodd" d="M69.1992 442.5L69.1992 420.581L89.1543 420.581L89.1543 442.5L69.1992 442.5Z" fill="#D1C1B4" fill-opacity="0.3" stroke="#5F6352" stroke-miterlimit="2.6131"/>
<path fill-rule="evenodd" clip-rule="evenodd" d="M26.1992 442.5L26.1992 420.581L46.1543 420.581L46.1543 442.5L26.1992 442.5Z" fill="#D1C1B4" fill-opacity="0.3" stroke="#5F6352" stroke-miterlimit="2.6131"/>
<path fill-rule="evenodd" clip-rule="evenodd" d="M67.1992 420L67.1992 396L91.1992 396L91.1992 420L67.1992 420Z" fill="#D1C1B4" fill-opacity="0.08" stroke="#5F6352" stroke-miterlimit="2.6131"/>
<path fill-rule="evenodd" clip-rule="evenodd" d="M67.1992 396L67.1992 372L91.1992 372L91.1992 396L67.1992 396Z" fill="#D1C1B4" fill-opacity="0.08" stroke="#5F6352" stroke-miterlimit="2.6131"/>
<path fill-rule="evenodd" clip-rule="evenodd" d="M24.1992 396L24.1992 372L49.1992 372L49.1992 396L24.1992 396Z" fill="#D1C1B4" fill-opacity="0.08" stroke="#5F6352" stroke-miterlimit="2.6131"/>
<path fill-rule="evenodd" clip-rule="evenodd" d="M24.1992 420L24.1992 396L49.1992 396L49.1992 420L24.1992 420Z" fill="#D1C1B4" fill-opacity="0.08" stroke="#5F6352" stroke-miterlimit="2.6131"/>
<path fill-rule="evenodd" clip-rule="evenodd" d="M67.1992 372L67.1992 348L91.1992 348L91.1992 372L67.1992 372Z" fill="#D1C1B4" fill-opacity="0.08" stroke="#5F6352" stroke-miterlimit="2.6131"/>
<path fill-rule="evenodd" clip-rule="evenodd" d="M24.1992 372L24.1992 348L49.1992 348L49.1992 372L24.1992 372Z" fill="#D1C1B4" fill-opacity="0.08" stroke="#5F6352" stroke-miterlimit="2.6131"/>
<path fill-rule="evenodd" clip-rule="evenodd" d="M67.1992 348L67.1992 323L91.1992 323L91.1992 348L67.1992 348Z" fill="#D1C1B4" fill-opacity="0.08" stroke="#5F6352" stroke-miterlimit="2.6131"/>
<path fill-rule="evenodd" clip-rule="evenodd" d="M24.1992 348L24.1992 324L49.1992 324L49.1992 348L24.1992 348Z" fill="#D1C1B4" fill-opacity="0.08" stroke="#5F6352" stroke-miterlimit="2.6131"/>
<path fill-rule="evenodd" clip-rule="evenodd" d="M67.1992 323L67.1992 299L91.1992 299L91.1992 323L67.1992 323Z" fill="#D1C1B4" fill-opacity="0.08" stroke="#5F6352" stroke-miterlimit="2.6131"/>
<path fill-rule="evenodd" clip-rule="evenodd" d="M24.1992 324L24.1992 299L49.1992 299L49.1992 324L24.1992 324Z" fill="#D1C1B4" fill-opacity="0.08" stroke="#5F6352" stroke-miterlimit="2.6131"/>
<path fill-rule="evenodd" clip-rule="evenodd" d="M66 238L66 214L91 214L91 238L66 238Z" fill="#D1C1B4" fill-opacity="0.08" stroke="#5F6352" stroke-miterlimit="2.6131"/>
<path fill-rule="evenodd" clip-rule="evenodd" d="M24 238L24 213L49 213L49 238L24 238Z" fill="#D1C1B4" fill-opacity="0.08" stroke="#5F6352" stroke-miterlimit="2.6131"/>
<path fill-rule="evenodd" clip-rule="evenodd" d="M66 214L66 190L91 190L91 214L66 214Z" fill="#D1C1B4" fill-opacity="0.08" stroke="#5F6352" stroke-miterlimit="2.6131"/>
<path fill-rule="evenodd" clip-rule="evenodd" d="M24 213L24 189L49 189L49 213L24 213Z" fill="#D1C1B4" fill-opacity="0.08" stroke="#5F6352" stroke-miterlimit="2.6131"/>
<path fill-rule="evenodd" clip-rule="evenodd" d="M66 190L66 165L91 165L91 190L66 190Z" fill="#D1C1B4" fill-opacity="0.08" stroke="#5F6352" stroke-miterlimit="2.6131"/>
<path fill-rule="evenodd" clip-rule="evenodd" d="M24 189L24 165L49 165L49 189L24 189Z" fill="#D1C1B4" fill-opacity="0.08" stroke="#5F6352" stroke-miterlimit="2.6131"/>
<path fill-rule="evenodd" clip-rule="evenodd" d="M66 166L66 141L91 141L91 166L66 166Z" fill="#D1C1B4" fill-opacity="0.08" stroke="#5F6352" stroke-miterlimit="2.6131"/>
<path fill-rule="evenodd" clip-rule="evenodd" d="M24 165L24 141L49 141L49 165L24 165Z" fill="#D1C1B4" fill-opacity="0.08" stroke="#5F6352" stroke-miterlimit="2.6131"/>
<path d="M26.2812 442.734L26.2812 472.452L29.2475 472.452L29.2475 483.344" stroke="#5F6352" stroke-miterlimit="2.6131"/>
<path d="M89.0737 442.464L89.0737 472.047L86.1074 472.047L86.1074 482.939" stroke="#5F6352" stroke-miterlimit="2.6131"/>
<path d="M47 241C47 235.477 42.5228 231 37 231C31.4772 231 27 235.477 27 241C27 246.523 31.4772 251 37 251C42.5228 251 47 246.523 47 241Z" fill="white" stroke="#C8A97A" stroke-miterlimit="10"/>
<path d="M37 235L38.875 238.626L43 239.231L40 242.011L40.75 246L37 244.187L33.375 246L34 242.011L31 239.231L35.125 238.626L37 235Z" fill="#C8A97A"/>
<path d="M56.1992 443C56.1992 437.477 51.7221 433 46.1992 433C40.6764 433 36.1992 437.477 36.1992 443C36.1992 448.523 40.6764 453 46.1992 453C51.7221 453 56.1992 448.523 56.1992 443Z" fill="white" stroke="#C8A97A" stroke-miterlimit="10"/>
<path d="M44.6278 437L44.6278 441.429L40.1992 441.429L40.1992 444.571L44.6278 444.571L44.6278 449L47.7706 449L47.7706 444.571L52.1992 444.571L52.1992 441.429L47.7706 441.429L47.7706 437L44.6278 437Z" fill="#C8A97A"/>
<path d="M21 360C21 354.477 16.5228 350 11 350C5.47715 350 0.999999 354.477 1 360C1 365.523 5.47715 370 11 370C16.5228 370 21 365.523 21 360Z" fill="white" stroke="#C8A97A" stroke-miterlimit="10"/>
<path d="M113 360C113 354.477 108.523 350 103 350C97.4772 350 93 354.477 93 360C93 365.523 97.4772 370 103 370C108.523 370 113 365.523 113 360Z" fill="white" stroke="#C8A97A" stroke-miterlimit="10"/>
<path d="M9.58062 353.72C8.95614 354.445 8.34395 355.182 7.72183 355.91C7.24926 356.457 6.99581 357.168 7.01285 357.9C7.01671 359.155 7.01391 360.41 7.01387 361.665C7.01387 362.417 7.02683 363.17 7.02507 363.922C7.024 364.373 7.01765 364.824 7 365.275C7.01683 365.83 7.19376 366.368 7.50818 366.819C7.61576 367.014 7.82439 367.073 7.939 366.889C8.26365 366.511 8.468 366.039 8.52446 365.537C8.51304 363.027 8.52297 360.517 8.51592 358.006C8.50459 357.629 8.6372 357.261 8.88533 356.983C9.45627 356.329 10.0172 355.666 10.5871 355.012C10.8706 354.686 11.0802 354.688 11.3656 355.013C11.9467 355.675 12.5229 356.341 13.1038 357.003C13.3631 357.288 13.5029 357.667 13.493 358.058C13.4828 360.491 13.5053 362.923 13.4753 365.356C13.5085 365.883 13.6787 366.392 13.968 366.828C14.0712 367.026 14.2865 367.065 14.4006 366.881C14.7339 366.494 14.9433 366.01 15 365.496C14.9851 362.986 14.9897 360.475 14.9959 357.965C15.0099 357.207 14.7419 356.472 14.2468 355.912C13.6214 355.187 13.0023 354.456 12.3793 353.729C12.2175 353.504 12.007 353.32 11.7645 353.194C11.5219 353.067 11.2541 353.001 10.9822 353C10.7104 352.999 10.4422 353.064 10.1988 353.189C9.95548 353.314 9.74379 353.495 9.58062 353.72Z" fill="#C8A97A"/>
<path d="M101.581 353.72C100.956 354.445 100.344 355.182 99.7218 355.91C99.2493 356.457 98.9958 357.168 99.0129 357.9C99.0167 359.155 99.0139 360.41 99.0139 361.665C99.0139 362.417 99.0268 363.17 99.0251 363.922C99.024 364.373 99.0176 364.824 99 365.275C99.0168 365.83 99.1938 366.368 99.5082 366.819C99.6158 367.014 99.8244 367.073 99.939 366.889C100.264 366.511 100.468 366.039 100.524 365.537C100.513 363.027 100.523 360.517 100.516 358.006C100.505 357.629 100.637 357.261 100.885 356.983C101.456 356.329 102.017 355.666 102.587 355.012C102.871 354.686 103.08 354.688 103.366 355.013C103.947 355.675 104.523 356.341 105.104 357.003C105.363 357.288 105.503 357.667 105.493 358.058C105.483 360.491 105.505 362.923 105.475 365.356C105.509 365.883 105.679 366.392 105.968 366.828C106.071 367.026 106.287 367.065 106.401 366.881C106.734 366.494 106.943 366.01 107 365.496C106.985 362.986 106.99 360.475 106.996 357.965C107.01 357.207 106.742 356.472 106.247 355.912C105.621 355.187 105.002 354.456 104.379 353.729C104.218 353.504 104.007 353.32 103.764 353.194C103.522 353.067 103.254 353.001 102.982 353C102.71 352.999 102.442 353.064 102.199 353.189C101.955 353.314 101.744 353.495 101.581 353.72Z" fill="#C8A97A"/>
<path d="M12.9906 358.057C12.3658 357.278 11.5962 356.699 10.9236 356C10.3123 356.603 9.72805 357.173 9.15512 357.751C9.08613 357.85 9.03386 357.956 9 358.068L9.00497 358.068L9.00497 363.531L9.0044 363.531L9.0044 364C10.3129 364 11.7175 363.999 12.9905 363.999L12.9905 363.53C13.0235 363.53 12.9575 363.531 12.9906 363.531L12.9906 358.068L12.9998 358.068L12.9906 358.057Z" fill="#C8A97A"/>
<path d="M104.991 358.057C104.366 357.278 103.596 356.699 102.924 356C102.312 356.603 101.728 357.173 101.155 357.751C101.086 357.85 101.034 357.956 101 358.068L101.005 358.068L101.005 363.531L101.004 363.531L101.004 364C102.313 364 103.718 363.999 104.99 363.999L104.99 363.53C105.023 363.53 104.958 363.531 104.991 363.531L104.991 358.068L105 358.068L104.991 358.057Z" fill="#C8A97A"/>
<path d="M78.1992 302C83.7221 302 88.1992 297.523 88.1992 292C88.1992 286.477 83.7221 282 78.1992 282C72.6764 282 68.1992 286.477 68.1992 292C68.1992 297.523 72.6764 302 78.1992 302Z" fill="white" stroke="#C8A97A" stroke-miterlimit="10"/>
<path d="M73.1992 292V296.286C73.1994 296.475 73.2697 296.657 73.3947 296.791C73.5197 296.924 73.6891 297 73.8659 297H77.1992V292H73.1992Z" fill="#C8A97A"/>
<path d="M82.5742 288.851H80.5967C80.7213 288.757 80.838 288.65 80.9454 288.531C81.1877 288.251 81.3237 287.872 81.3237 287.477C81.3237 287.083 81.1877 286.704 80.9454 286.424C80.6993 286.152 80.3707 286 80.0289 286C79.687 286 79.3585 286.152 79.1123 286.424C78.5812 287.092 78.2667 287.949 78.2217 288.851H78.1767C78.1311 287.949 77.8167 287.092 77.2861 286.424C77.0398 286.152 76.7113 286.001 76.3695 286.001C76.0277 286.001 75.6992 286.152 75.453 286.424C75.211 286.704 75.0752 287.083 75.0751 287.477C75.075 287.872 75.2105 288.25 75.4524 288.531C75.5601 288.65 75.677 288.757 75.8017 288.851H73.8242C73.6585 288.852 73.4997 288.927 73.3826 289.061C73.2654 289.196 73.1995 289.378 73.1992 289.567V290.642C73.1992 290.737 73.2322 290.828 73.2908 290.895C73.3494 290.962 73.4289 291 73.5117 291H77.5742V289.567H78.8242V291H82.8867C82.9696 291 83.0491 290.962 83.1077 290.895C83.1663 290.828 83.1992 290.737 83.1992 290.642V289.567C83.1991 289.378 83.1332 289.195 83.016 289.061C82.8988 288.927 82.7399 288.851 82.5742 288.851ZM77.5373 288.828C77.5015 288.848 77.4614 288.856 77.4216 288.851C76.8559 288.745 76.3275 288.459 75.896 288.026C75.7702 287.88 75.6996 287.683 75.6996 287.477C75.6996 287.272 75.7702 287.075 75.896 286.929C75.958 286.857 76.0317 286.8 76.113 286.761C76.1943 286.722 76.2814 286.702 76.3695 286.702C76.4575 286.702 76.5447 286.722 76.626 286.761C76.7072 286.8 76.781 286.857 76.8429 286.929C77.2642 287.414 77.6829 288.655 77.5373 288.828ZM78.976 288.851C78.8873 288.851 78.861 288.828 78.861 288.828C78.7154 288.655 79.1341 287.414 79.5553 286.929C79.6823 286.785 79.854 286.705 80.0325 286.706C80.2111 286.707 80.382 286.789 80.5076 286.935C80.6331 287.08 80.7031 287.277 80.7021 287.482C80.7011 287.686 80.6292 287.882 80.5022 288.026C80.0707 288.459 79.542 288.745 78.976 288.851Z" fill="#C8A97A"/>
<path d="M79.1992 292V297H82.5326C82.7094 297 82.8789 296.925 83.0039 296.791C83.1289 296.657 83.1992 296.475 83.1992 296.286V292H79.1992Z" fill="#C8A97A"/>
</g>
<defs>
<clipPath id="clip0">
<rect width="712" height="115" fill="white" transform="translate(0 712) rotate(-90)"/>
</clipPath>
</defs>
</svg>
