<svg width="113" height="710" viewBox="0 0 113 710" fill="none" xmlns="http://www.w3.org/2000/svg">
<path fill-rule="evenodd" clip-rule="evenodd" d="M15.842 686.53C23.093 701.156 32.476 706.033 41.3665 706.033L70.6274 706.033C77.0637 706.033 82.587 704.745 87.2882 701.722C91.9887 698.699 96.0052 693.853 99.2732 686.493C105.845 671.693 109.248 647.061 109.248 607.88L109.248 54.2573C109.248 52.917 108.693 52.027 107.709 51.2598C106.638 50.425 105.154 49.813 103.417 49.1326L103.142 49.025C101.574 48.4125 99.801 47.7197 98.4222 46.7269C96.8732 45.6116 95.6734 44.0117 95.6734 41.6473C95.6734 36.5065 94.3471 26.9374 90.4642 18.7093C86.5847 10.4883 80.3536 3.96106 70.6274 3.96106L41.3665 3.96106C32.0366 3.96106 25.7968 10.5377 21.8077 18.8333C17.8251 27.1151 16.3205 36.6858 16.3205 41.6473C16.3205 43.6603 15.0458 45.0684 13.7135 46.0683C12.5574 46.936 11.0792 47.7002 9.70311 48.4116C9.4993 48.5169 9.29774 48.6211 9.09979 48.7244C7.48423 49.5667 6.04731 50.3708 5.00783 51.3151C4.0057 52.2256 3.49997 53.1488 3.49997 54.2573L3.5 608.639C3.5 647.368 8.54812 671.817 15.842 686.53ZM13.158 687.88C5.55746 672.548 0.499997 647.546 0.499996 608.639L0.499972 54.2573C0.499972 52.0233 1.59681 50.3447 2.99852 49.0712C4.36289 47.8317 6.1311 46.8696 7.72067 46.0408C7.93386 45.9296 8.1435 45.821 8.34927 45.7144C9.75611 44.9853 10.9819 44.35 11.9211 43.6452C12.9926 42.8409 13.3205 42.217 13.3205 41.6473C13.3205 36.2778 14.9078 26.2499 19.1078 17.5159C23.3012 8.79565 30.3344 0.939208 41.3665 0.939207L70.6274 0.939206C82.0174 0.939205 89.0593 8.69317 93.1737 17.412C97.2848 26.1237 98.6734 36.1533 98.6734 41.6473C98.6734 42.7773 99.1705 43.5511 100.167 44.2685C101.229 45.0336 102.681 45.6022 104.395 46.2734L104.504 46.3162C106.161 46.9651 108.071 47.7205 109.545 48.8702C111.107 50.0876 112.248 51.7993 112.248 54.2573L112.248 607.88C112.248 647.093 108.864 672.293 102.012 687.726C98.5679 695.483 94.2134 700.854 88.9026 704.269C83.5925 707.684 77.4642 709.055 70.6274 709.055L41.3665 709.055C31.1016 709.055 20.8014 703.297 13.158 687.88Z" fill="#5F6352"/>
<path fill-rule="evenodd" clip-rule="evenodd" d="M17.475 111.624C17.1992 111.61 16.9868 111.374 17.0006 111.096C17.2505 106.063 17.2719 100.734 17.2938 95.2937C17.3049 92.5343 17.3161 89.7465 17.3573 86.9546C17.4794 78.6768 17.8656 70.3875 19.3071 62.8219L19.3073 62.8211C20.2104 58.121 21.3528 52.6877 23.6972 48.4294C26.0593 44.139 29.6737 40.9915 35.4844 40.9915L74.0968 40.9915C78.9339 40.9915 82.8497 43.0443 85.7125 46.8302C88.5583 50.5937 90.3481 56.0459 91.0331 62.8509C93.1488 75.9552 93.1488 93.4504 93.1488 108.465L93.1488 108.495C93.1488 108.773 92.925 108.999 92.6488 108.999C92.3727 108.999 92.1488 108.773 92.1488 108.495C92.1488 93.4405 92.1474 76.0146 90.0437 62.9977C90.0421 62.9877 90.0408 62.9776 90.0398 62.9675C89.3662 56.2581 87.612 51.0047 84.917 47.4406C82.2368 43.896 78.6111 41.9987 74.0968 41.9987L35.4844 41.9987C30.1338 41.9987 26.81 44.8523 24.5718 48.9179C22.3158 53.0156 21.1959 58.2932 20.289 63.0125C18.8649 70.4875 18.4791 78.7038 18.3572 86.9696C18.3163 89.7364 18.3051 92.5116 18.294 95.2653C18.272 100.72 18.2503 106.091 17.9994 111.147C17.9856 111.424 17.7508 111.638 17.475 111.624Z" fill="#5F6352"/>
<path fill-rule="evenodd" clip-rule="evenodd" d="M18.1875 111.23L18.1875 308.279L17.1875 308.279L17.1875 111.23L18.1875 111.23Z" fill="#5F6352"/>
<path fill-rule="evenodd" clip-rule="evenodd" d="M93.1484 101.81L93.1484 308.127L92.1484 308.127L92.1484 101.81L93.1484 101.81Z" fill="#5F6352"/>
<path fill-rule="evenodd" clip-rule="evenodd" d="M46 470.586L46 360.039L66.3062 360.039L66.3062 470.586L46 470.586ZM47 469.579L65.3062 469.579L65.3062 361.047L47 361.047L47 469.579Z" fill="#5F6352"/>
<path fill-rule="evenodd" clip-rule="evenodd" d="M87.1719 603.059L87.1719 562.277L87.2804 562.139C89.5742 559.231 92.2443 556.645 95.2196 554.45L95.5001 554.243L95.7903 554.436C98.9986 556.567 101.881 559.159 104.345 562.13L104.461 562.27L104.461 603.127L104.248 603.278C101.875 604.951 98.4081 605.762 95.1945 605.762C93.5811 605.762 92.0086 605.558 90.6449 605.142C89.287 604.728 88.1 604.093 87.3011 603.203L87.1719 603.059ZM88.1719 602.664C88.8087 603.306 89.7591 603.819 90.9347 604.178C92.187 604.56 93.6593 604.754 95.1945 604.754C98.1778 604.754 101.312 604.02 103.461 602.598L103.461 562.636C101.16 559.889 98.4906 557.477 95.5299 555.471C92.7856 557.533 90.313 559.938 88.1719 562.629L88.1719 602.664Z" fill="#5F6352"/>
<path fill-rule="evenodd" clip-rule="evenodd" d="M6.62891 603.059L6.6289 562.277L6.7374 562.139C9.03119 559.231 11.7013 556.645 14.6766 554.45L14.9571 554.243L15.2473 554.436C18.4556 556.567 21.3376 559.159 23.8022 562.13L23.9185 562.27L23.9185 603.127L23.7052 603.278C21.3325 604.951 17.8651 605.762 14.6515 605.762C13.0382 605.762 11.4656 605.558 10.102 605.142C8.74401 604.728 7.557 604.093 6.75814 603.203L6.62891 603.059ZM7.62891 602.664C8.26577 603.306 9.21609 603.819 10.3917 604.178C11.644 604.56 13.1163 604.754 14.6515 604.754C17.6348 604.754 20.7689 604.02 22.9185 602.598L22.9185 562.636C20.6172 559.889 17.9477 557.477 14.987 555.472C12.2427 557.533 9.77003 559.938 7.6289 562.629L7.62891 602.664Z" fill="#5F6352"/>
<path fill-rule="evenodd" clip-rule="evenodd" d="M75.709 262.445L75.709 246.996L80.2339 242.438L80.2339 224.824L92.1969 224.824L92.1969 225.831L81.2339 225.831L81.2339 242.856L76.709 247.413L76.709 261.438L92.1969 261.438L92.1969 262.445L75.709 262.445Z" fill="#5F6352"/>
<path fill-rule="evenodd" clip-rule="evenodd" d="M17.6875 262.141L17.6875 261.133L34.8346 261.133L34.8346 247.128L29.8572 242.722L29.8572 225.83L17.6875 225.83L17.6875 224.823L30.8572 224.823L30.8572 242.266L35.8346 246.672L35.8346 262.141L17.6875 262.141Z" fill="#5F6352"/>
<path opacity="0.6" fill-rule="evenodd" clip-rule="evenodd" d="M22.2578 297.643C22.2578 300.15 24.2093 302.155 26.5844 302.155C28.9595 302.155 30.9109 300.15 30.9109 297.643C30.9109 295.137 28.9595 293.132 26.5844 293.132C24.2093 293.132 22.2578 295.137 22.2578 297.643ZM26.5844 303.162C23.6282 303.162 21.2578 300.677 21.2578 297.643C21.2578 294.61 23.6282 292.125 26.5844 292.125C29.5405 292.125 31.9109 294.61 31.9109 297.643C31.9109 300.677 29.5405 303.162 26.5844 303.162Z" fill="#5F6352"/>
<path opacity="0.6" fill-rule="evenodd" clip-rule="evenodd" d="M25.2754 284.425C25.2754 286.931 27.2268 288.936 29.6019 288.936C31.977 288.936 33.9285 286.931 33.9285 284.425C33.9285 281.918 31.977 279.913 29.6019 279.913C27.2268 279.913 25.2754 281.918 25.2754 284.425ZM29.6019 289.943C26.6458 289.943 24.2754 287.458 24.2754 284.425C24.2754 281.391 26.6458 278.906 29.6019 278.906C32.5581 278.906 34.9285 281.391 34.9285 284.425C34.9285 287.458 32.5581 289.943 29.6019 289.943Z" fill="#5F6352"/>
<path opacity="0.6" fill-rule="evenodd" clip-rule="evenodd" d="M22.2578 271.208C22.2578 273.714 24.2093 275.719 26.5844 275.719C28.9595 275.719 30.9109 273.714 30.9109 271.208C30.9109 268.702 28.9595 266.697 26.5844 266.697C24.2093 266.697 22.2578 268.702 22.2578 271.208ZM26.5844 276.727C23.6282 276.727 21.2578 274.241 21.2578 271.208C21.2578 268.175 23.6282 265.689 26.5844 265.689C29.5405 265.689 31.9109 268.175 31.9109 271.208C31.9109 274.241 29.5405 276.727 26.5844 276.727Z" fill="#5F6352"/>
<path opacity="0.6" fill-rule="evenodd" clip-rule="evenodd" d="M79.7246 297.794C79.7246 300.3 81.6761 302.305 84.0512 302.305C86.4263 302.305 88.3777 300.3 88.3777 297.794C88.3777 295.288 86.4263 293.283 84.0512 293.283C81.6761 293.283 79.7246 295.288 79.7246 297.794ZM84.0512 303.312C81.095 303.312 78.7246 300.827 78.7246 297.794C78.7246 294.761 81.095 292.275 84.0512 292.275C87.0073 292.275 89.3777 294.761 89.3777 297.794C89.3777 300.827 87.0073 303.312 84.0512 303.312Z" fill="#5F6352"/>
<path opacity="0.6" fill-rule="evenodd" clip-rule="evenodd" d="M76.709 284.577C76.709 287.083 78.6604 289.088 81.0355 289.088C83.4106 289.088 85.3621 287.083 85.3621 284.577C85.3621 282.071 83.4106 280.066 81.0355 280.066C78.6604 280.066 76.709 282.071 76.709 284.577ZM81.0355 290.096C78.0794 290.096 75.709 287.61 75.709 284.577C75.709 281.544 78.0794 279.058 81.0355 279.058C83.9917 279.058 86.3621 281.544 86.3621 284.577C86.3621 287.61 83.9917 290.096 81.0355 290.096Z" fill="#5F6352"/>
<path opacity="0.6" fill-rule="evenodd" clip-rule="evenodd" d="M79.7246 271.208C79.7246 273.714 81.6761 275.719 84.0512 275.719C86.4263 275.719 88.3778 273.714 88.3778 271.208C88.3778 268.702 86.4263 266.697 84.0512 266.697C81.6761 266.697 79.7246 268.702 79.7246 271.208ZM84.0512 276.727C81.095 276.727 78.7246 274.241 78.7246 271.208C78.7246 268.175 81.095 265.689 84.0512 265.689C87.0074 265.689 89.3778 268.175 89.3778 271.208C89.3778 274.241 87.0074 276.727 84.0512 276.727Z" fill="#5F6352"/>
<path fill-rule="evenodd" clip-rule="evenodd" d="M9.94689 625.508L9.93945 624.997L26.8397 624.997L26.8397 567.265L44.1293 567.265L44.1293 601.297L50.8216 601.297L50.8216 538.343L26.8397 538.343L26.8397 537.34L20.6303 523.56C18.3608 518.524 17.1866 513.057 17.1866 507.526L17.1866 307.469L92.9981 307.623L92.9981 444.86L92.1445 445.216C92.2038 445.275 92.3568 445.39 92.5758 445.349C92.7631 445.314 92.8572 445.188 92.8804 445.154C92.9107 445.111 92.9259 445.072 92.9315 445.055C92.9244 445.085 92.9117 445.162 92.8976 445.306C92.8702 445.585 92.8452 446.026 92.8231 446.619C92.7792 447.8 92.7482 449.547 92.7281 451.728C92.6879 456.088 92.6911 462.167 92.7194 468.89C92.7759 482.337 92.9322 498.352 93.0399 508.333C93.1089 514.73 91.653 521.05 88.7945 526.763L83.0434 538.263L83.0434 624.638C83.4283 624.61 84.0676 624.576 85.1293 624.542C87.5128 624.466 92.0438 624.39 100.643 624.39L101.162 624.39L101.143 624.912C100.463 643.009 98.8397 657.323 96.3988 668.415C93.9591 679.502 90.6954 687.407 86.7113 692.655L86.7077 692.659C84.8636 695.031 82.5194 696.96 79.8447 698.307C77.1699 699.654 74.2315 700.385 71.2417 700.449L71.2312 700.449L42.2847 700.449C40.2425 700.553 38.2 700.247 36.2766 699.547C34.3494 698.846 32.5805 697.765 31.0737 696.366C25.9426 691.621 22.071 684.801 19.1442 677.281C16.2153 669.755 14.219 661.492 12.8581 653.829C11.4969 646.164 10.7693 639.086 10.3819 633.926C10.1882 631.345 10.0795 629.243 10.0191 627.784C9.989 627.055 9.97095 626.487 9.96043 626.101C9.95517 625.908 9.95179 625.76 9.94972 625.661L9.94754 625.547L9.94705 625.519L9.94689 625.508C9.94688 625.508 9.94689 625.508 10.4468 625.501L9.94689 625.508ZM10.9582 626.005C10.9588 626.027 10.9594 626.05 10.9601 626.073C10.9704 626.455 10.9883 627.019 11.0183 627.743C11.0782 629.191 11.1863 631.282 11.379 633.85C11.7647 638.987 12.4888 646.029 13.8425 653.652C15.1965 661.276 17.1783 669.469 20.0752 676.913C22.9742 684.362 26.776 691.025 31.7503 695.624L31.751 695.625C33.16 696.933 34.8141 697.944 36.6163 698.6C38.4185 699.255 40.3325 699.542 42.2461 699.442L42.259 699.442L71.2259 699.442C74.0657 699.381 76.8568 698.685 79.3974 697.406C81.9388 696.126 84.1663 694.293 85.9188 692.04C89.777 686.957 92.9983 679.214 95.4225 668.197C97.8224 657.291 99.4338 643.211 100.123 625.397C91.8645 625.4 87.4805 625.474 85.161 625.549C83.9767 625.586 83.3353 625.624 82.9933 625.652C82.8222 625.665 82.7305 625.676 82.6859 625.683C82.6804 625.683 82.6759 625.684 82.6721 625.685L82.0434 625.896L82.0434 538.023L87.9014 526.31C90.688 520.741 92.1072 514.58 92.0399 508.344C91.9323 498.362 91.7759 482.344 91.7194 468.895C91.6911 462.17 91.6878 456.086 91.7281 451.718C91.7483 449.535 91.7793 447.777 91.8238 446.581C91.846 445.985 91.8718 445.519 91.9024 445.207C91.9172 445.057 91.9352 444.917 91.9608 444.813C91.9659 444.792 91.9769 444.747 91.9981 444.695L91.9981 308.628L18.1866 308.478L18.1866 507.526C18.1866 512.914 19.3303 518.239 21.5409 523.144L27.8397 537.122L27.8397 537.335L51.8216 537.335L51.8216 602.304L43.1293 602.304L43.1293 568.272L27.8397 568.272L27.8397 626.005L10.9582 626.005Z" fill="#5F6352"/>
<path fill-rule="evenodd" clip-rule="evenodd" d="M42.9785 618.56L42.9785 610.111L65.1505 610.111L65.1505 537.338L83.0434 537.338L83.0434 545.942L71.5803 545.942L71.5803 618.715L65.6471 618.715L42.9785 618.56ZM43.9785 617.559L65.6505 617.708L70.5803 617.708L70.5803 544.934L82.0434 544.934L82.0434 538.345L66.1505 538.345L66.1505 611.118L43.9785 611.118L43.9785 617.559Z" fill="#5F6352"/>
<path d="M18 139.221L18 177.963L47.8643 177.963L47.8643 139.221L18 139.221Z" fill="#D1C1B4" fill-opacity="0.08"/>
<path fill-rule="evenodd" clip-rule="evenodd" d="M17.3379 178.127L17.3379 138.378L48.2021 138.378L48.2021 178.127L17.3379 178.127ZM18.3379 177.12L47.2021 177.12L47.2021 139.386L18.3379 139.386L18.3379 177.12Z" fill="#5F6352"/>
<path d="M17.8379 108.192L17.8379 138.881L47.7022 138.881L47.7021 108.192L17.8379 108.192Z" fill="#D1C1B4" fill-opacity="0.08"/>
<path fill-rule="evenodd" clip-rule="evenodd" d="M17.3379 139.385L17.3379 107.688L48.2021 107.688L48.2022 139.385L17.3379 139.385ZM18.3379 138.377L47.2022 138.377L47.2021 108.695L18.3379 108.695L18.3379 138.377Z" fill="#5F6352"/>
<path fill-rule="evenodd" clip-rule="evenodd" d="M47.7022 139.133L17.8379 139.133L17.8379 138.628L47.7022 138.628L47.7022 139.133Z" fill="#5F6352"/>
<path d="M62.4824 138.882L62.4824 177.623L92.3467 177.623L92.3467 138.882L62.4824 138.882Z" fill="#D1C1B4" fill-opacity="0.08"/>
<path fill-rule="evenodd" clip-rule="evenodd" d="M62 178.125L62 138.376L92.8642 138.376L92.8642 178.125L62 178.125ZM63 177.118L91.8642 177.118L91.8642 139.384L63 139.384L63 177.118Z" fill="#5F6352"/>
<path d="M62.4824 108.192L62.4824 138.881L92.3467 138.881L92.3467 108.192L62.4824 108.192Z" fill="#D1C1B4" fill-opacity="0.08"/>
<path fill-rule="evenodd" clip-rule="evenodd" d="M61.9824 139.385L61.9824 107.688L92.8467 107.688L92.8467 139.385L61.9824 139.385ZM62.9824 138.377L91.8467 138.377L91.8467 108.695L62.9824 108.695L62.9824 138.377Z" fill="#5F6352"/>
<path fill-rule="evenodd" clip-rule="evenodd" d="M92.3462 139.133L62.6328 139.133L62.6328 138.628L92.3462 138.628L92.3462 139.133Z" fill="#5F6352"/>
<path opacity="0.6" fill-rule="evenodd" clip-rule="evenodd" d="M45 331.825C45 334.401 47.0721 336.489 49.6282 336.489C52.1843 336.489 54.2564 334.401 54.2564 331.825C54.2564 329.25 52.1843 327.162 49.6282 327.162C47.0721 327.162 45 329.25 45 331.825ZM49.6282 337.496C46.5198 337.496 44 334.957 44 331.825C44 328.694 46.5198 326.155 49.6282 326.155C52.7366 326.155 55.2564 328.694 55.2564 331.825C55.2564 334.957 52.7366 337.496 49.6282 337.496Z" fill="#5F6352"/>
<path opacity="0.6" fill-rule="evenodd" clip-rule="evenodd" d="M58.1211 331.825C58.1211 334.401 60.1932 336.489 62.7493 336.489C65.3054 336.489 67.3775 334.401 67.3775 331.825C67.3775 329.25 65.3054 327.162 62.7493 327.162C60.1932 327.162 58.1211 329.25 58.1211 331.825ZM62.7493 337.496C59.6409 337.496 57.1211 334.957 57.1211 331.825C57.1211 328.694 59.6409 326.155 62.7493 326.155C65.8576 326.155 68.3775 328.694 68.3775 331.825C68.3775 334.957 65.8576 337.496 62.7493 337.496Z" fill="#5F6352"/>
<path opacity="0.6" fill-rule="evenodd" clip-rule="evenodd" d="M45 344.892C45 347.467 47.0721 349.555 49.6282 349.555C52.1843 349.555 54.2564 347.467 54.2564 344.892C54.2564 342.316 52.1843 340.229 49.6282 340.229C47.0721 340.229 45 342.316 45 344.892ZM49.6282 350.562C46.5198 350.562 44 348.024 44 344.892C44 341.76 46.5198 339.221 49.6282 339.221C52.7366 339.221 55.2564 341.76 55.2564 344.892C55.2564 348.024 52.7366 350.562 49.6282 350.562Z" fill="#5F6352"/>
<path opacity="0.6" fill-rule="evenodd" clip-rule="evenodd" d="M58.1211 344.892C58.1211 347.467 60.1932 349.555 62.7493 349.555C65.3054 349.555 67.3775 347.467 67.3775 344.892C67.3775 342.316 65.3054 340.229 62.7493 340.229C60.1932 340.229 58.1211 342.316 58.1211 344.892ZM62.7493 350.562C59.6409 350.562 57.1211 348.024 57.1211 344.892C57.1211 341.76 59.6409 339.221 62.7493 339.221C65.8576 339.221 68.3775 341.76 68.3775 344.892C68.3775 348.024 65.8576 350.562 62.7493 350.562Z" fill="#5F6352"/>
<path opacity="0.6" fill-rule="evenodd" clip-rule="evenodd" d="M45 481.019C45 483.594 47.0721 485.682 49.6282 485.682C52.1843 485.682 54.2564 483.594 54.2564 481.019C54.2564 478.443 52.1843 476.356 49.6282 476.356C47.0721 476.356 45 478.443 45 481.019ZM49.6282 486.689C46.5198 486.689 44 484.151 44 481.019C44 477.887 46.5198 475.348 49.6282 475.348C52.7366 475.348 55.2564 477.887 55.2564 481.019C55.2564 484.151 52.7366 486.689 49.6282 486.689Z" fill="#5F6352"/>
<path opacity="0.6" fill-rule="evenodd" clip-rule="evenodd" d="M58.1211 481.019C58.1211 483.594 60.1932 485.682 62.7493 485.682C65.3054 485.682 67.3775 483.594 67.3775 481.019C67.3775 478.443 65.3054 476.356 62.7493 476.356C60.1932 476.356 58.1211 478.443 58.1211 481.019ZM62.7493 486.689C59.6409 486.689 57.1211 484.151 57.1211 481.019C57.1211 477.887 59.6409 475.348 62.7493 475.348C65.8577 475.348 68.3775 477.887 68.3775 481.019C68.3775 484.151 65.8577 486.689 62.7493 486.689Z" fill="#5F6352"/>
<path opacity="0.6" fill-rule="evenodd" clip-rule="evenodd" d="M45 494.085C45 496.661 47.0721 498.748 49.6282 498.748C52.1842 498.748 54.2564 496.661 54.2564 494.085C54.2564 491.51 52.1842 489.422 49.6282 489.422C47.0721 489.422 45 491.51 45 494.085ZM49.6282 499.756C46.5198 499.756 44 497.217 44 494.085C44 490.953 46.5198 488.414 49.6282 488.414C52.7365 488.414 55.2564 490.953 55.2564 494.085C55.2564 497.217 52.7365 499.756 49.6282 499.756Z" fill="#5F6352"/>
<path opacity="0.6" fill-rule="evenodd" clip-rule="evenodd" d="M58.1211 494.085C58.1211 496.661 60.1932 498.748 62.7493 498.748C65.3054 498.748 67.3775 496.661 67.3775 494.085C67.3775 491.51 65.3054 489.422 62.7493 489.422C60.1932 489.422 58.1211 491.51 58.1211 494.085ZM62.7493 499.756C59.6409 499.756 57.1211 497.217 57.1211 494.085C57.1211 490.953 59.6409 488.414 62.7493 488.414C65.8576 488.414 68.3775 490.953 68.3775 494.085C68.3775 497.217 65.8576 499.756 62.7493 499.756Z" fill="#5F6352"/>
<path opacity="0.6" fill-rule="evenodd" clip-rule="evenodd" d="M75.3496 498.691L75.3496 486.894L89.6226 486.894L89.6226 498.691L75.3496 498.691ZM76.3496 497.684L88.6226 497.684L88.6226 487.902L76.3496 487.902L76.3496 497.684Z" fill="#5F6352"/>
<path opacity="0.6" fill-rule="evenodd" clip-rule="evenodd" d="M75.3496 478.637L75.3496 466.839L89.6226 466.839L89.6226 478.637L75.3496 478.637ZM76.3496 477.629L88.6226 477.629L88.6226 467.847L76.3496 467.847L76.3496 477.629Z" fill="#5F6352"/>
<path opacity="0.6" fill-rule="evenodd" clip-rule="evenodd" d="M75.3496 458.582L75.3496 446.785L89.6226 446.785L89.6226 458.582L75.3496 458.582ZM76.3496 457.574L88.6226 457.574L88.6226 447.792L76.3496 447.792L76.3496 457.574Z" fill="#5F6352"/>
<path opacity="0.6" fill-rule="evenodd" clip-rule="evenodd" d="M75.3496 438.529L75.3496 426.732L89.6226 426.732L89.6226 438.529L75.3496 438.529ZM76.3496 437.522L88.6226 437.522L88.6226 427.739L76.3496 427.739L76.3496 437.522Z" fill="#5F6352"/>
<path opacity="0.6" fill-rule="evenodd" clip-rule="evenodd" d="M75.3496 418.322L75.3496 406.525L89.6226 406.525L89.6226 418.322L75.3496 418.322ZM76.3496 417.315L88.6226 417.315L88.6226 407.532L76.3496 407.532L76.3496 417.315Z" fill="#5F6352"/>
<path opacity="0.6" fill-rule="evenodd" clip-rule="evenodd" d="M75.3496 398.268L75.3496 386.47L89.6226 386.47L89.6226 398.268L75.3496 398.268ZM76.3496 397.26L88.6226 397.26L88.6226 387.478L76.3496 387.478L76.3496 397.26Z" fill="#5F6352"/>
<path opacity="0.6" fill-rule="evenodd" clip-rule="evenodd" d="M75.3496 378.215L75.3496 366.418L89.6226 366.418L89.6226 378.215L75.3496 378.215ZM76.3496 377.207L88.6226 377.207L88.6226 367.425L76.3496 367.425L76.3496 377.207Z" fill="#5F6352"/>
<path opacity="0.6" fill-rule="evenodd" clip-rule="evenodd" d="M75.3496 358.16L75.3496 346.363L89.6226 346.363L89.6226 358.16L75.3496 358.16ZM76.3496 357.153L88.6226 357.153L88.6226 347.37L76.3496 347.37L76.3496 357.153Z" fill="#5F6352"/>
<path opacity="0.6" fill-rule="evenodd" clip-rule="evenodd" d="M75.3496 337.953L75.3496 326.156L89.6226 326.156L89.6226 337.953L75.3496 337.953ZM76.3496 336.946L88.6226 336.946L88.6226 327.163L76.3496 327.163L76.3496 336.946Z" fill="#5F6352"/>
<path opacity="0.6" fill-rule="evenodd" clip-rule="evenodd" d="M20.3535 499.299L20.3535 487.501L34.6265 487.501L34.6265 499.299L20.3535 499.299ZM21.3535 498.291L33.6265 498.291L33.6265 488.509L21.3535 488.509L21.3535 498.291Z" fill="#5F6352"/>
<path opacity="0.6" fill-rule="evenodd" clip-rule="evenodd" d="M20.3535 479.094L20.3535 467.296L34.6265 467.296L34.6265 479.094L20.3535 479.094ZM21.3535 478.086L33.6265 478.086L33.6265 468.304L21.3535 468.304L21.3535 478.086Z" fill="#5F6352"/>
<path opacity="0.6" fill-rule="evenodd" clip-rule="evenodd" d="M20.3535 459.039L20.3535 447.242L34.6265 447.242L34.6265 459.039L20.3535 459.039ZM21.3535 458.032L33.6265 458.032L33.6265 448.249L21.3535 448.249L21.3535 458.032Z" fill="#5F6352"/>
<path opacity="0.6" fill-rule="evenodd" clip-rule="evenodd" d="M20.3535 438.984L20.3535 427.187L34.6265 427.187L34.6265 438.984L20.3535 438.984ZM21.3535 437.977L33.6265 437.977L33.6265 428.195L21.3535 428.195L21.3535 437.977Z" fill="#5F6352"/>
<path opacity="0.6" fill-rule="evenodd" clip-rule="evenodd" d="M20.3535 418.93L20.3535 407.132L34.6265 407.132L34.6265 418.93L20.3535 418.93ZM21.3535 417.922L33.6265 417.922L33.6265 408.14L21.3535 408.14L21.3535 417.922Z" fill="#5F6352"/>
<path opacity="0.6" fill-rule="evenodd" clip-rule="evenodd" d="M20.3535 398.725L20.3535 386.927L34.6265 386.927L34.6265 398.725L20.3535 398.725ZM21.3535 397.717L33.6265 397.717L33.6265 387.935L21.3535 387.935L21.3535 397.717Z" fill="#5F6352"/>
<path opacity="0.6" fill-rule="evenodd" clip-rule="evenodd" d="M20.3535 378.67L20.3535 366.872L34.6265 366.872L34.6265 378.67L20.3535 378.67ZM21.3535 377.662L33.6265 377.662L33.6265 367.88L21.3535 367.88L21.3535 377.662Z" fill="#5F6352"/>
<path opacity="0.6" fill-rule="evenodd" clip-rule="evenodd" d="M20.3535 358.615L20.3535 346.818L34.6265 346.818L34.6265 358.615L20.3535 358.615ZM21.3535 357.608L33.6265 357.608L33.6265 347.826L21.3535 347.826L21.3535 357.608Z" fill="#5F6352"/>
<path opacity="0.6" fill-rule="evenodd" clip-rule="evenodd" d="M20.3535 338.561L20.3535 326.763L34.6265 326.763L34.6265 338.561L20.3535 338.561ZM21.3535 337.553L33.6265 337.553L33.6265 327.771L21.3535 327.771L21.3535 337.553Z" fill="#5F6352"/>
<path opacity="0.6" fill-rule="evenodd" clip-rule="evenodd" d="M37.3418 689.459C37.3418 692.287 39.6165 694.578 42.4225 694.578C45.2285 694.578 47.5032 692.287 47.5032 689.459C47.5032 686.632 45.2285 684.34 42.4225 684.34C39.6165 684.34 37.3418 686.632 37.3418 689.459ZM42.4225 695.586C39.0642 695.586 36.3418 692.843 36.3418 689.459C36.3418 686.076 39.0642 683.333 42.4225 683.333C45.7808 683.333 48.5032 686.076 48.5032 689.459C48.5032 692.843 45.7808 695.586 42.4225 695.586Z" fill="#5F6352"/>
<path opacity="0.6" fill-rule="evenodd" clip-rule="evenodd" d="M51.8223 689.459C51.8223 692.287 54.097 694.578 56.903 694.578C59.7089 694.578 61.9837 692.287 61.9837 689.459C61.9837 686.632 59.7089 684.34 56.903 684.34C54.097 684.34 51.8223 686.632 51.8223 689.459ZM56.903 695.586C53.5447 695.586 50.8223 692.843 50.8223 689.459C50.8223 686.076 53.5447 683.333 56.903 683.333C60.2612 683.333 62.9837 686.076 62.9837 689.459C62.9837 692.843 60.2612 695.586 56.903 695.586Z" fill="#5F6352"/>
<path opacity="0.6" fill-rule="evenodd" clip-rule="evenodd" d="M66.3008 689.459C66.3008 692.287 68.5755 694.578 71.3815 694.578C74.1875 694.578 76.4622 692.287 76.4622 689.459C76.4622 686.632 74.1875 684.34 71.3815 684.34C68.5755 684.34 66.3008 686.632 66.3008 689.459ZM71.3815 695.586C68.0232 695.586 65.3008 692.843 65.3008 689.459C65.3008 686.076 68.0232 683.333 71.3815 683.333C74.7398 683.333 77.4622 686.076 77.4622 689.459C77.4622 692.843 74.7398 695.586 71.3815 695.586Z" fill="#5F6352"/>
<path opacity="0.6" fill-rule="evenodd" clip-rule="evenodd" d="M76.2559 678.371C76.2559 681.199 78.5306 683.49 81.3366 683.49C84.1425 683.49 86.4173 681.199 86.4173 678.371C86.4173 675.544 84.1425 673.252 81.3366 673.252C78.5306 673.252 76.2559 675.544 76.2559 678.371ZM81.3366 684.498C77.9783 684.498 75.2559 681.755 75.2559 678.371C75.2559 674.988 77.9783 672.245 81.3366 672.245C84.6948 672.245 87.4173 674.988 87.4173 678.371C87.4173 681.755 84.6948 684.498 81.3366 684.498Z" fill="#5F6352"/>
<path opacity="0.6" fill-rule="evenodd" clip-rule="evenodd" d="M25.8789 677.461C25.8789 680.288 28.1536 682.58 30.9596 682.58C33.7656 682.58 36.0403 680.288 36.0403 677.461C36.0403 674.634 33.7656 672.342 30.9596 672.342C28.1536 672.342 25.8789 674.634 25.8789 677.461ZM30.9596 683.588C27.6013 683.588 24.8789 680.845 24.8789 677.461C24.8789 674.078 27.6013 671.335 30.9596 671.335C34.3179 671.335 37.0403 674.078 37.0403 677.461C37.0403 680.845 34.3179 683.588 30.9596 683.588Z" fill="#5F6352"/>
<path opacity="0.6" fill-rule="evenodd" clip-rule="evenodd" d="M20.5996 663.483C20.5996 666.31 22.8743 668.602 25.6803 668.602C28.4863 668.602 30.761 666.31 30.761 663.483C30.761 660.656 28.4863 658.364 25.6803 658.364C22.8743 658.364 20.5996 660.656 20.5996 663.483ZM25.6803 669.609C22.322 669.609 19.5996 666.866 19.5996 663.483C19.5996 660.099 22.322 657.356 25.6803 657.356C29.0386 657.356 31.761 660.099 31.761 663.483C31.761 666.866 29.0386 669.609 25.6803 669.609Z" fill="#5F6352"/>
<path opacity="0.6" fill-rule="evenodd" clip-rule="evenodd" d="M16.8281 648.746C16.8281 651.574 19.1028 653.865 21.9088 653.865C24.7148 653.865 26.9895 651.574 26.9895 648.746C26.9895 645.919 24.7148 643.627 21.9088 643.627C19.1028 643.627 16.8281 645.919 16.8281 648.746ZM21.9088 654.873C18.5505 654.873 15.8281 652.13 15.8281 648.746C15.8281 645.363 18.5505 642.62 21.9088 642.62C25.2671 642.62 27.9895 645.363 27.9895 648.746C27.9895 652.13 25.2671 654.873 21.9088 654.873Z" fill="#5F6352"/>
<path opacity="0.6" fill-rule="evenodd" clip-rule="evenodd" d="M15.4707 634.162C15.4707 636.99 17.7454 639.282 20.5514 639.282C23.3574 639.282 25.6321 636.99 25.6321 634.162C25.6321 631.335 23.3574 629.043 20.5514 629.043C17.7454 629.043 15.4707 631.335 15.4707 634.162ZM20.5514 640.289C17.1931 640.289 14.4707 637.546 14.4707 634.162C14.4707 630.779 17.1931 628.036 20.5514 628.036C23.9097 628.036 26.6321 630.779 26.6321 634.162C26.6321 637.546 23.9097 640.289 20.5514 640.289Z" fill="#5F6352"/>
<path opacity="0.6" fill-rule="evenodd" clip-rule="evenodd" d="M80.9316 663.787C80.9316 666.615 83.2063 668.906 86.0123 668.906C88.8183 668.906 91.093 666.615 91.093 663.787C91.093 660.96 88.8183 658.668 86.0123 658.668C83.2063 658.668 80.9316 660.96 80.9316 663.787ZM86.0123 669.914C82.6541 669.914 79.9316 667.171 79.9316 663.787C79.9316 660.404 82.6541 657.661 86.0123 657.661C89.3706 657.661 92.093 660.404 92.093 663.787C92.093 667.171 89.3706 669.914 86.0123 669.914Z" fill="#5F6352"/>
<path opacity="0.6" fill-rule="evenodd" clip-rule="evenodd" d="M83.3437 649.201C83.3437 652.029 85.6185 654.321 88.4244 654.321C91.2304 654.321 93.5051 652.029 93.5051 649.201C93.5051 646.374 91.2304 644.082 88.4244 644.082C85.6185 644.082 83.3437 646.374 83.3437 649.201ZM88.4244 655.328C85.0662 655.328 82.3437 652.585 82.3437 649.201C82.3437 645.818 85.0662 643.075 88.4244 643.075C91.7827 643.075 94.5051 645.818 94.5051 649.201C94.5051 652.585 91.7827 655.328 88.4244 655.328Z" fill="#5F6352"/>
<path opacity="0.6" fill-rule="evenodd" clip-rule="evenodd" d="M84.7012 634.768C84.7012 637.595 86.9759 639.887 89.7819 639.887C92.5879 639.887 94.8626 637.595 94.8626 634.768C94.8626 631.941 92.5879 629.649 89.7819 629.649C86.9759 629.649 84.7012 631.941 84.7012 634.768ZM89.7819 640.895C86.4236 640.895 83.7012 638.152 83.7012 634.768C83.7012 631.384 86.4236 628.641 89.7819 628.641C93.1401 628.641 95.8626 631.384 95.8626 634.768C95.8626 638.152 93.1401 640.895 89.7819 640.895Z" fill="#5F6352"/>
<path fill-rule="evenodd" clip-rule="evenodd" d="M35.9722 308.254C35.8795 308.113 35.8629 307.935 35.9277 307.78L40.3011 297.3L40.3017 297.298C41.3333 294.779 43.0968 292.632 45.3609 291.14C47.6241 289.648 50.2818 288.88 52.9857 288.936L56.606 288.936C59.6169 288.97 62.5545 289.876 65.0684 291.545C67.5816 293.214 69.5651 295.576 70.7823 298.35L70.7832 298.352L75.0048 307.767C75.0747 307.923 75.0613 308.104 74.9692 308.248C74.8771 308.391 74.7189 308.478 74.5492 308.478L36.3887 308.479C36.2212 308.479 36.0649 308.394 35.9722 308.254ZM37.1412 307.471L73.7747 307.471L69.8702 298.762L69.8686 298.759C68.729 296.161 66.8715 293.949 64.5179 292.386C62.165 290.823 59.4156 289.975 56.5975 289.943L52.97 289.943C50.4659 289.89 48.0043 290.601 45.9084 291.982C43.8125 293.364 42.1802 295.351 41.2256 297.684L41.2243 297.687L37.1412 307.471Z" fill="#5F6352"/>
</svg>
