<svg width="115" height="713" viewBox="0 0 115 713" fill="none" xmlns="http://www.w3.org/2000/svg">
<g clip-path="url(#clip0)">
<path d="M76.2229 710.983L40.2816 710.983C24.2334 710.983 17.0452 692.503 11.3614 672.27C6.68072 655.813 2 624.519 1.99999 594.843L1.99997 93.4556C1.99997 78.213 16.878 32.4852 56.8313 2.00001C97.6205 33.5643 113 80.3713 113 95.6139L113 594.843C113 625.733 111.161 655.543 106.313 672.27C100.63 691.694 93.7756 711.658 76.2229 710.983Z" stroke="#5F6352" stroke-width="3" stroke-linecap="round" stroke-linejoin="round"/>
<path d="M25.0879 260.576L25.0879 120.805" stroke="#5F6352" stroke-linecap="round" stroke-linejoin="round"/>
<path d="M90.4355 120.805L90.4355 256.529" stroke="#5F6352" stroke-linecap="round" stroke-linejoin="round"/>
<path d="M25.0872 255.044L25.0872 451.345L19.5401 451.345L19.2695 483.725" stroke="#5F6352" stroke-linecap="round" stroke-linejoin="round"/>
<path d="M97.3355 531.484L97.3355 451.345L90.4355 451.345L90.4355 255.044" stroke="#5F6352" stroke-linecap="round" stroke-linejoin="round"/>
<path d="M19.1354 483.184L19.0001 625.653C19.0001 628.891 18.8648 660.327 29.9589 681.238L88.5412 681.238C97.4707 660.327 97.4707 635.772 97.4707 626.733L97.4707 531.483" stroke="#5F6352" stroke-linecap="round" stroke-linejoin="round"/>
<path d="M25.0879 126.066L25.3585 146.168L90.4349 145.628L90.4349 125.931C90.4349 94.3608 84.8879 71.5602 72.5761 66.2985L44.0291 66.2985C31.3114 70.7507 25.0879 88.6944 25.0879 126.066Z" stroke="#5F6352" stroke-linecap="round" stroke-linejoin="round"/>
<path fill-rule="evenodd" clip-rule="evenodd" d="M97.2109 540L97.2109 565L78.2109 565L78.2109 540L97.2109 540Z" fill="#F7EDE6" fill-opacity="0.24" stroke="#5F6352" stroke-miterlimit="2.6131"/>
<path d="M43.2109 540L43.2109 564L19.2109 564L19.2109 540L43.2109 540Z" fill="#F7EDE6" fill-opacity="0.24" stroke="#5F6352" stroke-miterlimit="2.6131"/>
<path fill-rule="evenodd" clip-rule="evenodd" d="M43.2109 488L43.2109 510L19.2109 510L19.2109 488L43.2109 488Z" fill="#F7EDE6" fill-opacity="0.24" stroke="#5F6352" stroke-miterlimit="2.6131"/>
<path fill-rule="evenodd" clip-rule="evenodd" d="M43.2176 465.78L43.2176 488.041L19 488.041L19 465.78L43.2176 465.78Z" fill="#D1C1B4" fill-opacity="0.08" stroke="#5F6352" stroke-miterlimit="2.6131"/>
<path fill-rule="evenodd" clip-rule="evenodd" d="M97.2109 488L97.2109 510L73.2109 510L73.2109 488L97.2109 488Z" fill="#F7EDE6" fill-opacity="0.24" stroke="#5F6352" stroke-miterlimit="2.6131"/>
<path fill-rule="evenodd" clip-rule="evenodd" d="M97.2109 466L97.2109 488L73.2109 488L73.2109 466L97.2109 466Z" fill="#D1C1B4" fill-opacity="0.08" stroke="#5F6352" stroke-miterlimit="2.6131"/>
<path fill-rule="evenodd" clip-rule="evenodd" d="M25.2109 442L25.2109 417L44.2109 417L44.2109 442L25.2109 442Z" fill="#D1C1B4" fill-opacity="0.16" stroke="#5F6352" stroke-miterlimit="2.6131"/>
<path fill-rule="evenodd" clip-rule="evenodd" d="M77.2879 433.984L69.2109 433.984L69.2109 417L90.2109 417L90.2109 442L77.2879 442L77.2879 433.984Z" fill="#D1C1B4" fill-opacity="0.16" stroke="#5F6352" stroke-miterlimit="2.6131"/>
<path fill-rule="evenodd" clip-rule="evenodd" d="M66.2109 417L66.2109 393L90.2109 393L90.2109 417L66.2109 417Z" fill="#F7EDE6" fill-opacity="0.24" stroke="#5F6352" stroke-miterlimit="2.6131"/>
<path fill-rule="evenodd" clip-rule="evenodd" d="M25.2109 417L25.2109 393L50.2109 393L50.2109 417L25.2109 417Z" fill="#F7EDE6" fill-opacity="0.24" stroke="#5F6352" stroke-miterlimit="2.6131"/>
<path fill-rule="evenodd" clip-rule="evenodd" d="M66.2109 393L66.2109 368L90.2109 368L90.2109 393L66.2109 393Z" fill="#F7EDE6" fill-opacity="0.24" stroke="#5F6352" stroke-miterlimit="2.6131"/>
<path fill-rule="evenodd" clip-rule="evenodd" d="M25.2109 393L25.2109 369L50.2109 369L50.2109 393L25.2109 393Z" fill="#F7EDE6" fill-opacity="0.24" stroke="#5F6352" stroke-miterlimit="2.6131"/>
<path fill-rule="evenodd" clip-rule="evenodd" d="M66.2109 368L66.2109 344L90.2109 344L90.2109 368L66.2109 368Z" fill="#F7EDE6" fill-opacity="0.24" stroke="#5F6352" stroke-miterlimit="2.6131"/>
<path fill-rule="evenodd" clip-rule="evenodd" d="M25.2109 369L25.2109 344L50.2109 344L50.2109 369L25.2109 369Z" fill="#F7EDE6" fill-opacity="0.24" stroke="#5F6352" stroke-miterlimit="2.6131"/>
<path fill-rule="evenodd" clip-rule="evenodd" d="M66.2109 344L66.2109 320L90.2109 320L90.2109 344L66.2109 344Z" fill="#F7EDE6" fill-opacity="0.24" stroke="#5F6352" stroke-miterlimit="2.6131"/>
<path fill-rule="evenodd" clip-rule="evenodd" d="M25.2109 344L25.2109 320L50.2109 320L50.2109 344L25.2109 344Z" fill="#F7EDE6" fill-opacity="0.24" stroke="#5F6352" stroke-miterlimit="2.6131"/>
<path fill-rule="evenodd" clip-rule="evenodd" d="M66.2109 320L66.2109 295L90.2109 295L90.2109 320L66.2109 320Z" fill="#D1C1B4" fill-opacity="0.08" stroke="#5F6352" stroke-miterlimit="2.6131"/>
<path fill-rule="evenodd" clip-rule="evenodd" d="M25.2109 320L25.2109 296L50.2109 296L50.2109 320L25.2109 320Z" fill="#D1C1B4" fill-opacity="0.08" stroke="#5F6352" stroke-miterlimit="2.6131"/>
<path fill-rule="evenodd" clip-rule="evenodd" d="M25.2109 245L25.2109 232L49.2109 232L49.2109 245L25.2109 245Z" fill="#D1C1B4" fill-opacity="0.16" stroke="#5F6352" stroke-miterlimit="2.6131"/>
<path fill-rule="evenodd" clip-rule="evenodd" d="M66.2109 245L66.2109 232L90.2109 232L90.2109 245L66.2109 245Z" fill="#D1C1B4" fill-opacity="0.16" stroke="#5F6352" stroke-miterlimit="2.6131"/>
<path fill-rule="evenodd" clip-rule="evenodd" d="M25.2109 159L25.2109 146L49.2109 146L49.2109 159L25.2109 159Z" fill="#D1C1B4" fill-opacity="0.16" stroke="#5F6352" stroke-miterlimit="2.6131"/>
<path fill-rule="evenodd" clip-rule="evenodd" d="M66.2109 159L66.2109 146L90.2109 146L90.2109 159L66.2109 159Z" fill="#D1C1B4" fill-opacity="0.16" stroke="#5F6352" stroke-miterlimit="2.6131"/>
<path fill-rule="evenodd" clip-rule="evenodd" d="M66.2109 208L66.2109 183L90.2109 183L90.2109 208L66.2109 208Z" fill="#D1C1B4" fill-opacity="0.08" stroke="#5F6352" stroke-miterlimit="2.6131"/>
<path fill-rule="evenodd" clip-rule="evenodd" d="M25.2109 208L25.2109 184L49.2109 184L49.2109 208L25.2109 208Z" fill="#D1C1B4" fill-opacity="0.08" stroke="#5F6352" stroke-miterlimit="2.6131"/>
<path fill-rule="evenodd" clip-rule="evenodd" d="M66.2109 183L66.2109 159L90.2109 159L90.2109 183L66.2109 183Z" fill="#D1C1B4" fill-opacity="0.08" stroke="#5F6352" stroke-miterlimit="2.6131"/>
<path fill-rule="evenodd" clip-rule="evenodd" d="M25.2227 183.674L25.2227 159.254L49.305 159.254L49.305 183.674L25.2227 183.674Z" fill="#D1C1B4" fill-opacity="0.08" stroke="#5F6352" stroke-miterlimit="2.6131"/>
<path fill-rule="evenodd" clip-rule="evenodd" d="M25.2109 232L25.2109 208L49.2109 208L49.2109 232L25.2109 232Z" fill="#D1C1B4" fill-opacity="0.08" stroke="#5F6352" stroke-miterlimit="2.6131"/>
<path fill-rule="evenodd" clip-rule="evenodd" d="M66.2109 232L66.2109 207L90.2109 207L90.2109 232L66.2109 232Z" fill="#D1C1B4" fill-opacity="0.08" stroke="#5F6352" stroke-miterlimit="2.6131"/>
<path d="M19.2109 540L43.2109 540L43.2109 529.412L35.5685 529.412L35.5685 510L19.2109 510L19.2109 540Z" fill="#F7EDE6" fill-opacity="0.24" stroke="#5F6352" stroke-miterlimit="2.6131"/>
<path d="M97.2109 540L73.2109 540L73.2109 529.412L80.8534 529.412L80.8534 510L97.2109 510L97.2109 540Z" fill="#F7EDE6" fill-opacity="0.24" stroke="#5F6352" stroke-miterlimit="2.6131"/>
<path d="M82 570C87.5229 570 92 565.523 92 560C92 554.477 87.5229 550 82 550C76.4772 550 72 554.477 72 560C72 565.523 76.4772 570 82 570Z" fill="white" stroke="#C8A97A" stroke-miterlimit="10"/>
<path d="M81.9734 564.997C80.3943 564.997 78.8152 564.997 77.236 564.998C77.0512 565.01 76.8665 564.972 76.6966 564.886C76.5267 564.8 76.3762 564.67 76.2571 564.505C76.1526 564.353 76.0772 564.178 76.036 563.989C75.9949 563.801 75.9889 563.605 76.0185 563.414C76.0481 563.223 76.1125 563.041 76.2075 562.881C76.3025 562.722 76.4258 562.588 76.5691 562.489C78.1931 561.376 79.8186 560.267 81.4458 559.16C81.5108 559.128 81.565 559.072 81.6004 559.001C81.6358 558.929 81.6505 558.847 81.6423 558.765C81.645 558.678 81.6285 558.591 81.5944 558.514C81.5603 558.436 81.5097 558.371 81.4474 558.322C81.3776 558.266 81.3107 558.205 81.2387 558.153C80.9608 557.947 80.7543 557.634 80.6555 557.267C80.5568 556.901 80.5722 556.506 80.699 556.152C80.778 555.87 80.9201 555.618 81.1107 555.422C81.3012 555.226 81.5332 555.092 81.7828 555.035C81.9776 554.989 82.1783 554.988 82.3734 555.033C82.5684 555.078 82.754 555.167 82.9193 555.296C83.0846 555.424 83.2265 555.59 83.3368 555.782C83.4471 555.975 83.5236 556.191 83.5619 556.419C83.5971 556.575 83.5875 556.74 83.5345 556.889C83.498 556.983 83.4378 557.062 83.3621 557.115C83.2863 557.169 83.1984 557.194 83.1099 557.189C83.0267 557.175 82.9498 557.129 82.8913 557.059C82.8328 556.989 82.796 556.898 82.7868 556.8C82.7722 556.723 82.7664 556.643 82.7526 556.565C82.7187 556.383 82.6287 556.221 82.4997 556.111C82.3707 556.001 82.2115 555.949 82.0522 555.966C81.8927 555.975 81.741 556.05 81.6251 556.178C81.5092 556.306 81.4368 556.478 81.4212 556.664C81.4038 556.833 81.4329 557.004 81.5045 557.153C81.576 557.301 81.6862 557.419 81.8192 557.49C81.971 557.592 82.1104 557.717 82.2333 557.862C82.2964 557.94 82.3453 558.032 82.3771 558.132C82.4088 558.233 82.4227 558.34 82.4179 558.446C82.4171 558.606 82.4217 558.766 82.4161 558.926C82.4133 558.957 82.4193 558.988 82.433 559.015C82.4468 559.043 82.4677 559.064 82.4926 559.076C84.0455 560.142 85.5978 561.209 87.1493 562.278C87.2644 562.358 87.381 562.434 87.4937 562.517C87.6869 562.671 87.8358 562.889 87.9208 563.143C88.0057 563.397 88.0228 563.675 87.9698 563.941C87.9168 564.207 87.7961 564.447 87.6237 564.632C87.4512 564.816 87.235 564.935 87.0034 564.973C86.8868 564.988 86.7696 564.996 86.6523 564.996C85.0926 564.998 83.533 564.998 81.9734 564.997ZM81.8947 559.982C80.5845 560.878 79.2731 561.771 77.9608 562.662C77.6539 562.871 77.347 563.08 77.0401 563.288C76.9817 563.32 76.9333 563.372 76.9017 563.437C76.8702 563.503 76.8572 563.578 76.8645 563.653C76.869 563.731 76.894 563.807 76.9361 563.868C76.9781 563.93 77.0354 563.975 77.1001 563.998C77.1568 564.015 77.2154 564.022 77.2739 564.018C78.8434 564.019 80.413 564.02 81.9825 564.019C83.5423 564.019 85.102 564.019 86.6618 564.019C86.7107 564.021 86.7597 564.02 86.8084 564.014C86.8707 564.007 86.9299 563.979 86.9792 563.935C87.0284 563.89 87.0656 563.829 87.0863 563.76C87.1101 563.693 87.1159 563.619 87.103 563.547C87.0901 563.476 87.059 563.41 87.0138 563.36C86.9771 563.317 86.9354 563.28 86.89 563.25" fill="#C8A97A"/>
</g>
<defs>
<clipPath id="clip0">
<rect width="713" height="115" fill="white" transform="translate(0 713) rotate(-90)"/>
</clipPath>
</defs>
</svg>
