<svg width="12" height="24" viewBox="0 0 12 24" fill="none" xmlns="http://www.w3.org/2000/svg">
<g clip-path="url(#clip0)">
<path d="M9.05452 1.80051C8.99904 1.80051 8.93801 1.80639 8.88253 1.80639C8.82706 1.80051 8.77158 1.80051 8.7161 1.78873C8.60514 1.77107 8.49973 1.72987 8.41651 1.671C8.32775 1.61213 8.25563 1.52383 8.21679 1.42376C8.17241 1.32369 8.16131 1.21184 8.16131 1.10588C8.16131 0.994034 8.18905 0.888073 8.22789 0.782114L8.25563 0.705585L8.29446 0.634947C8.30556 0.605513 8.3222 0.593739 8.33884 0.570192L8.36104 0.54076L8.38877 0.511324C8.42206 0.470118 8.4609 0.440685 8.49973 0.411251C8.54411 0.387705 8.58295 0.358273 8.63288 0.340612C8.72719 0.305292 8.82705 0.275858 8.92692 0.275858C9.33746 0.246426 9.75355 0.446571 9.99765 0.787998C10.1253 0.952826 10.2029 1.15886 10.2418 1.37078C10.2806 1.5827 10.2806 1.80639 10.2473 2.03009C10.2196 2.25378 10.153 2.47159 10.0753 2.6894L10.0143 2.84834L10.0032 2.88954L9.98656 2.93075L9.94772 3.00728L9.79793 3.33693C9.58711 3.749 9.3652 4.16107 9.11 4.55548C8.61069 5.35018 8.07255 6.13899 7.61208 6.9749C7.1516 7.8167 6.77435 8.71147 6.53024 9.65334C6.40819 10.1243 6.31388 10.6011 6.25285 11.0779C6.16963 11.543 6.18628 12.1022 6.45812 12.5319L6.50805 12.6085C6.5247 12.632 6.54689 12.6555 6.56908 12.6791C6.60237 12.7321 6.6523 12.7733 6.69668 12.8145C6.79099 12.8969 6.8964 12.9675 7.00736 13.0146C7.23482 13.1088 7.49002 13.1265 7.72858 13.05C7.96714 12.9852 8.17241 12.8204 8.3222 12.6261C8.47199 12.426 8.56631 12.1846 8.61624 11.9374C8.66617 11.6901 8.68281 11.4429 8.66617 11.1957L8.66617 11.1486L8.66062 11.1015L8.65507 11.0132L8.64952 10.9249C8.64398 10.8954 8.63843 10.8601 8.63288 10.8307C8.62178 10.7718 8.61624 10.7071 8.60514 10.6423L8.56076 10.4598C8.4498 9.97711 8.27227 9.51206 8.07255 9.07056C7.86728 8.62317 7.63427 8.19933 7.37907 7.78726C7.12387 7.38108 6.85202 6.99256 6.57463 6.61581C6.02539 5.85643 5.4928 5.10882 5.0989 4.28469C5.05452 4.17873 5.00459 4.07865 4.9602 3.97269C4.93801 3.91971 4.91582 3.86673 4.89918 3.81375L4.8437 3.65481L4.82705 3.61361L4.82151 3.60183C4.82151 3.60183 4.81596 3.58417 4.82151 3.60183L4.81596 3.57829L4.78822 3.49587L4.76048 3.40757C4.74939 3.37814 4.74939 3.35459 4.74384 3.33105C4.7161 3.23097 4.69945 3.11912 4.68836 3.01316C4.66062 2.79536 4.66617 2.57755 4.71055 2.37152C4.75493 2.16548 4.83815 1.97122 4.9713 1.82406C5.0989 1.67689 5.27643 1.5827 5.46506 1.57681C5.55937 1.57681 5.65368 1.59447 5.74245 1.63568C5.83122 1.67689 5.91443 1.73575 5.9921 1.80639C6.1419 1.95356 6.25285 2.15371 6.33052 2.35974L6.35826 2.44216L6.38045 2.52457C6.3971 2.57755 6.41374 2.63642 6.42484 2.6894L6.44148 2.77181L6.45257 2.81302L6.45257 2.82479C6.45257 2.8189 6.45257 2.83068 6.45257 2.83068L6.45812 2.85423L6.48031 3.03082L6.50805 3.2192L6.51915 3.3075C6.51915 3.33693 6.5247 3.36637 6.5247 3.3958L6.54134 3.74311C6.54134 3.86085 6.53579 3.97858 6.53025 4.09631C6.5247 4.15518 6.53025 4.21405 6.51915 4.27291L6.49696 4.44952C6.47477 4.68498 6.42484 4.91456 6.3749 5.14414L6.28059 5.48557L6.2584 5.56799L6.23066 5.6504L6.16963 5.81523C6.00875 6.25673 5.80902 6.68057 5.56492 7.08086C5.32636 7.48116 5.06006 7.86379 4.76603 8.22288C4.47199 8.58197 4.16131 8.92928 3.83399 9.24716C3.50667 9.57093 3.15715 9.87704 2.80209 10.1655C2.44703 10.4539 2.07532 10.7247 1.69807 10.9837C1.50944 11.1132 1.31527 11.2369 1.12664 11.3546C0.932464 11.4723 0.732742 11.5901 0.544115 11.6842L-0.00512204 11.9668L0.544115 12.2553C0.732741 12.3553 0.932464 12.4731 1.12664 12.5908C1.32081 12.7085 1.50944 12.8321 1.69807 12.9617C2.07532 13.2207 2.44148 13.4915 2.79654 13.7799C3.50667 14.3568 4.17241 15.0043 4.75493 15.7284C5.33191 16.4525 5.83122 17.253 6.14744 18.136L6.20847 18.3009L6.23621 18.3833L6.2584 18.4657L6.35271 18.8012C6.40264 19.0308 6.45257 19.2604 6.46922 19.4959L6.49141 19.6725C6.49696 19.7313 6.49696 19.7902 6.50251 19.8491C6.50251 19.9668 6.5136 20.0845 6.5136 20.2023L6.49696 20.5555C6.49696 20.5849 6.49141 20.6143 6.49141 20.6438L6.48031 20.7262L6.45257 20.9028C6.42484 21.1324 6.36936 21.362 6.29169 21.568C6.21402 21.774 6.10306 21.9683 5.95882 22.1096C5.89224 22.1743 5.81457 22.2332 5.72581 22.2744C5.64259 22.3097 5.55382 22.3333 5.46506 22.3333C5.28753 22.3274 5.11554 22.245 4.98794 22.1037C4.85479 21.9683 4.77158 21.774 4.72165 21.5739C4.67172 21.3737 4.66617 21.1559 4.68281 20.9381C4.705 20.7203 4.75493 20.5025 4.82151 20.2965L4.87699 20.1257C4.89363 20.0669 4.91582 20.0198 4.93801 19.9668C4.97685 19.8667 5.02123 19.7608 5.06561 19.6548C5.25424 19.2369 5.4817 18.8366 5.73135 18.448C5.98101 18.0595 6.2473 17.6769 6.5247 17.3001C6.80209 16.9234 7.08503 16.5466 7.34578 16.1464C7.47893 15.9462 7.60098 15.7402 7.72303 15.5282C7.84509 15.3222 7.95604 15.1044 8.06145 14.8807C8.16686 14.6629 8.26117 14.4333 8.34994 14.2037C8.43316 13.9742 8.50528 13.7387 8.56631 13.4973L8.60514 13.3149C8.61624 13.256 8.62733 13.1912 8.63288 13.1324C8.63843 13.1029 8.64398 13.0735 8.64952 13.0382L8.66062 12.944L8.67171 12.8498L8.67171 12.8027L8.67171 12.7556L8.67726 12.5731L8.67171 12.3848C8.66062 12.2611 8.64952 12.1316 8.62178 12.0139C8.57185 11.7667 8.47754 11.5253 8.32775 11.3193C8.25008 11.2192 8.16686 11.125 8.06145 11.0544C8.01152 11.0132 7.95604 10.9896 7.90056 10.9543C7.84509 10.9308 7.78961 10.9013 7.72858 10.8837C7.49002 10.8071 7.22927 10.8248 7.00181 10.919C6.88531 10.9661 6.7799 11.0367 6.68558 11.1191C6.6412 11.1662 6.59127 11.2074 6.55244 11.2545C6.53024 11.2781 6.5136 11.3016 6.49141 11.331L6.44148 11.4135C6.30278 11.6313 6.23066 11.8844 6.20292 12.1316C6.18628 12.2553 6.18628 12.3848 6.19183 12.5084C6.19737 12.5731 6.19737 12.632 6.20847 12.6968L6.23621 12.8734L6.28614 13.2324L6.31388 13.409C6.32497 13.4679 6.33607 13.5268 6.35271 13.5856L6.42484 13.9447L6.46367 14.1213L6.5136 14.2979C6.75771 15.2398 7.14051 16.1405 7.60098 16.9764C8.06145 17.8241 8.59959 18.607 9.09335 19.4076C9.343 19.8079 9.57047 20.214 9.77574 20.632L9.91998 20.9499L9.95882 21.0264L9.97546 21.0676L9.98656 21.1029L10.0531 21.2737C10.0753 21.3325 10.0864 21.3796 10.1031 21.4326C10.1197 21.4856 10.1363 21.5386 10.153 21.5915L10.1918 21.7564L10.2196 21.9212C10.2473 22.139 10.2529 22.3627 10.214 22.5687C10.1696 22.7806 10.092 22.9749 9.96991 23.1338C9.72581 23.4635 9.32081 23.646 8.92692 23.6166C8.82705 23.6107 8.73829 23.5871 8.64952 23.5518C8.60514 23.5341 8.56631 23.5106 8.52747 23.487C8.48864 23.4635 8.4498 23.4341 8.42206 23.3987L8.39432 23.3752L8.37213 23.3458C8.36104 23.3281 8.34439 23.3104 8.3333 23.2869L8.31665 23.2575L8.30556 23.2398L8.30556 23.2339C8.30556 23.2339 8.30001 23.2221 8.30556 23.2339L8.27227 23.1515C8.25563 23.1162 8.25008 23.0985 8.24453 23.075C8.23898 23.0514 8.22789 23.0279 8.22234 22.9984L8.2057 22.9219L8.20015 22.8454C8.1946 22.7394 8.2057 22.6394 8.24453 22.5452C8.28337 22.451 8.34439 22.3686 8.42761 22.3038C8.59404 22.1743 8.82705 22.139 9.05452 22.1508C8.99904 22.139 8.94356 22.1213 8.88808 22.1096C8.8326 22.1037 8.77158 22.0919 8.71055 22.0978C8.59404 22.0919 8.47199 22.1213 8.35549 22.1743C8.24453 22.2332 8.13912 22.3274 8.07255 22.451C8.00597 22.5687 7.97269 22.7041 7.96159 22.8454C7.96159 22.8807 7.95604 22.916 7.96159 22.9455L7.97269 23.0455C7.97269 23.0809 7.98378 23.1162 7.98933 23.1515C7.99488 23.1868 8.00043 23.2221 8.01152 23.2516L8.03371 23.334C8.04481 23.3517 8.03926 23.3458 8.04481 23.3517L8.05036 23.3634L8.06145 23.3929L8.07809 23.44C8.09474 23.4753 8.11693 23.5047 8.13357 23.5341L8.16131 23.5812C8.17241 23.593 8.1835 23.6048 8.1946 23.6224C8.23898 23.6813 8.28891 23.7225 8.34439 23.7696C8.39987 23.8108 8.45535 23.852 8.51637 23.8756C8.63843 23.9344 8.76603 23.9756 8.89363 23.9874C9.02678 24.0051 9.15438 24.0051 9.28198 23.9815C9.343 23.9756 9.40403 23.9521 9.47061 23.9403C9.53163 23.9168 9.59266 23.8991 9.65368 23.8697C9.77574 23.8226 9.88115 23.7461 9.98656 23.6695C10.0309 23.6283 10.0864 23.5871 10.1308 23.5341L10.1974 23.4635L10.2584 23.387C10.4248 23.175 10.5302 22.916 10.5802 22.6511C10.6301 22.3862 10.6301 22.1213 10.5913 21.8623L10.558 21.6739L10.5136 21.4856C10.5025 21.4208 10.4803 21.362 10.4581 21.3031C10.4359 21.2442 10.4193 21.1736 10.3971 21.1206L10.3361 20.9499L10.3194 20.9028L10.3028 20.8616L10.2639 20.7792L10.1086 20.4495C10.0531 20.3436 9.99765 20.2376 9.94217 20.1257L9.85895 19.9668L9.77019 19.8138L9.58711 19.5018L9.39294 19.1957C8.87699 18.3951 8.3222 17.6357 7.85063 16.8233C7.37907 16.011 6.99626 15.1456 6.74106 14.2332C6.61346 13.7799 6.5136 13.3207 6.44703 12.838L6.41929 12.6614C6.41374 12.6085 6.40819 12.5496 6.40264 12.4907C6.3971 12.3789 6.3971 12.2611 6.40819 12.1493C6.43038 11.9256 6.49141 11.7019 6.60791 11.5194L6.6523 11.4488C6.66894 11.4252 6.68558 11.4076 6.70223 11.384C6.73552 11.3428 6.77435 11.3075 6.81319 11.2663C6.8964 11.2015 6.97962 11.1368 7.07948 11.0956C7.26811 11.0132 7.49002 10.9955 7.6842 11.0603C7.73413 11.072 7.77851 11.0956 7.82844 11.1191C7.87282 11.1486 7.92276 11.1662 7.96159 11.2015C8.05036 11.2604 8.11693 11.3428 8.18905 11.4311C8.31665 11.6077 8.39987 11.8196 8.44425 12.0433C8.46644 12.1552 8.47754 12.2729 8.48864 12.3848L8.49418 12.5555L8.48864 12.738C8.47199 12.9675 8.43316 13.1971 8.36104 13.4208C8.22234 13.8682 7.99488 14.2744 7.73413 14.657C7.47893 15.0397 7.18489 15.4046 6.90195 15.7755C6.61901 16.1464 6.34162 16.5231 6.06423 16.9116C5.78683 17.3001 5.51499 17.6887 5.26533 18.1066C5.01568 18.5246 4.78267 18.9543 4.59959 19.4193C4.55521 19.5371 4.51083 19.6489 4.47199 19.7725C4.4498 19.8314 4.42761 19.8962 4.41097 19.955L4.36104 20.1257C4.29446 20.3789 4.25008 20.632 4.23343 20.8969C4.22234 21.1618 4.24453 21.4326 4.3222 21.6916C4.39987 21.9506 4.52747 22.2037 4.72719 22.398C4.92137 22.5923 5.19876 22.7159 5.4817 22.7041C5.6204 22.6982 5.75909 22.657 5.88115 22.5982C6.0032 22.5334 6.10861 22.4451 6.20292 22.3509C6.386 22.1508 6.50251 21.9153 6.58572 21.6739C6.66894 21.4267 6.71887 21.1854 6.74106 20.9381L6.75771 20.7615L6.7688 20.6673C6.7688 20.6379 6.7688 20.6026 6.77435 20.5731L6.78545 20.2082C6.78545 20.0845 6.77435 19.9609 6.77435 19.8373C6.7688 19.7784 6.77435 19.7137 6.76325 19.6548L6.74106 19.4664C6.71887 19.2192 6.66339 18.9837 6.61346 18.7365L6.51915 18.3833L6.49696 18.295L6.46922 18.2067L6.40819 18.036C6.2473 17.5768 6.04203 17.1353 5.79793 16.7174C5.55937 16.2994 5.29307 15.8991 5.00459 15.5165C4.71055 15.1397 4.40542 14.7748 4.08364 14.4274C3.75632 14.0801 3.42345 13.7505 3.07393 13.4326C2.72442 13.1147 2.36381 12.8086 1.9921 12.5202C1.80902 12.373 1.6204 12.2317 1.43177 12.0904C1.2376 11.9491 1.05452 11.8138 0.849246 11.6784L0.849246 12.2494C1.05452 12.114 1.24314 11.9786 1.43177 11.8373C1.6204 11.696 1.80902 11.5547 1.9921 11.4076C2.35826 11.1132 2.72442 10.813 3.06839 10.4951C3.76742 9.86526 4.42206 9.17063 4.99904 8.41125C5.56492 7.64598 6.07532 6.81596 6.39155 5.89175L6.45257 5.72104L6.48031 5.63274L6.50251 5.54444L6.59682 5.19124C6.64675 4.94988 6.69668 4.71441 6.71887 4.46717L6.74106 4.28469C6.74661 4.22582 6.74661 4.16107 6.75216 4.1022C6.75216 3.98447 6.75771 3.86673 6.75771 3.74311L6.74106 3.37225C6.74106 3.34282 6.74106 3.3075 6.73552 3.27806L6.72442 3.18977L6.70223 3.01316L6.68004 2.83656L6.67449 2.80713L6.67449 2.78947L6.67449 2.7777L6.66339 2.7306L6.64675 2.63642C6.63565 2.57755 6.61901 2.5128 6.60237 2.45393L6.57463 2.36563L6.54134 2.27733C6.45812 2.04186 6.34162 1.81228 6.16409 1.61802C6.07532 1.52383 5.96991 1.44142 5.85341 1.38255C5.7369 1.32369 5.60375 1.28248 5.47061 1.27659C5.20431 1.26482 4.93246 1.37667 4.73829 1.56504C4.53857 1.75341 4.41097 2.00066 4.32775 2.25378C4.24453 2.5128 4.21679 2.7777 4.22789 3.0426C4.23343 3.17211 4.24453 3.30161 4.26672 3.43701C4.27227 3.47233 4.27782 3.50765 4.28337 3.53708L4.30001 3.62538L4.31665 3.71368L4.3222 3.73723L4.32775 3.76666L4.33884 3.81375C4.39987 4.06099 4.47754 4.30235 4.56631 4.53193C4.74384 4.99698 4.9713 5.43848 5.2154 5.86232C5.46506 6.28027 5.7369 6.68057 6.01429 7.0632C6.29169 7.45172 6.57463 7.82258 6.86866 8.18756C7.15715 8.55253 7.45674 8.90573 7.71749 9.28837C7.98378 9.66512 8.21124 10.0713 8.35549 10.5187L8.40542 10.6894C8.42206 10.7483 8.43316 10.8012 8.44425 10.8601C8.4498 10.8895 8.45535 10.9131 8.4609 10.9425L8.47199 11.0308L8.48309 11.1191L8.48864 11.1603L8.48864 11.2015C8.50528 11.437 8.49418 11.6666 8.4498 11.8962C8.40542 12.1199 8.3222 12.3377 8.1946 12.5143C8.12803 12.6026 8.0559 12.685 7.96714 12.7438C7.94495 12.7615 7.92276 12.7792 7.90056 12.7909L7.83399 12.8322C7.78406 12.8498 7.73968 12.8792 7.6842 12.891C7.48448 12.9558 7.26256 12.9381 7.06839 12.8557C6.96852 12.8145 6.87976 12.7556 6.79654 12.685C6.75771 12.6438 6.71887 12.6143 6.68558 12.5672C6.66894 12.5437 6.6523 12.526 6.63565 12.5025L6.59127 12.4319C6.47477 12.2435 6.40819 12.0198 6.386 11.7902C6.37491 11.6725 6.37491 11.5665 6.38045 11.4488C6.386 11.3899 6.39155 11.3252 6.3971 11.2722L6.42484 11.0956C6.49141 10.6246 6.59127 10.1537 6.71887 9.70043C6.97962 8.788 7.36242 7.92266 7.83399 7.11029C8.07255 6.70411 8.3222 6.30971 8.5885 5.92119L8.98239 5.33252C9.11 5.13237 9.24314 4.93811 9.37074 4.73796C9.63149 4.33767 9.87005 3.91971 10.0864 3.4841L10.2362 3.16033L10.275 3.07792L10.2917 3.03671L10.3083 2.98962L10.3749 2.81302C10.4581 2.57755 10.5302 2.3362 10.5635 2.08307C10.5968 1.82994 10.6024 1.56504 10.5524 1.30603C10.5025 1.04701 10.3971 0.793886 10.2362 0.587852L10.1696 0.511324L10.1031 0.440685C10.0587 0.393591 10.0087 0.352383 9.95882 0.311176C9.85341 0.23465 9.748 0.164009 9.63149 0.122803C9.57601 0.0933704 9.51499 0.0815983 9.45396 0.058052C9.39294 0.046278 9.33191 0.0227299 9.27088 0.0168419C9.14883 -0.00670435 9.02123 -0.00670244 8.89918 0.0109577C8.77712 0.0227299 8.64952 0.0639362 8.53857 0.122803C8.47754 0.152237 8.42761 0.187557 8.37213 0.222877C8.3222 0.264084 8.27227 0.311176 8.22789 0.364157C8.21679 0.375931 8.2057 0.387703 8.1946 0.405363L8.16686 0.452457C8.15022 0.476006 8.12803 0.511324 8.11693 0.534872L8.0781 0.623173L8.05036 0.71736C8.01707 0.84098 7.99488 0.970486 8.00043 1.10588C8.00597 1.23539 8.03926 1.37078 8.10029 1.48263C8.16131 1.60036 8.25563 1.69455 8.36658 1.74753C8.5885 1.87115 8.83815 1.85349 9.05452 1.80051Z" fill="white"/>
<path d="M6.29075 11.9789C6.29075 11.9789 6.2852 12.026 6.2852 12.1202C6.2852 12.2144 6.26856 12.338 6.29075 12.5205C6.2963 12.5617 6.30184 12.6088 6.30739 12.6618C6.31294 12.6853 6.31294 12.7088 6.31849 12.7383C6.32404 12.7618 6.32958 12.7913 6.33513 12.8148C6.34623 12.8678 6.35732 12.9208 6.36842 12.9737C6.37952 13.0267 6.39061 13.0915 6.4128 13.1445C6.45164 13.2622 6.49047 13.3858 6.54595 13.5153C6.57369 13.5801 6.60698 13.6448 6.63472 13.7096C6.65136 13.7449 6.668 13.7743 6.68465 13.8097C6.70129 13.8391 6.72348 13.8744 6.74013 13.9038C6.77896 13.9686 6.82334 14.0333 6.86218 14.104C6.90656 14.1687 6.95649 14.2276 7.00642 14.2924C7.03416 14.3218 7.05635 14.3571 7.08409 14.3924C7.11183 14.4278 7.13957 14.4513 7.16731 14.4866C7.22279 14.5455 7.28381 14.6102 7.34484 14.6691C7.47799 14.781 7.60559 14.9046 7.76093 14.9988C7.79976 15.0223 7.8386 15.0517 7.87189 15.0753L7.92736 15.1106L7.98839 15.1459C8.07161 15.1871 8.15483 15.2283 8.23804 15.2754C8.58201 15.4285 8.95372 15.5286 9.34207 15.5698C9.44193 15.5757 9.53624 15.5757 9.6361 15.5815C9.68603 15.5874 9.73596 15.5815 9.78035 15.5757L9.93014 15.5639L10.0799 15.5521L10.2297 15.5286C10.2519 15.5227 10.2686 15.5227 10.2963 15.5168L10.3795 15.4932C10.435 15.4756 10.4905 15.4638 10.5404 15.4403C10.7401 15.3696 10.9288 15.2578 11.1007 15.1342C11.2727 15.0047 11.417 14.8457 11.5501 14.675C11.6777 14.4984 11.772 14.31 11.8497 14.1099C11.9163 13.9097 11.9662 13.7037 11.9828 13.4977C11.9995 13.4565 11.9939 13.4035 11.9995 13.3505C11.9995 13.2975 12.005 13.2504 11.9995 13.1974C11.9939 13.1503 11.9939 13.0974 11.9884 13.0503L11.9828 13.015L11.9828 13.0032C11.9828 13.0032 11.9773 12.9737 11.9828 12.9855L11.9828 12.9796L11.9773 12.962L11.9662 12.8972C11.9662 12.8796 11.9551 12.8501 11.9496 12.8207C11.944 12.7913 11.9329 12.7618 11.9274 12.7383C11.9107 12.6853 11.8885 12.6382 11.8663 12.5911C11.822 12.4969 11.772 12.4086 11.7055 12.3321C11.4613 12.0201 11.1063 11.8553 10.7845 11.8553C10.7457 11.8553 10.7068 11.8553 10.668 11.8612L10.6125 11.867L10.5792 11.8729L10.5681 11.8729L10.5626 11.8729L10.557 11.8729L10.546 11.8729C10.5293 11.8788 10.5182 11.8788 10.4905 11.8847C10.4683 11.8906 10.4461 11.8965 10.4239 11.9083C10.3851 11.9259 10.3462 11.9436 10.3129 11.9671C10.1742 12.0554 10.0744 12.179 10.0189 12.3144C9.96343 12.4498 9.95233 12.5911 9.96897 12.7088L9.96897 12.7206C9.97452 12.7442 9.96897 12.7265 9.96897 12.7383L9.96897 12.7442L9.97452 12.7618C9.98007 12.7736 9.98007 12.7854 9.98562 12.7971C9.99671 12.8266 10.0134 12.8678 10.03 12.8972C10.0466 12.9208 10.0633 12.9502 10.0855 12.9679C10.1077 12.9855 10.1243 13.0091 10.1465 13.0208C10.2353 13.0797 10.3296 13.0974 10.4073 13.0856L10.4239 13.0856L10.4294 13.0856L10.435 13.0856C10.4516 13.0856 10.4405 13.0856 10.4461 13.0856C10.4516 13.0856 10.4627 13.0797 10.4683 13.0797L10.4794 13.0738L10.496 13.0679C10.5071 13.062 10.5182 13.0562 10.5238 13.0503C10.5404 13.0385 10.5515 13.0267 10.5681 13.015C10.5792 13.0032 10.5903 12.9914 10.5959 12.9796C10.6292 12.9267 10.6347 12.8796 10.6347 12.8501C10.6347 12.8207 10.6292 12.803 10.6292 12.803C10.6236 12.7736 10.6014 12.7501 10.5737 12.7559C10.546 12.7618 10.5238 12.7854 10.5293 12.8148C10.5293 12.8148 10.5349 12.856 10.496 12.8972C10.4905 12.9031 10.4849 12.9031 10.4794 12.909C10.4738 12.909 10.4683 12.9149 10.4627 12.9208L10.4572 12.9208C10.4572 12.9208 10.4572 12.9208 10.4516 12.9208L10.4405 12.9208C10.435 12.9208 10.4239 12.9208 10.4184 12.9208C10.4239 12.9208 10.4073 12.9208 10.4239 12.9208L10.4184 12.9208L10.4073 12.9208C10.3629 12.9208 10.3129 12.8972 10.2741 12.856C10.263 12.8442 10.2575 12.8325 10.2464 12.8207C10.2408 12.8089 10.2353 12.7971 10.2242 12.7795C10.2242 12.7677 10.2186 12.7618 10.2131 12.7442C10.2131 12.7324 10.2075 12.7206 10.2075 12.7088L10.2075 12.6912L10.2075 12.6853C10.2075 12.6912 10.2075 12.6735 10.2075 12.6971L10.2075 12.6912C10.2075 12.6147 10.2297 12.5264 10.2741 12.4557C10.3185 12.3851 10.3851 12.3203 10.4627 12.285C10.4849 12.2791 10.5016 12.2673 10.5238 12.2673L10.5515 12.2615C10.557 12.2615 10.5792 12.2556 10.5903 12.2556L10.6014 12.2556L10.607 12.2556L10.6125 12.2556C10.6181 12.2556 10.5959 12.2556 10.607 12.2556L10.6292 12.2556L10.668 12.2556C10.6957 12.2556 10.7235 12.2615 10.7512 12.2615C10.8566 12.2791 10.9676 12.3203 11.0619 12.3792C11.1618 12.4439 11.245 12.5322 11.3116 12.6323C11.3448 12.6853 11.3726 12.7442 11.3892 12.7971C11.4003 12.8266 11.4059 12.856 11.417 12.8854C11.417 12.8972 11.4225 12.909 11.4225 12.9267C11.4225 12.9384 11.4281 12.9502 11.4281 12.9737L11.4447 13.0503L11.4447 13.0679L11.4447 13.0738C11.4447 13.0856 11.4447 13.062 11.4447 13.062L11.4447 13.0679L11.4447 13.0974C11.4447 13.1327 11.4447 13.1739 11.4447 13.2092C11.4447 13.2445 11.4392 13.2857 11.4392 13.3211C11.4336 13.3564 11.4336 13.3976 11.4281 13.4329C11.4059 13.5801 11.3615 13.7272 11.306 13.8685C11.2394 14.0039 11.1618 14.1393 11.0674 14.257C10.9676 14.3748 10.8622 14.4807 10.7401 14.5631C10.6181 14.6456 10.4849 14.7162 10.3407 14.7633C10.3074 14.7751 10.2741 14.781 10.2464 14.7868L10.202 14.7986C10.1853 14.8045 10.1576 14.8045 10.141 14.8104L10.0245 14.8281L9.9024 14.8339L9.78035 14.8398C9.74151 14.8398 9.70268 14.8457 9.65829 14.8398C9.58062 14.8339 9.49741 14.8281 9.41974 14.8222C9.10351 14.7868 8.80393 14.6985 8.52098 14.5808C8.24359 14.4572 7.99394 14.2982 7.76093 14.1275C7.65552 14.0275 7.53902 13.9509 7.45025 13.845C7.40587 13.7979 7.35039 13.7508 7.30601 13.7037C7.26162 13.6507 7.22279 13.6036 7.17841 13.5565C7.15621 13.533 7.13402 13.5094 7.11738 13.4859C7.10074 13.4623 7.07854 13.4329 7.0619 13.4094C7.02861 13.3564 6.98978 13.3093 6.95649 13.2622C6.91766 13.2151 6.89546 13.1621 6.86218 13.115C6.83444 13.0679 6.80115 13.0208 6.77341 12.9737C6.72348 12.8796 6.6791 12.7854 6.63472 12.703C6.62362 12.6794 6.61253 12.6618 6.60143 12.6382C6.59033 12.6147 6.58479 12.597 6.57924 12.5793C6.56259 12.5381 6.54595 12.5028 6.52931 12.4675C6.46273 12.3262 6.42945 12.1908 6.39616 12.1084C6.36842 12.0201 6.35178 11.9789 6.35178 11.9789C6.34623 11.9612 6.32404 11.9495 6.30739 11.9554C6.30184 11.9554 6.2963 11.9671 6.29075 11.9789Z" fill="white"/>
<path d="M6.53048 12.0011C6.53048 12.0011 6.54157 11.954 6.55822 11.8657C6.56931 11.8186 6.58041 11.7715 6.59705 11.7185C6.60815 11.6656 6.63034 11.5949 6.65253 11.5243C6.70246 11.3771 6.76349 11.2005 6.8578 11.0121C6.95211 10.8238 7.06862 10.6177 7.22396 10.4176C7.37375 10.2116 7.56238 10.0173 7.77874 9.83481C7.99511 9.65232 8.25031 9.49338 8.5277 9.36976C8.6664 9.31089 8.81064 9.25791 8.96044 9.21082C9.11023 9.16961 9.26557 9.14018 9.42091 9.12252C9.57625 9.10486 9.73713 9.09897 9.89802 9.10486L10.0201 9.11074C10.0423 9.11663 10.1144 9.12252 10.1366 9.1284C10.1699 9.13429 10.2032 9.14018 10.242 9.14606C10.2753 9.15784 10.3141 9.16372 10.3474 9.1755C10.6303 9.2638 10.8855 9.44629 11.0797 9.68175C11.2739 9.91722 11.3959 10.2116 11.4459 10.5118C11.457 10.5883 11.4625 10.6648 11.4681 10.7355C11.4681 10.7708 11.4681 10.812 11.4681 10.8473L11.4681 10.8767L11.4681 10.8826C11.4681 10.8885 11.4681 10.8767 11.4681 10.8767L11.4681 10.8826L11.4681 10.9003L11.4681 10.9297L11.4681 10.9533C11.457 11.0769 11.407 11.2005 11.3405 11.3065C11.2073 11.5184 10.9909 11.6538 10.769 11.6832C10.6581 11.7009 10.5582 11.7009 10.4805 11.6597C10.3918 11.6361 10.3252 11.5714 10.2808 11.4949C10.2364 11.4183 10.2142 11.3359 10.2142 11.2594L10.2142 11.2535C10.2142 11.2476 10.2142 11.2594 10.2142 11.2594L10.2142 11.2535L10.2142 11.2358L10.2142 11.2241L10.2142 11.2182L10.2142 11.2123C10.2142 11.2005 10.2198 11.1829 10.2253 11.1711C10.2364 11.1416 10.2531 11.1181 10.2697 11.1004C10.3086 11.0592 10.3585 11.0416 10.4029 11.0357C10.414 11.0357 10.4251 11.0357 10.4362 11.0357C10.4417 11.0357 10.4473 11.0357 10.4528 11.0416C10.4639 11.0475 10.475 11.0534 10.4861 11.0651C10.5027 11.0828 10.5138 11.1122 10.5194 11.1299C10.5249 11.1475 10.5249 11.1593 10.5249 11.1593C10.5305 11.1887 10.5527 11.2123 10.586 11.2123C10.6137 11.2064 10.6303 11.1887 10.6359 11.1593L10.6359 11.1534C10.6359 11.1534 10.6359 11.1417 10.6359 11.1122C10.6303 11.0828 10.6303 11.0416 10.5971 10.9886C10.5804 10.965 10.5582 10.9356 10.5249 10.9121C10.5083 10.9003 10.4916 10.8944 10.4695 10.8885C10.4528 10.8826 10.4306 10.8826 10.414 10.8767C10.3363 10.8532 10.242 10.865 10.1588 10.9297C10.1144 10.9592 10.0756 11.0004 10.0478 11.0534C10.0312 11.0828 10.0201 11.1063 10.009 11.1417L10.0034 11.1711L9.99788 11.1829L9.99788 11.1946L9.99234 11.2123L9.99234 11.2182L9.99234 11.23L9.99234 11.2417C9.97569 11.3595 9.98679 11.5007 10.0423 11.6302C10.0977 11.7598 10.1976 11.8893 10.3308 11.9717C10.364 11.9952 10.4029 12.0129 10.4417 12.0247C10.4639 12.0305 10.4861 12.0364 10.5083 12.0482L10.5249 12.0541L10.536 12.0541L10.5582 12.06L10.5693 12.06L10.5749 12.06C10.5804 12.06 10.5693 12.06 10.586 12.06L10.5915 12.06L10.6137 12.0717C10.6303 12.0717 10.6525 12.0776 10.6692 12.0776C10.708 12.0835 10.7468 12.0835 10.7857 12.0835C11.1019 12.0776 11.457 11.9187 11.6955 11.6067C11.8176 11.4478 11.9063 11.2653 11.9452 11.0475L11.9507 11.0063L11.9563 10.9768L11.9563 10.9592L11.9563 10.9415L11.9563 10.9297L11.9618 10.8944C11.9674 10.8473 11.9729 10.7943 11.9729 10.7472C11.9785 10.6472 11.9785 10.5471 11.9674 10.447C11.9396 10.0408 11.7898 9.62289 11.5402 9.27557C11.4126 9.10486 11.2683 8.94592 11.0964 8.81641C10.9299 8.6869 10.7357 8.58094 10.536 8.5103C10.4861 8.49264 10.4362 8.47498 10.3862 8.46321C10.3363 8.45144 10.2864 8.43378 10.2253 8.42789C10.1588 8.41612 10.1366 8.41023 10.0756 8.40434L9.93131 8.39257C9.73713 8.37491 9.53741 8.37491 9.34324 8.39257C9.14906 8.41023 8.95489 8.44555 8.77181 8.49264C8.58873 8.53974 8.40565 8.61038 8.23367 8.6869C8.06168 8.76343 7.9008 8.85762 7.751 8.95769C7.60121 9.05776 7.45697 9.16961 7.32937 9.28735C7.07417 9.52281 6.8578 9.78183 6.69691 10.0408C6.53602 10.2999 6.41397 10.5589 6.33075 10.7943C6.24754 11.0298 6.19761 11.2417 6.16987 11.4183C6.14213 11.589 6.13103 11.7421 6.12548 11.8304C6.12548 11.9187 6.11994 11.9658 6.11994 11.9658C6.11439 12.0835 6.20315 12.1836 6.31966 12.1836C6.42507 12.1718 6.50829 12.1012 6.53048 12.0011Z" fill="white"/>
</g>
<defs>
<clipPath id="clip0">
<rect width="24" height="12" fill="white" transform="matrix(1.19249e-08 -1 -1 -1.19249e-08 12 24)"/>
</clipPath>
</defs>
</svg>
