<svg width="50" height="25" viewBox="0 0 50 25" fill="none" xmlns="http://www.w3.org/2000/svg">
<g clip-path="url(#clip0)">
<path d="M3.75301 18.8634C3.75301 18.7478 3.76527 18.6207 3.76527 18.5051C3.75301 18.3895 3.75301 18.2739 3.72848 18.1584C3.69169 17.9272 3.60584 17.7076 3.4832 17.5342C3.36056 17.3493 3.17661 17.1991 2.96812 17.1181C2.75963 17.0257 2.52662 17.0026 2.30587 17.0026C2.07285 17.0026 1.8521 17.0604 1.63135 17.1413L1.47192 17.1991L1.32475 17.28C1.26343 17.3031 1.2389 17.3378 1.18985 17.3724L1.12853 17.4187L1.06721 17.4764C0.981358 17.5458 0.920041 17.6267 0.858723 17.7076C0.809666 17.8001 0.748349 17.881 0.711556 17.985C0.637974 18.1815 0.576653 18.3895 0.576653 18.5976C0.515332 19.4529 0.932305 20.3197 1.64361 20.8283C1.987 21.0941 2.41624 21.2559 2.85774 21.3368C3.29924 21.4177 3.76527 21.4177 4.2313 21.3484C4.69733 21.2906 5.15109 21.1519 5.60486 20.9901L5.93599 20.8629L6.02183 20.8398L6.10768 20.8052L6.26711 20.7243L6.95389 20.4122C7.81237 19.973 8.67084 19.5107 9.49252 18.979C11.1482 17.9388 12.7915 16.8176 14.533 15.8583C16.2867 14.899 18.1509 14.1131 20.1131 13.6045C21.0942 13.3502 22.0876 13.1537 23.0809 13.0266C24.0498 12.8532 25.2149 12.8879 26.1101 13.4543L26.2696 13.5583C26.3186 13.593 26.3677 13.6392 26.4167 13.6854C26.5271 13.7548 26.613 13.8588 26.6988 13.9513C26.8705 14.1477 27.0177 14.3673 27.1158 14.5985C27.312 15.0724 27.3488 15.604 27.1894 16.101C27.0545 16.598 26.7111 17.0257 26.3064 17.3378C25.8894 17.6498 25.3866 17.8463 24.8715 17.9503C24.3564 18.0543 23.8413 18.089 23.3262 18.0543L23.2281 18.0543L23.13 18.0428L22.946 18.0312L22.7621 18.0197C22.7008 18.0081 22.6272 17.9966 22.5659 17.985C22.4432 17.9619 22.3083 17.9503 22.1734 17.9272L21.7932 17.8347C20.7876 17.6036 19.8187 17.2337 18.8989 16.8176C17.9669 16.39 17.0839 15.9046 16.2254 15.3729C15.3792 14.8412 14.5698 14.2749 13.7849 13.697C12.2028 12.5527 10.6453 11.4432 8.92838 10.6225C8.70763 10.5301 8.49915 10.4261 8.27839 10.3336C8.16802 10.2874 8.05764 10.2411 7.94727 10.2065L7.61614 10.0909L7.53029 10.0562L7.50577 10.0446C7.50577 10.0446 7.46898 10.0331 7.50577 10.0446L7.45672 10.0331L7.28502 9.97529L7.10106 9.9175C7.03974 9.89439 6.99068 9.89439 6.94163 9.88283C6.73314 9.82504 6.50012 9.79036 6.27937 9.76725C5.82561 9.70946 5.37184 9.72101 4.94261 9.81348C4.51337 9.90594 4.10866 10.0793 3.80206 10.3567C3.49547 10.6225 3.29924 10.9924 3.28698 11.3854C3.28698 11.5819 3.32377 11.7783 3.40962 11.9633C3.49547 12.1482 3.6181 12.3216 3.76527 12.4834C4.07187 12.7954 4.48885 13.0266 4.91808 13.1884L5.08978 13.2462L5.26147 13.2924C5.37185 13.3271 5.49448 13.3618 5.60486 13.3849L5.77655 13.4196L5.8624 13.4427L5.88693 13.4427C5.87467 13.4427 5.89919 13.4427 5.89919 13.4427L5.94825 13.4543L6.31617 13.5005L6.70862 13.5583L6.89257 13.5814C6.95389 13.5814 7.01521 13.593 7.07653 13.593L7.8001 13.6276C8.04538 13.6276 8.29066 13.6161 8.53594 13.6045C8.65857 13.593 8.78122 13.6045 8.90386 13.5814L9.27178 13.5352C9.76233 13.4889 10.2406 13.3849 10.7189 13.2809L11.4302 13.0844L11.6019 13.0382L11.7736 12.9804L12.117 12.8532C13.0368 12.5181 13.9198 12.102 14.7537 11.5934C15.5877 11.0964 16.3848 10.5416 17.1329 9.92906C17.881 9.31649 18.6046 8.66924 19.2669 7.98731C19.9414 7.30539 20.5791 6.57723 21.18 5.83752C21.781 5.09781 22.3451 4.32342 22.8847 3.53748C23.1545 3.1445 23.4121 2.73997 23.6574 2.347C23.9026 1.94247 24.1479 1.52638 24.3441 1.13341L24.9328 -0.0108359L25.5337 1.13341C25.7422 1.52638 25.9875 1.94247 26.2328 2.347C26.4781 2.75153 26.7356 3.1445 27.0054 3.53748C27.545 4.32342 28.1092 5.08625 28.7101 5.82596C29.912 7.30539 31.261 8.69235 32.7694 9.90595C34.2779 11.108 35.9458 12.1482 37.7854 12.807L38.1288 12.9341L38.3005 12.9919L38.4722 13.0382L39.1712 13.2347C39.6495 13.3387 40.1278 13.4427 40.6184 13.4774L40.9863 13.5236C41.1089 13.5352 41.2316 13.5352 41.3542 13.5467C41.5995 13.5467 41.8447 13.5698 42.09 13.5698L42.8259 13.5352C42.8872 13.5352 42.9485 13.5236 43.0098 13.5236L43.1815 13.5005L43.5494 13.4427C44.0277 13.3849 44.506 13.2693 44.9353 13.1075C45.3645 12.9457 45.7692 12.7145 46.0635 12.414C46.1984 12.2753 46.3211 12.1135 46.4069 11.9286C46.4805 11.7552 46.5296 11.5703 46.5296 11.3854C46.5173 11.0155 46.3456 10.6572 46.0513 10.3914C45.7692 10.114 45.3645 9.94062 44.9475 9.8366C44.5305 9.73258 44.0768 9.72102 43.623 9.75569C43.1693 9.80193 42.7155 9.90595 42.2862 10.0446L41.9306 10.1602C41.808 10.1949 41.7098 10.2411 41.5995 10.2874C41.391 10.3683 41.1702 10.4607 40.9495 10.5532C40.0787 10.9462 39.2448 11.42 38.4354 11.9402C37.626 12.4603 36.8288 13.0151 36.0439 13.593C35.259 14.1709 34.4741 14.7603 33.6402 15.3035C33.2232 15.5809 32.794 15.8352 32.3525 16.0895C31.9232 16.3438 31.4695 16.5749 31.0034 16.7945C30.5497 17.0141 30.0714 17.2106 29.5931 17.3955C29.1148 17.5689 28.6242 17.7192 28.1214 17.8463L27.7412 17.9272C27.6186 17.9503 27.4837 17.9734 27.3611 17.985C27.2997 17.9966 27.2384 18.0081 27.1648 18.0197L26.9686 18.0428L26.7724 18.0659L26.6743 18.0659L26.5762 18.0659L26.196 18.0775L25.8035 18.0659C25.546 18.0428 25.2762 18.0197 25.0309 17.9619C24.5158 17.8579 24.013 17.6614 23.5838 17.3493C23.3753 17.1875 23.1791 17.0141 23.0319 16.7945C22.946 16.6905 22.897 16.5749 22.8234 16.4593C22.7743 16.3438 22.713 16.2282 22.6762 16.101C22.5168 15.604 22.5536 15.0608 22.7498 14.5869C22.8479 14.3442 22.9951 14.1246 23.1668 13.9281C23.2649 13.8357 23.3508 13.7316 23.4489 13.6507C23.4979 13.6045 23.547 13.5698 23.6083 13.5236L23.78 13.4196C24.2338 13.1306 24.7611 12.9804 25.2762 12.9226C25.5337 12.8879 25.8035 12.8879 26.0611 12.8995C26.196 12.911 26.3186 12.911 26.4535 12.9341L26.8214 12.9919L27.5695 13.096L27.9375 13.1537C28.0601 13.1769 28.1827 13.2 28.3054 13.2347L29.0535 13.3849L29.4214 13.4658L29.7893 13.5698C31.7515 14.0784 33.6279 14.8759 35.3694 15.8352C37.1354 16.7945 38.7665 17.9157 40.4344 18.9443C41.2683 19.4644 42.1146 19.9383 42.9853 20.366L43.6475 20.6665L43.807 20.7474L43.8928 20.782L43.9664 20.8052L44.3221 20.9439C44.4447 20.9901 44.5428 21.0132 44.6532 21.0479C44.7636 21.0826 44.8739 21.1172 44.9843 21.1519L45.3277 21.2328L45.6711 21.2906C46.1249 21.3484 46.5909 21.3599 47.0201 21.279C47.4616 21.1866 47.8663 21.0248 48.1975 20.7705C48.8842 20.2619 49.2644 19.4182 49.2031 18.5976C49.1908 18.3895 49.1418 18.2046 49.0682 18.0197C49.0314 17.9272 48.9824 17.8463 48.9333 17.7654C48.8842 17.6845 48.8229 17.6036 48.7493 17.5458L48.7003 17.488L48.639 17.4418C48.6022 17.4187 48.5654 17.384 48.5163 17.3609L48.455 17.3262L48.4182 17.3031L48.4059 17.3031C48.4059 17.3031 48.3814 17.2915 48.4059 17.3031L48.2343 17.2337C48.1607 17.1991 48.1239 17.1875 48.0748 17.1759C48.0258 17.1644 47.9767 17.1413 47.9154 17.1297L47.756 17.095L47.5965 17.0835C47.3758 17.0719 47.1673 17.095 46.9711 17.1759C46.7748 17.2568 46.6031 17.384 46.4682 17.5574C46.1984 17.9041 46.1249 18.3895 46.1494 18.8634C46.1249 18.7478 46.0881 18.6323 46.0635 18.5167C46.0513 18.4011 46.0267 18.274 46.039 18.1468C46.0267 17.9041 46.0881 17.6498 46.1984 17.4071C46.3211 17.1759 46.5173 16.9563 46.7748 16.8176C47.0201 16.6789 47.3022 16.6096 47.5965 16.5865C47.6701 16.5865 47.7437 16.5749 47.805 16.5865L48.0135 16.6096C48.0871 16.6096 48.1607 16.6327 48.2343 16.6443C48.3078 16.6558 48.3814 16.6674 48.4427 16.6905L48.6144 16.7367C48.6512 16.7599 48.639 16.7483 48.6512 16.7599L48.6758 16.7714L48.7371 16.7945L48.8352 16.8292C48.9088 16.8639 48.9701 16.9101 49.0314 16.9448L49.1295 17.0026C49.154 17.0257 49.1786 17.0488 49.2154 17.0719C49.338 17.1644 49.4239 17.2684 49.522 17.384C49.6078 17.4996 49.6937 17.6151 49.7427 17.7423C49.8654 17.9966 49.9512 18.2624 49.9757 18.5282C50.0125 18.8056 50.0125 19.0715 49.9635 19.3373C49.9512 19.4644 49.9021 19.5916 49.8776 19.7303C49.8286 19.8574 49.7918 19.9845 49.7304 20.1117C49.6323 20.366 49.4729 20.5856 49.3135 20.8052C49.2276 20.8976 49.1418 21.0132 49.0314 21.1057L48.8842 21.2444L48.7248 21.3715C48.2833 21.7182 47.7437 21.9378 47.1918 22.0419C46.6399 22.1459 46.0881 22.1459 45.5485 22.065L45.156 21.9956L44.7636 21.9032C44.6287 21.8801 44.506 21.8338 44.3834 21.7876C44.2607 21.7414 44.1136 21.7067 44.0032 21.6605L43.6475 21.5333L43.5494 21.4986L43.4636 21.464L43.2919 21.3831L42.6051 21.0594C42.3844 20.9439 42.1636 20.8283 41.9306 20.7127L41.5995 20.5393L41.2806 20.3544L40.6306 19.973L39.9929 19.5685C38.325 18.4936 36.743 17.3378 35.0505 16.3553C33.3581 15.3729 31.5553 14.5754 29.6544 14.0437C28.7101 13.7779 27.7535 13.5698 26.7479 13.4311L26.3799 13.3734C26.2696 13.3618 26.1469 13.3502 26.0243 13.3387C25.7913 13.3271 25.546 13.3271 25.313 13.3502C24.847 13.3965 24.3809 13.5236 24.0007 13.7663L23.8536 13.8588C23.8045 13.8935 23.7677 13.9281 23.7187 13.9628C23.6328 14.0322 23.5592 14.1131 23.4734 14.194C23.3385 14.3673 23.2036 14.5407 23.1177 14.7488C22.946 15.1417 22.9093 15.604 23.0442 16.0086C23.0687 16.1126 23.1177 16.2051 23.1668 16.3091C23.2281 16.4016 23.2649 16.5056 23.3385 16.5865C23.4611 16.7714 23.6328 16.9101 23.8168 17.0604C24.1847 17.3262 24.6262 17.4996 25.0922 17.592C25.3252 17.6383 25.5705 17.6614 25.8035 17.6845L26.1592 17.6961L26.5394 17.6845C27.0177 17.6498 27.496 17.5689 27.962 17.4187C28.894 17.1297 29.7403 16.6558 30.5374 16.1126C31.3346 15.5809 32.0949 14.9684 32.8676 14.3789C33.6402 13.7894 34.4251 13.2115 35.2345 12.6336C36.0439 12.0557 36.8533 11.4894 37.7241 10.9693C38.5948 10.4492 39.4901 9.96374 40.4589 9.58232C40.7042 9.48986 40.9372 9.39739 41.1948 9.31649C41.3174 9.27026 41.4523 9.22402 41.5749 9.18935L41.9306 9.08533C42.4579 8.94663 42.9853 8.85417 43.5372 8.81949C44.089 8.79638 44.6532 8.84261 45.1928 9.00442C45.7324 9.16623 46.2598 9.43207 46.6645 9.84816C47.0692 10.2527 47.3267 10.8306 47.3022 11.42C47.2899 11.709 47.2041 11.9979 47.0814 12.2522C46.9465 12.5065 46.7626 12.7261 46.5664 12.9226C46.1494 13.304 45.6588 13.5467 45.156 13.7201C44.6409 13.8935 44.1381 13.9975 43.623 14.0437L43.2551 14.0784L43.0589 14.1015C42.9976 14.1015 42.924 14.1015 42.8627 14.1131L42.1023 14.1362C41.8447 14.1362 41.5872 14.1131 41.3297 14.1131C41.207 14.1015 41.0721 14.1131 40.9495 14.09L40.557 14.0437C40.042 13.9975 39.5514 13.8819 39.0363 13.7779L38.3005 13.5814L38.1165 13.5352L37.9326 13.4774L37.5769 13.3502C36.6203 13.0151 35.7005 12.5874 34.8298 12.0789C33.959 11.5819 33.1251 11.0271 32.3279 10.4261C31.5431 9.81348 30.7827 9.17779 30.0591 8.50742C29.3355 7.8255 28.6488 7.13202 27.9865 6.40386C27.3243 5.67571 26.6865 4.92444 26.0856 4.15005C25.779 3.76863 25.4847 3.37566 25.1903 2.98269C24.896 2.57816 24.6139 2.19674 24.3319 1.7691L25.5215 1.7691C25.2394 2.19674 24.9573 2.58972 24.663 2.98269C24.3687 3.37566 24.0743 3.76863 23.7677 4.15005C23.1545 4.91288 22.5291 5.67571 21.8668 6.39231C20.5546 7.84862 19.1074 9.21246 17.5254 10.4145C15.9311 11.5934 14.2019 12.6568 12.2764 13.3156L11.9208 13.4427L11.7368 13.5005L11.5529 13.5467L10.817 13.7432C10.3142 13.8472 9.82365 13.9513 9.30856 13.9975L8.92838 14.0437C8.80574 14.0553 8.67084 14.0553 8.5482 14.0668C8.30292 14.0668 8.05764 14.0784 7.8001 14.0784L7.02747 14.0437C6.96615 14.0437 6.89257 14.0437 6.83125 14.0322L6.64729 14.009L6.27937 13.9628L5.91146 13.9166L5.85014 13.905L5.81335 13.905L5.78882 13.905L5.69071 13.8819L5.49448 13.8472C5.37185 13.8241 5.23694 13.7894 5.1143 13.7548L4.93034 13.697L4.74638 13.6276C4.25583 13.4543 3.77754 13.2115 3.37283 12.8417C3.1766 12.6568 3.00491 12.4371 2.88227 12.1944C2.75963 11.9517 2.67378 11.6743 2.66152 11.3969C2.63699 10.8421 2.87 10.2758 3.26245 9.87127C3.6549 9.45518 4.16998 9.18935 4.69733 9.01598C5.23694 8.84261 5.78882 8.78481 6.3407 8.80793C6.61051 8.81949 6.88031 8.84261 7.16238 8.88884C7.23596 8.9004 7.30955 8.91195 7.37087 8.92351L7.55482 8.95819L7.73878 8.99286L7.78784 9.00442L7.84916 9.01598L7.94727 9.03909C8.46235 9.16623 8.96518 9.32804 9.44347 9.51297C10.4123 9.88283 11.3321 10.3567 12.2151 10.8653C13.0859 11.3854 13.9198 11.9517 14.717 12.5296C15.5264 13.1075 16.299 13.697 17.0594 14.3096C17.8197 14.9106 18.5556 15.5347 19.3527 16.0779C20.1376 16.6327 20.9838 17.1066 21.9159 17.4071L22.2715 17.5111C22.3942 17.5458 22.5045 17.5689 22.6272 17.592C22.6885 17.6036 22.7376 17.6151 22.7989 17.6267L22.9828 17.6498L23.1668 17.6729L23.2526 17.6845L23.3385 17.6845C23.829 17.7192 24.3073 17.6961 24.7856 17.6036C25.2517 17.5111 25.7054 17.3378 26.0733 17.0719C26.2573 16.9332 26.429 16.783 26.5516 16.598C26.5884 16.5518 26.6252 16.5056 26.6497 16.4593L26.7356 16.3206C26.7724 16.2166 26.8337 16.1242 26.8582 16.0086C26.9931 15.5925 26.9563 15.1302 26.7847 14.7256C26.6988 14.5176 26.5762 14.3327 26.429 14.1593C26.3432 14.0784 26.2818 13.9975 26.1837 13.9281C26.1347 13.8935 26.0979 13.8588 26.0488 13.8241L25.9017 13.7317C25.5092 13.4889 25.0432 13.3502 24.5649 13.304C24.3196 13.2809 24.0989 13.2809 23.8536 13.2924C23.7309 13.304 23.596 13.3156 23.4857 13.3271L23.1177 13.3849C22.1366 13.5236 21.1555 13.7316 20.2112 13.9975C18.3103 14.5407 16.5075 15.3382 14.8151 16.3206C13.9689 16.8176 13.1472 17.3378 12.3378 17.8925L11.1114 18.7132C10.6944 18.979 10.2897 19.2564 9.8727 19.5222C9.03876 20.0654 8.16802 20.5624 7.26049 21.0132L6.58597 21.3253L6.41428 21.4062L6.32843 21.4408L6.23032 21.4755L5.8624 21.6142C5.37184 21.7876 4.86903 21.9378 4.34167 22.0072C3.81433 22.0765 3.26245 22.0881 2.72284 21.9841C2.18323 21.8801 1.65588 21.6605 1.22664 21.3253L1.06721 21.1866L0.92004 21.0479C0.82193 20.9554 0.73608 20.8514 0.650234 20.7474C0.490803 20.5278 0.343636 20.3082 0.257786 20.0654C0.196469 19.9499 0.171944 19.8227 0.122887 19.6956C0.0983622 19.5684 0.0493014 19.4413 0.0370371 19.3142C-0.0120198 19.0599 -0.012016 18.7941 0.0247768 18.5398C0.0493015 18.2855 0.135147 18.0197 0.257786 17.7885C0.319107 17.6614 0.392693 17.5574 0.466278 17.4418C0.552124 17.3378 0.650235 17.2337 0.760609 17.1413C0.785138 17.1181 0.809662 17.095 0.846455 17.0719L0.944569 17.0141C0.993626 16.9795 1.06721 16.9332 1.11626 16.9101L1.30022 16.8292L1.49645 16.7714C1.75399 16.7021 2.0238 16.6558 2.30587 16.6674C2.57567 16.6789 2.85774 16.7483 3.09076 16.8754C3.33603 17.0026 3.53226 17.1991 3.64263 17.4302C3.90017 17.8925 3.86338 18.4126 3.75301 18.8634Z" fill="#C8A97A"/>
<path d="M24.9562 13.1075C24.9562 13.1075 25.0543 13.096 25.2505 13.096C25.4468 13.096 25.7043 13.0613 26.0845 13.1075C26.1703 13.1191 26.2684 13.1306 26.3788 13.1422C26.4279 13.1537 26.4769 13.1538 26.5382 13.1653C26.5873 13.1769 26.6486 13.1884 26.6977 13.2C26.8081 13.2231 26.9184 13.2462 27.0288 13.2693C27.1392 13.2924 27.2741 13.3156 27.3845 13.3618C27.6297 13.4427 27.8873 13.5236 28.1571 13.6392C28.292 13.697 28.4269 13.7663 28.5618 13.8241C28.6354 13.8588 28.6967 13.8935 28.7703 13.9281C28.8316 13.9628 28.9052 14.009 28.9665 14.0437C29.1014 14.1246 29.2363 14.2171 29.3835 14.298C29.5184 14.3905 29.641 14.4945 29.7759 14.5985C29.8372 14.6563 29.9108 14.7025 29.9844 14.7603C30.058 14.8181 30.107 14.8759 30.1806 14.9337C30.3033 15.0493 30.4382 15.1764 30.5608 15.3035C30.7938 15.5809 31.0514 15.8468 31.2476 16.1704C31.2966 16.2513 31.358 16.3322 31.407 16.4016L31.4806 16.5171L31.5542 16.6443C31.64 16.8176 31.7259 16.991 31.824 17.1644C32.1429 17.881 32.3513 18.6554 32.4372 19.4644C32.4495 19.6725 32.4495 19.869 32.4617 20.077C32.474 20.181 32.4617 20.285 32.4495 20.3775L32.4249 20.6896L32.4004 21.0016L32.3513 21.3137C32.3391 21.3599 32.3391 21.3946 32.3268 21.4524L32.2778 21.6258C32.241 21.7414 32.2164 21.8569 32.1674 21.961C32.0202 22.3771 31.7872 22.77 31.5297 23.1283C31.2599 23.4866 30.9287 23.7871 30.5731 24.0645C30.2052 24.3304 29.8127 24.5268 29.3957 24.6887C28.9788 24.8274 28.5495 24.9314 28.1203 24.966C28.0344 25.0007 27.9241 24.9892 27.8137 25.0007C27.7033 25.0007 27.6052 25.0123 27.4948 25.0007C27.3967 24.9892 27.2863 24.9892 27.1882 24.9776L27.1146 24.966L27.0901 24.966C27.0901 24.966 27.0288 24.9545 27.0533 24.966L27.0411 24.966L27.0043 24.9545L26.8694 24.9314C26.8326 24.9314 26.7713 24.9083 26.7099 24.8967C26.6486 24.8851 26.5873 24.862 26.5382 24.8505C26.4279 24.8158 26.3298 24.7696 26.2316 24.7233C26.0354 24.6309 25.8515 24.5268 25.692 24.3881C25.042 23.8796 24.6987 23.1399 24.6987 22.4695C24.6987 22.3886 24.6987 22.3077 24.7109 22.2268L24.7232 22.1112L24.7354 22.0419L24.7354 22.0188L24.7354 22.0072L24.7354 21.9956L24.7354 21.9725C24.7477 21.9378 24.7477 21.9147 24.76 21.8569C24.7722 21.8107 24.7845 21.7645 24.809 21.7182C24.8458 21.6373 24.8826 21.5564 24.9317 21.4871C25.1156 21.1981 25.3732 20.9901 25.6552 20.8745C25.9373 20.7589 26.2316 20.7358 26.4769 20.7705L26.5015 20.7705C26.5505 20.782 26.5137 20.7705 26.5382 20.7705L26.5505 20.7705L26.5873 20.782C26.6118 20.7936 26.6364 20.7936 26.6609 20.8052C26.7222 20.8283 26.8081 20.863 26.8694 20.8976C26.9184 20.9323 26.9797 20.967 27.0165 21.0132C27.0533 21.0594 27.1024 21.0941 27.1269 21.1403C27.2496 21.3253 27.2863 21.5218 27.2618 21.6836L27.2618 21.7182L27.2618 21.7298L27.2618 21.7414C27.2618 21.776 27.2618 21.7529 27.2618 21.7645C27.2618 21.776 27.2496 21.7992 27.2496 21.8107L27.2373 21.8338L27.225 21.8685C27.2128 21.8916 27.2005 21.9147 27.1882 21.9263C27.1637 21.961 27.1392 21.9841 27.1146 22.0188C27.0901 22.0419 27.0656 22.065 27.0411 22.0765C26.9307 22.1459 26.8326 22.1574 26.7713 22.1574C26.7099 22.1574 26.6731 22.1459 26.6731 22.1459C26.6118 22.1343 26.5628 22.0881 26.575 22.0303C26.5873 21.9725 26.6364 21.9263 26.6977 21.9378C26.6977 21.9378 26.7835 21.9494 26.8694 21.8685C26.8816 21.8569 26.8816 21.8454 26.8939 21.8338C26.8939 21.8223 26.9062 21.8107 26.9184 21.7992L26.9184 21.7876C26.9184 21.7876 26.9184 21.7876 26.9184 21.776L26.9184 21.7529C26.9184 21.7414 26.9184 21.7182 26.9184 21.7067C26.9184 21.7182 26.9184 21.6836 26.9184 21.7182L26.9184 21.7067L26.9184 21.6836C26.9184 21.5911 26.8694 21.4871 26.7835 21.4062C26.759 21.3831 26.7345 21.3715 26.7099 21.3484C26.6854 21.3368 26.6609 21.3253 26.6241 21.3022C26.5996 21.3022 26.5873 21.2906 26.5505 21.279C26.526 21.279 26.5015 21.2675 26.4769 21.2675L26.4401 21.2675L26.4279 21.2675C26.4401 21.2675 26.4033 21.2675 26.4524 21.2675L26.4401 21.2675C26.2807 21.2675 26.0967 21.3137 25.9496 21.4062C25.8024 21.4986 25.6675 21.6373 25.5939 21.7992C25.5817 21.8454 25.5571 21.8801 25.5571 21.9263L25.5449 21.9841C25.5449 21.9956 25.5326 22.0419 25.5326 22.065L25.5326 22.0881L25.5326 22.0997L25.5326 22.1112C25.5326 22.1228 25.5326 22.0765 25.5326 22.0997L25.5326 22.1459L25.5326 22.2268C25.5326 22.2846 25.5449 22.3424 25.5449 22.4002C25.5817 22.6198 25.6675 22.8509 25.7901 23.0474C25.925 23.2555 26.109 23.4288 26.3175 23.5675C26.4279 23.6369 26.5505 23.6947 26.6609 23.7293C26.7222 23.7525 26.7835 23.764 26.8448 23.7871C26.8694 23.7871 26.8939 23.7987 26.9307 23.7987C26.9552 23.7987 26.9797 23.8102 27.0288 23.8102L27.1882 23.8449L27.225 23.8449L27.2373 23.8449C27.2618 23.8449 27.2128 23.8449 27.2128 23.8449L27.225 23.8449L27.2863 23.8449C27.3599 23.8449 27.4458 23.8449 27.5194 23.8449C27.5929 23.8449 27.6788 23.8334 27.7524 23.8334C27.826 23.8218 27.9118 23.8218 27.9854 23.8102C28.292 23.764 28.5986 23.6715 28.8929 23.556C29.175 23.4173 29.4571 23.2555 29.7023 23.059C29.9476 22.8509 30.1684 22.6313 30.3401 22.3771C30.5118 22.1228 30.6589 21.8454 30.757 21.5449C30.7816 21.4755 30.7938 21.4062 30.8061 21.3484L30.8306 21.2559C30.8429 21.2212 30.8429 21.1635 30.8551 21.1288L30.8919 20.8861L30.9042 20.6318L30.9165 20.3775C30.9165 20.2966 30.9287 20.2157 30.9165 20.1232C30.9042 19.9614 30.8919 19.7881 30.8797 19.6262C30.8061 18.9674 30.6221 18.3433 30.3769 17.7538C30.1193 17.1759 29.7882 16.6558 29.4325 16.1704C29.224 15.9508 29.0646 15.7081 28.8439 15.5231C28.7458 15.4307 28.6476 15.3151 28.5495 15.2226C28.4392 15.1302 28.341 15.0493 28.2429 14.9568C28.1939 14.9106 28.1448 14.8643 28.0958 14.8297C28.0467 14.795 27.9854 14.7488 27.9363 14.7141C27.826 14.6447 27.7278 14.5638 27.6297 14.4945C27.5316 14.4136 27.4212 14.3673 27.3231 14.298C27.225 14.2402 27.1269 14.1709 27.0288 14.1131C26.8326 14.009 26.6364 13.9166 26.4647 13.8241C26.4156 13.801 26.3788 13.7779 26.3298 13.7548C26.2807 13.7317 26.2439 13.7201 26.2071 13.7085C26.1213 13.6739 26.0477 13.6392 25.9741 13.6045C25.6798 13.4658 25.3977 13.3965 25.226 13.3271C25.042 13.2693 24.9562 13.2347 24.9562 13.2347C24.9194 13.2231 24.8949 13.1769 24.9071 13.1422C24.9071 13.1306 24.9317 13.1191 24.9562 13.1075Z" fill="#C8A97A"/>
<path d="M25.0065 13.6052C25.0065 13.6052 24.9084 13.6283 24.7245 13.663C24.6264 13.6861 24.5282 13.7092 24.4179 13.7439C24.3075 13.767 24.1603 13.8132 24.0132 13.8594C23.7066 13.9635 23.3386 14.0906 22.9462 14.2871C22.5538 14.4836 22.1245 14.7263 21.7075 15.0499C21.2783 15.362 20.8736 15.755 20.4934 16.2057C20.1132 16.6565 19.7821 17.1881 19.5246 17.766C19.4019 18.055 19.2915 18.3555 19.1934 18.6676C19.1076 18.9796 19.0463 19.3033 19.0095 19.6269C18.9727 19.9505 18.9604 20.2857 18.9727 20.6209L18.985 20.8752C18.9972 20.9214 19.0095 21.0716 19.0217 21.1179C19.034 21.1872 19.0463 21.2566 19.0585 21.3375C19.0831 21.4068 19.0953 21.4877 19.1199 21.5571C19.3038 22.1465 19.684 22.6782 20.1746 23.0827C20.6651 23.4873 21.2783 23.7415 21.9038 23.8456C22.0632 23.8687 22.2226 23.8802 22.3698 23.8918C22.4434 23.8918 22.5292 23.8918 22.6028 23.8918L22.6641 23.8918L22.6764 23.8918C22.6887 23.8918 22.6641 23.8918 22.6641 23.8918L22.6764 23.8918L22.7132 23.8918L22.7745 23.8918L22.8236 23.8918C23.0811 23.8687 23.3386 23.7647 23.5594 23.626C24.0009 23.3486 24.283 22.8978 24.3443 22.4355C24.3811 22.2043 24.3811 21.9963 24.2952 21.8345C24.2462 21.6495 24.1113 21.5108 23.9518 21.4184C23.7924 21.3259 23.6207 21.2797 23.4613 21.2797L23.449 21.2797C23.4368 21.2797 23.4613 21.2797 23.4613 21.2797L23.449 21.2797L23.4122 21.2797L23.3877 21.2797L23.3754 21.2797L23.3632 21.2797C23.3386 21.2797 23.3019 21.2912 23.2773 21.3028C23.216 21.3259 23.1669 21.3606 23.1302 21.3953C23.0443 21.4762 23.0075 21.5802 22.9953 21.6727C22.9953 21.6958 22.9953 21.7189 22.9953 21.742C22.9953 21.7536 22.9953 21.7651 23.0075 21.7767C23.0198 21.7998 23.032 21.8229 23.0566 21.846C23.0934 21.8807 23.1547 21.9038 23.1915 21.9154C23.2283 21.9269 23.2528 21.9269 23.2528 21.9269C23.3141 21.9385 23.3632 21.9847 23.3632 22.0541C23.3509 22.1119 23.3141 22.1465 23.2528 22.1581L23.2405 22.1581C23.2405 22.1581 23.216 22.1581 23.1547 22.1581C23.0934 22.1465 23.0075 22.1465 22.8971 22.0772C22.8481 22.0425 22.7868 21.9963 22.7377 21.9269C22.7132 21.8923 22.7009 21.8576 22.6887 21.8114C22.6764 21.7767 22.6764 21.7305 22.6641 21.6958C22.6151 21.534 22.6396 21.3375 22.7745 21.1641C22.8358 21.0716 22.9217 20.9907 23.032 20.9329C23.0934 20.8983 23.1424 20.8752 23.216 20.852L23.2773 20.8405L23.3019 20.8289L23.3264 20.8289L23.3632 20.8174L23.3754 20.8174L23.4 20.8174L23.4245 20.8174C23.6698 20.7827 23.9641 20.8058 24.2339 20.9214C24.5037 21.037 24.7735 21.245 24.9452 21.5224C24.9943 21.5918 25.0311 21.6727 25.0556 21.7536C25.0679 21.7998 25.0801 21.846 25.1046 21.8923L25.1169 21.9269L25.1169 21.9501L25.1292 21.9963L25.1292 22.0194L25.1292 22.031C25.1292 22.0425 25.1292 22.0194 25.1292 22.0541L25.1292 22.0656L25.1537 22.1119C25.1537 22.1465 25.166 22.1928 25.166 22.2274C25.1782 22.3084 25.1782 22.3893 25.1782 22.4702C25.166 23.129 24.8348 23.8687 24.1849 24.3657C23.8537 24.62 23.4735 24.8049 23.0198 24.8858L22.9339 24.8973L22.8726 24.9089L22.8358 24.9089L22.799 24.9089L22.7745 24.9089L22.7009 24.9205C22.6028 24.932 22.4924 24.9436 22.3943 24.9436C22.1858 24.9551 21.9773 24.9551 21.7689 24.932C20.9227 24.8742 20.0519 24.5622 19.3283 24.0421C18.9727 23.7762 18.6416 23.4757 18.3718 23.1174C18.1019 22.7707 17.8812 22.3661 17.734 21.9501C17.6972 21.846 17.6604 21.742 17.6359 21.638C17.6114 21.534 17.5746 21.4299 17.5623 21.3028C17.5378 21.1641 17.5255 21.1179 17.5133 20.9907L17.4888 20.6902C17.452 20.2857 17.452 19.8696 17.4888 19.4651C17.5255 19.0605 17.5991 18.656 17.6972 18.2746C17.7954 17.8932 17.9425 17.5118 18.1019 17.1535C18.2614 16.7952 18.4576 16.46 18.6661 16.1479C18.8746 15.8359 19.1076 15.5354 19.3529 15.2695C19.8434 14.7378 20.383 14.2871 20.9227 13.9519C21.4623 13.6167 22.0019 13.3624 22.4924 13.1891C22.983 13.0157 23.4245 12.9117 23.7924 12.8539C24.1481 12.7961 24.4669 12.773 24.6509 12.7614C24.8348 12.7614 24.933 12.7499 24.933 12.7499C25.1782 12.7383 25.3867 12.9232 25.3867 13.166C25.3622 13.3856 25.215 13.5589 25.0065 13.6052Z" fill="#C8A97A"/>
</g>
<defs>
<clipPath id="clip0">
<rect width="50" height="25" fill="white" transform="translate(50 25) rotate(-180)"/>
</clipPath>
</defs>
</svg>
