<svg width="14" height="28" viewBox="0 0 14 28" fill="none" xmlns="http://www.w3.org/2000/svg">
<path fill-rule="evenodd" clip-rule="evenodd" d="M12.8 14.6089V6.8175C12.8 3.69776 10.2033 1.16871 7 1.16871C3.79675 1.16871 1.2 3.69776 1.2 6.8175V14.6089C1.2 17.7287 3.79675 20.2577 7 20.2577C10.2033 20.2577 12.8 17.7287 12.8 14.6089ZM7 0C3.13401 0 0 3.0523 0 6.8175V14.6089C0 18.3741 3.13401 21.4264 7 21.4264C10.866 21.4264 14 18.3741 14 14.6089V6.8175C14 3.0523 10.866 0 7 0ZM6 5.84357C6 5.30569 6.44772 4.86964 7 4.86964C7.55228 4.86964 8 5.30569 8 5.84357V8.76536C8 9.30325 7.55228 9.73929 7 9.73929C6.44772 9.73929 6 9.30325 6 8.76536V5.84357ZM3.36014 23.8803L2.64014 24.8153L7.00014 28L11.3601 24.8153L10.6401 23.8803L7.00014 26.5391L3.36014 23.8803Z" fill="#D1CFCE"/>
</svg>
