<svg width="18" height="18" viewBox="0 0 18 18" fill="none" xmlns="http://www.w3.org/2000/svg">
<g clip-path="url(#clipOdnoklass)">
<path d="M3.54073 9.66252C3.08098 10.5663 3.60298 10.9983 4.79398 11.7363C5.80648 12.3618 7.20523 12.5905 8.10373 12.682C7.73548 13.036 9.42298 11.413 4.56298 16.0878C3.53248 17.0755 5.19148 18.6603 6.22123 17.6935L9.00898 15.0048C10.0762 16.0315 11.0992 17.0155 11.7967 17.6973C12.8272 18.6678 14.4855 17.0965 13.4662 16.0915C13.3897 16.0188 9.68848 12.4683 9.91423 12.6858C10.824 12.5943 12.2017 12.352 13.2022 11.74L13.2015 11.7393C14.3925 10.9975 14.9145 10.5663 14.4615 9.66252C14.1877 9.14952 13.4497 8.72053 12.4672 9.46227C12.4672 9.46227 11.1405 10.4785 9.00073 10.4785C6.86023 10.4785 5.53423 9.46227 5.53423 9.46227C4.55248 8.71678 3.81148 9.14952 3.54073 9.66252Z" />
<path d="M8.99902 9.1065C11.6075 9.1065 13.7375 7.068 13.7375 4.5585C13.7375 2.0385 11.6075 0 8.99902 0C6.38977 0 4.25977 2.0385 4.25977 4.5585C4.25977 7.068 6.38977 9.1065 8.99902 9.1065ZM8.99902 2.30925C10.2808 2.30925 11.3263 3.315 11.3263 4.5585C11.3263 5.7915 10.2808 6.79725 8.99902 6.79725C7.71727 6.79725 6.67177 5.7915 6.67177 4.5585C6.67102 3.31425 7.71652 2.30925 8.99902 2.30925Z" />
</g>
<defs>
<clipPath id="clipOdnoklass">
<rect width="18" height="18" fill="white"/>
</clipPath>
</defs>
</svg>
