<svg width="18" height="12" viewBox="0 0 18 12" fill="none" xmlns="http://www.w3.org/2000/svg">
  <path d="M17.9045 10.4165C17.8827 10.3664 17.8624 10.3249 17.8435 10.2916C17.5312 9.6916 16.9345 8.9552 16.0535 8.08213L16.0349 8.06214L16.0256 8.05233L16.0162 8.04228H16.0067C15.6069 7.63574 15.3537 7.36239 15.2477 7.22244C15.0537 6.95585 15.0102 6.686 15.1163 6.41258C15.1912 6.206 15.4726 5.76973 15.9597 5.10317C16.216 4.74992 16.419 4.4668 16.5688 4.2535C17.6498 2.7206 18.1185 1.74106 17.9747 1.31449L17.9188 1.2148C17.8813 1.15479 17.7845 1.09989 17.6285 1.04982C17.4721 0.999855 17.2722 0.991592 17.0285 1.02489L14.3295 1.04478C14.2858 1.02825 14.2233 1.02979 14.142 1.04982C14.0607 1.06985 14.0201 1.0799 14.0201 1.0799L13.9731 1.10493L13.9358 1.13501C13.9046 1.15489 13.8702 1.18987 13.8327 1.23987C13.7954 1.2897 13.7642 1.34817 13.7392 1.4148C13.4454 2.2212 13.1113 2.97095 12.7363 3.66401C12.5051 4.07727 12.2928 4.43543 12.0989 4.73868C11.9053 5.04183 11.7428 5.26518 11.6117 5.40835C11.4804 5.55166 11.3619 5.66647 11.2555 5.7532C11.1492 5.83996 11.0681 5.87662 11.012 5.86321C10.9557 5.8498 10.9027 5.8365 10.8525 5.82319C10.7651 5.76318 10.6947 5.68156 10.6417 5.57827C10.5885 5.47498 10.5526 5.34497 10.5339 5.18836C10.5153 5.03164 10.5042 4.89684 10.5011 4.7835C10.4982 4.6703 10.4995 4.51018 10.5058 4.3036C10.5123 4.09691 10.5153 3.95707 10.5153 3.88375C10.5153 3.63046 10.5199 3.35557 10.5292 3.05901C10.5386 2.76244 10.5463 2.52746 10.5527 2.35436C10.559 2.18107 10.562 1.99774 10.562 1.80447C10.562 1.61119 10.551 1.45962 10.5292 1.34961C10.5076 1.23973 10.4746 1.13308 10.431 1.02969C10.3872 0.926396 10.3231 0.846495 10.2389 0.789773C10.1546 0.733121 10.0497 0.688163 9.92496 0.65476C9.59379 0.574824 9.17208 0.531583 8.65965 0.52486C7.4976 0.511555 6.75093 0.591596 6.41979 0.764878C6.28859 0.838092 6.16986 0.938125 6.0637 1.06466C5.95121 1.21134 5.93552 1.29138 6.01673 1.30454C6.39166 1.36445 6.65708 1.50776 6.8133 1.73434L6.86959 1.8544C6.91338 1.94102 6.9571 2.09438 7.00086 2.31427C7.04455 2.53415 7.07275 2.77739 7.08516 3.04384C7.11634 3.53043 7.11634 3.94695 7.08516 4.29345C7.05387 4.64008 7.02433 4.90993 6.99613 5.10321C6.96794 5.29648 6.92579 5.4531 6.86959 5.57302C6.8133 5.69298 6.77584 5.76629 6.75707 5.7929C6.73832 5.81951 6.7227 5.83629 6.71029 5.84287C6.62908 5.87606 6.54462 5.89297 6.45721 5.89297C6.36966 5.89297 6.26351 5.84627 6.13857 5.75292C6.01367 5.65957 5.88405 5.53135 5.74969 5.36805C5.61534 5.20471 5.46382 4.97646 5.29507 4.68325C5.12644 4.39005 4.95148 4.04352 4.77029 3.64366L4.62038 3.35368C4.52666 3.16713 4.39864 2.89549 4.23619 2.53902C4.07364 2.1824 3.92996 1.83745 3.80506 1.50423C3.75514 1.36428 3.68013 1.25773 3.58018 1.18441L3.53327 1.15433C3.50209 1.12772 3.45203 1.09947 3.38336 1.06936C3.31459 1.03928 3.24283 1.01771 3.1678 1.00444L0.599913 1.02433C0.337509 1.02433 0.159465 1.08774 0.0657161 1.21438L0.0281968 1.27429C0.00945366 1.30766 0 1.36095 0 1.4343C0 1.50762 0.0187432 1.59761 0.0562624 1.70415C0.431126 2.64392 0.838782 3.55025 1.27923 4.42328C1.71968 5.29631 2.10242 5.99955 2.42723 6.53239C2.7521 7.06561 3.08324 7.56887 3.42065 8.0419C3.75806 8.51511 3.9814 8.81836 4.09068 8.95159C4.20008 9.08506 4.28602 9.18485 4.34849 9.25148L4.58282 9.49136C4.73277 9.65134 4.95296 9.84293 5.2435 10.0661C5.5341 10.2895 5.85582 10.5094 6.20882 10.7261C6.56189 10.9426 6.97263 11.1192 7.44128 11.2558C7.90986 11.3925 8.36593 11.4474 8.80956 11.4209H9.88734C10.1059 11.4008 10.2715 11.3274 10.3841 11.2009L10.4214 11.1508C10.4465 11.111 10.4699 11.0492 10.4916 10.9661C10.5135 10.8828 10.5244 10.791 10.5244 10.6912C10.518 10.4047 10.5385 10.1464 10.5852 9.91653C10.6319 9.6867 10.6852 9.51342 10.7447 9.39672C10.8042 9.28012 10.8714 9.18173 10.9461 9.10197C11.021 9.02204 11.0744 8.97361 11.1057 8.95695C11.1368 8.94017 11.1617 8.92879 11.1804 8.92197C11.3304 8.86868 11.5068 8.92029 11.7101 9.07704C11.9132 9.23366 12.1037 9.42704 12.2818 9.65687C12.4599 9.88691 12.6739 10.145 12.9237 10.4315C13.1738 10.7181 13.3924 10.9312 13.5798 11.0713L13.7671 11.1913C13.8922 11.2713 14.0547 11.3447 14.2547 11.4113C14.4543 11.4779 14.6292 11.4946 14.7793 11.4613L17.1784 11.4213C17.4157 11.4213 17.6004 11.3794 17.7314 11.2963C17.8626 11.213 17.9405 11.1212 17.9657 11.0214C17.9908 10.9215 17.9921 10.8081 17.9704 10.6813C17.9482 10.5549 17.9263 10.4665 17.9045 10.4165Z" />
</svg>