<svg width="1821" height="10" viewBox="0 0 1821 10" fill="none" xmlns="http://www.w3.org/2000/svg">
<path d="M0.539034 10H896.885C900.853 10 907.142 4.32432 909.493 1.26126C911.604 4.0991 917.264 10 922.115 10H1819.46C1819.76 10 1820 9.81982 1820 9.59459C1820 9.36937 1819.76 9.18919 1819.46 9.18919H922.115C917.608 9.18919 911.694 2.85285 909.987 0.21021C909.897 0.0900901 909.702 0 909.507 0C909.298 0 909.103 0.0900901 909.013 0.225225C907.291 2.8979 900.539 9.2042 896.885 9.2042H0.539034C0.239571 9.2042 0 9.38439 0 9.60961C0 9.83484 0.239571 10 0.539034 10Z" fill="#D1CFCE"/>
<path d="M909.506 10C909.716 10 909.91 9.90991 910 9.77478C911.722 7.1021 918.475 0.795796 922.128 0.795796H1819.46C1819.76 0.795796 1820 0.615616 1820 0.39039C1820 0.165165 1819.75 0 1819.45 0H922.113C918.146 0 911.857 5.67568 909.506 8.73874C907.395 5.9009 901.735 0 896.884 0H0.539025C0.239567 0 0 0.18018 0 0.405405C0 0.630631 0.239567 0.810811 0.539025 0.810811H896.884C901.391 0.810811 907.305 7.14715 909.012 9.78979C909.102 9.92492 909.297 10 909.506 10Z" fill="#D1CFCE"/>
<path d="M0.539034 5.81081H885.255C885.555 5.81081 885.794 5.63063 885.794 5.40541C885.794 5.18018 885.555 5 885.255 5H0.539034C0.239571 5.01502 0 5.1952 0 5.40541C0 5.63063 0.239571 5.81081 0.539034 5.81081Z" fill="#E0DFDF"/>
<path d="M933.746 5.40456H1819.46C1819.76 5.40456 1820 5.22438 1820 4.99916C1820 4.77393 1819.76 4.59375 1819.46 4.59375H933.746C933.447 4.59375 933.207 4.77393 933.207 4.99916C933.207 5.22438 933.447 5.40456 933.746 5.40456Z" fill="#E0DFDF"/>
</svg>
