<svg width="314" height="60" viewBox="0 0 314 60" fill="none" xmlns="http://www.w3.org/2000/svg">
  <path
        fill-rule="evenodd"
        clip-rule="evenodd"
        d="M285.455 5.07338C284.759 5.28049 285.967 5.54104 285.172 5.6947C282.578 5.5544 281.37 4.66585 278.616 4.6124C278.678 4.31845 278.296 4.27168 278.333 3.99108C248.249 0.837722 215.016 1.25862 181.087 0.276531C157.441 -0.404916 132.075 0.316616 109.514 0.89785C103.802 1.04483 98.054 1.21853 93.2607 1.51917C86.6437 1.9267 79.5153 2.08036 73.8718 3.22279C73.0092 3.39649 72.4917 3.75057 71.5922 3.83742C60.4961 4.99321 46.184 3.10253 36.5172 5.3807C36.6281 6.38283 38.8153 6.97742 38.5134 7.69896C34.4533 7.81921 30.2329 7.84594 28.8159 9.40257C29.4382 9.37585 29.7216 9.52951 29.6723 9.87023C28.5756 9.99717 27.2325 9.99049 27.1031 10.6452C28.3415 10.6452 29.5737 10.6452 30.8121 10.6452C31.8964 11.5672 36.0244 12.3689 33.3813 13.8921C36.049 13.4913 38.2054 14.8141 37.3736 16.364C35.3651 16.511 34.0651 17.159 33.0978 17.4463C35.1926 17.9073 37.8788 18.0476 39.3698 18.8359C38.5134 19.3904 35.8334 20.2924 37.3736 21.1542C31.6623 21.2477 24.7619 21.4949 20.2643 22.6975C20.0733 23.7263 19.0814 24.3209 17.9847 24.8621C18.9644 25.5168 21.0222 25.5903 21.4041 26.5657C23.3634 26.7928 25.7415 26.7928 26.5363 27.648C25.8832 28.5299 23.3449 28.3896 22.8273 29.3516C25.4766 29.7458 28.5078 29.4652 30.5287 30.4339C29.623 30.6143 28.206 30.5141 28.2491 31.2089C30.5965 31.1755 31.3974 31.9772 32.5249 32.5985C32.1429 32.5985 31.7671 32.5985 31.3851 32.5985C32.7035 33.3334 31.4344 33.928 32.2415 35.0704C30.1837 37.4087 23.4188 37.1949 17.4118 37.3887C18.0956 38.0501 20.8065 38.4309 20.5477 39.0856C18.9089 39.2793 17.2454 39.4597 16.8388 40.3216C17.4302 40.7224 18.4776 40.8761 19.6914 40.9429C19.6852 41.2502 18.9151 41.1366 19.1184 41.5642C22.1804 41.965 25.1994 42.3926 27.6699 43.1075C24.8359 43.5284 21.1947 43.515 19.1184 44.3434C22.9567 43.6954 30.0481 42.8068 31.6623 45.1184C29.9434 46.8688 23.0738 45.8199 19.4018 46.508C19.1738 48.519 22.7657 48.0647 24.8174 48.519C20.6032 49.0735 14.8611 49.5812 10 49.2873C14.7687 50.0823 19.716 50.5633 25.6861 50.6769C25.1624 51.4585 25.76 52.8081 23.9733 53.4628C28.6927 54.2044 32.9007 55.2198 38.5134 55.4737C38.6859 56.2554 39.2774 56.8166 39.9366 57.331C38.9077 57.2909 38.5627 57.6183 37.657 57.6383C37.7618 58.1928 38.421 58.2062 37.9404 58.7206C39.567 59.5023 40.8053 59.1014 42.7892 59.4956C46.72 60.2706 52.499 59.9633 57.9023 59.8029C72.9908 59.3687 89.5024 59.1883 104.098 58.7206C133.554 57.7853 166.46 58.6271 196.483 59.0279C204.388 59.1348 213.303 58.9745 223.29 58.7206C231.102 58.5202 236.851 58.3799 244.108 58.2596C251.354 58.1394 258.919 58.6271 265.493 58.2596C268.173 58.1127 270.706 57.5515 273.478 58.106C273.429 57.7719 273.712 57.6116 274.334 57.645C278.142 57.5515 283.57 56.9903 282.319 54.7054C283.73 54.6119 283.046 54.5518 284.032 53.9304C283.157 53.6298 281.796 53.5964 281.179 53.1555C280.311 53.9705 277.433 53.7033 276.047 54.2378C274.704 53.5229 272.406 53.3292 271.488 52.3805C272.48 52.4673 273.607 53.2824 274.341 52.9951C273.318 52.5208 272.363 52.0064 271.488 51.4519C273.09 51.2047 276.867 51.6389 276.337 52.5341C277.477 52.4807 277.92 52.8081 279.189 52.6878C280.009 52.5408 279.374 52.1734 279.762 52.0665C280.187 52.2469 281.038 52.2001 280.902 52.6878C280.545 52.6544 280.317 52.4473 280.329 52.8415C282.017 53.3893 284.895 53.6365 286.318 53.4628C285.905 53.3626 284.513 53.0218 285.178 52.8415C287.014 53.1087 288.129 52.6277 289.17 52.0665C288.413 52.0665 287.488 52.1533 287.458 51.7592C288.64 51.7391 287.513 51.659 287.458 51.4519C289.146 51.0577 289.448 52.2201 290.027 51.9128C289.639 51.4986 288.696 50.5833 288.887 50.3695C290.347 50.3495 290.797 50.4831 290.027 49.9086C290.526 50.1624 291.967 50.7036 292.59 50.3695C291.475 49.6547 288.875 48.8129 288.314 47.8976C290.495 47.7373 291.579 48.7528 293.163 48.0513C291.672 47.5369 290.452 47.7573 289.743 46.969C291 47.1494 292.405 47.45 293.452 46.969C291.401 47.0826 291.364 45.7998 291.74 45.4257C289.891 44.9313 287.803 44.5706 285.184 44.4971C284.753 45.105 284.74 45.7998 284.611 46.194C285.036 46.2207 285.665 46.1406 285.751 46.3477C285.412 46.4212 285.104 46.5147 284.895 46.655C285.967 46.7418 286.866 46.9222 286.891 47.5836C285.03 47.4567 284.987 47.7106 285.178 48.0446C282.978 48.0246 281.808 47.8375 280.046 48.1983C273.903 46.2742 261.661 47.6504 256.092 45.4124C256.578 45.3522 256.03 45.2119 256.092 44.9514C262.536 44.0294 269.227 45.2253 274.914 46.0337C277.742 45.0583 279.799 46.8821 282.325 46.655C281.364 46.8153 281.882 46.174 281.752 45.88C282.559 45.7531 282.492 46.1005 283.176 46.0337C283.613 45.0249 282.375 44.9247 281.752 44.4904C282.596 44.4503 283.157 45.105 283.465 44.4904C282.911 44.5639 282.005 44.0762 282.609 44.0294C285.769 44.0962 289.398 44.3501 292.306 44.9581C292.103 44.4971 291.456 44.2833 291.733 43.5684C290.39 44.2499 289.497 42.9672 288.314 42.6398C290.6 42.6131 291.703 43.6085 293.163 43.5684C294.58 43.4014 292.023 43.0407 292.306 42.4861C292.812 42.4861 293.132 43.3547 293.729 42.7935C293.471 42.6933 294.395 42.3325 293.446 42.0185C293.871 41.9918 294.5 42.0719 294.586 41.8648C293.662 41.6844 294.592 41.4573 293.729 41.2435C294.919 40.8761 295.393 41.4907 296.582 41.5508C296.675 41.1901 296.539 40.9562 296.299 40.7758C297.05 40.9362 297.26 41.3905 298.011 41.5508C297.038 40.5019 296.496 40.1545 295.732 39.0789C298.628 39.2125 298.64 39.9875 300.291 40.0076C298.991 38.805 298.677 37.068 297.155 35.9857C298.628 35.9924 299.718 36.3598 300.291 35.6784C299.404 35.2842 296.711 35.8654 296.299 35.2174C297.137 34.8165 298.19 35.4846 298.868 35.0637C298.529 35.037 298.061 35.0904 298.011 34.9101C300.692 34.4892 302.035 34.3021 304 33.5204C302.546 33.4336 300.402 33.6073 299.151 33.0595C300.39 32.7254 300.593 31.8903 301.72 32.5918C302.429 31.5362 301.258 31.4627 301.72 30.5809C298.449 30.4473 297.112 29.2647 294.309 28.8773C296.884 28.0221 299.127 29.4184 301.72 28.7236C300.433 28.4964 299.41 28.1223 299.151 27.334C300.919 27.5745 300.618 26.6859 301.72 26.559C300.014 26.4521 299.281 25.8241 298.011 25.4767C299.472 25.136 297.352 24.6349 298.011 24.3944C299.102 24.8554 300.279 24.8754 301.431 24.3944C300.291 24.3142 299.613 23.9735 300.858 23.7798C300.359 23.6929 299.182 23.9668 299.145 23.6261C302.244 22.0895 300.993 21.1007 298.862 19.9182C299.817 20.1788 300.038 19.9316 300.574 19.6109C300.273 18.689 299.04 18.2814 298.578 17.4463C299.028 17.433 299.564 17.4664 299.435 17.139C298.19 15.7761 295.738 15.3151 294.302 14.1994C294.617 14.4399 294.734 12.9234 293.446 13.2708C294.752 12.8232 295.738 13.685 296.015 13.8921C296.52 12.3956 293.994 12.1484 293.163 10.7989C292.959 10.378 294.506 10.9058 294.302 10.4916C293.89 10.4047 293.606 10.251 293.446 10.0306C294.315 10.0239 294.555 10.3579 295.159 10.4916C295.251 9.87023 293.169 9.62304 293.736 9.2556C295.294 9.18879 293.656 9.72993 295.159 9.40925C295.165 8.57415 289.94 7.95951 291.167 6.93734C288.69 7.405 287.624 5.41411 285.461 5.70138C285.917 5.80159 285.917 4.95981 285.455 5.07338ZM63.6075 12.3355C62.8805 13.0236 62.061 13.6583 61.8947 14.6537C58.5862 14.7606 55.3886 14.794 52.7701 14.8074C52.6038 14.1527 53.5403 14.0925 54.1933 13.8787C54.2981 13.6182 53.9715 13.5848 53.6204 13.5714C55.1606 12.2687 60.3236 12.1885 63.6075 12.3355ZM293.15 12.1818C294.216 12.2753 294.623 12.723 295.43 12.9568C294.838 13.2173 293.298 12.6762 293.15 12.1818ZM224.146 14.9677C228.096 14.6804 233.708 14.8341 236.98 15.4287C232.458 15.4087 228.465 15.0947 224.146 14.9677ZM258.938 15.8897C252.66 16.0901 243.215 15.7627 238.693 15.4287C245.23 15.0813 252.204 15.8296 258.938 15.8897ZM290.587 28.2626C290.63 27.8818 291.555 28.2159 291.727 28.2626C294.654 28.2493 291.45 28.6167 290.587 28.2626ZM270.342 49.2873C270.379 48.9465 271.55 49.2204 272.055 49.1336C271.691 49.7416 272.837 49.5344 273.195 49.7549C272.209 50.2226 270.576 49.7282 270.342 49.2873ZM270.059 55.1597C260.109 55.1731 248.834 56.3155 239.266 55.781C238.144 55.7209 236.598 55.2399 235.273 55.3201C233.616 54.9059 234.54 56.2955 233.561 55.781C197.481 55.9547 166.306 54.9593 131.478 55.3201C147.866 55.0929 163.355 54.2845 178.813 54.2378C197.987 54.1843 217.363 54.7388 237.269 53.7768C237.762 53.7501 237.886 53.6031 238.409 53.6231C239.796 53.6766 240.911 54.1108 242.402 54.2378C246.148 54.5584 251.619 54.1776 256.658 54.3914C261.384 54.5919 266.097 54.4449 270.059 55.1597Z"
  >
    <!-- Mouseenter -->
    <animate attributeName="d"
             from="M285.455 5.07338C284.759 5.28049 285.967 5.54104 285.172 5.6947C282.578 5.5544 281.37 4.66585 278.616 4.6124C278.678 4.31845 278.296 4.27168 278.333 3.99108C248.249 0.837722 215.016 1.25862 181.087 0.276531C157.441 -0.404916 132.075 0.316616 109.514 0.89785C103.802 1.04483 98.054 1.21853 93.2607 1.51917C86.6437 1.9267 79.5153 2.08036 73.8718 3.22279C73.0092 3.39649 72.4917 3.75057 71.5922 3.83742C60.4961 4.99321 46.184 3.10253 36.5172 5.3807C36.6281 6.38283 38.8153 6.97742 38.5134 7.69896C34.4533 7.81921 30.2329 7.84594 28.8159 9.40257C29.4382 9.37585 29.7216 9.52951 29.6723 9.87023C28.5756 9.99717 27.2325 9.99049 27.1031 10.6452C28.3415 10.6452 29.5737 10.6452 30.8121 10.6452C31.8964 11.5672 36.0244 12.3689 33.3813 13.8921C36.049 13.4913 38.2054 14.8141 37.3736 16.364C35.3651 16.511 34.0651 17.159 33.0978 17.4463C35.1926 17.9073 37.8788 18.0476 39.3698 18.8359C38.5134 19.3904 35.8334 20.2924 37.3736 21.1542C31.6623 21.2477 24.7619 21.4949 20.2643 22.6975C20.0733 23.7263 19.0814 24.3209 17.9847 24.8621C18.9644 25.5168 21.0222 25.5903 21.4041 26.5657C23.3634 26.7928 25.7415 26.7928 26.5363 27.648C25.8832 28.5299 23.3449 28.3896 22.8273 29.3516C25.4766 29.7458 28.5078 29.4652 30.5287 30.4339C29.623 30.6143 28.206 30.5141 28.2491 31.2089C30.5965 31.1755 31.3974 31.9772 32.5249 32.5985C32.1429 32.5985 31.7671 32.5985 31.3851 32.5985C32.7035 33.3334 31.4344 33.928 32.2415 35.0704C30.1837 37.4087 23.4188 37.1949 17.4118 37.3887C18.0956 38.0501 20.8065 38.4309 20.5477 39.0856C18.9089 39.2793 17.2454 39.4597 16.8388 40.3216C17.4302 40.7224 18.4776 40.8761 19.6914 40.9429C19.6852 41.2502 18.9151 41.1366 19.1184 41.5642C22.1804 41.965 25.1994 42.3926 27.6699 43.1075C24.8359 43.5284 21.1947 43.515 19.1184 44.3434C22.9567 43.6954 30.0481 42.8068 31.6623 45.1184C29.9434 46.8688 23.0738 45.8199 19.4018 46.508C19.1738 48.519 22.7657 48.0647 24.8174 48.519C20.6032 49.0735 14.8611 49.5812 10 49.2873C14.7687 50.0823 19.716 50.5633 25.6861 50.6769C25.1624 51.4585 25.76 52.8081 23.9733 53.4628C28.6927 54.2044 32.9007 55.2198 38.5134 55.4737C38.6859 56.2554 39.2774 56.8166 39.9366 57.331C38.9077 57.2909 38.5627 57.6183 37.657 57.6383C37.7618 58.1928 38.421 58.2062 37.9404 58.7206C39.567 59.5023 40.8053 59.1014 42.7892 59.4956C46.72 60.2706 52.499 59.9633 57.9023 59.8029C72.9908 59.3687 89.5024 59.1883 104.098 58.7206C133.554 57.7853 166.46 58.6271 196.483 59.0279C204.388 59.1348 213.303 58.9745 223.29 58.7206C231.102 58.5202 236.851 58.3799 244.108 58.2596C251.354 58.1394 258.919 58.6271 265.493 58.2596C268.173 58.1127 270.706 57.5515 273.478 58.106C273.429 57.7719 273.712 57.6116 274.334 57.645C278.142 57.5515 283.57 56.9903 282.319 54.7054C283.73 54.6119 283.046 54.5518 284.032 53.9304C283.157 53.6298 281.796 53.5964 281.179 53.1555C280.311 53.9705 277.433 53.7033 276.047 54.2378C274.704 53.5229 272.406 53.3292 271.488 52.3805C272.48 52.4673 273.607 53.2824 274.341 52.9951C273.318 52.5208 272.363 52.0064 271.488 51.4519C273.09 51.2047 276.867 51.6389 276.337 52.5341C277.477 52.4807 277.92 52.8081 279.189 52.6878C280.009 52.5408 279.374 52.1734 279.762 52.0665C280.187 52.2469 281.038 52.2001 280.902 52.6878C280.545 52.6544 280.317 52.4473 280.329 52.8415C282.017 53.3893 284.895 53.6365 286.318 53.4628C285.905 53.3626 284.513 53.0218 285.178 52.8415C287.014 53.1087 288.129 52.6277 289.17 52.0665C288.413 52.0665 287.488 52.1533 287.458 51.7592C288.64 51.7391 287.513 51.659 287.458 51.4519C289.146 51.0577 289.448 52.2201 290.027 51.9128C289.639 51.4986 288.696 50.5833 288.887 50.3695C290.347 50.3495 290.797 50.4831 290.027 49.9086C290.526 50.1624 291.967 50.7036 292.59 50.3695C291.475 49.6547 288.875 48.8129 288.314 47.8976C290.495 47.7373 291.579 48.7528 293.163 48.0513C291.672 47.5369 290.452 47.7573 289.743 46.969C291 47.1494 292.405 47.45 293.452 46.969C291.401 47.0826 291.364 45.7998 291.74 45.4257C289.891 44.9313 287.803 44.5706 285.184 44.4971C284.753 45.105 284.74 45.7998 284.611 46.194C285.036 46.2207 285.665 46.1406 285.751 46.3477C285.412 46.4212 285.104 46.5147 284.895 46.655C285.967 46.7418 286.866 46.9222 286.891 47.5836C285.03 47.4567 284.987 47.7106 285.178 48.0446C282.978 48.0246 281.808 47.8375 280.046 48.1983C273.903 46.2742 261.661 47.6504 256.092 45.4124C256.578 45.3522 256.03 45.2119 256.092 44.9514C262.536 44.0294 269.227 45.2253 274.914 46.0337C277.742 45.0583 279.799 46.8821 282.325 46.655C281.364 46.8153 281.882 46.174 281.752 45.88C282.559 45.7531 282.492 46.1005 283.176 46.0337C283.613 45.0249 282.375 44.9247 281.752 44.4904C282.596 44.4503 283.157 45.105 283.465 44.4904C282.911 44.5639 282.005 44.0762 282.609 44.0294C285.769 44.0962 289.398 44.3501 292.306 44.9581C292.103 44.4971 291.456 44.2833 291.733 43.5684C290.39 44.2499 289.497 42.9672 288.314 42.6398C290.6 42.6131 291.703 43.6085 293.163 43.5684C294.58 43.4014 292.023 43.0407 292.306 42.4861C292.812 42.4861 293.132 43.3547 293.729 42.7935C293.471 42.6933 294.395 42.3325 293.446 42.0185C293.871 41.9918 294.5 42.0719 294.586 41.8648C293.662 41.6844 294.592 41.4573 293.729 41.2435C294.919 40.8761 295.393 41.4907 296.582 41.5508C296.675 41.1901 296.539 40.9562 296.299 40.7758C297.05 40.9362 297.26 41.3905 298.011 41.5508C297.038 40.5019 296.496 40.1545 295.732 39.0789C298.628 39.2125 298.64 39.9875 300.291 40.0076C298.991 38.805 298.677 37.068 297.155 35.9857C298.628 35.9924 299.718 36.3598 300.291 35.6784C299.404 35.2842 296.711 35.8654 296.299 35.2174C297.137 34.8165 298.19 35.4846 298.868 35.0637C298.529 35.037 298.061 35.0904 298.011 34.9101C300.692 34.4892 302.035 34.3021 304 33.5204C302.546 33.4336 300.402 33.6073 299.151 33.0595C300.39 32.7254 300.593 31.8903 301.72 32.5918C302.429 31.5362 301.258 31.4627 301.72 30.5809C298.449 30.4473 297.112 29.2647 294.309 28.8773C296.884 28.0221 299.127 29.4184 301.72 28.7236C300.433 28.4964 299.41 28.1223 299.151 27.334C300.919 27.5745 300.618 26.6859 301.72 26.559C300.014 26.4521 299.281 25.8241 298.011 25.4767C299.472 25.136 297.352 24.6349 298.011 24.3944C299.102 24.8554 300.279 24.8754 301.431 24.3944C300.291 24.3142 299.613 23.9735 300.858 23.7798C300.359 23.6929 299.182 23.9668 299.145 23.6261C302.244 22.0895 300.993 21.1007 298.862 19.9182C299.817 20.1788 300.038 19.9316 300.574 19.6109C300.273 18.689 299.04 18.2814 298.578 17.4463C299.028 17.433 299.564 17.4664 299.435 17.139C298.19 15.7761 295.738 15.3151 294.302 14.1994C294.617 14.4399 294.734 12.9234 293.446 13.2708C294.752 12.8232 295.738 13.685 296.015 13.8921C296.52 12.3956 293.994 12.1484 293.163 10.7989C292.959 10.378 294.506 10.9058 294.302 10.4916C293.89 10.4047 293.606 10.251 293.446 10.0306C294.315 10.0239 294.555 10.3579 295.159 10.4916C295.251 9.87023 293.169 9.62304 293.736 9.2556C295.294 9.18879 293.656 9.72993 295.159 9.40925C295.165 8.57415 289.94 7.95951 291.167 6.93734C288.69 7.405 287.624 5.41411 285.461 5.70138C285.917 5.80159 285.917 4.95981 285.455 5.07338ZM63.6075 12.3355C62.8805 13.0236 62.061 13.6583 61.8947 14.6537C58.5862 14.7606 55.3886 14.794 52.7701 14.8074C52.6038 14.1527 53.5403 14.0925 54.1933 13.8787C54.2981 13.6182 53.9715 13.5848 53.6204 13.5714C55.1606 12.2687 60.3236 12.1885 63.6075 12.3355ZM293.15 12.1818C294.216 12.2753 294.623 12.723 295.43 12.9568C294.838 13.2173 293.298 12.6762 293.15 12.1818ZM224.146 14.9677C228.096 14.6804 233.708 14.8341 236.98 15.4287C232.458 15.4087 228.465 15.0947 224.146 14.9677ZM258.938 15.8897C252.66 16.0901 243.215 15.7627 238.693 15.4287C245.23 15.0813 252.204 15.8296 258.938 15.8897ZM290.587 28.2626C290.63 27.8818 291.555 28.2159 291.727 28.2626C294.654 28.2493 291.45 28.6167 290.587 28.2626ZM270.342 49.2873C270.379 48.9465 271.55 49.2204 272.055 49.1336C271.691 49.7416 272.837 49.5344 273.195 49.7549C272.209 50.2226 270.576 49.7282 270.342 49.2873ZM270.059 55.1597C260.109 55.1731 248.834 56.3155 239.266 55.781C238.144 55.7209 236.598 55.2399 235.273 55.3201C233.616 54.9059 234.54 56.2955 233.561 55.781C197.481 55.9547 166.306 54.9593 131.478 55.3201C147.866 55.0929 163.355 54.2845 178.813 54.2378C197.987 54.1843 217.363 54.7388 237.269 53.7768C237.762 53.7501 237.886 53.6031 238.409 53.6231C239.796 53.6766 240.911 54.1108 242.402 54.2378C246.148 54.5584 251.619 54.1776 256.658 54.3914C261.384 54.5919 266.097 54.4449 270.059 55.1597Z"

             to="M295.455 5.07338C294.759 5.28049 295.967 5.54104 295.172 5.6947C292.578 5.5544 291.37 4.66585 288.616 4.6124C288.678 4.31845 288.296 4.27168 288.333 3.99108C258.249 0.837722 225.016 1.25862 191.087 0.276531C167.441 -0.404916 122.075 0.316616 99.5136 0.89785C93.8023 1.04483 88.054 1.21853 83.2607 1.51917C76.6437 1.9267 69.5153 2.08036 63.8718 3.22279C63.0092 3.39649 62.4917 3.75057 61.5922 3.83742C50.4961 4.99321 36.184 3.10253 26.5172 5.3807C26.6281 6.38283 28.8153 6.97742 28.5134 7.69896C24.4533 7.81921 20.2329 7.84594 18.8159 9.40257C19.4382 9.37585 19.7216 9.52951 19.6723 9.87023C18.5756 9.99717 17.2325 9.99049 17.1031 10.6452C18.3415 10.6452 19.5737 10.6452 20.8121 10.6452C21.8964 11.5672 26.0244 12.3689 23.3813 13.8921C26.049 13.4913 28.2054 14.8141 27.3736 16.364C25.3651 16.511 24.0651 17.159 23.0978 17.4463C25.1926 17.9073 27.8788 18.0476 29.3698 18.8359C28.5134 19.3904 25.8334 20.2924 27.3736 21.1542C21.6623 21.2477 14.7619 21.4949 10.2643 22.6975C10.0733 23.7263 9.08141 24.3209 7.98474 24.8621C8.96435 25.5168 11.0222 25.5903 11.4041 26.5657C13.3634 26.7928 15.7415 26.7928 16.5363 27.648C15.8832 28.5299 13.3449 28.3896 12.8273 29.3516C15.4766 29.7458 18.5078 29.4652 20.5287 30.4339C19.623 30.6143 18.206 30.5141 18.2491 31.2089C20.5965 31.1755 21.3974 31.9772 22.5249 32.5985C22.1429 32.5985 21.7671 32.5985 21.3851 32.5985C22.7035 33.3334 21.4344 33.928 22.2415 35.0704C20.1837 37.4087 13.4188 37.1949 7.41176 37.3887C8.09564 38.0501 10.8065 38.4309 10.5477 39.0856C8.90891 39.2793 7.24542 39.4597 6.83879 40.3216C7.43025 40.7224 8.47763 40.8761 9.69136 40.9429C9.6852 41.2502 8.91507 41.1366 9.11838 41.5642C12.1804 41.965 15.1994 42.3926 17.6699 43.1075C14.8359 43.5284 11.1947 43.515 9.11838 44.3434C12.9567 43.6954 20.0481 42.8068 21.6623 45.1184C19.9434 46.8688 13.0738 45.8199 9.40179 46.508C9.17383 48.519 12.7657 48.0647 14.8174 48.519C10.6032 49.0735 4.86108 49.5812 0 49.2873C4.76867 50.0823 9.716 50.5633 15.6861 50.6769C15.1624 51.4585 15.76 52.8081 13.9733 53.4628C18.6927 54.2044 22.9007 55.2198 28.5134 55.4737C28.6859 56.2554 29.2774 56.8166 29.9366 57.331C28.9077 57.2909 28.5627 57.6183 27.657 57.6383C27.7618 58.1928 28.421 58.2062 27.9404 58.7206C29.567 59.5023 30.8053 59.1014 32.7892 59.4956C36.72 60.2706 42.4991 59.9633 47.9023 59.8029C62.9908 59.3687 79.5024 59.1883 94.098 58.7206C123.554 57.7853 176.46 58.6271 206.483 59.0279C214.388 59.1348 223.303 58.9745 233.29 58.7206C241.102 58.5202 246.851 58.3799 254.108 58.2596C261.354 58.1394 268.919 58.6271 275.493 58.2596C278.173 58.1127 280.706 57.5515 283.478 58.106C283.429 57.7719 283.712 57.6116 284.334 57.645C288.142 57.5515 293.57 56.9903 292.319 54.7054C293.73 54.6119 293.046 54.5518 294.032 53.9304C293.157 53.6298 291.796 53.5964 291.179 53.1555C290.311 53.9705 287.433 53.7033 286.047 54.2378C284.704 53.5229 282.406 53.3292 281.488 52.3805C282.48 52.4673 283.607 53.2824 284.341 52.9951C283.318 52.5208 282.363 52.0064 281.488 51.4519C283.09 51.2047 286.867 51.6389 286.337 52.5341C287.477 52.4807 287.92 52.8081 289.189 52.6878C290.009 52.5408 289.374 52.1734 289.762 52.0665C290.187 52.2469 291.038 52.2001 290.902 52.6878C290.545 52.6544 290.317 52.4473 290.329 52.8415C292.017 53.3893 294.895 53.6365 296.318 53.4628C295.905 53.3626 294.513 53.0218 295.178 52.8415C297.014 53.1087 298.129 52.6277 299.17 52.0665C298.413 52.0665 297.488 52.1533 297.458 51.7592C298.64 51.7391 297.513 51.659 297.458 51.4519C299.146 51.0577 299.448 52.2201 300.027 51.9128C299.639 51.4986 298.696 50.5833 298.887 50.3695C300.347 50.3495 300.797 50.4831 300.027 49.9086C300.526 50.1624 301.967 50.7036 302.59 50.3695C301.475 49.6547 298.875 48.8129 298.314 47.8976C300.495 47.7373 301.579 48.7528 303.163 48.0513C301.672 47.5369 300.452 47.7573 299.743 46.969C301 47.1494 302.405 47.45 303.452 46.969C301.401 47.0826 301.364 45.7998 301.74 45.4257C299.891 44.9313 297.803 44.5706 295.184 44.4971C294.753 45.105 294.741 45.7999 294.611 46.194C295.036 46.2207 295.665 46.1406 295.751 46.3477C295.412 46.4212 295.104 46.5147 294.895 46.655C295.967 46.7418 296.866 46.9222 296.891 47.5836C295.03 47.4567 294.987 47.7106 295.178 48.0446C292.978 48.0246 291.808 47.8375 290.046 48.1983C283.903 46.2742 271.661 47.6504 266.092 45.4124C266.578 45.3522 266.03 45.2119 266.092 44.9514C272.536 44.0294 279.227 45.2253 284.914 46.0337C287.742 45.0583 289.799 46.8821 292.325 46.655C291.364 46.8153 291.882 46.174 291.752 45.88C292.559 45.7531 292.492 46.1005 293.176 46.0337C293.613 45.0249 292.375 44.9247 291.752 44.4904C292.596 44.4503 293.157 45.105 293.465 44.4904C292.911 44.5639 292.005 44.0762 292.609 44.0294C295.769 44.0962 299.398 44.3501 302.306 44.9581C302.103 44.4971 301.456 44.2833 301.733 43.5684C300.39 44.2499 299.497 42.9672 298.314 42.6398C300.6 42.6131 301.703 43.6085 303.163 43.5684C304.58 43.4014 302.023 43.0407 302.306 42.4861C302.812 42.4861 303.132 43.3547 303.729 42.7935C303.471 42.6933 304.395 42.3325 303.446 42.0185C303.871 41.9918 304.5 42.0719 304.586 41.8648C303.662 41.6844 304.592 41.4573 303.729 41.2435C304.919 40.8761 305.393 41.4907 306.582 41.5508C306.674 41.1901 306.539 40.9562 306.299 40.7758C307.05 40.9362 307.26 41.3905 308.011 41.5508C307.038 40.5019 306.496 40.1545 305.732 39.0789C308.628 39.2125 308.64 39.9875 310.291 40.0076C308.991 38.805 308.677 37.068 307.155 35.9857C308.628 35.9924 309.718 36.3598 310.291 35.6784C309.404 35.2842 306.711 35.8654 306.299 35.2174C307.137 34.8165 308.19 35.4846 308.868 35.0637C308.529 35.037 308.061 35.0904 308.011 34.9101C310.691 34.4892 312.035 34.3021 314 33.5204C312.546 33.4336 310.402 33.6073 309.151 33.0595C310.39 32.7254 310.593 31.8903 311.72 32.5918C312.429 31.5362 311.258 31.4627 311.72 30.5809C308.449 30.4473 307.112 29.2647 304.309 28.8773C306.884 28.0221 309.127 29.4184 311.72 28.7236C310.433 28.4964 309.41 28.1223 309.151 27.334C310.919 27.5745 310.618 26.6859 311.72 26.559C310.014 26.4521 309.281 25.8241 308.011 25.4767C309.472 25.136 307.352 24.6349 308.011 24.3944C309.102 24.8554 310.279 24.8754 311.431 24.3944C310.291 24.3142 309.613 23.9735 310.858 23.7798C310.359 23.6929 309.182 23.9668 309.145 23.6261C312.244 22.0895 310.993 21.1007 308.862 19.9182C309.817 20.1788 310.038 19.9316 310.574 19.6109C310.273 18.689 309.04 18.2814 308.578 17.4463C309.028 17.433 309.564 17.4664 309.435 17.139C308.19 15.7761 305.738 15.3151 304.302 14.1994C304.617 14.4399 304.734 12.9234 303.446 13.2708C304.752 12.8232 305.738 13.685 306.015 13.8921C306.52 12.3956 303.994 12.1484 303.163 10.7989C302.959 10.378 304.506 10.9058 304.302 10.4916C303.89 10.4047 303.606 10.251 303.446 10.0306C304.315 10.0239 304.555 10.3579 305.159 10.4916C305.251 9.87023 303.169 9.62304 303.736 9.2556C305.294 9.18879 303.656 9.72993 305.159 9.40925C305.165 8.57415 299.94 7.95951 301.167 6.93734C298.69 7.405 297.624 5.4141 295.461 5.70138C295.917 5.80159 295.917 4.95981 295.455 5.07338ZM53.6075 12.3355C52.8805 13.0236 52.061 13.6583 51.8947 14.6537C48.5862 14.7606 45.3886 14.794 42.7701 14.8074C42.6038 14.1527 43.5403 14.0925 44.1933 13.8787C44.2981 13.6182 43.9715 13.5848 43.6204 13.5714C45.1606 12.2687 50.3236 12.1885 53.6075 12.3355ZM303.15 12.1818C304.216 12.2753 304.623 12.723 305.43 12.9568C304.839 13.2173 303.298 12.6762 303.15 12.1818ZM234.146 14.9677C238.096 14.6804 243.708 14.8341 246.98 15.4287C242.458 15.4087 238.465 15.0947 234.146 14.9677ZM268.938 15.8897C262.66 16.0901 253.215 15.7627 248.693 15.4287C255.23 15.0813 262.204 15.8296 268.938 15.8897ZM300.587 28.2626C300.63 27.8818 301.555 28.2159 301.727 28.2626C304.654 28.2493 301.45 28.6167 300.587 28.2626ZM280.342 49.2873C280.379 48.9465 281.55 49.2204 282.055 49.1336C281.691 49.7416 282.837 49.5344 283.195 49.7549C282.209 50.2226 280.576 49.7282 280.342 49.2873ZM280.059 55.1597C270.109 55.1731 258.834 56.3155 249.266 55.781C248.144 55.7209 246.598 55.2399 245.273 55.3201C243.616 54.9059 244.54 56.2955 243.561 55.781C207.481 55.9547 176.306 54.9593 141.478 55.3201C157.866 55.0929 173.355 54.2845 188.813 54.2378C207.987 54.1843 227.363 54.7388 247.269 53.7768C247.762 53.7501 247.886 53.6031 248.409 53.6231C249.796 53.6766 250.911 54.1108 252.402 54.2378C256.148 54.5584 261.619 54.1776 266.658 54.3914C271.384 54.5919 276.097 54.4449 280.059 55.1597Z"
             dur="300ms"
             begin="mouseenter"
             repeatCount="1"
             fill="freeze"
             />
    <!-- Mouseleave -->
    <animate attributeName="d"
             from="M295.455 5.07338C294.759 5.28049 295.967 5.54104 295.172 5.6947C292.578 5.5544 291.37 4.66585 288.616 4.6124C288.678 4.31845 288.296 4.27168 288.333 3.99108C258.249 0.837722 225.016 1.25862 191.087 0.276531C167.441 -0.404916 122.075 0.316616 99.5136 0.89785C93.8023 1.04483 88.054 1.21853 83.2607 1.51917C76.6437 1.9267 69.5153 2.08036 63.8718 3.22279C63.0092 3.39649 62.4917 3.75057 61.5922 3.83742C50.4961 4.99321 36.184 3.10253 26.5172 5.3807C26.6281 6.38283 28.8153 6.97742 28.5134 7.69896C24.4533 7.81921 20.2329 7.84594 18.8159 9.40257C19.4382 9.37585 19.7216 9.52951 19.6723 9.87023C18.5756 9.99717 17.2325 9.99049 17.1031 10.6452C18.3415 10.6452 19.5737 10.6452 20.8121 10.6452C21.8964 11.5672 26.0244 12.3689 23.3813 13.8921C26.049 13.4913 28.2054 14.8141 27.3736 16.364C25.3651 16.511 24.0651 17.159 23.0978 17.4463C25.1926 17.9073 27.8788 18.0476 29.3698 18.8359C28.5134 19.3904 25.8334 20.2924 27.3736 21.1542C21.6623 21.2477 14.7619 21.4949 10.2643 22.6975C10.0733 23.7263 9.08141 24.3209 7.98474 24.8621C8.96435 25.5168 11.0222 25.5903 11.4041 26.5657C13.3634 26.7928 15.7415 26.7928 16.5363 27.648C15.8832 28.5299 13.3449 28.3896 12.8273 29.3516C15.4766 29.7458 18.5078 29.4652 20.5287 30.4339C19.623 30.6143 18.206 30.5141 18.2491 31.2089C20.5965 31.1755 21.3974 31.9772 22.5249 32.5985C22.1429 32.5985 21.7671 32.5985 21.3851 32.5985C22.7035 33.3334 21.4344 33.928 22.2415 35.0704C20.1837 37.4087 13.4188 37.1949 7.41176 37.3887C8.09564 38.0501 10.8065 38.4309 10.5477 39.0856C8.90891 39.2793 7.24542 39.4597 6.83879 40.3216C7.43025 40.7224 8.47763 40.8761 9.69136 40.9429C9.6852 41.2502 8.91507 41.1366 9.11838 41.5642C12.1804 41.965 15.1994 42.3926 17.6699 43.1075C14.8359 43.5284 11.1947 43.515 9.11838 44.3434C12.9567 43.6954 20.0481 42.8068 21.6623 45.1184C19.9434 46.8688 13.0738 45.8199 9.40179 46.508C9.17383 48.519 12.7657 48.0647 14.8174 48.519C10.6032 49.0735 4.86108 49.5812 0 49.2873C4.76867 50.0823 9.716 50.5633 15.6861 50.6769C15.1624 51.4585 15.76 52.8081 13.9733 53.4628C18.6927 54.2044 22.9007 55.2198 28.5134 55.4737C28.6859 56.2554 29.2774 56.8166 29.9366 57.331C28.9077 57.2909 28.5627 57.6183 27.657 57.6383C27.7618 58.1928 28.421 58.2062 27.9404 58.7206C29.567 59.5023 30.8053 59.1014 32.7892 59.4956C36.72 60.2706 42.4991 59.9633 47.9023 59.8029C62.9908 59.3687 79.5024 59.1883 94.098 58.7206C123.554 57.7853 176.46 58.6271 206.483 59.0279C214.388 59.1348 223.303 58.9745 233.29 58.7206C241.102 58.5202 246.851 58.3799 254.108 58.2596C261.354 58.1394 268.919 58.6271 275.493 58.2596C278.173 58.1127 280.706 57.5515 283.478 58.106C283.429 57.7719 283.712 57.6116 284.334 57.645C288.142 57.5515 293.57 56.9903 292.319 54.7054C293.73 54.6119 293.046 54.5518 294.032 53.9304C293.157 53.6298 291.796 53.5964 291.179 53.1555C290.311 53.9705 287.433 53.7033 286.047 54.2378C284.704 53.5229 282.406 53.3292 281.488 52.3805C282.48 52.4673 283.607 53.2824 284.341 52.9951C283.318 52.5208 282.363 52.0064 281.488 51.4519C283.09 51.2047 286.867 51.6389 286.337 52.5341C287.477 52.4807 287.92 52.8081 289.189 52.6878C290.009 52.5408 289.374 52.1734 289.762 52.0665C290.187 52.2469 291.038 52.2001 290.902 52.6878C290.545 52.6544 290.317 52.4473 290.329 52.8415C292.017 53.3893 294.895 53.6365 296.318 53.4628C295.905 53.3626 294.513 53.0218 295.178 52.8415C297.014 53.1087 298.129 52.6277 299.17 52.0665C298.413 52.0665 297.488 52.1533 297.458 51.7592C298.64 51.7391 297.513 51.659 297.458 51.4519C299.146 51.0577 299.448 52.2201 300.027 51.9128C299.639 51.4986 298.696 50.5833 298.887 50.3695C300.347 50.3495 300.797 50.4831 300.027 49.9086C300.526 50.1624 301.967 50.7036 302.59 50.3695C301.475 49.6547 298.875 48.8129 298.314 47.8976C300.495 47.7373 301.579 48.7528 303.163 48.0513C301.672 47.5369 300.452 47.7573 299.743 46.969C301 47.1494 302.405 47.45 303.452 46.969C301.401 47.0826 301.364 45.7998 301.74 45.4257C299.891 44.9313 297.803 44.5706 295.184 44.4971C294.753 45.105 294.741 45.7999 294.611 46.194C295.036 46.2207 295.665 46.1406 295.751 46.3477C295.412 46.4212 295.104 46.5147 294.895 46.655C295.967 46.7418 296.866 46.9222 296.891 47.5836C295.03 47.4567 294.987 47.7106 295.178 48.0446C292.978 48.0246 291.808 47.8375 290.046 48.1983C283.903 46.2742 271.661 47.6504 266.092 45.4124C266.578 45.3522 266.03 45.2119 266.092 44.9514C272.536 44.0294 279.227 45.2253 284.914 46.0337C287.742 45.0583 289.799 46.8821 292.325 46.655C291.364 46.8153 291.882 46.174 291.752 45.88C292.559 45.7531 292.492 46.1005 293.176 46.0337C293.613 45.0249 292.375 44.9247 291.752 44.4904C292.596 44.4503 293.157 45.105 293.465 44.4904C292.911 44.5639 292.005 44.0762 292.609 44.0294C295.769 44.0962 299.398 44.3501 302.306 44.9581C302.103 44.4971 301.456 44.2833 301.733 43.5684C300.39 44.2499 299.497 42.9672 298.314 42.6398C300.6 42.6131 301.703 43.6085 303.163 43.5684C304.58 43.4014 302.023 43.0407 302.306 42.4861C302.812 42.4861 303.132 43.3547 303.729 42.7935C303.471 42.6933 304.395 42.3325 303.446 42.0185C303.871 41.9918 304.5 42.0719 304.586 41.8648C303.662 41.6844 304.592 41.4573 303.729 41.2435C304.919 40.8761 305.393 41.4907 306.582 41.5508C306.674 41.1901 306.539 40.9562 306.299 40.7758C307.05 40.9362 307.26 41.3905 308.011 41.5508C307.038 40.5019 306.496 40.1545 305.732 39.0789C308.628 39.2125 308.64 39.9875 310.291 40.0076C308.991 38.805 308.677 37.068 307.155 35.9857C308.628 35.9924 309.718 36.3598 310.291 35.6784C309.404 35.2842 306.711 35.8654 306.299 35.2174C307.137 34.8165 308.19 35.4846 308.868 35.0637C308.529 35.037 308.061 35.0904 308.011 34.9101C310.691 34.4892 312.035 34.3021 314 33.5204C312.546 33.4336 310.402 33.6073 309.151 33.0595C310.39 32.7254 310.593 31.8903 311.72 32.5918C312.429 31.5362 311.258 31.4627 311.72 30.5809C308.449 30.4473 307.112 29.2647 304.309 28.8773C306.884 28.0221 309.127 29.4184 311.72 28.7236C310.433 28.4964 309.41 28.1223 309.151 27.334C310.919 27.5745 310.618 26.6859 311.72 26.559C310.014 26.4521 309.281 25.8241 308.011 25.4767C309.472 25.136 307.352 24.6349 308.011 24.3944C309.102 24.8554 310.279 24.8754 311.431 24.3944C310.291 24.3142 309.613 23.9735 310.858 23.7798C310.359 23.6929 309.182 23.9668 309.145 23.6261C312.244 22.0895 310.993 21.1007 308.862 19.9182C309.817 20.1788 310.038 19.9316 310.574 19.6109C310.273 18.689 309.04 18.2814 308.578 17.4463C309.028 17.433 309.564 17.4664 309.435 17.139C308.19 15.7761 305.738 15.3151 304.302 14.1994C304.617 14.4399 304.734 12.9234 303.446 13.2708C304.752 12.8232 305.738 13.685 306.015 13.8921C306.52 12.3956 303.994 12.1484 303.163 10.7989C302.959 10.378 304.506 10.9058 304.302 10.4916C303.89 10.4047 303.606 10.251 303.446 10.0306C304.315 10.0239 304.555 10.3579 305.159 10.4916C305.251 9.87023 303.169 9.62304 303.736 9.2556C305.294 9.18879 303.656 9.72993 305.159 9.40925C305.165 8.57415 299.94 7.95951 301.167 6.93734C298.69 7.405 297.624 5.4141 295.461 5.70138C295.917 5.80159 295.917 4.95981 295.455 5.07338ZM53.6075 12.3355C52.8805 13.0236 52.061 13.6583 51.8947 14.6537C48.5862 14.7606 45.3886 14.794 42.7701 14.8074C42.6038 14.1527 43.5403 14.0925 44.1933 13.8787C44.2981 13.6182 43.9715 13.5848 43.6204 13.5714C45.1606 12.2687 50.3236 12.1885 53.6075 12.3355ZM303.15 12.1818C304.216 12.2753 304.623 12.723 305.43 12.9568C304.839 13.2173 303.298 12.6762 303.15 12.1818ZM234.146 14.9677C238.096 14.6804 243.708 14.8341 246.98 15.4287C242.458 15.4087 238.465 15.0947 234.146 14.9677ZM268.938 15.8897C262.66 16.0901 253.215 15.7627 248.693 15.4287C255.23 15.0813 262.204 15.8296 268.938 15.8897ZM300.587 28.2626C300.63 27.8818 301.555 28.2159 301.727 28.2626C304.654 28.2493 301.45 28.6167 300.587 28.2626ZM280.342 49.2873C280.379 48.9465 281.55 49.2204 282.055 49.1336C281.691 49.7416 282.837 49.5344 283.195 49.7549C282.209 50.2226 280.576 49.7282 280.342 49.2873ZM280.059 55.1597C270.109 55.1731 258.834 56.3155 249.266 55.781C248.144 55.7209 246.598 55.2399 245.273 55.3201C243.616 54.9059 244.54 56.2955 243.561 55.781C207.481 55.9547 176.306 54.9593 141.478 55.3201C157.866 55.0929 173.355 54.2845 188.813 54.2378C207.987 54.1843 227.363 54.7388 247.269 53.7768C247.762 53.7501 247.886 53.6031 248.409 53.6231C249.796 53.6766 250.911 54.1108 252.402 54.2378C256.148 54.5584 261.619 54.1776 266.658 54.3914C271.384 54.5919 276.097 54.4449 280.059 55.1597Z"

             to="M285.455 5.07338C284.759 5.28049 285.967 5.54104 285.172 5.6947C282.578 5.5544 281.37 4.66585 278.616 4.6124C278.678 4.31845 278.296 4.27168 278.333 3.99108C248.249 0.837722 215.016 1.25862 181.087 0.276531C157.441 -0.404916 132.075 0.316616 109.514 0.89785C103.802 1.04483 98.054 1.21853 93.2607 1.51917C86.6437 1.9267 79.5153 2.08036 73.8718 3.22279C73.0092 3.39649 72.4917 3.75057 71.5922 3.83742C60.4961 4.99321 46.184 3.10253 36.5172 5.3807C36.6281 6.38283 38.8153 6.97742 38.5134 7.69896C34.4533 7.81921 30.2329 7.84594 28.8159 9.40257C29.4382 9.37585 29.7216 9.52951 29.6723 9.87023C28.5756 9.99717 27.2325 9.99049 27.1031 10.6452C28.3415 10.6452 29.5737 10.6452 30.8121 10.6452C31.8964 11.5672 36.0244 12.3689 33.3813 13.8921C36.049 13.4913 38.2054 14.8141 37.3736 16.364C35.3651 16.511 34.0651 17.159 33.0978 17.4463C35.1926 17.9073 37.8788 18.0476 39.3698 18.8359C38.5134 19.3904 35.8334 20.2924 37.3736 21.1542C31.6623 21.2477 24.7619 21.4949 20.2643 22.6975C20.0733 23.7263 19.0814 24.3209 17.9847 24.8621C18.9644 25.5168 21.0222 25.5903 21.4041 26.5657C23.3634 26.7928 25.7415 26.7928 26.5363 27.648C25.8832 28.5299 23.3449 28.3896 22.8273 29.3516C25.4766 29.7458 28.5078 29.4652 30.5287 30.4339C29.623 30.6143 28.206 30.5141 28.2491 31.2089C30.5965 31.1755 31.3974 31.9772 32.5249 32.5985C32.1429 32.5985 31.7671 32.5985 31.3851 32.5985C32.7035 33.3334 31.4344 33.928 32.2415 35.0704C30.1837 37.4087 23.4188 37.1949 17.4118 37.3887C18.0956 38.0501 20.8065 38.4309 20.5477 39.0856C18.9089 39.2793 17.2454 39.4597 16.8388 40.3216C17.4302 40.7224 18.4776 40.8761 19.6914 40.9429C19.6852 41.2502 18.9151 41.1366 19.1184 41.5642C22.1804 41.965 25.1994 42.3926 27.6699 43.1075C24.8359 43.5284 21.1947 43.515 19.1184 44.3434C22.9567 43.6954 30.0481 42.8068 31.6623 45.1184C29.9434 46.8688 23.0738 45.8199 19.4018 46.508C19.1738 48.519 22.7657 48.0647 24.8174 48.519C20.6032 49.0735 14.8611 49.5812 10 49.2873C14.7687 50.0823 19.716 50.5633 25.6861 50.6769C25.1624 51.4585 25.76 52.8081 23.9733 53.4628C28.6927 54.2044 32.9007 55.2198 38.5134 55.4737C38.6859 56.2554 39.2774 56.8166 39.9366 57.331C38.9077 57.2909 38.5627 57.6183 37.657 57.6383C37.7618 58.1928 38.421 58.2062 37.9404 58.7206C39.567 59.5023 40.8053 59.1014 42.7892 59.4956C46.72 60.2706 52.499 59.9633 57.9023 59.8029C72.9908 59.3687 89.5024 59.1883 104.098 58.7206C133.554 57.7853 166.46 58.6271 196.483 59.0279C204.388 59.1348 213.303 58.9745 223.29 58.7206C231.102 58.5202 236.851 58.3799 244.108 58.2596C251.354 58.1394 258.919 58.6271 265.493 58.2596C268.173 58.1127 270.706 57.5515 273.478 58.106C273.429 57.7719 273.712 57.6116 274.334 57.645C278.142 57.5515 283.57 56.9903 282.319 54.7054C283.73 54.6119 283.046 54.5518 284.032 53.9304C283.157 53.6298 281.796 53.5964 281.179 53.1555C280.311 53.9705 277.433 53.7033 276.047 54.2378C274.704 53.5229 272.406 53.3292 271.488 52.3805C272.48 52.4673 273.607 53.2824 274.341 52.9951C273.318 52.5208 272.363 52.0064 271.488 51.4519C273.09 51.2047 276.867 51.6389 276.337 52.5341C277.477 52.4807 277.92 52.8081 279.189 52.6878C280.009 52.5408 279.374 52.1734 279.762 52.0665C280.187 52.2469 281.038 52.2001 280.902 52.6878C280.545 52.6544 280.317 52.4473 280.329 52.8415C282.017 53.3893 284.895 53.6365 286.318 53.4628C285.905 53.3626 284.513 53.0218 285.178 52.8415C287.014 53.1087 288.129 52.6277 289.17 52.0665C288.413 52.0665 287.488 52.1533 287.458 51.7592C288.64 51.7391 287.513 51.659 287.458 51.4519C289.146 51.0577 289.448 52.2201 290.027 51.9128C289.639 51.4986 288.696 50.5833 288.887 50.3695C290.347 50.3495 290.797 50.4831 290.027 49.9086C290.526 50.1624 291.967 50.7036 292.59 50.3695C291.475 49.6547 288.875 48.8129 288.314 47.8976C290.495 47.7373 291.579 48.7528 293.163 48.0513C291.672 47.5369 290.452 47.7573 289.743 46.969C291 47.1494 292.405 47.45 293.452 46.969C291.401 47.0826 291.364 45.7998 291.74 45.4257C289.891 44.9313 287.803 44.5706 285.184 44.4971C284.753 45.105 284.74 45.7998 284.611 46.194C285.036 46.2207 285.665 46.1406 285.751 46.3477C285.412 46.4212 285.104 46.5147 284.895 46.655C285.967 46.7418 286.866 46.9222 286.891 47.5836C285.03 47.4567 284.987 47.7106 285.178 48.0446C282.978 48.0246 281.808 47.8375 280.046 48.1983C273.903 46.2742 261.661 47.6504 256.092 45.4124C256.578 45.3522 256.03 45.2119 256.092 44.9514C262.536 44.0294 269.227 45.2253 274.914 46.0337C277.742 45.0583 279.799 46.8821 282.325 46.655C281.364 46.8153 281.882 46.174 281.752 45.88C282.559 45.7531 282.492 46.1005 283.176 46.0337C283.613 45.0249 282.375 44.9247 281.752 44.4904C282.596 44.4503 283.157 45.105 283.465 44.4904C282.911 44.5639 282.005 44.0762 282.609 44.0294C285.769 44.0962 289.398 44.3501 292.306 44.9581C292.103 44.4971 291.456 44.2833 291.733 43.5684C290.39 44.2499 289.497 42.9672 288.314 42.6398C290.6 42.6131 291.703 43.6085 293.163 43.5684C294.58 43.4014 292.023 43.0407 292.306 42.4861C292.812 42.4861 293.132 43.3547 293.729 42.7935C293.471 42.6933 294.395 42.3325 293.446 42.0185C293.871 41.9918 294.5 42.0719 294.586 41.8648C293.662 41.6844 294.592 41.4573 293.729 41.2435C294.919 40.8761 295.393 41.4907 296.582 41.5508C296.675 41.1901 296.539 40.9562 296.299 40.7758C297.05 40.9362 297.26 41.3905 298.011 41.5508C297.038 40.5019 296.496 40.1545 295.732 39.0789C298.628 39.2125 298.64 39.9875 300.291 40.0076C298.991 38.805 298.677 37.068 297.155 35.9857C298.628 35.9924 299.718 36.3598 300.291 35.6784C299.404 35.2842 296.711 35.8654 296.299 35.2174C297.137 34.8165 298.19 35.4846 298.868 35.0637C298.529 35.037 298.061 35.0904 298.011 34.9101C300.692 34.4892 302.035 34.3021 304 33.5204C302.546 33.4336 300.402 33.6073 299.151 33.0595C300.39 32.7254 300.593 31.8903 301.72 32.5918C302.429 31.5362 301.258 31.4627 301.72 30.5809C298.449 30.4473 297.112 29.2647 294.309 28.8773C296.884 28.0221 299.127 29.4184 301.72 28.7236C300.433 28.4964 299.41 28.1223 299.151 27.334C300.919 27.5745 300.618 26.6859 301.72 26.559C300.014 26.4521 299.281 25.8241 298.011 25.4767C299.472 25.136 297.352 24.6349 298.011 24.3944C299.102 24.8554 300.279 24.8754 301.431 24.3944C300.291 24.3142 299.613 23.9735 300.858 23.7798C300.359 23.6929 299.182 23.9668 299.145 23.6261C302.244 22.0895 300.993 21.1007 298.862 19.9182C299.817 20.1788 300.038 19.9316 300.574 19.6109C300.273 18.689 299.04 18.2814 298.578 17.4463C299.028 17.433 299.564 17.4664 299.435 17.139C298.19 15.7761 295.738 15.3151 294.302 14.1994C294.617 14.4399 294.734 12.9234 293.446 13.2708C294.752 12.8232 295.738 13.685 296.015 13.8921C296.52 12.3956 293.994 12.1484 293.163 10.7989C292.959 10.378 294.506 10.9058 294.302 10.4916C293.89 10.4047 293.606 10.251 293.446 10.0306C294.315 10.0239 294.555 10.3579 295.159 10.4916C295.251 9.87023 293.169 9.62304 293.736 9.2556C295.294 9.18879 293.656 9.72993 295.159 9.40925C295.165 8.57415 289.94 7.95951 291.167 6.93734C288.69 7.405 287.624 5.41411 285.461 5.70138C285.917 5.80159 285.917 4.95981 285.455 5.07338ZM63.6075 12.3355C62.8805 13.0236 62.061 13.6583 61.8947 14.6537C58.5862 14.7606 55.3886 14.794 52.7701 14.8074C52.6038 14.1527 53.5403 14.0925 54.1933 13.8787C54.2981 13.6182 53.9715 13.5848 53.6204 13.5714C55.1606 12.2687 60.3236 12.1885 63.6075 12.3355ZM293.15 12.1818C294.216 12.2753 294.623 12.723 295.43 12.9568C294.838 13.2173 293.298 12.6762 293.15 12.1818ZM224.146 14.9677C228.096 14.6804 233.708 14.8341 236.98 15.4287C232.458 15.4087 228.465 15.0947 224.146 14.9677ZM258.938 15.8897C252.66 16.0901 243.215 15.7627 238.693 15.4287C245.23 15.0813 252.204 15.8296 258.938 15.8897ZM290.587 28.2626C290.63 27.8818 291.555 28.2159 291.727 28.2626C294.654 28.2493 291.45 28.6167 290.587 28.2626ZM270.342 49.2873C270.379 48.9465 271.55 49.2204 272.055 49.1336C271.691 49.7416 272.837 49.5344 273.195 49.7549C272.209 50.2226 270.576 49.7282 270.342 49.2873ZM270.059 55.1597C260.109 55.1731 248.834 56.3155 239.266 55.781C238.144 55.7209 236.598 55.2399 235.273 55.3201C233.616 54.9059 234.54 56.2955 233.561 55.781C197.481 55.9547 166.306 54.9593 131.478 55.3201C147.866 55.0929 163.355 54.2845 178.813 54.2378C197.987 54.1843 217.363 54.7388 237.269 53.7768C237.762 53.7501 237.886 53.6031 238.409 53.6231C239.796 53.6766 240.911 54.1108 242.402 54.2378C246.148 54.5584 251.619 54.1776 256.658 54.3914C261.384 54.5919 266.097 54.4449 270.059 55.1597Z"
             dur="300ms"
             begin="mouseleave"
             repeatCount="1"
             fill="freeze"
             />
  </path>
</svg>
