<svg width="300" height="18" viewBox="0 0 300 18" fill="none" xmlns="http://www.w3.org/2000/svg">
<g clip-path="url(#clip-f0)">
<path d="M24.7119 3.0382H139.529C139.974 3.0382 140.34 3.3532 140.34 3.7357C140.34 8.4382 149.686 12.5332 151.571 13.2982C153.455 12.5107 162.801 8.4157 162.801 3.7357C162.801 3.3532 163.167 3.0382 163.612 3.0382H275.995C276.44 3.0382 276.806 3.3532 276.806 3.7357C276.806 4.1182 276.44 4.4332 275.995 4.4332H164.345C163.508 10.1707 152.382 14.5132 151.911 14.7157C151.701 14.8057 151.466 14.8057 151.256 14.7157C150.759 14.5357 139.66 10.1932 138.822 4.4332H24.7119C24.2669 4.4332 23.9004 4.1182 23.9004 3.7357C23.9266 3.3307 24.2669 3.0382 24.7119 3.0382Z" fill="#D1CFCE"/>
<path d="M47.2783 6.0075H136.729C137.069 6.0075 137.357 6.1875 137.488 6.4575C139.137 10.17 143.875 13.5675 151.572 16.56C159.242 13.5675 163.98 10.17 165.655 6.4575C165.786 6.1875 166.074 6.0075 166.414 6.0075H255.865C256.31 6.0075 256.676 6.3225 256.676 6.705C256.676 7.0875 256.31 7.4025 255.865 7.4025H166.912C164.922 11.3175 159.87 14.8725 151.886 17.9325C151.676 18.0225 151.441 18.0225 151.231 17.9325C143.247 14.8725 138.195 11.3175 136.205 7.38H47.2783C46.8333 7.38 46.4668 7.065 46.4668 6.6825C46.493 6.3225 46.8333 6.0075 47.2783 6.0075Z" fill="#E0DFDF"/>
<path d="M142.068 0.000390053C142.67 0.000390053 143.115 0.0678902 143.456 0.36039C143.927 0.76539 143.901 1.30539 143.874 2.27289C143.848 2.65539 143.848 3.12789 143.848 3.71289C143.848 5.22039 147.225 7.92039 151.597 9.94539C155.969 7.89789 159.372 5.19789 159.372 3.71289C159.372 3.10539 159.346 2.61039 159.319 2.22789C159.267 1.32789 159.241 0.76539 159.712 0.382891C160.183 -0.022109 160.812 0.000391006 161.937 0.022891C162.382 0.0453911 162.932 0.0453901 163.613 0.0453901H299.241C299.686 0.0453901 300.052 0.360391 300.052 0.74289C300.052 1.12539 299.686 1.44039 299.241 1.44039H163.586C162.88 1.44039 162.304 1.41789 161.832 1.41789C161.466 1.39539 161.073 1.39539 160.864 1.39539C160.864 1.57539 160.864 1.89039 160.89 2.18289C160.916 2.58789 160.942 3.10539 160.942 3.73539C160.942 6.57039 155.288 9.85539 151.937 11.3629C151.702 11.4754 151.44 11.4754 151.204 11.3629C147.853 9.85539 142.225 6.57039 142.225 3.73539C142.225 3.12789 142.251 2.63289 142.251 2.22789C142.277 1.91289 142.277 1.57539 142.277 1.39539C142.068 1.39539 141.702 1.39539 141.361 1.41789C140.89 1.44039 140.288 1.46289 139.555 1.46289H0.811518C0.366492 1.44039 0 1.12539 0 0.74289C0 0.360391 0.366492 0.0453901 0.811518 0.0453901H139.555C140.262 0.0453901 140.838 0.0228901 141.283 0.000390053C141.571 0.000390053 141.832 0.000390053 142.068 0.000390053Z" fill="#C9C7C5"/>
</g>
<defs>
<clipPath id="clip-f0">
<rect width="300" height="18" fill="white" transform="matrix(1 0 0 -1 0 18)"/>
</clipPath>
</defs>
</svg>
