<svg width="1023" height="10" viewBox="0 0 1023 10" fill="none" xmlns="http://www.w3.org/2000/svg">
<path d="M0.539034 10H498.885C502.853 10 509.142 4.32432 511.493 1.26126C513.604 4.0991 519.264 10 524.115 10H1022.46C1022.76 10 1023 9.81982 1023 9.59459C1023 9.36937 1022.76 9.18919 1022.46 9.18919H524.115C519.608 9.18919 513.694 2.85285 511.987 0.21021C511.897 0.0900901 511.702 0 511.507 0C511.298 0 511.103 0.0900901 511.013 0.225225C509.291 2.8979 502.539 9.2042 498.885 9.2042H0.539034C0.239571 9.2042 0 9.38439 0 9.60961C0 9.83484 0.239571 10 0.539034 10Z" />
<path d="M511.506 10C511.716 10 511.91 9.90991 512 9.77478C513.722 7.1021 520.475 0.795796 524.128 0.795796H1022.46C1022.76 0.795796 1023 0.615616 1023 0.39039C1023 0.165165 1022.75 0 1022.45 0H524.113C520.146 0 513.857 5.67568 511.506 8.73874C509.395 5.9009 503.735 0 498.884 0H0.539025C0.239567 0 0 0.18018 0 0.405405C0 0.630631 0.239567 0.810811 0.539025 0.810811H498.884C503.391 0.810811 509.305 7.14715 511.012 9.78979C511.102 9.92492 511.297 10 511.506 10Z" />
<path d="M0.539034 5.81081H487.255C487.555 5.81081 487.794 5.63063 487.794 5.40541C487.794 5.18018 487.555 5 487.255 5H0.539034C0.239571 5.01502 0 5.1952 0 5.40541C0 5.63063 0.239571 5.81081 0.539034 5.81081Z" fill-opacity="0.5"/>
<path d="M535.744 5.40554H1022.46C1022.76 5.40554 1023 5.22536 1023 5.00013C1023 4.77491 1022.76 4.59473 1022.46 4.59473H535.744C535.445 4.59473 535.205 4.77491 535.205 5.00013C535.205 5.22536 535.445 5.40554 535.744 5.40554Z" fill-opacity="0.5"/>
</svg>
