<svg width="16" height="20" viewBox="0 0 16 20" fill="none" xmlns="http://www.w3.org/2000/svg">
<path d="M13.4582 10.9447L8.19564 9.2371V5.77352C8.19564 4.68684 7.31154 3.80273 6.22485 3.80273C5.13817 3.80273 4.25407 4.68684 4.25407 5.77352V11.5935L2.84512 10.9261C2.00483 10.5281 0.98239 10.7734 0.414152 11.5093C-0.0552059 12.1172 -0.132449 12.9517 0.217389 13.6354L1.67364 16.4815C2.77818 18.6403 4.99934 20.0003 7.42661 20.0003C10.9899 20.0003 13.8889 17.1013 13.8889 13.538V11.5373C13.8889 11.2673 13.7149 11.0281 13.4582 10.9447ZM12.6429 13.538C12.6429 16.4143 10.3028 18.7543 7.42653 18.7543C5.45857 18.7543 3.67918 17.666 2.78279 15.9141L1.32654 13.0679C1.19539 12.8116 1.22438 12.4987 1.40029 12.2708C1.61371 11.9944 1.99723 11.9032 2.31168 12.0522L4.61026 13.141C4.80332 13.2324 5.02966 13.2186 5.2101 13.1044C5.39054 12.9902 5.49997 12.7915 5.49997 12.578V5.77356C5.49997 5.37389 5.82514 5.04876 6.22477 5.04876C6.6244 5.04876 6.94957 5.37393 6.94957 5.77356V9.68997C6.94957 9.95991 7.12345 10.1992 7.38031 10.2825L12.6428 11.9901L12.6429 13.538Z" fill="#D1CFCE"/>
<path d="M13.1744 8.16576L15.8175 5.52266C16.0608 5.27938 16.0608 4.8849 15.8175 4.64163C15.5743 4.39835 15.1798 4.39835 14.9365 4.64163L13.357 6.22121L13.357 0.622973C13.357 0.278907 13.078 -1.27724e-07 12.734 -1.42762e-07C12.3899 -1.57801e-07 12.111 0.278949 12.111 0.622973L12.111 6.22113L10.5314 4.64154C10.2882 4.39827 9.89372 4.39827 9.6504 4.64154C9.40708 4.88482 9.40708 5.2793 9.6504 5.52258L12.2935 8.16567C12.5348 8.40708 12.93 8.4102 13.1744 8.16576Z" fill="#D1CFCE"/>
</svg>
