<svg width="130" height="43" viewBox="0 0 130 43" fill="none" xmlns="http://www.w3.org/2000/svg">
<path d="M7.39872 21.8168C7.39872 22.323 7.35429 23.2131 8.64672 23.2131C9.41968 23.2131 10.1488 23.1806 10.1488 20.9278C10.1488 18.2927 8.58834 15.221 7.76326 15.221C7.399 15.221 7.399 15.8501 7.399 16.186V21.8168H7.39872ZM7.39872 8.4825C7.39872 9.64534 8.20214 9.98807 8.8008 9.98807C10.0032 9.98807 10.0032 8.32338 10.0032 7.75064C10.0032 6.23511 9.41939 5.73383 8.54675 5.73383C7.59608 5.73383 7.399 6.50639 7.399 7.04298V8.4825H7.39872ZM2.63966 8.16255C2.63966 6.81155 2.60662 4.71047 2.51606 3.79728C2.39587 2.47418 2.26315 2.04093 2.26315 1.43033C2.26315 0.415235 2.93642 0.334961 3.38955 0.334961C3.97425 0.334961 4.54841 0.373675 5.15589 0.415235C5.74202 0.450533 6.36858 0.450533 6.95442 0.450533C8.30382 0.450533 9.1437 0.334961 10.1485 0.334961C11.3182 0.334961 14.2212 1.03893 14.2212 7.54341C14.2212 9.05809 14.0657 11.0786 13.0745 12.3166C12.7747 12.7071 12.3022 13.0937 12.3022 13.4066C12.3022 13.7524 12.8646 14.4575 13.295 15.1877C13.6795 15.8501 14.8868 17.942 14.8868 21.4738C14.8868 24.5706 13.295 27.4776 9.98273 27.4776C9.28525 27.4776 9.07649 27.2761 6.49333 27.2761C3.59916 27.2761 3.95232 27.4776 2.99196 27.4776C2.00854 27.4776 1.93164 26.8169 1.93164 26.4995C1.93164 24.8832 2.63966 25.5373 2.63966 19.7639V8.16255Z" />
<path d="M22.5487 19.9197C22.5487 21.3834 22.6472 22.9812 23.9043 22.9812C25.3645 22.9812 25.1874 20.9974 25.1874 19.7643V13.6401C25.1874 12.4773 25.1874 10.7394 23.8089 10.7394C22.5487 10.7394 22.5487 12.477 22.5487 13.5134V19.9197ZM18.5176 11.8166C18.5176 10.539 18.5176 4.83301 23.9043 4.83301C28.8092 4.83301 29.2284 8.82992 29.2284 11.4289V20.152C29.2284 22.7501 29.0191 27.6326 23.8089 27.6326C19.8769 27.6326 18.5176 24.9152 18.5176 20.6971V11.8166Z" />
<path d="M40.2144 11.7284C40.2144 11.388 40.2824 10.5385 39.6285 10.5385C38.4597 10.5385 38.7995 14.0581 38.7109 15.3376C38.4258 19.9907 37.9297 21.8586 37.9297 22.7903C37.9297 23.213 38.0704 23.5259 39.0219 23.5259C40.3596 23.5259 40.2141 22.8652 40.2141 22.1185V11.7284H40.2144ZM37.5654 27.4778C36.8249 27.4778 34.581 27.4778 33.7547 29.2598C33.5876 29.6022 33.5243 30.0722 32.9824 30.0722C32.7736 30.0722 32.3398 29.9176 32.3398 29.4616C32.3398 28.9822 32.4626 28.9461 32.4626 27.7932C32.4626 26.8171 32.3854 26.4314 32.3854 25.9298C32.3854 25.5051 32.4626 25.4672 32.9826 25.0787C33.4224 24.804 33.6741 24.5336 34.0193 23.0949C34.8481 19.8751 35.5661 12.3168 35.5661 9.33016C35.5661 6.45623 34.9709 6.69506 34.9709 5.65036C34.9709 4.96205 35.6319 5.02952 36.0961 5.02952C36.9465 5.02952 38.945 5.1932 39.9281 5.1932C42.0901 5.1932 42.7534 4.99336 43.6798 4.99336C44.0683 4.99336 44.874 4.96177 44.874 5.69192C44.874 5.95466 44.7106 6.29711 44.5747 6.86216C44.4018 7.54306 44.266 8.63758 44.266 9.4167V22.4732C44.266 23.254 44.4021 24.7177 45.0062 25.1128C45.2833 25.2674 45.8666 25.3377 45.8666 26.0844C45.8666 26.3591 45.7806 26.6218 45.76 26.8903C45.7031 27.1621 45.7031 27.4371 45.7031 27.7118C45.7031 28.6739 45.8666 29.0275 45.8666 29.4616C45.8666 29.9583 45.5282 30.122 45.2833 30.122C44.6656 30.122 44.4904 29.2976 44.1475 28.8692C43.0755 27.4775 41.5635 27.4775 40.0147 27.4775H37.5654V27.4778Z" />
<path d="M53.2131 19.9197C53.2131 21.3834 53.2929 22.9812 54.5281 22.9812C55.9954 22.9812 55.8313 20.9974 55.8313 19.7643V13.6401C55.8313 12.4773 55.8313 10.7394 54.4506 10.7394C53.2128 10.7394 53.2128 12.477 53.2128 13.5134V19.9197H53.2131ZM49.1507 11.8166C49.1507 10.539 49.1507 4.83301 54.5281 4.83301C59.4648 4.83301 59.8826 8.82992 59.8826 11.4289V20.152C59.8826 22.7501 59.6759 27.6326 54.4506 27.6326C50.5177 27.6326 49.1504 24.9152 49.1504 20.6971V11.8166H49.1507Z" />
<path d="M65.5592 9.33065C64.1443 5.73426 63.6699 6.10631 63.6699 5.65085C63.6699 5.33431 63.8832 4.99414 64.8279 4.99414C65.0529 4.99414 65.314 4.99414 65.5273 5.03029C65.9568 5.07015 66.4401 5.1433 66.8719 5.1433C67.2487 5.1433 67.5893 5.10715 67.9667 5.07014C68.3295 5.03029 68.6747 4.99414 69.0042 4.99414C69.7991 4.99414 69.8851 5.49287 69.8851 5.83873C69.8851 6.15157 69.8467 6.42541 69.7991 6.728C69.7561 7.04341 69.7108 7.31839 69.7108 7.63209C69.7108 9.14107 70.3852 10.3495 70.737 10.3495C71.1684 10.3495 71.7181 8.79691 71.7181 8.0642C71.7181 7.59508 71.5361 7.01409 71.0799 6.53928C70.8708 6.29788 70.5282 6.03429 70.5282 5.65114C70.5282 5.03029 71.2681 4.99443 71.609 4.99443C72.3811 4.99443 72.9442 5.1433 73.4756 5.1433C74.1389 5.1433 74.7134 4.99443 75.1335 4.99443C75.962 4.99443 76.4683 5.45045 76.4683 7.31867C76.4683 9.91847 74.9563 11.9717 74.2819 12.8607C73.4098 14.0247 72.4677 14.8326 72.4677 15.9279C72.4677 17.2009 74.7134 22.3926 74.9563 22.8958C76.3481 26.0396 76.9545 26.396 76.9545 26.9318C76.9545 27.3223 76.5572 27.4786 75.915 27.4786C74.6248 27.4786 75.7854 27.363 73.5984 27.363C73.235 27.363 72.8351 27.363 72.4928 27.3926C72.2609 27.4379 71.9411 27.4786 71.6959 27.4786C70.6148 27.4786 70.6601 26.7755 70.6601 26.6727C70.6601 26.3183 70.8711 26.0399 70.8711 25.0359C70.8711 23.7564 69.7114 20.3507 68.9185 20.3507C68.5847 20.3507 67.8878 21.1512 67.8878 23.0191C67.8878 24.5716 68.5508 25.965 69.6023 26.4322C69.8475 26.5432 70.265 26.6727 70.265 27.0909C70.265 27.5942 69.1161 27.9079 68.4075 28.3659C67.5583 28.9469 66.9838 29.7231 66.3869 29.7231C65.5282 29.7231 63.3301 27.322 63.3301 23.9534C63.3301 21.7743 64.4881 19.6835 64.7857 19.0988C66.1798 16.6285 67.5127 15.8511 67.5127 15.1064C67.5118 14.6794 66.2678 11.0386 65.5592 9.33065Z" />
<path d="M84.4537 19.9197C84.4537 21.3834 84.5309 22.9812 85.7888 22.9812C87.2579 22.9812 87.081 20.9974 87.081 19.7643V13.6401C87.081 12.4773 87.081 10.7394 85.6912 10.7394C84.4534 10.7394 84.4534 12.477 84.4534 13.5134V19.9197H84.4537ZM80.4023 11.8166C80.4023 10.539 80.4023 4.83301 85.7891 4.83301C90.7031 4.83301 91.1324 8.82992 91.1324 11.4289V20.152C91.1324 22.7501 90.9119 27.6326 85.6915 27.6326C81.7925 27.6326 80.4023 24.9152 80.4023 20.6971V11.8166Z" />
<path d="M102.119 11.7284C102.119 11.388 102.162 10.5385 101.511 10.5385C100.366 10.5385 100.707 14.0581 100.595 15.3376C100.298 19.9907 99.8344 21.8586 99.8344 22.7903C99.8344 23.213 99.9546 23.5259 100.906 23.5259C102.264 23.5259 102.119 22.8652 102.119 22.1185V11.7284ZM99.4463 27.4778C98.7083 27.4778 96.4761 27.4778 95.6698 29.2598C95.4838 29.6022 95.3972 30.0722 94.8635 30.0722C94.6547 30.0722 94.2344 29.9176 94.2344 29.4616C94.2344 28.9822 94.3662 28.9461 94.3662 27.7932C94.3662 26.8171 94.2891 26.4314 94.2891 25.9298C94.2891 25.5051 94.3662 25.4672 94.8635 25.0787C95.3158 24.804 95.5604 24.5336 95.9244 23.0949C96.7301 19.8751 97.4592 12.3168 97.4592 9.33016C97.4592 6.45623 96.8734 6.69506 96.8734 5.65036C96.8734 4.96205 97.5233 5.02952 97.9906 5.02952C98.8399 5.02952 100.827 5.1932 101.81 5.1932C103.986 5.1932 104.658 4.99336 105.566 4.99336C105.938 4.99336 106.767 4.96177 106.767 5.69192C106.767 5.95466 106.59 6.29711 106.459 6.86216C106.304 7.54306 106.184 8.63758 106.184 9.4167V22.4732C106.184 23.254 106.304 24.7177 106.915 25.1128C107.165 25.2674 107.78 25.3377 107.78 26.0844C107.78 26.3591 107.674 26.6218 107.642 26.8903C107.585 27.1621 107.585 27.4371 107.585 27.7118C107.585 28.6739 107.78 29.0275 107.78 29.4616C107.78 29.9583 107.41 30.122 107.165 30.122C106.547 30.122 106.393 29.2976 106.025 28.8692C104.957 27.4775 103.442 27.4775 101.896 27.4775H99.4463V27.4778Z" />
<path d="M118.892 20.3782C118.892 22.8652 119.135 23.2538 120.205 23.2538C121.178 23.2538 121.985 23.0947 121.985 21.3514V17.5942C121.985 16.7393 121.896 15.4199 120.483 15.4199C118.805 15.4199 118.892 16.9292 118.892 17.7755V20.3782H118.892ZM114.141 9.17081C114.141 7.89866 113.837 7.54341 113.16 7.54341C112.457 7.54341 112.302 7.89866 112.079 8.16254C111.934 8.32337 111.648 8.70824 111.248 8.70824C110.999 8.70824 110.51 8.59807 110.51 7.63137C110.51 6.81155 110.644 6.69512 110.644 4.4873C110.644 2.04093 110.424 2.08163 110.424 1.43033C110.424 0.490101 110.999 0.334961 112.302 0.334961C113.063 0.334961 113.837 0.373675 114.6 0.450533C115.261 0.5365 115.913 0.64951 116.551 0.64951C117.589 0.64951 118.366 0.450533 119.003 0.450533C119.569 0.450533 119.61 0.723522 119.61 0.922499C119.61 1.47104 119.301 2.08163 119.135 2.8599C119.058 3.24931 118.892 4.71047 118.892 5.37657V10.6061C118.892 10.8087 118.892 11.0382 119.246 11.0382C119.401 11.0382 119.569 10.928 120.027 10.766C120.561 10.5745 121.356 10.3783 122.239 10.3783C126.588 10.3783 126.733 14.4578 126.733 15.6946V22.8225C126.733 27.4366 122.085 27.4366 120.924 27.4366C120.318 27.4366 119.755 27.4366 119.135 27.3913C118.406 27.3617 117.622 27.321 116.893 27.321C114.518 27.321 116.298 27.4773 114.141 27.4773C113.705 27.4773 113.25 27.321 113.25 26.6714C113.25 26.2698 113.505 25.7685 113.705 25.0782C114.014 24.1411 114.141 22.2461 114.141 21.2746V9.17081H114.141Z" />
<path d="M3.4559 36.0179V36.2359C3.2423 36.2359 3.12269 36.3862 3.12269 36.5866V38.8579C3.93921 38.7261 4.9534 38.4033 5.60588 37.8161C5.9485 37.5106 6.31191 37.019 6.31191 36.6367C6.31191 36.3546 6.21849 36.2638 6.05103 36.2453L5.96929 36.2359V36.0179H7.12132C7.13071 36.6914 6.90714 37.3148 6.51696 37.8067C6.08065 38.3484 5.48285 38.6806 5.31823 38.7668L7.03844 41.7942C7.1498 41.9994 7.35257 42.2767 7.75358 42.3174V42.5317H6.41557L4.4698 39.1081C4.23854 39.2035 3.80137 39.3586 3.12269 39.481V41.9621C3.12269 42.1671 3.24259 42.3174 3.4559 42.3174V42.5317H1.93164V42.3174C2.14553 42.3174 2.26514 42.1671 2.26514 41.9621V36.5863C2.26514 36.3859 2.14553 36.2356 1.93164 36.2356V36.0176H3.4559V36.0179Z" />
<path d="M10.7795 36.0176C12.9642 36.0176 13.2525 37.1095 13.2525 37.6922C13.2525 39.2129 11.4001 39.9365 9.63176 40.5508V41.9621C9.63176 42.1671 9.75622 42.3174 9.96868 42.3174V42.5317H8.44299V42.3174C8.65688 42.3174 8.77763 42.1671 8.77763 41.9621V36.5863C8.77763 36.3264 8.6002 36.2356 8.40625 36.2356V36.0176H10.7795ZM9.63176 39.9097C11.3918 39.4178 12.3952 38.557 12.3952 37.7332C12.3952 36.7366 11.3918 36.6458 10.6277 36.6458H9.63176V39.9097Z" />
<path d="M15.2339 36.0179V36.2359H15.1758C15.0562 36.2359 14.8241 36.2544 14.9901 36.5599L16.7764 39.887L17.9868 36.7278C18.0595 36.5414 18.0595 36.4773 18.0595 36.4503C18.0595 36.4141 18.0412 36.2638 17.857 36.2453L17.7456 36.2359V36.0179H19.2337V36.2359C19.0662 36.2359 18.8341 36.2815 18.6484 36.7554L17.1025 40.6886C16.8613 41.3029 16.4238 42.2408 15.7269 42.5497C15.5219 42.6405 15.2906 42.6684 15.0656 42.6684C14.7788 42.6684 14.5077 42.6134 14.2753 42.5317V41.2337H14.5555C14.5453 41.5935 14.7979 41.8164 15.12 41.8164C15.6133 41.8164 16.0915 41.3339 16.3318 40.7606L14.0423 36.6458C13.8936 36.3686 13.8395 36.2356 13.5801 36.2356V36.0176H15.2339V36.0179Z" />
<path d="M25.3726 36.234C25.1587 36.234 25.0388 36.3843 25.0388 36.5847V41.9605C25.0388 42.1654 25.1587 42.3157 25.3726 42.3157V42.5301H23.8455V42.3157C24.0593 42.3157 24.1801 42.1654 24.1801 41.9605V38.1369L20.9829 40.7319V41.9605C20.9829 42.1654 21.1028 42.3157 21.3176 42.3157V42.5301H19.791V42.3157C20.0035 42.3157 20.1242 42.1654 20.1242 41.9605V36.5847C20.1242 36.3843 20.0035 36.234 19.791 36.234V36.0159H21.3176V36.234C21.1028 36.234 20.9829 36.3843 20.9829 36.5847V39.9627L24.1801 37.3675V36.5844C24.1801 36.384 24.0593 36.2337 23.8455 36.2337V36.0156H25.3726V36.234Z" />
<path d="M26.5625 36.3671C26.8493 36.2251 27.2873 36.0341 27.874 35.9478C28.1517 35.9023 28.4319 35.8838 28.7085 35.8838C29.026 35.8838 29.3424 35.9023 29.6591 35.9757C30.767 36.2439 31.0826 36.9999 31.0826 37.5456C31.0826 38.1329 30.5896 38.7702 29.7913 38.9205C30.3484 38.939 30.8969 39.2166 31.1487 39.5989C31.2968 39.8132 31.3719 40.0859 31.3719 40.3504C31.3719 40.7327 31.2874 41.1056 31.1111 41.4332C30.8784 41.8611 30.478 42.2479 29.8175 42.4808C29.3988 42.6348 28.9431 42.6672 28.4966 42.6672C27.5938 42.6672 26.9416 42.4435 26.4121 42.1301V40.8645H26.6921L26.7208 41.1417C26.7581 41.5064 27.1762 41.793 27.5086 41.9155C27.7888 42.0157 28.0859 42.0435 28.3852 42.0435C29.6591 42.0435 30.1433 41.4423 30.3028 41.1918C30.4415 40.9647 30.4962 40.7 30.4962 40.4272C30.4962 40.2223 30.4224 40.031 30.3119 39.8585C29.9553 39.3575 29.2963 39.3028 28.5245 39.3028H28.0027V38.6794H28.5245C29.1755 38.6794 29.8465 38.5747 30.1615 38.0512C30.2353 37.9276 30.2837 37.7867 30.2837 37.6455C30.2837 37.4998 30.2353 37.3495 30.1709 37.2086C29.9941 36.8579 29.7699 36.754 29.5113 36.6353C29.0366 36.4209 28.9158 36.4303 28.553 36.4303C27.9936 36.4303 27.964 36.4759 27.6501 36.6262C27.0464 36.9128 27.1295 37.1818 27.1762 37.3953L27.1942 37.491L26.9416 37.5735L26.5625 36.3671Z" />
<path d="M33.8748 36.234C33.6583 36.234 33.5387 36.3843 33.5387 36.5847V38.3279C33.9568 38.3185 34.7571 38.3325 35.4551 38.4828C36.8045 38.7649 37.4556 39.4429 37.6877 39.9989C37.7982 40.2576 37.827 40.5406 37.827 40.8275C37.827 41.1412 37.7526 41.4603 37.584 41.7191C37.0637 42.5477 36.1609 42.5298 35.3423 42.5298H32.3477V42.3154C32.5618 42.3154 32.6837 42.1651 32.6837 41.9602V36.5844C32.6837 36.384 32.5615 36.2337 32.3477 36.2337V36.0156H33.8748V36.234ZM33.5387 41.9055H35.3329C35.8547 41.9055 36.4212 41.8694 36.7481 41.2551C36.8316 41.0954 36.8771 40.9089 36.8771 40.7319C36.8771 40.2855 36.6539 39.8392 36.023 39.4711C35.3509 39.0797 34.5987 38.9841 34.0212 38.9656L33.5384 38.9471V41.9055H33.5387ZM39.9763 36.0159V36.234C39.7622 36.234 39.6417 36.3843 39.6417 36.5847V41.9605C39.6417 42.1654 39.7625 42.3157 39.9763 42.3157V42.5301H38.4498V42.3157C38.6626 42.3157 38.7845 42.1654 38.7845 41.9605V36.5847C38.7845 36.3843 38.6626 36.234 38.4498 36.234V36.0159H39.9763Z" />
<path d="M51.0113 36.234C50.7951 36.234 50.6743 36.3843 50.6743 36.5847V41.9605C50.6743 42.1654 50.7951 42.3157 51.0113 42.3157V42.5301H49.481V42.3157C49.6952 42.3157 49.8182 42.1654 49.8182 41.9605V38.1369L46.6188 40.7319V41.9605C46.6188 42.1654 46.7395 42.3157 46.9534 42.3157V42.5301H45.4277V42.3157C45.6416 42.3157 45.7601 42.1654 45.7601 41.9605V36.5847C45.7601 36.3843 45.6416 36.234 45.4277 36.234V36.0159H46.9534V36.234C46.7392 36.234 46.6188 36.3843 46.6188 36.5847V39.9627L49.8182 37.3675V36.5844C49.8182 36.384 49.6952 36.2337 49.481 36.2337V36.0156H51.0113V36.234Z" />
<path d="M61.9286 36.0176V36.2356C61.717 36.2356 61.5963 36.3859 61.5963 36.5863V41.9621C61.5963 42.1671 61.717 42.3174 61.9286 42.3174V42.5317H60.4026V42.3174C60.6171 42.3174 60.7401 42.1671 60.7401 41.9621V36.6458H57.6523V41.9621C57.6523 42.1671 57.7708 42.3174 57.9847 42.3174V42.5317H56.459V42.3174C56.6732 42.3174 56.7959 42.1671 56.7959 41.9621V36.5863C56.7959 36.3859 56.6729 36.2356 56.459 36.2356V36.0176H61.9286Z" />
<path d="M64.424 36.0179V36.2359H64.3673C64.2486 36.2359 64.0164 36.2544 64.1802 36.5599L65.9705 39.887L67.1772 36.7278C67.2501 36.5414 67.2501 36.4773 67.2501 36.4503C67.2501 36.4141 67.2339 36.2638 67.0448 36.2453L66.938 36.2359V36.0179H68.4246V36.2359C68.2566 36.2359 68.0242 36.2815 67.8374 36.7554L66.2932 40.6886C66.0519 41.3029 65.6145 42.2408 64.9178 42.5497C64.7128 42.6405 64.4807 42.6684 64.2551 42.6684C63.9683 42.6684 63.6972 42.6134 63.4673 42.5317V41.2337H63.7447C63.7356 41.5935 63.9885 41.8164 64.3118 41.8164C64.8039 41.8164 65.2795 41.3339 65.5233 40.7606L63.2324 36.6458C63.0843 36.3686 63.0299 36.2356 62.7676 36.2356V36.0176H64.424V36.0179Z" />
<path d="M74.1518 37.118H73.8716C73.8716 36.9583 73.8081 36.8043 73.7078 36.7265C73.5942 36.6448 73.439 36.6448 73.2797 36.6448H71.788V41.9612C71.788 42.1661 71.911 42.3164 72.1272 42.3164V42.5308H70.5992V42.3164C70.8131 42.3164 70.9338 42.1661 70.9338 41.9612V36.6448H69.4443C69.2874 36.6448 69.1305 36.6448 69.0163 36.7265C68.9137 36.8045 68.8502 36.9585 68.8502 37.118H68.5723V36.0166H74.1518V37.118Z" />
<path d="M80.1878 36.0176V37.0919H79.9101C79.7894 36.6048 79.4573 36.6455 79.1861 36.6455H76.0521V38.553H78.191C78.5257 38.553 78.7945 38.5661 78.8877 38.2154H79.1656V39.5089H78.8877C78.7942 39.1537 78.5254 39.1722 78.191 39.1722H76.0521V41.9075H79.2585C79.8281 41.9075 80.1878 41.8352 80.2268 41.3712H80.5068V42.5317H74.8594V42.3174C75.0735 42.3174 75.1963 42.1671 75.1963 41.9621V36.5863C75.1963 36.3859 75.0733 36.2356 74.8594 36.2356V36.0176H80.1878Z" />
<path d="M82.8027 36.2337C82.5883 36.2337 82.4675 36.384 82.4675 36.5844V41.9055H85.1822V36.5844C85.1822 36.384 85.0638 36.2337 84.8476 36.2337V36.0156H86.3756V36.2337C86.1611 36.2337 86.0386 36.384 86.0386 36.5844V41.9055H88.7554V36.5844C88.7554 36.384 88.6346 36.2337 88.4207 36.2337V36.0156H89.9464V36.2337C89.7325 36.2337 89.6089 36.384 89.6089 36.5844V41.9602C89.6089 42.1651 89.7322 42.3154 89.9464 42.3154V42.5298H81.2793V42.3154C81.4889 42.3154 81.6119 42.1651 81.6119 41.9602V36.5844C81.6119 36.384 81.4889 36.2337 81.2793 36.2337V36.0156H82.803V36.2337H82.8027Z" />
<path d="M96.3931 36.0176V37.0919H96.1151C95.9921 36.6048 95.6597 36.6455 95.3911 36.6455H92.2578V38.553H94.3938C94.7307 38.553 94.9995 38.5661 95.0904 38.2154H95.3704V39.5089H95.0904C94.9995 39.1537 94.7307 39.1722 94.3938 39.1722H92.2578V41.9075H95.4618C96.0285 41.9075 96.3934 41.8352 96.4295 41.3712H96.7118V42.5317H91.0645V42.3174C91.2783 42.3174 91.3968 42.1671 91.3968 41.9621V36.5863C91.3968 36.3859 91.2786 36.2356 91.0645 36.2356V36.0176H96.3931Z" />
<path d="M102.716 42.5131C102.272 42.6403 101.889 42.6682 101.573 42.6682C98.7262 42.6682 97.3281 40.5694 97.3281 38.94C97.3281 37.0826 98.9586 35.8848 100.623 35.8848C101.377 35.8848 102.306 36.1225 103.071 36.8589L102.242 37.6559L102.019 37.5102L102.047 37.4695C102.233 37.2284 102.037 37.0009 101.942 36.9044C101.749 36.7097 101.377 36.5045 100.658 36.5045C98.9589 36.5045 98.2782 37.761 98.2782 38.94C98.2782 40.6241 99.7467 42.0445 101.45 42.0445C102.156 42.0445 102.393 41.7533 102.466 41.3978H102.716V42.5131Z" />
<path d="M109.231 37.118H108.951C108.951 36.9583 108.885 36.8043 108.785 36.7265C108.673 36.6448 108.512 36.6448 108.357 36.6448H106.868V41.9612C106.868 42.1661 106.991 42.3164 107.203 42.3164V42.5308H105.679V42.3164C105.893 42.3164 106.012 42.1661 106.012 41.9612V36.6448H104.522C104.365 36.6448 104.208 36.6448 104.094 36.7265C103.994 36.8045 103.928 36.9585 103.928 37.118H103.65V36.0166H109.232V37.118H109.231Z" />
<path d="M112.57 36.0176C113.221 36.0176 114.059 36.0176 114.578 36.5317C114.831 36.7728 114.997 37.1283 114.997 37.4836C114.997 37.6831 114.97 37.8972 114.879 38.0839C114.71 38.4301 114.375 38.7529 113.891 38.8855V38.9032C114.804 39.0629 115.475 39.7503 115.475 40.6513C115.475 41.2024 115.184 41.9263 114.401 42.277C113.963 42.4774 113.38 42.532 112.887 42.532H109.938V42.3177C110.265 42.2992 110.274 42.0532 110.274 41.9078V36.5866C110.274 36.3862 110.152 36.2359 109.938 36.2359V36.0179H112.57V36.0176ZM112.654 38.5849C112.916 38.5849 114.141 38.5849 114.141 37.6108C114.141 36.7554 113.258 36.6458 112.654 36.6458H111.128V38.5849H112.654ZM112.488 41.9072C113.13 41.9072 114.617 41.9442 114.617 40.6239C114.617 39.2943 113.239 39.1858 112.488 39.1858H111.128V41.9072H112.488Z" />
<path d="M122.021 36.234C121.807 36.234 121.686 36.3843 121.686 36.5847V41.9605C121.686 42.1654 121.807 42.3157 122.021 42.3157V42.5301H120.495V42.3157C120.711 42.3157 120.832 42.1654 120.832 41.9605V38.1369L117.63 40.7319V41.9605C117.63 42.1654 117.753 42.3157 117.965 42.3157V42.5301H116.441V42.3157C116.656 42.3157 116.774 42.1654 116.774 41.9605V36.5847C116.774 36.3843 116.656 36.234 116.441 36.234V36.0159H117.965V36.234C117.753 36.234 117.63 36.3843 117.63 36.5847V39.9627L120.832 37.3675V36.5844C120.832 36.384 120.711 36.2337 120.495 36.2337V36.0156H122.021V36.234Z" />
<path d="M128.068 36.2337C127.854 36.2337 127.731 36.384 127.731 36.5844V41.9602C127.731 42.1651 127.854 42.3154 128.068 42.3154V42.5298H126.542V42.3154C126.754 42.3154 126.875 42.1651 126.875 41.9602V39.5525H125.768L123.75 42.5298H122.734V42.3154C122.903 42.2562 123.099 42.1475 123.331 41.8016L124.914 39.4708C124.187 39.4159 123.536 39.0245 123.258 38.4643C123.138 38.2229 123.09 37.9456 123.09 37.6681C123.09 37.3128 123.211 36.9573 123.424 36.6891C123.909 36.0748 124.693 36.0156 125.171 36.0156H128.068V36.2337ZM126.875 36.6157H125.387C124.877 36.6157 124.037 36.6706 124.037 37.795C124.037 38.9288 125.185 38.9556 125.786 38.9556H126.875V36.6157Z" />
</svg>
