<svg width="16" height="16" viewBox="0 0 16 16" fill="none" xmlns="http://www.w3.org/2000/svg">
<path fill-rule="evenodd" clip-rule="evenodd" d="M13.2957 1.99993L8.00169 7.29337L2.70734 1.99902L2.00145 1.99902L2.00145 2.70492L7.29576 7.99922L2.00098 13.2935V13.9994L2.70687 13.9994L8.00116 8.70561L13.2946 13.9991H14.0005V13.2932L8.70709 7.99975L14.0015 2.70583V1.99993L13.2957 1.99993Z" />
<path d="M7.29508 3.00098L6.00097 1.708L6.00097 1.00211L6.70686 1.00211L8.00098 2.29508L8.00098 3.00098L7.29508 3.00098Z" fill="#DCCCB5"/>
<path d="M13.002 7.29508L14.2949 6.00097L15.0008 6.00097L15.0008 6.70686L13.7078 8.00098L13.002 8.00098L13.002 7.29508Z" fill="#DCCCB5"/>
<path d="M3.00195 8.70589L1.70898 10L1.00308 10L1.00308 9.29411L2.29606 8L3.00195 8L3.00195 8.70589Z" fill="#DCCCB5"/>
<path d="M8 2.29314L9.29298 0.999024L9.99887 0.999023L9.99887 1.70492L8.70589 2.99903L8 2.99903L8 2.29314Z" fill="#DCCCB5"/>
<path d="M13.7069 8.00098L15.001 9.29395L15.001 9.99985L14.2951 9.99985L13.001 8.70687L13.001 8.00098L13.7069 8.00098Z" fill="#DCCCB5"/>
<path d="M2.29411 8L0.999993 6.70702L0.999992 6.00113L1.70589 6.00113L3 7.29411L3 8L2.29411 8Z" fill="#DCCCB5"/>
<path d="M6.00098 14.2931L7.29395 12.999L7.99985 12.999L7.99985 13.7049L6.70687 14.999L6.00098 14.999L6.00098 14.2931Z" fill="#DCCCB5"/>
<path d="M9.29508 14.999L8.00097 13.706L8.00097 13.0002L8.70686 13.0002L10.001 14.2931L10.001 14.999L9.29508 14.999Z" fill="#DCCCB5"/>
</svg>
