<svg width="16" height="12" viewBox="0 0 16 12" fill="none" xmlns="http://www.w3.org/2000/svg">
<g clip-path="url(#clipEmotions)">
<path d="M13.4957 1.83152C13.9132 1.79118 14.3545 2.13691 14.3724 2.59212C14.4022 3.03005 14.11 3.4795 13.6568 3.64084C13.1976 3.80218 12.6787 3.68694 12.309 3.38154C11.9273 3.08767 11.7365 2.56331 11.8021 2.09658C11.8498 1.62408 12.1182 1.17463 12.5177 0.880756C12.9113 0.581123 13.4659 0.454355 13.949 0.517739C14.9449 0.609934 15.8215 1.4224 15.9765 2.40773C16.0541 2.90328 15.9885 3.36426 15.8155 3.81947C15.6307 4.26316 15.3325 4.67227 14.927 4.9719C14.5334 5.2773 14.0503 5.46745 13.5554 5.5366C13.3109 5.57693 13.0604 5.57693 12.804 5.55388C12.5654 5.52507 12.3329 5.4905 12.1182 5.43288C11.2475 5.22544 10.4782 4.897 9.7149 4.56279C8.95157 4.22282 8.2121 3.8598 7.47263 3.45645L8.12265 3.42188C7.42492 3.90014 6.7272 4.30349 5.9758 4.6838C5.21844 5.04105 4.44915 5.39254 3.53674 5.52507C3.08351 5.59422 2.59451 5.59998 2.12936 5.4905C1.65824 5.38678 1.18117 5.16782 0.823357 4.82209C0.453622 4.48212 0.215084 4.03843 0.101778 3.58322C-0.00556385 3.12801 -0.0353833 2.68432 0.083887 2.19453C0.328389 1.24954 1.2408 0.523501 2.22477 0.500452C2.71378 0.465879 3.23856 0.638745 3.60234 0.955664C3.97207 1.27258 4.20465 1.7278 4.22254 2.19453C4.25832 2.66703 4.02574 3.15105 3.64408 3.42764C3.26242 3.70422 2.74956 3.79642 2.30826 3.61779C1.87293 3.43916 1.59861 2.98971 1.64035 2.56331C1.67613 2.11962 2.1055 1.78542 2.51698 1.83152C2.1055 1.85456 1.78944 2.21758 1.81926 2.56907C1.83118 2.92633 2.08761 3.24325 2.42157 3.33544C2.7436 3.4334 3.12526 3.31816 3.35783 3.0992C3.60234 2.87447 3.70372 2.55755 3.64408 2.24639C3.56059 1.60679 2.91057 1.14005 2.29037 1.24954C1.63439 1.31868 1.09171 1.81999 0.978408 2.40197C0.924737 2.67856 0.960519 3.03005 1.05593 3.32968C1.15135 3.62932 1.31236 3.89438 1.53301 4.09029C1.96834 4.48212 2.68396 4.5916 3.34591 4.45331C4.74136 4.1652 6.16663 3.34121 7.413 2.49417L7.72906 2.28097L8.06301 2.45959C9.4525 3.20868 10.9374 3.96352 12.3985 4.3784C12.7742 4.47636 13.0783 4.53974 13.4003 4.49941C13.7224 4.46483 14.0325 4.35535 14.2829 4.17096C14.8017 3.81947 15.0999 3.15682 15.0462 2.5345C14.9985 1.92947 14.4797 1.38207 13.8357 1.27258C13.1976 1.11124 12.5058 1.53188 12.3806 2.17725C12.303 2.49417 12.3806 2.81685 12.6191 3.05886C12.8398 3.30087 13.2274 3.42764 13.5554 3.34697C13.8953 3.27206 14.1756 2.95514 14.1935 2.59212C14.2352 2.23487 13.9191 1.85456 13.4957 1.83152Z" />
<path d="M12.0586 7.68497C11.331 7.13756 10.6631 6.57863 9.97734 6.07156C9.63146 5.82378 9.29751 5.58753 8.94566 5.40891C8.60574 5.22452 8.2539 5.08622 7.99747 5.09775C7.747 5.08622 7.39516 5.22452 7.05524 5.40891C6.70339 5.58753 6.36944 5.82955 6.02356 6.07156C5.34372 6.57287 4.66985 7.1318 3.94231 7.6792C4.27626 6.84369 4.77123 6.08884 5.39143 5.40891C5.6896 5.05741 6.05934 4.76354 6.45889 4.47543C6.87037 4.21613 7.35341 3.95684 8.00343 3.94531C8.65345 3.9626 9.13649 4.21613 9.54797 4.48696C9.95349 4.7693 10.3173 5.06894 10.6154 5.42043C11.2297 6.09461 11.7306 6.84369 12.0586 7.68497Z" />
<path fill-rule="evenodd" clip-rule="evenodd" d="M8.01224 6.86367C8.02385 6.87456 8.0356 6.88572 8.04748 6.89715C8.27709 7.11796 8.53476 7.41903 8.70098 7.76721C8.8638 8.10828 8.9317 8.47676 8.82172 8.86943C8.73132 9.19219 8.50646 9.58216 8.01974 10.016C8.01284 10.009 8.00589 10.002 7.99889 9.99486C7.78384 9.77536 7.54064 9.47433 7.38315 9.12421C7.22842 8.78022 7.16215 8.40388 7.26817 8.00217C7.35397 7.67705 7.56443 7.29066 8.01224 6.86367ZM8.00358 10.7793L7.64724 11.2414L8.00794 11.5011L8.36548 11.2373C9.26289 10.5752 9.77442 9.87946 9.97299 9.1705C10.1727 8.45737 10.0341 7.80847 9.784 7.28449C9.53725 6.76763 9.17547 6.35598 8.88886 6.08034C8.7435 5.94055 8.61224 5.83075 8.51581 5.75482C8.46747 5.71676 8.42753 5.68693 8.39851 5.66582C8.38399 5.65526 8.37217 5.64686 8.36337 5.64069L8.35245 5.63309L8.34876 5.63055L8.34736 5.6296L8.34678 5.6292C8.34652 5.62902 8.34627 5.62886 8.00358 6.10043L8.34627 5.62886L7.97787 5.37891L7.62813 5.65275C6.77755 6.31874 6.29781 7.01509 6.11246 7.7174C5.92664 8.42149 6.05493 9.06253 6.28931 9.58359C6.52094 10.0985 6.86141 10.5102 7.13275 10.7871C7.27016 10.9274 7.39437 11.0377 7.4858 11.1141C7.53163 11.1524 7.56954 11.1824 7.59717 11.2038C7.61099 11.2144 7.62227 11.2229 7.63071 11.2292L7.6412 11.237L7.64479 11.2396L7.64616 11.2406L7.64673 11.241C7.64699 11.2412 7.64724 11.2414 8.00358 10.7793Z" />
</g>
<defs>
<clipPath id="clipEmotions">
<rect width="11" height="16" fill="white" transform="translate(16 0.5) rotate(90)"/>
</clipPath>
</defs>
</svg>
