<svg width="20" height="20" viewBox="0 0 20 20" fill="none" xmlns="http://www.w3.org/2000/svg">
<path d="M0.488554 10.4653H2.34902C2.4653 12.2327 3.16297 13.8374 4.256 15.07L2.93041 16.3955C2.74437 16.5816 2.74437 16.8606 2.93041 17.0467C3.02344 17.1397 3.13972 17.1862 3.256 17.1862C3.37227 17.1862 3.48855 17.1397 3.58158 17.0467L4.90716 15.7211C6.13972 16.8141 7.74437 17.5351 9.51181 17.6281V19.5118C9.51181 19.7676 9.72111 19.9769 9.97693 19.9769C10.2327 19.9769 10.442 19.7676 10.442 19.5118V17.6281C12.2095 17.5118 13.8141 16.8141 15.0467 15.7211L16.3723 17.0467C16.4653 17.1397 16.5816 17.1862 16.6979 17.1862C16.8141 17.1862 16.9304 17.1397 17.0234 17.0467C17.2095 16.8606 17.2095 16.5816 17.0234 16.3955L15.6979 15.07C16.7909 13.8374 17.5118 12.2327 17.6048 10.4653H19.4653C19.7211 10.4653 19.9304 10.256 19.9304 10.0002C19.9304 9.74437 19.7211 9.53507 19.4653 9.53507H17.6048C17.4886 7.76762 16.7909 6.16297 15.6979 4.93041L17.0234 3.60483C17.2095 3.41879 17.2095 3.13972 17.0234 2.95367C16.8374 2.76762 16.5583 2.76762 16.3723 2.95367L15.0467 4.27925C13.8141 3.18623 12.2095 2.4653 10.442 2.37227V0.488554C10.442 0.23274 10.2327 0.0234375 9.97693 0.0234375C9.72111 0.0234375 9.51181 0.23274 9.51181 0.488554V2.37227C7.74437 2.48855 6.13972 3.18623 4.90716 4.27925L3.58158 2.95367C3.39553 2.76762 3.11646 2.76762 2.93041 2.95367C2.74437 3.13972 2.74437 3.41879 2.93041 3.60483L4.256 4.93041C3.16297 6.16297 2.44204 7.76762 2.34902 9.53507H0.488554C0.23274 9.53507 0.0234375 9.74437 0.0234375 10.0002C0.0234375 10.256 0.23274 10.4653 0.488554 10.4653ZM9.53507 16.7211C8.02344 16.6281 6.65134 16.0234 5.58158 15.0932L8.20949 12.4653C8.58158 12.7444 9.04669 12.9304 9.53507 13.0002V16.7211ZM7.90716 10.0002C7.90716 8.83739 8.83739 7.90716 10.0002 7.90716C11.163 7.90716 12.0932 8.83739 12.0932 10.0002C12.0932 11.163 11.163 12.0932 10.0002 12.0932C8.83739 12.0932 7.90716 11.163 7.90716 10.0002ZM10.4653 16.7211V13.0002C10.9537 12.9304 11.3955 12.7444 11.7909 12.4653L14.4188 15.07C13.349 16.0002 11.9769 16.6048 10.4653 16.7211ZM15.07 14.4188L12.442 11.7909C12.7211 11.4188 12.9072 10.9537 12.9769 10.4653H16.6979C16.6048 11.9769 16.0002 13.349 15.07 14.4188ZM16.7211 9.53507H13.0002C12.9304 9.04669 12.7444 8.60483 12.4653 8.23274L15.07 5.58158C16.0002 6.65134 16.6048 8.02344 16.7211 9.53507ZM10.4653 3.27925C11.9769 3.37227 13.349 3.97693 14.4188 4.90716L11.7909 7.55832C11.4188 7.27925 10.9537 7.0932 10.4653 7.00018V3.27925ZM9.53507 3.27925V7.00018C9.04669 7.06995 8.60483 7.256 8.20949 7.55832L5.58158 4.93041C6.65134 4.00018 8.02344 3.39553 9.53507 3.27925ZM4.93041 5.58158L7.55832 8.20948C7.27925 8.58158 7.09321 9.04669 7.02344 9.51181H3.30251C3.39553 8.02344 4.00018 6.65134 4.93041 5.58158ZM7.02344 10.4653C7.09321 10.9537 7.27925 11.3955 7.55832 11.7909L4.93041 14.4188C4.00018 13.349 3.39553 11.9769 3.30251 10.4653H7.02344Z" fill="white"/>
</svg>
