<svg width="95" height="24" viewBox="0 0 95 24" fill="none" xmlns="http://www.w3.org/2000/svg">
<path d="M4.51027 16.6047C4.51027 16.9899 4.4767 17.6674 5.45337 17.6674C6.03748 17.6674 6.58844 17.6427 6.58844 15.9281C6.58844 13.9225 5.40925 11.5846 4.78576 11.5846C4.51049 11.5846 4.51049 12.0634 4.51049 12.3191V16.6047H4.51027ZM4.51027 6.45597C4.51027 7.34101 5.11741 7.60186 5.5698 7.60186C6.47846 7.60186 6.47846 6.33486 6.47846 5.89895C6.47846 4.74548 6.03726 4.36396 5.37783 4.36396C4.65942 4.36396 4.51049 4.95196 4.51049 5.36035V6.45597H4.51027ZM0.913944 6.21245C0.913944 5.18421 0.888978 3.58508 0.820538 2.89005C0.729715 1.88304 0.629423 1.55329 0.629423 1.08857C0.629423 0.315979 1.1382 0.254883 1.48062 0.254883C1.92247 0.254883 2.35635 0.284348 2.81542 0.315979C3.25834 0.342845 3.73182 0.342845 4.17453 0.342845C5.19424 0.342845 5.82893 0.254883 6.58823 0.254883C7.47214 0.254883 9.66588 0.79067 9.66588 5.74123C9.66588 6.89405 9.54837 8.43186 8.7994 9.37409C8.57277 9.67134 8.21572 9.96556 8.21572 10.2037C8.21572 10.4669 8.64078 11.0036 8.96598 11.5593C9.25653 12.0634 10.1688 13.6556 10.1688 16.3437C10.1688 18.7006 8.96598 20.9131 6.46297 20.9131C5.93589 20.9131 5.77814 20.7597 3.82609 20.7597C1.63902 20.7597 1.90589 20.9131 1.18017 20.9131C0.437016 20.9131 0.378906 20.4103 0.378906 20.1687C0.378906 18.9385 0.913944 19.4364 0.913944 15.0422V6.21245Z" fill="#C8A97A"/>
<path d="M15.9583 15.1602C15.9583 16.2742 16.0328 17.4903 16.9828 17.4903C18.0862 17.4903 17.9524 15.9805 17.9524 15.0419V10.3808C17.9524 9.49577 17.9524 8.1731 16.9107 8.1731C15.9583 8.1731 15.9583 9.49556 15.9583 10.2844V15.1602ZM12.9121 8.99292C12.9121 8.02057 12.9121 3.67773 16.9828 3.67773C20.6893 3.67773 21.0061 6.71978 21.0061 8.69784V15.337C21.0061 17.3144 20.8479 21.0305 16.9107 21.0305C13.9394 21.0305 12.9121 18.9623 12.9121 15.7519V8.99292Z" fill="#C8A97A"/>
<path d="M29.3081 8.926C29.3081 8.66688 29.3595 8.02039 28.8653 8.02039C27.9821 8.02039 28.2388 10.6991 28.1719 11.673C27.9565 15.2144 27.5816 16.6361 27.5816 17.3452C27.5816 17.6669 27.6879 17.905 28.4069 17.905C29.4178 17.905 29.3078 17.4022 29.3078 16.8339V8.926H29.3081ZM27.3063 20.9128C26.7467 20.9128 25.051 20.9128 24.4266 22.2691C24.3003 22.5297 24.2525 22.8874 23.843 22.8874C23.6852 22.8874 23.3574 22.7698 23.3574 22.4227C23.3574 22.0579 23.4502 22.0303 23.4502 21.1529C23.4502 20.41 23.3919 20.1164 23.3919 19.7347C23.3919 19.4114 23.4502 19.3826 23.8432 19.0869C24.1755 18.8778 24.3657 18.672 24.6266 17.577C25.2529 15.1264 25.7954 9.37383 25.7954 7.10069C25.7954 4.91334 25.3456 5.09512 25.3456 4.3C25.3456 3.77613 25.8452 3.82747 26.196 3.82747C26.8386 3.82747 28.3488 3.95205 29.0918 3.95205C30.7255 3.95205 31.2267 3.79996 31.9269 3.79996C32.2204 3.79996 32.8293 3.77591 32.8293 4.33163C32.8293 4.5316 32.7057 4.79223 32.6031 5.22229C32.4724 5.74053 32.3698 6.57357 32.3698 7.16655V17.1038C32.3698 17.6981 32.4727 18.8122 32.9291 19.1129C33.1386 19.2305 33.5793 19.284 33.5793 19.8523C33.5793 20.0614 33.5143 20.2614 33.4988 20.4657C33.4558 20.6726 33.4558 20.8819 33.4558 21.0909C33.4558 21.8232 33.5793 22.0923 33.5793 22.4227C33.5793 22.8008 33.3236 22.9253 33.1386 22.9253C32.6717 22.9253 32.5394 22.2979 32.2803 21.9719C31.4702 20.9126 30.3276 20.9126 29.1572 20.9126H27.3063V20.9128Z" fill="#C8A97A"/>
<path d="M39.1326 15.1602C39.1326 16.2742 39.1929 17.4903 40.1263 17.4903C41.2351 17.4903 41.1112 15.9805 41.1112 15.0419V10.3808C41.1112 9.49577 41.1111 8.1731 40.0678 8.1731C39.1324 8.1731 39.1324 9.49556 39.1324 10.2844V15.1602H39.1326ZM36.0627 8.99292C36.0627 8.02057 36.0627 3.67773 40.1263 3.67773C43.8569 3.67773 44.1727 6.71978 44.1727 8.69784V15.337C44.1727 17.3144 44.0164 21.0305 40.0678 21.0305C37.0958 21.0305 36.0625 18.9623 36.0625 15.7519V8.99292H36.0627Z" fill="#C8A97A"/>
<path d="M48.4599 7.1013C47.3907 4.36408 47.0322 4.64725 47.0322 4.3006C47.0322 4.05968 47.1934 3.80078 47.9072 3.80078C48.0773 3.80078 48.2746 3.80078 48.4358 3.8283C48.7604 3.85863 49.1256 3.91431 49.4519 3.91431C49.7366 3.91431 49.994 3.88679 50.2792 3.85863C50.5534 3.8283 50.8142 3.80078 51.0632 3.80078C51.6639 3.80078 51.7289 4.18036 51.7289 4.4436C51.7289 4.6817 51.6999 4.89012 51.6639 5.12042C51.6314 5.36048 51.5972 5.56977 51.5972 5.80852C51.5972 6.95701 52.1068 7.8767 52.3726 7.8767C52.6987 7.8767 53.1141 6.69507 53.1141 6.1374C53.1141 5.78035 52.9766 5.33816 52.6318 4.97678C52.4738 4.79306 52.2149 4.59244 52.2149 4.30082C52.2149 3.8283 52.774 3.801 53.0316 3.801C53.6151 3.801 54.0406 3.91431 54.4422 3.91431C54.9435 3.91431 55.3776 3.801 55.695 3.801C56.3211 3.801 56.7037 4.14808 56.7037 5.56998C56.7037 7.54869 55.5611 9.11142 55.0515 9.78803C54.3925 10.6739 53.6805 11.2888 53.6805 12.1225C53.6805 13.0914 55.3776 17.0427 55.5611 17.4258C56.6129 19.8185 57.0711 20.0897 57.0711 20.4975C57.0711 20.7947 56.7709 20.9137 56.2856 20.9137C55.3106 20.9137 56.1876 20.8257 54.535 20.8257C54.2603 20.8257 53.9582 20.8257 53.6995 20.8482C53.5243 20.8827 53.2826 20.9137 53.0973 20.9137C52.2803 20.9137 52.3145 20.3785 52.3145 20.3003C52.3145 20.0306 52.474 19.8187 52.474 19.0546C52.474 18.0807 51.5976 15.4886 50.9985 15.4886C50.7462 15.4886 50.2196 16.0979 50.2196 17.5196C50.2196 18.7012 50.7206 19.7617 51.5152 20.1173C51.7005 20.2018 52.016 20.3003 52.016 20.6186C52.016 21.0016 51.1478 21.2404 50.6123 21.589C49.9706 22.0312 49.5365 22.622 49.0854 22.622C48.4365 22.622 46.7754 20.7945 46.7754 18.2306C46.7754 16.5721 47.6505 14.9808 47.8754 14.5358C48.9289 12.6557 49.9361 12.064 49.9361 11.4972C49.9355 11.1722 48.9954 8.40123 48.4599 7.1013Z" fill="#C8A97A"/>
<path d="M62.7393 15.1602C62.7393 16.2742 62.7976 17.4903 63.7482 17.4903C64.8583 17.4903 64.7247 15.9805 64.7247 15.0419V10.3808C64.7247 9.49577 64.7247 8.1731 63.6744 8.1731C62.739 8.1731 62.739 9.49556 62.739 10.2844V15.1602H62.7393ZM59.6777 8.99292C59.6777 8.02057 59.6777 3.67773 63.7484 3.67773C67.4619 3.67773 67.7862 6.71978 67.7862 8.69784V15.337C67.7862 17.3144 67.6196 21.0305 63.6746 21.0305C60.7282 21.0305 59.6777 18.9623 59.6777 15.7519V8.99292Z" fill="#C8A97A"/>
<path d="M76.0892 8.926C76.0892 8.66688 76.1217 8.02039 75.6293 8.02039C74.7643 8.02039 75.0217 10.6991 74.9378 11.673C74.7129 15.2144 74.3627 16.6361 74.3627 17.3452C74.3627 17.6669 74.4536 17.905 75.1728 17.905C76.199 17.905 76.0892 17.4022 76.0892 16.8339V8.926ZM74.0694 20.9128C73.5118 20.9128 71.8249 20.9128 71.2156 22.2691C71.075 22.5297 71.0096 22.8874 70.6063 22.8874C70.4485 22.8874 70.1309 22.7698 70.1309 22.4227C70.1309 22.0579 70.2305 22.0303 70.2305 21.1529C70.2305 20.41 70.1722 20.1164 70.1722 19.7347C70.1722 19.4114 70.2305 19.3826 70.6063 19.0869C70.948 18.8778 71.1329 18.672 71.408 17.577C72.0168 15.1264 72.5678 9.37383 72.5678 7.10069C72.5678 4.91334 72.1251 5.09512 72.1251 4.3C72.1251 3.77613 72.6162 3.82747 72.9694 3.82747C73.6112 3.82747 75.1128 3.95205 75.8559 3.95205C77.4998 3.95205 78.0077 3.79996 78.6943 3.79996C78.9753 3.79996 79.6019 3.77591 79.6019 4.33163C79.6019 4.5316 79.4678 4.79223 79.3686 5.22229C79.2519 5.74053 79.1609 6.57357 79.1609 7.16655V17.1038C79.1609 17.6981 79.2519 18.8122 79.7136 19.1129C79.9025 19.2305 80.3672 19.284 80.3672 19.8523C80.3672 20.0614 80.2867 20.2614 80.2626 20.4657C80.2197 20.6726 80.2197 20.8819 80.2197 21.0909C80.2197 21.8232 80.367 22.0923 80.367 22.4227C80.367 22.8008 80.0876 22.9253 79.9021 22.9253C79.4351 22.9253 79.3186 22.2979 79.0406 21.9719C78.2339 20.9126 77.0892 20.9126 75.9205 20.9126H74.0694V20.9128Z" fill="#C8A97A"/>
<path d="M88.7644 15.5097C88.7644 17.4027 88.948 17.6984 89.7563 17.6984C90.4922 17.6984 91.1015 17.5773 91.1015 16.2505V13.3909C91.1015 12.7403 91.0348 11.7361 89.967 11.7361C88.6987 11.7361 88.7642 12.8848 88.7642 13.5289V15.5097H88.7644ZM85.1745 6.97984C85.1745 6.01161 84.9444 5.74123 84.4331 5.74123C83.9015 5.74123 83.7846 6.01161 83.6163 6.21245C83.5065 6.33486 83.2902 6.62778 82.9881 6.62778C82.7995 6.62778 82.4304 6.54393 82.4304 5.80817C82.4304 5.18421 82.5316 5.0956 82.5316 3.41522C82.5316 1.55329 82.3652 1.58428 82.3652 1.08857C82.3652 0.37296 82.7996 0.254883 83.7846 0.254883C84.3593 0.254883 84.9444 0.284348 85.5212 0.342845C86.0208 0.408274 86.5132 0.494286 86.9955 0.494286C87.7798 0.494286 88.3667 0.342845 88.8485 0.342845C89.276 0.342845 89.3067 0.550616 89.3067 0.702058C89.3067 1.11955 89.0734 1.58428 88.9482 2.17661C88.8899 2.47299 88.7646 3.58508 88.7646 4.09205V8.07221C88.7646 8.22647 88.7646 8.40109 89.0321 8.40109C89.149 8.40109 89.276 8.31725 89.6225 8.19397C90.0258 8.04816 90.6263 7.89889 91.2939 7.89889C94.5799 7.89889 94.6898 11.0038 94.6898 11.9451V17.3702C94.6898 20.8819 91.1772 20.8819 90.3002 20.8819C89.842 20.8819 89.4163 20.8819 88.948 20.8475C88.3972 20.8249 87.8049 20.794 87.254 20.794C85.459 20.794 86.8046 20.9129 85.1743 20.9129C84.8448 20.9129 84.5013 20.7939 84.5013 20.2995C84.5013 19.9938 84.6937 19.6123 84.8448 19.0869C85.0781 18.3737 85.1743 16.9314 85.1743 16.192V6.97984H85.1745Z" fill="#C8A97A"/>
</svg>
