<svg width="20" height="20" viewBox="0 0 20 20" fill="none" xmlns="http://www.w3.org/2000/svg">
<path d="M19.3327 9.99935L9.99935 0.666016L0.666016 9.99935L9.99935 19.3327L19.3327 9.99935Z" fill="white"/>
<path fill-rule="evenodd" clip-rule="evenodd" d="M10 0L20 10L10 20L0 10L10 0ZM1.83495 10L10 18.1651L18.1651 10L10 1.83495L1.83495 10Z" fill="#C8A97A"/>
<path fill-rule="evenodd" clip-rule="evenodd" d="M11.6212 5.33203L12.666 6.31601L8.75565 9.9987L12.666 13.6814L11.6212 14.6654L6.66602 9.9987L11.6212 5.33203Z" fill="#C8A97A"/>
<path fill-rule="evenodd" clip-rule="evenodd" d="M8.3788 5.33203L7.33398 6.31601L11.2444 9.9987L7.33398 13.6814L8.3788 14.6654L13.334 9.9987L8.3788 5.33203Z" fill="#C8A97A"/>
</svg>
