<svg width="20" height="40" viewBox="0 0 20 40" fill="none" xmlns="http://www.w3.org/2000/svg">
<g clip-path="url(#clip0)">
<path d="M15.0896 36.9972C14.9971 36.9972 14.8954 36.9874 14.8029 36.9874C14.7105 36.9972 14.618 36.9972 14.5255 37.0168C14.3406 37.0463 14.1649 37.1149 14.0262 37.213C13.8783 37.3112 13.7581 37.4583 13.6933 37.6251C13.6194 37.7919 13.6009 37.9783 13.6009 38.1549C13.6009 38.3413 13.6471 38.5179 13.7118 38.6945L13.7581 38.8221L13.8228 38.9398C13.8413 38.9889 13.869 39.0085 13.8968 39.0477L13.9338 39.0968L13.98 39.1458C14.0355 39.2145 14.1002 39.2636 14.1649 39.3126C14.2389 39.3519 14.3036 39.4009 14.3868 39.4304C14.544 39.4892 14.7105 39.5383 14.8769 39.5383C15.5611 39.5873 16.2546 39.2538 16.6614 38.6847C16.8741 38.41 17.0036 38.0666 17.0683 37.7134C17.133 37.3602 17.133 36.9874 17.0775 36.6146C17.0313 36.2417 16.9203 35.8787 16.7909 35.5157L16.6892 35.2508L16.6707 35.1821L16.643 35.1135L16.5782 34.9859L16.3286 34.4365C15.9772 33.7497 15.6074 33.0629 15.182 32.4056C14.3498 31.0811 13.4529 29.7664 12.6855 28.3732C11.918 26.9702 11.2893 25.4789 10.8824 23.9091C10.679 23.1243 10.5218 22.3296 10.4201 21.5348C10.2814 20.7598 10.3092 19.8277 10.7622 19.1115L10.8455 18.984C10.8732 18.9447 10.9102 18.9055 10.9472 18.8662C11.0026 18.7779 11.0859 18.7092 11.1598 18.6406C11.317 18.5032 11.4927 18.3855 11.6776 18.307C12.0567 18.15 12.4821 18.1206 12.8797 18.2481C13.2773 18.356 13.6194 18.6308 13.869 18.9545C14.1187 19.2881 14.2759 19.6904 14.3591 20.1024C14.4423 20.5145 14.47 20.9266 14.4423 21.3386L14.4423 21.4171L14.4331 21.4956L14.4238 21.6428L14.4146 21.7899C14.4053 21.839 14.3961 21.8979 14.3868 21.9469C14.3683 22.045 14.3591 22.153 14.3406 22.2609L14.2666 22.565C14.0817 23.3695 13.7858 24.1446 13.4529 24.8804C13.1108 25.6261 12.7225 26.3325 12.2971 27.0193C11.8718 27.6962 11.4187 28.3438 10.9564 28.9717C10.041 30.2373 9.15336 31.4833 8.49686 32.8569C8.42289 33.0335 8.33967 33.2003 8.2657 33.3769C8.22872 33.4652 8.19173 33.5535 8.16399 33.6418L8.07153 33.9067L8.04379 33.9754L8.03454 33.995C8.03454 33.995 8.0253 34.0244 8.03454 33.995L8.0253 34.0342L7.97906 34.1716L7.93283 34.3188C7.91434 34.3678 7.91434 34.4071 7.90509 34.4463C7.85886 34.6131 7.83112 34.7995 7.81263 34.9761C7.7664 35.3391 7.77564 35.7021 7.84961 36.0455C7.92358 36.3889 8.06228 36.7127 8.2842 36.958C8.49686 37.2032 8.79275 37.3602 9.10713 37.37C9.26432 37.37 9.4215 37.3406 9.56945 37.2719C9.71739 37.2032 9.85609 37.1051 9.98554 36.9874C10.2352 36.7421 10.4201 36.4085 10.5496 36.0651L10.5958 35.9278L10.6328 35.7904C10.6605 35.7021 10.6883 35.604 10.7068 35.5157L10.7345 35.3784L10.753 35.3097L10.753 35.2901C10.753 35.2999 10.753 35.2803 10.753 35.2803L10.7622 35.241L10.7992 34.9467L10.8455 34.6327L10.8639 34.4855C10.8639 34.4365 10.8732 34.3874 10.8732 34.3384L10.9009 33.7595C10.9009 33.5633 10.8917 33.3671 10.8824 33.1709C10.8732 33.0727 10.8824 32.9746 10.8639 32.8765L10.827 32.5822C10.79 32.1897 10.7068 31.8071 10.6235 31.4245L10.4663 30.8554L10.4294 30.7181L10.3831 30.5807L10.2814 30.306C10.0133 29.5702 9.6804 28.8638 9.27356 28.1966C8.87597 27.5295 8.43214 26.8917 7.94208 26.2932C7.45202 25.6948 6.93422 25.1159 6.38868 24.5861C5.84314 24.0465 5.26062 23.5363 4.66885 23.0556C4.07708 22.5748 3.45757 22.1235 2.82881 21.6918C2.51443 21.476 2.19081 21.2699 1.87643 21.0737C1.5528 20.8775 1.21993 20.6813 0.905557 20.5243L-0.00983898 20.0534L0.905557 19.5726C1.21993 19.4058 1.5528 19.2096 1.87643 19.0134C2.20005 18.8172 2.51443 18.6111 2.82881 18.3953C3.45757 17.9636 4.06783 17.5123 4.6596 17.0315C5.84314 16.07 6.95271 14.9908 7.92359 13.7841C8.88521 12.5773 9.71739 11.243 10.2444 9.7713L10.3461 9.49659L10.3924 9.35923L10.4294 9.22187L10.5866 8.66264C10.6698 8.28 10.753 7.89737 10.7807 7.50492L10.8177 7.21059C10.827 7.11248 10.827 7.01437 10.8362 6.91626C10.8362 6.72003 10.8547 6.52381 10.8547 6.32759L10.827 5.73892C10.827 5.68986 10.8177 5.64081 10.8177 5.59175L10.7992 5.4544L10.753 5.16006C10.7068 4.77743 10.6143 4.39479 10.4848 4.0514C10.3554 3.70801 10.1705 3.38425 9.93006 3.14878C9.8191 3.04086 9.68965 2.94275 9.54171 2.87407C9.40301 2.8152 9.25507 2.77596 9.10713 2.77596C8.81124 2.78577 8.5246 2.92312 8.31194 3.15859C8.09002 3.38425 7.95133 3.70801 7.86811 4.04159C7.78489 4.37517 7.77564 4.73818 7.80338 5.1012C7.84037 5.46421 7.92359 5.82722 8.03454 6.17061L8.12701 6.45513C8.15475 6.55324 8.19173 6.63173 8.22872 6.72003C8.29344 6.88682 8.36741 7.06342 8.44139 7.24002C8.75576 7.93661 9.13487 8.60377 9.55096 9.25131C9.96704 9.89884 10.4109 10.5366 10.8732 11.1645C11.3355 11.7924 11.8071 12.4203 12.2417 13.0875C12.4636 13.421 12.667 13.7644 12.8704 14.1176C13.0738 14.461 13.2588 14.824 13.4344 15.1969C13.6101 15.5599 13.7673 15.9425 13.9153 16.3251C14.054 16.7078 14.1742 17.1002 14.2759 17.5025L14.3406 17.8066C14.3591 17.9047 14.3776 18.0126 14.3868 18.1108C14.3961 18.1598 14.4053 18.2089 14.4146 18.2677L14.4331 18.4247L14.4516 18.5817L14.4516 18.6602L14.4516 18.7387L14.4608 19.0428L14.4516 19.3568C14.4331 19.5628 14.4146 19.7787 14.3683 19.9749C14.2851 20.3869 14.1279 20.7892 13.8783 21.1326C13.7488 21.2994 13.6101 21.4564 13.4344 21.5741C13.3512 21.6428 13.2588 21.682 13.1663 21.7409C13.0738 21.7801 12.9814 21.8292 12.8797 21.8586C12.4821 21.9862 12.0475 21.9567 11.6684 21.7997C11.4742 21.7213 11.2985 21.6035 11.1413 21.4662C11.0674 21.3877 10.9841 21.319 10.9194 21.2405C10.8824 21.2013 10.8547 21.162 10.8177 21.113L10.7345 20.9756C10.5033 20.6126 10.3831 20.1907 10.3369 19.7787C10.3092 19.5726 10.3092 19.3568 10.3184 19.1507C10.3277 19.0428 10.3277 18.9447 10.3461 18.8368L10.3924 18.5425L10.4756 17.944L10.5218 17.6496C10.5403 17.5515 10.5588 17.4534 10.5866 17.3553L10.7068 16.7568L10.7715 16.4625L10.8547 16.1682C11.2615 14.5984 11.8995 13.0973 12.667 11.7041C13.4345 10.2913 14.3314 8.98641 15.1543 7.65209C15.5704 6.98493 15.9495 6.30797 16.2916 5.61137L16.532 5.08157L16.5967 4.95403L16.6245 4.88535L16.643 4.82648L16.7539 4.54196C16.7909 4.44385 16.8094 4.36536 16.8371 4.27706C16.8649 4.18876 16.8926 4.10046 16.9203 4.01216L16.9851 3.73745L17.0313 3.46274C17.0775 3.09972 17.0868 2.7269 17.0221 2.38351C16.9481 2.03031 16.8186 1.70654 16.6152 1.44164C16.2084 0.892218 15.5334 0.588073 14.8769 0.637129C14.7105 0.64694 14.5625 0.686185 14.4146 0.745051C14.3406 0.774485 14.2759 0.813729 14.2111 0.852974C14.1464 0.892218 14.0817 0.941274 14.0355 1.00014L13.9892 1.03939L13.9522 1.08844C13.9338 1.11787 13.906 1.14731 13.8875 1.18655L13.8598 1.23561L13.8413 1.26504L13.8413 1.27485C13.8413 1.27485 13.832 1.29447 13.8413 1.27485L13.7858 1.41221C13.7581 1.47108 13.7488 1.50051 13.7396 1.53975C13.7303 1.579 13.7118 1.61824 13.7026 1.6673L13.6749 1.79484L13.6656 1.92239C13.6564 2.09899 13.6749 2.26578 13.7396 2.42276C13.8043 2.57973 13.906 2.71709 14.0447 2.82501C14.3221 3.04086 14.7105 3.09972 15.0896 3.0801C14.9971 3.09972 14.9046 3.12916 14.8122 3.14878C14.7197 3.15859 14.618 3.17821 14.5163 3.1684C14.3221 3.17821 14.1187 3.12916 13.9245 3.04086C13.7396 2.94275 13.5639 2.78577 13.4529 2.57973C13.342 2.38351 13.2865 2.15785 13.268 1.92239C13.268 1.86352 13.2588 1.80465 13.268 1.7556L13.2865 1.58881C13.2865 1.52994 13.305 1.47108 13.3142 1.41221C13.3235 1.35334 13.3327 1.29447 13.3512 1.24542L13.3882 1.10806C13.4067 1.07863 13.3975 1.08844 13.4067 1.07863L13.416 1.05901L13.4345 1.00995L13.4622 0.931463C13.4899 0.872596 13.5269 0.82354 13.5547 0.774485L13.6009 0.695996C13.6194 0.676373 13.6379 0.656751 13.6564 0.627318C13.7303 0.529206 13.8136 0.460528 13.906 0.382039C13.9985 0.313361 14.0909 0.244683 14.1927 0.205439C14.3961 0.107327 14.6087 0.0386495 14.8214 0.0190273C15.0433 -0.0104061 15.256 -0.0104061 15.4687 0.0288384C15.5704 0.0386496 15.6721 0.0778941 15.783 0.0975164C15.8848 0.136761 15.9865 0.166194 16.0882 0.21525C16.2916 0.293739 16.4673 0.421284 16.643 0.548829C16.7169 0.617507 16.8094 0.686185 16.8834 0.774485L16.9943 0.892218L17.096 1.01976C17.3734 1.37296 17.5491 1.80465 17.6323 2.24616C17.7155 2.68766 17.7155 3.12916 17.6508 3.56085L17.5953 3.8748L17.5214 4.18876C17.5029 4.29668 17.4659 4.39479 17.4289 4.49291C17.3919 4.59102 17.3642 4.70875 17.3272 4.79705L17.2255 5.08157L17.1977 5.16006L17.17 5.22874L17.1053 5.3661L16.8464 5.91552C16.7539 6.09212 16.6614 6.26872 16.569 6.45513L16.4303 6.72003L16.2823 6.97512L15.9772 7.49511L15.6536 8.00529C14.7937 9.33961 13.869 10.6052 13.0831 11.9592C12.2971 13.3131 11.6591 14.7554 11.2338 16.2761C11.0211 17.0315 10.8547 17.7968 10.7437 18.6013L10.6975 18.8957C10.6883 18.984 10.679 19.0821 10.6698 19.1802C10.6605 19.3666 10.6605 19.5628 10.679 19.7492C10.716 20.122 10.8177 20.4949 11.0119 20.799L11.0859 20.9167C11.1136 20.956 11.1413 20.9854 11.1691 21.0247C11.2246 21.0933 11.2893 21.1522 11.354 21.2209C11.4927 21.3288 11.6314 21.4367 11.7978 21.5054C12.1122 21.6428 12.4821 21.6722 12.8057 21.5643C12.8889 21.5447 12.9629 21.5054 13.0461 21.4662C13.1201 21.4171 13.2033 21.3877 13.268 21.3288C13.416 21.2307 13.5269 21.0933 13.6471 20.9462C13.8598 20.6518 13.9985 20.2986 14.0725 19.9258C14.1094 19.7394 14.1279 19.5432 14.1464 19.3568L14.1557 19.0723L14.1464 18.7681C14.1187 18.3855 14.054 18.0028 13.9338 17.63C13.7026 16.8844 13.3235 16.2074 12.8889 15.5697C12.4636 14.932 11.9735 14.3237 11.5019 13.7056C11.0304 13.0875 10.5681 12.4595 10.1057 11.812C9.64342 11.1645 9.19035 10.5169 8.77426 9.82035C8.35817 9.12376 7.96982 8.40755 7.66469 7.63247C7.59072 7.43625 7.51674 7.24983 7.45202 7.0438C7.41503 6.94569 7.37805 6.83777 7.35031 6.73966L7.26709 6.45513C7.15613 6.03325 7.08216 5.61137 7.05442 5.16987C7.03593 4.72837 7.07292 4.27706 7.20237 3.84537C7.33182 3.41368 7.54448 2.9918 7.87735 2.66803C8.20098 2.34427 8.6633 2.13823 9.13487 2.15785C9.36603 2.16767 9.59719 2.23634 9.80061 2.33446C10.004 2.44238 10.1797 2.58954 10.3369 2.74652C10.642 3.0801 10.8362 3.47255 10.9749 3.8748C11.1136 4.28687 11.1968 4.68913 11.2338 5.1012L11.2615 5.39553L11.28 5.55251C11.28 5.60156 11.28 5.66043 11.2893 5.70949L11.3078 6.31778C11.3078 6.52381 11.2893 6.72984 11.2893 6.93588C11.28 7.03399 11.2893 7.14191 11.2708 7.24002L11.2338 7.55398C11.1968 7.96605 11.1044 8.35849 11.0211 8.77056L10.8639 9.35923L10.827 9.5064L10.7807 9.65356L10.679 9.93809C10.4109 10.7034 10.0688 11.4392 9.66191 12.1358C9.26432 12.8324 8.82049 13.4995 8.33968 14.1373C7.84962 14.7652 7.34106 15.3735 6.80477 15.9523C6.25923 16.5312 5.70445 17.0806 5.12192 17.6104C4.5394 18.1402 3.93838 18.6504 3.31887 19.1311C3.01374 19.3764 2.69936 19.6119 2.38498 19.8473C2.06136 20.0828 1.75623 20.3085 1.41411 20.5341L1.41411 19.5824C1.75623 19.8081 2.07061 20.0337 2.38498 20.2692C2.69936 20.5047 3.01374 20.7401 3.31887 20.9854C3.92913 21.476 4.5394 21.9764 5.11267 22.5062C6.27772 23.5559 7.3688 24.7137 8.33043 25.9793C9.27356 27.2547 10.1242 28.6381 10.6513 30.1785L10.753 30.463L10.7992 30.6102L10.8362 30.7573L10.9934 31.346C11.0766 31.7482 11.1598 32.1407 11.1968 32.5528L11.2338 32.8569C11.243 32.955 11.243 33.0629 11.2523 33.161C11.2523 33.3573 11.2615 33.5535 11.2615 33.7595L11.2338 34.3776C11.2338 34.4267 11.2338 34.4855 11.2246 34.5346L11.2061 34.6818L11.1691 34.9761L11.1321 35.2704L11.1228 35.3195L11.1228 35.3489L11.1228 35.3685L11.1044 35.447L11.0766 35.604C11.0581 35.7021 11.0304 35.8101 11.0026 35.9082L10.9564 36.0553L10.9009 36.2025C10.7622 36.5949 10.5681 36.9776 10.2722 37.3013C10.1242 37.4583 9.94855 37.5957 9.75438 37.6938C9.5602 37.7919 9.33829 37.8606 9.11637 37.8704C8.67254 37.89 8.21947 37.7036 7.89585 37.3896C7.56297 37.0757 7.35031 36.6636 7.21161 36.2417C7.07291 35.8101 7.02668 35.3685 7.04517 34.927C7.05442 34.7112 7.07292 34.4954 7.1099 34.2697C7.11915 34.2108 7.12839 34.152 7.13764 34.1029L7.16538 33.9557L7.19312 33.8086L7.20236 33.7693L7.21161 33.7203L7.2301 33.6418C7.33181 33.2297 7.46127 32.8275 7.60921 32.4448C7.90509 31.6698 8.2842 30.9339 8.69104 30.2275C9.10713 29.5309 9.5602 28.8638 10.0225 28.226C10.4848 27.5785 10.9564 26.9604 11.4465 26.3521C11.9273 25.7438 12.4266 25.1552 12.8612 24.5174C13.305 23.8895 13.6841 23.2126 13.9245 22.4669L14.0077 22.1824C14.0355 22.0843 14.054 21.996 14.0725 21.8979C14.0817 21.8488 14.0909 21.8096 14.1002 21.7605L14.1187 21.6133L14.1372 21.4662L14.1464 21.3975L14.1464 21.3288C14.1742 20.9364 14.1557 20.5537 14.0817 20.1711C14.0077 19.7983 13.869 19.4353 13.6564 19.1409C13.5454 18.9938 13.4252 18.8564 13.2773 18.7583C13.2403 18.7289 13.2033 18.6994 13.1663 18.6798L13.0553 18.6111C12.9721 18.5817 12.8982 18.5326 12.8057 18.513C12.4728 18.4051 12.103 18.4345 11.7793 18.5719C11.6129 18.6406 11.465 18.7387 11.3263 18.8564C11.2615 18.9251 11.1968 18.9741 11.1413 19.0526C11.1136 19.0919 11.0859 19.1213 11.0581 19.1606L10.9841 19.2783C10.79 19.5922 10.679 19.9651 10.642 20.3477C10.6235 20.5439 10.6235 20.7205 10.6328 20.9167C10.642 21.0149 10.6513 21.1228 10.6605 21.2111L10.7068 21.5054C10.8177 22.2903 10.9841 23.0752 11.1968 23.8307C11.6314 25.3514 12.2694 26.7936 13.0553 28.1476C13.4529 28.8245 13.869 29.4819 14.3129 30.1294L14.9694 31.1105C15.182 31.4441 15.4039 31.7679 15.6166 32.1014C16.0512 32.7686 16.4488 33.4652 16.8094 34.1912L17.059 34.7308L17.1238 34.8682L17.1515 34.9369L17.1792 35.0154L17.2902 35.3097C17.4289 35.7021 17.5491 36.1044 17.6046 36.5263C17.6601 36.9481 17.6693 37.3896 17.5861 37.8213C17.5029 38.253 17.3272 38.6749 17.059 39.0183L16.9481 39.1458L16.8371 39.2636C16.7632 39.3421 16.6799 39.4107 16.5967 39.4794C16.421 39.607 16.2454 39.7247 16.0512 39.7934C15.9587 39.8424 15.857 39.862 15.7553 39.9013C15.6536 39.9209 15.5519 39.9602 15.4502 39.97C15.2467 40.0092 15.0341 40.0092 14.8307 39.9798C14.6272 39.9602 14.4146 39.8915 14.2296 39.7934C14.1279 39.7443 14.0447 39.6855 13.9522 39.6266C13.869 39.5579 13.7858 39.4794 13.7118 39.3911C13.6933 39.3715 13.6749 39.3519 13.6564 39.3224L13.6101 39.2439C13.5824 39.2047 13.5454 39.1458 13.5269 39.1066L13.4622 38.9594L13.416 38.8024C13.3605 38.5964 13.3235 38.3806 13.3327 38.1549C13.342 37.9391 13.3975 37.7134 13.4992 37.527C13.6009 37.3308 13.7581 37.1738 13.943 37.0855C14.3129 36.8795 14.7289 36.9089 15.0896 36.9972Z" fill="#C8A97A"/>
<path d="M10.4852 20.0339C10.4852 20.0339 10.476 19.9554 10.476 19.7984C10.476 19.6414 10.4482 19.4354 10.4852 19.1312C10.4945 19.0626 10.5037 18.9841 10.513 18.8958C10.5222 18.8565 10.5222 18.8173 10.5315 18.7682C10.5407 18.729 10.55 18.6799 10.5592 18.6407C10.5777 18.5524 10.5962 18.4641 10.6147 18.3758C10.6332 18.2875 10.6517 18.1796 10.6887 18.0913C10.7534 17.895 10.8181 17.689 10.9106 17.4732C10.9568 17.3652 11.0123 17.2573 11.0585 17.1494C11.0863 17.0905 11.114 17.0415 11.1417 16.9826C11.1695 16.9335 11.2065 16.8747 11.2342 16.8256C11.2989 16.7177 11.3729 16.6098 11.4376 16.492C11.5116 16.3841 11.5948 16.286 11.678 16.1781C11.7243 16.129 11.7612 16.0702 11.8075 16.0113C11.8537 15.9524 11.8999 15.9132 11.9462 15.8543C12.0386 15.7562 12.1403 15.6483 12.2421 15.5502C12.464 15.3638 12.6766 15.1577 12.9355 15.0008C13.0003 14.9615 13.065 14.9125 13.1205 14.8732L13.2129 14.8143L13.3146 14.7555C13.4533 14.6868 13.592 14.6181 13.7307 14.5396C14.304 14.2845 14.9235 14.1178 15.5708 14.0491C15.7372 14.0393 15.8944 14.0393 16.0608 14.0295C16.144 14.0196 16.2273 14.0295 16.3012 14.0393L16.5509 14.0589L16.8005 14.0785L17.0502 14.1178C17.0872 14.1276 17.1149 14.1276 17.1611 14.1374L17.2998 14.1766C17.3923 14.2061 17.4848 14.2257 17.568 14.2649C17.9009 14.3827 18.2152 14.5691 18.5019 14.7751C18.7885 14.9909 19.0289 15.2558 19.2508 15.5404C19.4635 15.8347 19.6207 16.1487 19.7501 16.4822C19.8611 16.8158 19.9443 17.1592 19.9721 17.5026C19.9998 17.5713 19.9906 17.6596 19.9998 17.7479C19.9998 17.8362 20.009 17.9147 19.9998 18.003C19.9906 18.0815 19.9906 18.1698 19.9813 18.2482L19.9721 18.3071L19.9721 18.3267C19.9721 18.3267 19.9628 18.3758 19.9721 18.3562L19.9721 18.366L19.9628 18.3954L19.9443 18.5033C19.9443 18.5328 19.9258 18.5818 19.9166 18.6309C19.9073 18.6799 19.8888 18.729 19.8796 18.7682C19.8519 18.8565 19.8149 18.935 19.7779 19.0135C19.7039 19.1705 19.6207 19.3177 19.5097 19.4452C19.1029 19.9652 18.5111 20.2399 17.9748 20.2399C17.9101 20.2399 17.8454 20.2399 17.7807 20.2301L17.6882 20.2203L17.6327 20.2105L17.6142 20.2105L17.605 20.2105L17.5957 20.2105L17.5772 20.2105C17.5495 20.2007 17.531 20.2007 17.4848 20.1908C17.4478 20.181 17.4108 20.1712 17.3738 20.1516C17.3091 20.1222 17.2444 20.0927 17.1889 20.0535C16.9577 19.9063 16.7913 19.7003 16.6988 19.4746C16.6064 19.249 16.5879 19.0135 16.6156 18.8173L16.6156 18.7977C16.6249 18.7584 16.6156 18.7879 16.6156 18.7682L16.6156 18.7584L16.6249 18.729C16.6341 18.7094 16.6341 18.6897 16.6433 18.6701C16.6618 18.6211 16.6896 18.5524 16.7173 18.5033C16.7451 18.4641 16.7728 18.415 16.8098 18.3856C16.8468 18.3562 16.8745 18.3169 16.9115 18.2973C17.0594 18.1992 17.2166 18.1698 17.3461 18.1894L17.3738 18.1894L17.3831 18.1894L17.3923 18.1894C17.42 18.1894 17.4016 18.1894 17.4108 18.1894C17.42 18.1894 17.4385 18.1992 17.4478 18.1992L17.4663 18.209L17.494 18.2188C17.5125 18.2286 17.531 18.2384 17.5402 18.2482C17.568 18.2679 17.5865 18.2875 17.6142 18.3071C17.6327 18.3267 17.6512 18.3464 17.6605 18.366C17.7159 18.4543 17.7252 18.5328 17.7252 18.5818C17.7252 18.6309 17.7159 18.6603 17.7159 18.6603C17.7067 18.7094 17.6697 18.7486 17.6235 18.7388C17.5772 18.729 17.5402 18.6897 17.5495 18.6407C17.5495 18.6407 17.5587 18.572 17.494 18.5033C17.4848 18.4935 17.4755 18.4935 17.4663 18.4837C17.457 18.4837 17.4478 18.4739 17.4385 18.4641L17.4293 18.4641C17.4293 18.4641 17.4293 18.4641 17.42 18.4641L17.4016 18.4641C17.3923 18.4641 17.3738 18.4641 17.3646 18.4641C17.3738 18.4641 17.3461 18.4641 17.3738 18.4641L17.3646 18.4641L17.3461 18.4641C17.2721 18.4641 17.1889 18.5033 17.1242 18.572C17.1057 18.5916 17.0964 18.6113 17.0779 18.6309C17.0687 18.6505 17.0594 18.6701 17.0409 18.6996C17.0409 18.7192 17.0317 18.729 17.0225 18.7584C17.0225 18.778 17.0132 18.7977 17.0132 18.8173L17.0132 18.8467L17.0132 18.8565C17.0132 18.8467 17.0132 18.8762 17.0132 18.8369L17.0132 18.8467C17.0132 18.9743 17.0502 19.1214 17.1242 19.2392C17.1981 19.3569 17.3091 19.4648 17.4385 19.5237C17.4755 19.5335 17.5033 19.5531 17.5402 19.5531L17.5865 19.5629C17.5957 19.5629 17.6327 19.5727 17.6512 19.5727L17.6697 19.5727L17.6789 19.5727L17.6882 19.5727C17.6974 19.5727 17.6605 19.5727 17.6789 19.5727L17.7159 19.5727L17.7807 19.5727C17.8269 19.5727 17.8731 19.5629 17.9194 19.5629C18.095 19.5335 18.28 19.4648 18.4372 19.3667C18.6036 19.2588 18.7423 19.1116 18.8532 18.9448C18.9087 18.8565 18.955 18.7584 18.9827 18.6701C19.0012 18.6211 19.0104 18.572 19.0289 18.523C19.0289 18.5033 19.0382 18.4837 19.0382 18.4543C19.0382 18.4347 19.0474 18.415 19.0474 18.3758L19.0752 18.2482L19.0752 18.2188L19.0752 18.209C19.0752 18.1894 19.0752 18.2286 19.0752 18.2286L19.0752 18.2188L19.0752 18.1698C19.0752 18.1109 19.0752 18.0422 19.0752 17.9833C19.0752 17.9245 19.0659 17.8558 19.0659 17.7969C19.0567 17.7381 19.0567 17.6694 19.0474 17.6105C19.0104 17.3652 18.9365 17.12 18.844 16.8845C18.733 16.6588 18.6036 16.4332 18.4464 16.237C18.28 16.0407 18.1043 15.8641 17.9009 15.7268C17.6974 15.5894 17.4755 15.4717 17.2351 15.3932C17.1796 15.3736 17.1242 15.3638 17.0779 15.354L17.004 15.3343C16.9762 15.3245 16.93 15.3245 16.9022 15.3147L16.7081 15.2853L16.5047 15.2755L16.3012 15.2657C16.2365 15.2657 16.1718 15.2558 16.0978 15.2657C15.9684 15.2755 15.8297 15.2853 15.7002 15.2951C15.1732 15.354 14.6739 15.5011 14.2023 15.6973C13.74 15.9034 13.3239 16.1683 12.9355 16.4528C12.7599 16.6196 12.5657 16.7471 12.4177 16.9237C12.3438 17.0022 12.2513 17.0807 12.1773 17.1592C12.1034 17.2475 12.0386 17.326 11.9647 17.4045C11.9277 17.4437 11.8907 17.483 11.8629 17.5222C11.8352 17.5615 11.7982 17.6105 11.7705 17.6498C11.715 17.7381 11.6503 17.8166 11.5948 17.895C11.5301 17.9735 11.4931 18.0618 11.4376 18.1403C11.3914 18.2188 11.3359 18.2973 11.2897 18.3758C11.2065 18.5328 11.1325 18.6897 11.0585 18.8271C11.04 18.8663 11.0215 18.8958 11.003 18.935C10.9845 18.9743 10.9753 19.0037 10.966 19.0331C10.9383 19.1018 10.9106 19.1607 10.8828 19.2195C10.7719 19.455 10.7164 19.6807 10.6609 19.818C10.6147 19.9652 10.5869 20.0339 10.5869 20.0339C10.5777 20.0633 10.5407 20.0829 10.513 20.0731C10.5037 20.0731 10.4945 20.0535 10.4852 20.0339Z" fill="#C8A97A"/>
<path d="M10.8822 19.9936C10.8822 19.9936 10.9007 20.0721 10.9284 20.2193C10.9469 20.2977 10.9654 20.3762 10.9931 20.4645C11.0116 20.5528 11.0486 20.6706 11.0856 20.7883C11.1688 21.0336 11.2705 21.3279 11.4277 21.6419C11.5849 21.9558 11.7791 22.2992 12.038 22.6328C12.2876 22.9762 12.602 23.3 12.9626 23.6041C13.3232 23.9082 13.7486 24.1731 14.2109 24.3792C14.442 24.4773 14.6825 24.5656 14.9321 24.6441C15.1818 24.7128 15.4407 24.7618 15.6996 24.7912C15.9585 24.8207 16.2266 24.8305 16.4948 24.8207L16.6982 24.8109C16.7352 24.8011 16.8554 24.7912 16.8923 24.7814C16.9478 24.7716 17.0033 24.7618 17.068 24.752C17.1235 24.7324 17.1882 24.7226 17.2437 24.7029C17.7153 24.5558 18.1406 24.2516 18.4642 23.8592C18.7879 23.4667 18.9913 22.9762 19.0745 22.4758C19.093 22.3483 19.1022 22.2207 19.1115 22.103C19.1115 22.0441 19.1115 21.9754 19.1115 21.9166L19.1115 21.8675L19.1115 21.8577C19.1115 21.8479 19.1115 21.8675 19.1115 21.8675L19.1115 21.8577L19.1115 21.8283L19.1115 21.7792L19.1115 21.74C19.093 21.5339 19.0098 21.3279 18.8988 21.1513C18.6769 20.7981 18.3163 20.5725 17.9464 20.5234C17.7615 20.494 17.5951 20.494 17.4656 20.5626C17.3177 20.6019 17.2067 20.7098 17.1328 20.8374C17.0588 20.9649 17.0218 21.1023 17.0218 21.2298L17.0218 21.2396C17.0218 21.2494 17.0218 21.2298 17.0218 21.2298L17.0218 21.2396L17.0218 21.269L17.0218 21.2887L17.0218 21.2985L17.0218 21.3083C17.0218 21.3279 17.031 21.3573 17.0403 21.377C17.0588 21.426 17.0865 21.4653 17.1143 21.4947C17.179 21.5634 17.2622 21.5928 17.3362 21.6026C17.3547 21.6026 17.3732 21.6026 17.3917 21.6026C17.4009 21.6026 17.4101 21.6026 17.4194 21.5928C17.4379 21.583 17.4564 21.5732 17.4749 21.5536C17.5026 21.5241 17.5211 21.4751 17.5303 21.4456C17.5396 21.4162 17.5396 21.3966 17.5396 21.3966C17.5488 21.3475 17.5858 21.3083 17.6413 21.3083C17.6875 21.3181 17.7153 21.3475 17.7245 21.3966L17.7245 21.4064C17.7245 21.4064 17.7245 21.426 17.7245 21.4751C17.7153 21.5241 17.7153 21.5928 17.6598 21.6811C17.6321 21.7204 17.5951 21.7694 17.5396 21.8087C17.5119 21.8283 17.4841 21.8381 17.4471 21.8479C17.4194 21.8577 17.3824 21.8577 17.3547 21.8675C17.2252 21.9068 17.068 21.8871 16.9293 21.7792C16.8554 21.7302 16.7906 21.6615 16.7444 21.5732C16.7167 21.5241 16.6982 21.4849 16.6797 21.426L16.6704 21.377L16.6612 21.3573L16.6612 21.3377L16.6519 21.3083L16.6519 21.2985L16.6519 21.2789L16.6519 21.2592C16.6242 21.063 16.6427 20.8275 16.7352 20.6117C16.8276 20.3959 16.9941 20.18 17.216 20.0427C17.2715 20.0034 17.3362 19.974 17.4009 19.9544C17.4379 19.9445 17.4749 19.9347 17.5119 19.9151L17.5396 19.9053L17.5581 19.9053L17.5951 19.8955L17.6136 19.8955L17.6228 19.8955C17.6321 19.8955 17.6136 19.8955 17.6413 19.8955L17.6506 19.8955L17.6875 19.8759C17.7153 19.8759 17.7523 19.8661 17.78 19.8661C17.8447 19.8562 17.9095 19.8562 17.9742 19.8562C18.5012 19.8661 19.093 20.131 19.4906 20.6509C19.694 20.9158 19.842 21.22 19.9067 21.583L19.9159 21.6517L19.9252 21.7007L19.9252 21.7302L19.9252 21.7596L19.9252 21.7792L19.9344 21.8381C19.9437 21.9166 19.9529 22.0049 19.9529 22.0834C19.9622 22.2502 19.9622 22.417 19.9437 22.5837C19.8974 23.2607 19.6478 23.9573 19.2317 24.5362C19.019 24.8207 18.7786 25.0856 18.492 25.3014C18.2146 25.5173 17.891 25.6939 17.5581 25.8116C17.4749 25.841 17.3917 25.8705 17.3084 25.8901C17.2252 25.9097 17.142 25.9392 17.0403 25.949C16.9293 25.9686 16.8923 25.9784 16.7906 25.9882L16.5502 26.0078C16.2266 26.0373 15.8937 26.0373 15.5701 26.0078C15.2465 25.9784 14.9229 25.9195 14.6177 25.841C14.3126 25.7625 14.0075 25.6448 13.7208 25.5173C13.4342 25.3897 13.166 25.2327 12.9164 25.066C12.6667 24.8992 12.4263 24.7128 12.2137 24.5165C11.7883 24.1241 11.4277 23.6924 11.1596 23.2607C10.8914 22.829 10.688 22.3973 10.5493 22.0049C10.4106 21.6124 10.3274 21.2592 10.2812 20.9649C10.2349 20.6804 10.2164 20.4253 10.2072 20.2781C10.2072 20.131 10.1979 20.0525 10.1979 20.0525C10.1887 19.8562 10.3366 19.6895 10.5308 19.6895C10.7065 19.7091 10.8452 19.8268 10.8822 19.9936Z" fill="#C8A97A"/>
</g>
<defs>
<clipPath id="clip0">
<rect width="40" height="20" fill="white" transform="translate(20) rotate(90)"/>
</clipPath>
</defs>
</svg>
