<svg width="12" height="8" viewBox="0 0 12 8" fill="none" xmlns="http://www.w3.org/2000/svg">
<g clip-path="url(#clip0)">
<path d="M10.1191 0.96731C10.4322 0.937976 10.7632 1.18942 10.7766 1.52048C10.799 1.83897 10.5798 2.16584 10.2399 2.28318C9.89549 2.40052 9.50637 2.31671 9.22907 2.0946C8.94282 1.88088 8.7997 1.49953 8.8489 1.16008C8.88468 0.816446 9.08595 0.489573 9.38561 0.275849C9.6808 0.0579334 10.0968 -0.0342615 10.459 0.0118359C11.206 0.0788868 11.8634 0.669772 11.9797 1.38638C12.0379 1.74678 11.9887 2.08203 11.859 2.41309C11.7203 2.73578 11.4967 3.03331 11.1925 3.25123C10.8974 3.47334 10.5351 3.61163 10.1638 3.66192C9.98047 3.69125 9.79262 3.69125 9.6003 3.67449C9.42139 3.65353 9.24696 3.62839 9.08595 3.58648C8.43295 3.43562 7.85598 3.19675 7.28349 2.95369C6.71099 2.70644 6.15639 2.44243 5.60179 2.14908L6.0893 2.12394C5.56601 2.47176 5.04271 2.76511 4.47916 3.0417C3.91114 3.30152 3.33418 3.55715 2.64987 3.65353C2.30995 3.70382 1.9432 3.70801 1.59433 3.62839C1.241 3.55296 0.88319 3.39371 0.614834 3.14227C0.337532 2.89502 0.158628 2.57234 0.0736493 2.24128C-0.00685796 1.91021 -0.0292216 1.58753 0.0602312 1.23132C0.243607 0.544052 0.927917 0.0160262 1.6659 -0.000736495C2.03265 -0.0258805 2.42624 0.0998398 2.69907 0.330327C2.97637 0.560814 3.1508 0.891878 3.16422 1.23132C3.19105 1.57496 3.01662 1.92698 2.73038 2.12813C2.44413 2.32928 2.05949 2.39633 1.72851 2.26642C1.40201 2.13651 1.19627 1.80964 1.22758 1.49953C1.25442 1.17684 1.57644 0.933785 1.88505 0.96731C1.57644 0.984073 1.3394 1.24809 1.36176 1.50372C1.3707 1.76354 1.56303 1.99403 1.81349 2.06108C2.05501 2.13232 2.34126 2.0485 2.51569 1.88926C2.69907 1.72582 2.7751 1.49534 2.73038 1.26904C2.66776 0.803874 2.18025 0.464429 1.7151 0.544051C1.22311 0.59434 0.816101 0.958929 0.731122 1.38219C0.690868 1.58334 0.717705 1.83897 0.789266 2.05689C0.860827 2.2748 0.981587 2.46757 1.14707 2.61006C1.47357 2.89502 2.01029 2.97464 2.50675 2.87407C3.55334 2.66453 4.62229 2.06527 5.55706 1.44924L5.79411 1.29418L6.04458 1.42409C7.08669 1.96888 8.20037 2.51786 9.29616 2.81959C9.57793 2.89083 9.80604 2.93693 10.0476 2.90759C10.2891 2.88245 10.5217 2.80283 10.7095 2.66873C11.0986 2.41309 11.3223 1.93117 11.282 1.47857C11.2462 1.03855 10.8571 0.640437 10.3741 0.560815C9.89549 0.443476 9.37667 0.749395 9.28274 1.21875C9.2246 1.44924 9.28274 1.68392 9.46165 1.85992C9.62713 2.03593 9.91785 2.12813 10.1638 2.06946C10.4188 2.01498 10.629 1.78449 10.6424 1.52048C10.6737 1.26066 10.4367 0.984073 10.1191 0.96731Z" fill="#C8A97A"/>
<path d="M9.04297 5.22561C8.49731 4.82749 7.99638 4.421 7.48203 4.05222C7.22262 3.87202 6.97215 3.7002 6.70827 3.57029C6.45333 3.43619 6.18945 3.33561 5.99712 3.34399C5.80927 3.33561 5.54539 3.43619 5.29045 3.57029C5.02657 3.7002 4.7761 3.87621 4.51669 4.05222C4.00681 4.41681 3.50141 4.8233 2.95575 5.22142C3.20622 4.61377 3.57744 4.06479 4.04259 3.57029C4.26623 3.31466 4.54353 3.10094 4.84319 2.8914C5.1518 2.70282 5.51408 2.51424 6.0016 2.50586C6.48911 2.51843 6.85139 2.70282 7.16 2.89978C7.46414 3.10513 7.73697 3.32304 7.9606 3.57867C8.42128 4.06898 8.79698 4.61377 9.04297 5.22561Z" fill="#C8A97A"/>
<path fill-rule="evenodd" clip-rule="evenodd" d="M6.00869 4.62671C6.0174 4.63463 6.02621 4.64274 6.03512 4.65105C6.20733 4.81165 6.40058 5.0306 6.52525 5.28382C6.64736 5.53187 6.69829 5.79986 6.6158 6.08544C6.548 6.32017 6.37935 6.60379 6.01432 6.91929C6.00914 6.91425 6.00393 6.90913 5.99868 6.90394C5.83739 6.7443 5.65499 6.52536 5.53687 6.27073C5.42082 6.02056 5.37112 5.74686 5.45063 5.4547C5.51499 5.21825 5.67284 4.93724 6.00869 4.62671ZM6.0022 7.47445L5.73494 7.81047L6.00547 7.99937L6.27362 7.80753C6.94668 7.32602 7.33032 6.82001 7.47926 6.3044C7.62906 5.78576 7.52512 5.31383 7.33751 4.93276C7.15245 4.55685 6.88111 4.25747 6.66616 4.05701C6.55714 3.95535 6.45869 3.87549 6.38637 3.82027C6.35011 3.79259 6.32016 3.77089 6.29839 3.75554C6.2875 3.74786 6.27864 3.74175 6.27204 3.73726L6.26385 3.73174L6.26108 3.72989L6.26003 3.7292L6.25959 3.72891C6.2594 3.72878 6.25921 3.72866 6.0022 4.07162L6.25921 3.72866L5.98291 3.54687L5.72061 3.74603C5.08267 4.23039 4.72287 4.73683 4.58385 5.2476C4.44449 5.75966 4.5407 6.22588 4.71649 6.60483C4.89021 6.97932 5.14557 7.27872 5.34908 7.48014C5.45213 7.58214 5.54529 7.66234 5.61386 7.71791C5.64823 7.74576 5.67667 7.76762 5.69739 7.78313C5.70776 7.79089 5.71621 7.79708 5.72254 7.80164L5.73041 7.80728L5.7331 7.80919L5.73413 7.80991L5.73456 7.81021C5.73476 7.81035 5.73494 7.81047 6.0022 7.47445Z" fill="#C8A97A"/>
</g>
<defs>
<clipPath id="clip0">
<rect width="8" height="12" fill="white" transform="translate(12) rotate(90)"/>
</clipPath>
</defs>
</svg>
