<svg width="22" height="22" viewBox="0 0 22 22" fill="none" xmlns="http://www.w3.org/2000/svg">
<path fill-rule="evenodd" clip-rule="evenodd" d="M16.6482 5.35443L11.3542 10.6479L6.05988 5.35352L5.35399 5.35352L5.35399 6.05941L10.6483 11.3537L5.35352 16.648V17.3539L6.05941 17.3539L11.3537 12.0601L16.6471 17.3535H17.353V16.6477L12.0596 11.3542L17.3541 6.06032V5.35443L16.6482 5.35443Z" fill="white"/>
<path d="M10.6476 6.35547L9.35351 5.06249L9.35351 4.3566L10.0594 4.3566L11.3535 5.64958L11.3535 6.35547L10.6476 6.35547Z" fill="white" fill-opacity="0.5"/>
<path d="M16.3535 10.6476L17.6465 9.35351L18.3524 9.35351L18.3524 10.0594L17.0594 11.3535L16.3535 11.3535L16.3535 10.6476Z" fill="white" fill-opacity="0.5"/>
<path d="M6.35547 12.0594L5.06249 13.3535L4.3566 13.3535L4.3566 12.6476L5.64958 11.3535L6.35547 11.3535L6.35547 12.0594Z" fill="white" fill-opacity="0.5"/>
<path d="M11.3516 5.64763L12.6445 4.35352L13.3504 4.35352L13.3504 5.05941L12.0575 6.35352L11.3516 6.35352L11.3516 5.64763Z" fill="white" fill-opacity="0.5"/>
<path d="M17.0594 11.3535L18.3535 12.6465L18.3535 13.3524L17.6476 13.3524L16.3535 12.0594L16.3535 11.3535L17.0594 11.3535Z" fill="white" fill-opacity="0.5"/>
<path d="M5.64762 11.3535L4.35351 10.0605L4.35351 9.35465L5.0594 9.35465L6.35352 10.6476L6.35352 11.3535L5.64762 11.3535Z" fill="white" fill-opacity="0.5"/>
<path d="M9.35352 17.6476L10.6465 16.3535L11.3524 16.3535L11.3524 17.0594L10.0594 18.3535L9.35352 18.3535L9.35352 17.6476Z" fill="white" fill-opacity="0.5"/>
<path d="M12.6476 18.3516L11.3535 17.0586L11.3535 16.3527L12.0594 16.3527L13.3535 17.6457L13.3535 18.3516L12.6476 18.3516Z" fill="white" fill-opacity="0.5"/>
</svg>
