<svg width="22" height="22" viewBox="0 0 22 22" fill="none" xmlns="http://www.w3.org/2000/svg">
<g clip-path="url(#clipRoom)">
<path d="M16.8248 22H5.17773V5.82353C5.17773 2.61244 7.79017 0 11.0013 0C14.2124 0 16.8248 2.61244 16.8248 5.82353V7.11765H12.2954V5.82353C12.2954 5.10995 11.7148 4.52941 11.0013 4.52941C10.2877 4.52941 9.70715 5.10995 9.70715 5.82353V7.59936C9.70715 8.3905 10.3986 9.05882 11.217 9.05882H16.8248V22ZM6.47185 20.7059H15.5307V10.3529H11.217C10.4823 10.3529 9.78453 10.0691 9.25218 9.55382C8.71106 9.02997 8.41303 8.33584 8.41303 7.59936V5.82353C8.41303 4.39638 9.57411 3.23529 11.0013 3.23529C12.4284 3.23529 13.5895 4.39638 13.5895 5.82353H15.5307C15.5307 3.32601 13.4988 1.29412 11.0013 1.29412C8.50375 1.29412 6.47185 3.32601 6.47185 5.82353V20.7059Z" fill="white"/>
<path d="M10.3589 17.6336L8.18945 15.6697L9.05802 14.7103L10.3396 15.8705L12.9242 13.4258L13.8135 14.3659L10.3589 17.6336Z" fill="white"/>
</g>
<defs>
<clipPath id="clipRoom">
<rect width="22" height="22" fill="white"/>
</clipPath>
</defs>
</svg>
