<svg width="634" height="633" viewBox="0 0 634 633" fill="none" xmlns="http://www.w3.org/2000/svg">
  <g class="rotate-right">
    <path
      d="M0.256604 305.462C0.678831 300.701 1.15382 295.947 1.52327 291.18C5.1122 244.562 18.6169 200.984 41.648 160.32C59.1111 129.494 81.2516 102.44 107.865 79.1248C147.627 44.3032 193.241 20.625 244.719 8.38044C264.373 3.70547 284.303 1.01522 304.511 0.34266C380.947 -2.18275 449.79 19.4184 510.379 66.0428C564.747 107.88 601.547 162.074 621.26 227.787C626.96 246.797 630.522 266.216 632.396 285.984C634.171 304.723 634.329 323.483 632.799 342.189C628.702 392.163 614.102 438.926 587.469 481.515C540.496 556.611 473.573 604.403 387.531 625.364C371.783 629.202 355.725 631.635 339.489 632.215C327.106 632.657 314.67 633.336 302.32 632.71C254.78 630.316 209.536 618.764 167.762 595.712C83.8443 549.411 30.7031 479.359 8.08759 386.255C3.78615 368.557 1.47048 350.557 0.810754 332.345C0.77117 331.283 0.447919 330.228 0.25 329.166C0.256597 321.267 0.256604 313.361 0.256604 305.462ZM100.014 494.729C112.477 494.729 124.484 494.729 136.478 494.729C136.478 506.914 136.478 518.829 136.478 531.1C135.217 531.1 134.149 531.1 133.073 531.1C123.626 531.1 114.185 531.021 104.738 531.192C103.412 531.219 101.406 532.195 100.997 533.236C100.582 534.291 101.334 536.395 102.284 537.318C119.555 554.125 138.384 568.928 159.39 580.85C160.426 581.437 161.89 581.278 163.157 581.47C162.926 580.19 162.972 578.766 162.411 577.645C159.832 572.463 157.048 567.379 154.416 562.216C153.644 560.699 153.083 559.071 155.478 558.253C157.431 557.587 159.172 556.987 160.373 559.545C161.864 562.71 163.579 565.77 165.255 568.843C167.043 572.113 168.158 572.113 170.17 568.862C178.397 555.55 186.544 542.191 194.877 528.944C196.546 526.287 196.005 525.034 193.452 523.544C180.448 515.941 168.441 506.967 157.173 496.977C143.398 484.766 131.391 470.991 120.334 456.32C118.823 454.316 116.224 452.522 113.809 451.922C105.226 449.779 96.4715 448.355 87.8687 446.291C85.0384 445.612 84.1148 446.627 83.3693 448.902C81.2318 455.443 79.0415 461.965 76.8578 468.486C75.6241 472.172 74.7071 472.673 71.0522 471.591C65.0882 469.818 59.1507 467.945 53.1603 466.264C52.0586 465.954 50.7655 466.343 49.5648 466.409C49.7957 467.589 49.7627 468.921 50.3037 469.936C62.0534 492.098 77.7418 511.352 94.6441 529.695C95.7458 530.889 97.349 531.621 98.7212 532.564C99.15 530.863 99.9285 529.168 99.9483 527.467C100.067 516.62 100.014 505.767 100.014 494.729ZM560.466 210.802C565.638 212.767 570.659 214.567 575.58 216.598C578.127 217.646 579.572 217.336 580.568 214.547C582.738 208.488 585.206 202.533 587.449 196.5C589.091 192.082 590.536 190.928 595.128 190.849C598.644 190.79 599.152 190.018 597.437 186.979C589.421 172.796 581.32 158.652 573.337 144.442C571.965 142.003 570.751 141.838 568.475 143.473C552.101 155.236 535.653 166.888 519.2 178.539C517.293 179.89 516.713 181.051 518.072 183.365C524.214 193.843 530.112 204.459 536.188 214.976C536.834 216.097 538.075 216.875 539.038 217.811C539.83 216.723 540.872 215.734 541.373 214.521C544.692 206.575 547.898 198.584 551.23 190.381C557.926 192.946 564.418 195.439 570.909 197.924C576.576 200.1 576.609 200.179 573.561 205.408C573.469 205.56 573.225 205.626 573.02 205.751C567.914 204.195 562.775 202.698 557.688 201.043C555.749 200.417 554.64 200.812 553.822 202.738C550.379 210.894 546.75 218.972 543.405 227.168C542.752 228.77 542.561 230.926 543.029 232.575C547.067 246.751 551.289 260.868 555.551 274.979C555.815 275.843 556.752 276.845 557.57 277.082C558.084 277.227 559.193 276.186 559.654 275.441C561.277 272.843 562.643 270.093 564.279 267.502C566.516 263.961 567.729 263.717 571.556 265.728C569.801 270.185 568.073 274.662 566.271 279.113C565.335 281.414 566.014 282.489 568.501 282.357C569.267 282.318 570.019 282.166 570.777 282.061C585.846 279.977 600.901 277.808 615.989 275.856C622.48 275.018 622.56 275.137 621.643 268.689C617.941 242.656 610.11 217.811 599.858 193.685C599.489 192.808 598.473 192.208 597.754 191.482C596.982 192.28 595.913 192.953 595.497 193.902C594.224 196.797 593.221 199.81 592.087 202.764C589.131 210.472 586.156 218.174 583.055 226.231C574.38 222.849 566.014 219.585 557.418 216.229C558.652 214.033 559.496 212.536 560.466 210.802ZM504.712 521.73C501.691 509.934 498.781 498.553 495.865 487.179C494.955 483.638 494.097 483.341 491.273 485.636C485.751 490.133 480.315 494.742 474.721 499.14C463.961 507.6 453.141 515.994 442.269 524.308C440.257 525.845 439.993 527.256 441.312 529.28C442.447 531.021 443.43 532.854 444.479 534.647C450.918 545.705 457.337 556.769 463.835 567.794C464.396 568.744 465.478 569.383 466.316 570.161C467.009 569.271 467.926 568.48 468.341 567.484C469.469 564.768 470.393 561.965 471.389 559.189C472.544 555.965 473.692 552.747 474.846 549.529C479.299 551.191 480.269 552.971 478.877 556.947C476.594 563.436 474.068 569.832 471.844 576.34C471.264 578.034 471.422 579.973 471.237 581.799C472.92 581.259 474.76 580.995 476.265 580.138C497.554 568.018 516.205 552.47 533.753 535.531C536.128 533.236 537.072 530.203 536.498 527.117C534.994 519.073 533.153 511.095 531.418 503.096C530.93 500.835 529.604 500.452 527.855 501.824C526.048 503.248 524.359 504.817 522.611 506.321C516.732 511.378 510.854 516.442 504.712 521.73ZM597.694 365.003C602.952 360.21 607.841 355.812 612.637 351.321C613.429 350.576 613.818 349.403 614.399 348.427C613.409 347.926 612.472 347.167 611.43 346.97C606.812 346.099 602.167 345.38 597.529 344.635C588.682 343.211 579.842 341.741 570.982 340.415C566.892 339.802 566.021 340.58 567.195 344.602C568.218 348.117 570.091 351.4 571.694 354.73C574.287 360.111 573.938 361.983 568.983 365.432C564.675 368.426 560.09 371.023 555.861 374.123C553.644 375.751 551.065 377.756 550.154 380.156C545.952 391.273 542.31 402.601 538.385 413.824C537.666 415.874 538.068 417.054 540.067 418.011C543.814 419.811 547.522 421.696 551.131 423.747C560.591 429.114 570.131 429.906 580.33 425.587C586.11 423.141 592.337 421.716 598.407 419.989C604.377 418.288 608.824 414.76 611.1 409.043C612.789 404.81 613.409 400.155 615.157 395.954C618.212 388.622 615.322 383.413 610.216 378.435C605.908 374.241 601.989 369.645 597.694 365.003ZM533.621 485.781C535.607 493.061 537.461 499.872 539.315 506.683C540.43 510.785 541.241 515.005 542.785 518.941C543.484 520.735 545.609 521.974 547.093 523.464C548.116 522.231 549.244 521.071 550.128 519.746C551.157 518.216 551.817 516.429 552.912 514.952C560.268 504.995 567.617 495.039 575.132 485.201C578.991 480.143 580.119 474.816 577.658 468.914C574.848 462.162 572.196 455.318 568.943 448.784C562.814 436.473 553.651 427.578 539.711 424.519C534.928 423.47 532.685 424.374 530.356 428.831C522.921 443.034 514.153 456.366 504.099 468.855C501.433 472.158 500.219 475.877 501.275 480.17C503.221 488.115 505.108 496.081 507.034 504.039C507.925 507.732 508.842 508.035 511.712 505.47C518.896 499.041 526.054 492.579 533.621 485.781ZM203.671 96.7828C204.291 102.513 204.496 102.638 209.51 100.792C210.948 100.264 212.393 99.7698 213.824 99.2357C228.345 93.7761 242.865 88.3363 257.36 82.8107C258.343 82.4348 259.062 81.393 259.906 80.6611C259.128 79.8501 258.488 78.7885 257.544 78.2808C254.859 76.8302 252.042 75.6103 249.291 74.285C239.257 69.4452 229.222 64.5988 219.023 59.6732C219.762 58.605 220.356 57.7149 220.982 56.8511C229.249 45.523 237.535 34.2082 245.742 22.8405C246.355 21.9899 246.375 20.7173 246.666 19.6426C245.551 19.4448 244.37 18.9041 243.34 19.1085C228.417 22.1086 213.851 26.3088 199.746 32.0784C181.926 39.3711 165.301 48.8133 149.593 59.8842C148.63 60.5634 148.076 61.8294 147.33 62.8184C148.551 63.313 149.764 64.2097 150.998 64.2295C159.561 64.3548 168.131 64.2888 176.701 64.302C177.744 64.302 178.779 64.3943 180.211 64.4603C176.404 71.9837 172.749 79.1643 169.141 86.3581C167.643 89.3319 168.125 90.1363 171.364 90.7364C182.091 92.7211 192.818 94.7454 203.671 96.7828ZM308.673 43.4328C307.862 40.5975 307.545 37.9007 306.364 35.6654C302.195 27.7397 297.755 19.9591 293.361 12.1521C292.022 9.77172 289.792 9.03322 287.199 9.42885C278.227 10.8003 269.281 12.3499 260.289 13.5368C256.278 14.0643 254.127 16.194 252.544 19.6558C250.644 23.8032 248.698 27.9968 246.21 31.7948C241.289 39.2985 236.037 46.5846 230.806 53.8773C229.282 56.0071 229.064 57.616 231.617 58.9083C245.155 65.7461 258.653 72.6695 272.296 79.2962C274.308 80.2721 277.059 80.2457 279.382 79.9622C283.709 79.4413 287.991 78.4852 292.24 77.4829C293.236 77.2522 294.364 76.3027 294.839 75.3795C298.388 68.4891 301.971 61.6052 305.157 54.5433C306.741 51.0156 307.526 47.1319 308.673 43.4328ZM402.032 42.7471C393.831 45.0087 386.159 47.0726 378.519 49.2419C373.301 50.7255 369.718 53.7718 368.61 59.4358C367.541 64.8955 366.11 70.2826 364.77 75.6894C364.15 78.1885 364.605 79.5732 367.436 80.4897C380.736 84.7954 393.944 89.3913 407.197 93.8552C412.594 95.6751 414.93 94.7256 417.641 89.6352C426.646 72.7486 435.638 55.8488 444.624 38.9491C446.432 35.5467 446.293 35.217 442.486 33.9774C422.866 27.5748 403.239 21.1789 383.619 14.7764C381.989 14.2489 380.353 13.2071 379.1 15.5149C377.998 17.5458 378.618 18.9239 380.188 20.3811C385.888 25.689 391.569 31.0234 397.11 36.4962C398.931 38.3029 400.31 40.5382 402.032 42.7471ZM122.161 101.853C120.149 103.251 118.401 104.709 116.435 105.777C111.065 108.698 105.576 111.395 100.232 114.362C99.5129 114.757 98.8466 116.353 99.0577 117.151C100.542 122.663 105.523 125.083 110.893 123.039C112.523 122.419 114.093 121.621 115.683 120.89C120.743 118.562 125.757 116.122 130.876 113.94C132.981 113.043 135.303 112.858 136.392 115.641C137.546 118.582 135.224 119.182 133.284 119.927C126.45 122.538 119.602 125.116 112.76 127.721C109.501 128.96 109.231 130.134 111.718 132.561C119.028 139.682 126.397 146.737 133.68 153.885C135.336 155.513 136.583 155.632 138.391 154.003C149.811 143.73 161.29 133.53 172.822 123.375C174.603 121.806 174.993 120.553 173.653 118.404C162.933 101.24 152.298 84.0173 141.703 66.7747C140.231 64.3746 139.064 63.8273 136.662 65.9241C123.026 77.8192 109.264 89.5693 95.5413 101.372C94.268 102.467 92.9881 103.476 94.2416 105.48C95.4555 107.412 96.8674 107.339 98.7212 106.561C104.164 104.28 109.686 102.203 115.096 99.8555C117.537 98.7939 119.516 98.9588 122.161 101.853ZM436.8 571.005C442.988 572.087 448.78 573.161 454.606 574.065C455.787 574.249 457.073 573.775 458.313 573.61C458.056 572.403 458.082 571.038 457.508 570.016C450.357 557.35 443.021 544.795 435.975 532.069C434.431 529.28 432.966 528.957 430.275 530.117C419.046 534.964 407.758 539.665 396.503 544.452C393.165 545.87 391.634 548.606 392.486 552.127C397.09 571.111 401.794 590.074 406.426 609.051C407.039 611.563 408.147 612.183 410.648 611.102C427.893 603.638 445.178 596.266 462.476 588.927C464.178 588.202 465.24 587.444 464.93 585.34C464.62 583.23 463.512 582.452 461.506 582.083C453.036 580.54 444.591 578.852 435.757 577.138C436.08 575.159 436.404 573.28 436.8 571.005ZM69.8316 300.985C69.8382 300.925 69.8448 300.866 69.8448 300.807C70.94 300.866 72.1473 301.235 73.1039 300.892C74.1991 300.503 75.7626 299.62 75.9407 298.716C78.7644 284.692 81.4627 270.647 84.0356 256.576C84.8009 252.376 83.4089 250.18 79.3977 248.703C61.2618 242.017 43.0928 235.423 24.9635 228.737C22.5225 227.834 21.3085 228.44 20.728 230.985C18.5377 240.56 16.4002 250.153 13.9328 259.655C13.1411 262.695 14.0317 263.789 16.8224 263.948C19.4679 264.099 20.7148 265.352 21.3415 268.029C22.9381 274.827 25.2406 281.474 26.6128 288.312C27.8135 294.305 30.0302 298.42 36.9705 297.925C37.9337 297.859 38.9233 298.136 39.8997 298.281C43.8845 298.868 44.4783 298.222 43.1654 294.444C40.5595 286.92 37.9008 279.41 35.2223 271.913C34.6747 270.383 34.226 269.051 36.1063 268.016C38.4483 266.724 39.6293 267.515 40.5793 269.823C43.9373 278.012 47.4338 286.142 50.8447 294.305C52.1443 297.417 53.8662 299.699 57.7322 299.811C61.7764 299.936 65.8007 300.576 69.8316 300.985ZM87.8753 316.15C87.7829 438.774 184.209 545.764 318.193 546.833C381.105 547.334 435.784 523.708 480.164 478.943C529.597 429.081 551.619 368.261 546.486 298.341C538.47 189.082 445.963 89.1011 318.708 88.3297C191.11 87.5648 88.944 190.078 87.8753 316.15ZM508.822 88.7978C509.093 93.2354 509.258 97.284 509.627 101.313C509.726 102.368 510.445 103.363 510.881 104.392C511.791 103.911 512.919 103.621 513.579 102.908C517.227 98.9654 520.75 94.897 524.346 90.9012C525.718 89.3781 525.355 88.2769 523.818 87.1164C509.482 76.2829 495.159 65.4362 480.876 54.5433C478.653 52.8487 477.452 53.5872 476.278 55.7368C473.863 60.1546 471.257 64.4603 468.843 68.8781C462.397 80.6809 455.965 92.4903 449.631 104.352C446.682 109.871 447.415 114.085 451.888 117.421C460.576 123.91 469.384 130.24 478.099 136.688C479.741 137.908 480.896 137.822 482.314 136.299C485.534 132.851 488.912 129.547 492.223 126.191C499.217 119.109 503.109 110.742 503.201 100.653C503.234 96.7433 503.736 92.8332 504.026 88.7978C505.669 88.7978 507.16 88.7978 508.822 88.7978ZM608.092 301.914C604.087 301.783 603.328 299.982 604.298 296.712C605.228 293.587 605.736 290.329 606.416 287.131C607.069 284.059 606.442 283.247 603.388 283.65C588.748 285.601 574.122 287.652 559.476 289.584C557.372 289.861 557.048 291.022 557.134 292.756C557.662 303.813 558.038 314.884 558.724 325.935C559.074 331.593 559.318 331.593 564.846 332.727C566.239 333.011 567.657 333.123 569.062 333.353C584.711 335.899 600.346 338.529 616.008 340.963C623.463 342.116 623.642 341.958 624.519 334.257C626.445 317.251 625.324 300.358 622.111 283.59C621.9 282.489 620.831 281.553 620.165 280.537C619.36 281.342 618.304 282.008 617.796 282.964C614.498 289.261 611.311 295.611 608.092 301.914ZM509.667 143.856C504.329 145.254 503.637 144.957 502.931 140.13C502.41 136.563 502.436 132.923 502.034 129.336C501.941 128.532 501.216 127.503 500.496 127.167C500.041 126.956 498.887 127.675 498.372 128.261C494.625 132.561 491.01 136.978 487.249 141.264C485.877 142.827 486.002 144.086 487.289 145.55C495.166 154.544 503.05 163.538 510.861 172.591C512.339 174.299 513.585 174.292 515.314 173.02C519.378 170.039 523.541 167.198 527.664 164.296C540.034 155.606 552.371 146.869 564.807 138.271C567.083 136.701 567.531 135.435 565.526 133.391C563.989 131.829 562.643 130.081 561.211 128.42C552.345 118.107 543.451 107.814 534.624 97.462C533.259 95.8663 532.018 95.4047 530.145 96.6246C523.435 100.976 517.544 106.139 513.552 113.175C508.103 122.795 507.232 133.042 509.667 143.856ZM358.378 574.315C359.948 573.063 360.858 572.436 361.656 571.698C367.765 566.014 373.894 560.35 379.898 554.567C380.67 553.829 380.782 552.411 381.204 551.303C380.109 551.079 378.968 550.552 377.919 550.69C374.35 551.165 370.813 551.923 367.258 552.484C356.24 554.211 345.223 555.958 334.185 557.534C331.804 557.871 331.124 558.84 331.058 561.135C330.702 573.854 330.201 586.567 329.739 599.286C329.495 605.867 329.323 612.447 328.927 619.014C328.643 623.729 328.789 624.224 333.605 623.973C341.37 623.571 349.247 623.551 356.854 622.146C369.619 619.786 382.214 616.502 394.847 613.489C395.672 613.291 396.259 612.098 396.952 611.372C396.127 610.779 395.382 609.889 394.471 609.651C389.919 608.484 385.327 607.508 380.749 606.44C376.368 605.418 371.994 604.363 367.363 603.269C371.988 596.892 376.289 590.951 380.61 585.024C383.427 581.16 383.236 580.612 378.75 579.491C372.311 577.869 365.892 576.221 358.378 574.315ZM51.7682 429.49C60.4107 431.666 68.6903 433.651 76.9106 435.873C79.8266 436.664 81.2054 436.064 82.0697 433.018C84.062 425.996 86.193 419.052 90.1909 412.722C91.7347 410.276 92.2888 406.524 91.7875 403.623C90.9496 398.744 88.5878 394.141 87.4662 389.288C86.602 385.55 84.6228 385.385 81.5749 385.985C71.382 387.989 61.1628 389.868 50.9568 391.787C41.4963 393.561 32.0357 395.315 22.5752 397.095C19.2502 397.722 18.8346 398.407 20.0287 401.487C26.6194 418.492 33.2167 435.504 39.8866 452.476C40.2692 453.445 41.3181 454.758 42.123 454.81C43.2248 454.876 44.597 454.098 45.4744 453.281C46.088 452.707 46.1012 451.467 46.3453 450.518C48.12 443.66 49.888 436.803 51.7682 429.49ZM319.513 41.8569C319.81 43.5581 319.75 44.8637 320.258 45.8857C324.744 54.9851 329.283 64.0515 333.908 73.0783C335.426 76.0455 338.078 77.2917 341.396 77.628C345.717 78.0698 350.078 78.5709 354.281 79.6061C356.821 80.2325 357.738 79.9556 358.345 77.3247C362.996 57.0159 367.785 36.7336 372.509 16.438C372.958 14.506 372.72 13.1873 370.114 12.8774C359.044 11.5586 348 9.94316 336.923 8.65738C335.953 8.54528 334.324 9.73876 333.803 10.7476C329.725 18.6073 325.76 26.533 321.954 34.5313C320.799 36.9578 320.225 39.6612 319.513 41.8569ZM95.726 148.801C95.726 155.428 95.9042 161.837 95.693 168.233C95.2114 182.508 95.1719 182.574 107.595 189.722C107.971 189.939 108.386 190.361 108.736 190.315C109.95 190.164 111.711 190.269 112.259 189.531C118.038 181.697 123.685 173.765 129.168 165.72C129.768 164.844 129.623 162.628 128.924 161.83C115.175 146.19 101.281 130.675 87.4398 115.113C85.7971 113.267 84.4711 113.267 82.9801 115.311C74.021 127.602 65.042 139.88 55.9971 152.111C54.5391 154.083 54.902 155.296 56.736 156.72C63.4191 161.87 70.3462 162.404 77.8342 158.322C83.8509 155.039 89.9336 151.88 95.726 148.801ZM97.4677 216.769C98.0549 216.103 98.8993 215.464 99.3348 214.613C101.716 209.945 103.926 205.191 106.348 200.549C107.476 198.386 106.81 197.265 104.916 196.019C87.7235 184.704 70.5706 173.33 53.4572 161.89C51.2603 160.419 50.0728 160.617 48.9512 163.083C41.0015 180.589 32.9858 198.063 24.97 215.543C24.3037 217 23.644 218.358 25.4517 219.532C27.1208 220.62 28.4996 220.686 30.1423 219.235C36.5483 213.571 43.1588 208.125 49.4988 202.388C51.1811 200.872 52.5072 200.786 54.4402 201.485C67.582 206.239 80.7502 210.914 93.9118 215.609C94.9475 215.971 95.9899 216.288 97.4677 216.769ZM288.934 591.327C288.928 591.327 288.921 591.327 288.921 591.327C288.921 581.892 288.954 572.456 288.908 563.02C288.882 557.64 287.18 555.734 281.954 555.068C277.831 554.541 273.675 554.218 269.571 553.571C267.638 553.268 266.708 553.881 266.154 555.629C260.414 573.834 254.609 592.013 248.948 610.245C247.596 614.61 249.819 617.669 254.325 618.362C264.59 619.938 274.882 621.388 285.108 623.195C288.248 623.749 289 622.885 288.974 619.964C288.868 610.423 288.934 600.875 288.934 591.327ZM9.19593 321.597C9.19593 327.3 9.16955 332.997 9.20253 338.701C9.22892 342.519 9.7633 343 13.4446 342.281C32.5174 338.576 51.5902 334.85 70.6497 331.079C73.8362 330.446 76.4488 328.316 76.5411 325.243C76.6599 321.102 75.9935 316.81 74.8786 312.807C74.0209 309.748 71.2699 307.987 67.892 307.618C63.7621 307.163 59.6455 306.616 55.5155 306.128C41.3907 304.46 27.2593 302.884 13.1543 301.09C10.1657 300.708 9.12994 301.611 9.17612 304.499C9.25529 310.19 9.19593 315.893 9.19593 321.597ZM221.635 541.67C221.833 541.459 222.038 541.248 222.236 541.037C220.705 539.369 219.465 537.186 217.591 536.131C213.705 533.948 209.417 532.498 205.432 530.467C203.084 529.267 201.942 529.966 200.689 531.997C190.252 548.929 179.736 565.809 169.24 582.709C167.359 585.742 167.505 586.27 170.81 587.846C180.079 592.264 189.355 596.668 198.631 601.073C202.319 602.82 202.728 602.649 203.935 598.818C209.378 581.569 214.827 564.313 220.243 547.05C220.798 545.29 221.174 543.463 221.635 541.67ZM323.135 557.541C314.387 557.541 305.85 557.541 297.313 557.541C295.149 557.541 294.925 559.005 294.925 560.68C294.931 574.935 294.912 589.184 294.984 603.44C294.991 604.409 295.697 605.372 296.079 606.335C297.115 605.906 298.355 605.715 299.16 605.016C306.265 598.811 311.827 598.943 318.734 605.504C319.691 606.414 321.004 606.954 322.152 607.667C322.607 606.308 323.445 604.95 323.451 603.592C323.544 589.56 323.504 575.522 323.478 561.491C323.484 560.31 323.287 559.137 323.135 557.541ZM235.035 587.437C244.324 587.43 251.251 583.065 253.289 576.181C255.077 570.128 256.687 564.029 258.264 557.917C259.247 554.106 257.215 550.387 253.421 549.16C246.474 546.912 239.461 544.868 232.514 542.632C230.001 541.821 229.018 542.81 228.279 545.105C226.306 551.224 224.321 557.343 221.965 563.324C220.553 566.917 219.115 570.596 221.154 574.019C224.129 579.01 226.709 584.575 232.561 587.094C233.524 587.496 234.705 587.397 235.035 587.437ZM53.3384 209.015C52.1311 209.74 50.4752 210.387 49.2745 211.514C45.3689 215.187 41.5953 219.005 37.8282 222.822C35.5191 225.17 35.7962 226.271 38.9629 227.412C53.9388 232.799 68.941 238.12 83.8905 243.58C86.1665 244.41 87.2881 243.969 88.1128 241.72C89.9468 236.702 91.8336 231.698 93.9184 226.785C94.9871 224.266 94.1097 223.277 91.8007 222.46C80.4005 218.411 69.04 214.244 57.6531 210.149C56.4326 209.701 55.1329 209.477 53.3384 209.015ZM41.0476 365.65C40.2032 364.107 39.781 362.109 38.5671 361.304C30.901 356.234 23.103 351.354 15.2193 346.627C14.3088 346.079 12.389 346.508 11.3334 347.141C10.6209 347.57 10.1657 349.225 10.3306 350.207C12.5473 363.348 14.863 376.477 17.2512 389.591C17.436 390.594 18.3464 392.216 18.9533 392.236C20.4245 392.269 22.5027 392.011 23.3142 391.022C28.5458 384.692 33.5861 378.198 38.4945 371.61C39.6754 370.034 40.1108 367.905 41.0476 365.65ZM83.9828 379.285C83.3033 375.454 82.6238 371.696 81.9707 367.938C80.1894 357.73 78.4477 347.523 76.5939 337.329C76.4487 336.512 75.7363 335.51 75.0171 335.186C74.5158 334.962 73.2622 335.529 72.8466 336.11C67.4764 343.554 62.1128 350.998 56.9405 358.581C55.3176 360.961 55.951 364.891 58.1545 366.368C65.6886 371.413 73.3282 376.305 81.0141 381.125C82.7953 382.226 83.9037 381.277 83.9828 379.285ZM118.223 525.528C121.403 525.528 124.589 525.436 127.769 525.561C129.959 525.647 130.692 524.651 130.685 522.627C130.646 516.264 130.659 509.901 130.672 503.545C130.679 501.52 129.748 500.512 127.683 500.518C120.987 500.538 114.297 500.538 107.601 500.512C105.556 500.505 104.481 501.415 104.593 503.479C104.936 510.046 105.371 516.607 105.648 523.174C105.728 525.119 106.671 525.581 108.36 525.548C111.639 525.489 114.931 525.528 118.223 525.528ZM447.124 90.9606C446.821 83.6283 443.344 76.1378 440.586 68.4759C439.755 66.1681 438.172 66.7219 437.116 68.7001C432.076 78.1291 427.062 87.5714 421.962 96.9741C420.94 98.8599 421.316 99.9412 423.209 100.871C427.814 103.133 432.3 105.632 436.978 107.722C437.987 108.17 440.045 107.768 440.837 106.977C444.927 102.889 447.085 97.851 447.124 90.9606ZM445.581 58.5193C445.561 66.0824 448.8 72.4585 453.003 78.4258C454.434 80.4567 455.8 80.16 457.113 77.7071C461.605 69.3463 466.032 60.9524 470.571 52.6179C471.62 50.6859 471.528 49.4793 469.403 48.4573C464.488 46.0835 459.626 43.6043 454.777 41.0986C452.996 40.1755 451.696 40.4129 450.647 42.1734C447.645 47.2176 445.521 52.5322 445.581 58.5193ZM77.0161 446.278C76.1519 445.071 75.4328 442.909 74.2387 442.612C69.2973 441.366 64.224 440.561 59.1638 439.889C58.2468 439.77 56.5645 440.812 56.2214 441.695C54.4929 446.153 52.9954 450.709 51.6759 455.305C51.4516 456.083 52.2433 457.797 52.9756 458.094C58.2072 460.263 63.5181 462.248 68.8685 464.101C69.6272 464.365 71.3886 463.824 71.5799 463.277C73.4668 457.83 75.1227 452.311 77.0161 446.278ZM321.65 625.417C321.697 625.575 321.743 625.74 321.789 625.898C322.93 625.45 324.144 625.12 325.16 624.474C325.417 624.309 325.292 622.918 324.909 622.476C321.149 618.197 317.448 613.838 313.391 609.849C311.385 607.878 308.601 607.086 305.909 609.091C301.251 612.559 296.594 616.027 292.029 619.615C291.316 620.175 291.092 621.349 290.643 622.239C291.573 622.687 292.484 623.465 293.44 623.538C302.835 624.224 312.243 624.804 321.65 625.417ZM320.318 7.63535C314.842 8.05076 309.604 8.47935 304.365 8.83541C301.634 9.02004 301.265 10.319 302.386 12.5345C305.454 18.5612 308.456 24.6208 311.57 30.6278C312.836 33.0806 314.202 33.1795 315.574 30.8915C319.104 24.9901 322.574 19.0425 325.939 13.0422C327.449 10.3454 325.767 7.6881 322.726 7.64194C321.842 7.62216 320.964 7.63535 320.318 7.63535ZM314.776 76.606C318.055 76.606 321.34 76.7049 324.619 76.573C327.337 76.4675 327.977 75.2938 326.565 72.9728C322.884 66.9198 319.143 60.9063 315.31 54.9455C314.004 52.908 312.5 53.0531 311.411 55.2554C308.515 61.1107 305.685 66.9989 302.901 72.9135C301.674 75.5114 302.307 76.5005 305.256 76.5862C308.429 76.6785 311.603 76.6126 314.776 76.606ZM107.106 443.159C110.352 443.232 111.019 442.355 109.726 439.895C105.807 432.464 101.822 425.072 97.7844 417.707C97.4215 417.048 96.3792 416.145 95.924 416.283C95.1455 416.514 94.2417 417.358 93.9778 418.136C91.8996 424.439 89.8677 430.769 88.093 437.159C87.8555 438.009 88.9902 440.086 89.7555 440.245C95.6403 441.432 101.584 442.276 107.106 443.159ZM172.928 97.7521C172.525 97.8906 171.298 97.9367 170.909 98.5302C170.533 99.1104 170.764 100.39 171.173 101.122C173.838 105.882 176.688 110.537 179.34 115.305C180.389 117.19 181.59 117.474 183.332 116.393C188.886 112.931 194.474 109.515 199.976 105.968C200.649 105.533 201.329 104.28 201.164 103.621C200.992 102.948 199.838 102.209 199.013 102.064C190.529 100.601 182.012 99.2357 172.928 97.7521ZM241.711 613.838C241.249 612.81 241.111 612.388 240.886 612.025C238.742 608.478 236.908 604.673 234.309 601.495C232.871 599.734 230.271 598.343 227.995 597.961C221.266 596.826 215.157 599.747 209.061 602.009C207.102 602.741 207.458 604.561 209.503 605.247C219.221 608.497 228.952 611.695 238.722 614.775C239.501 615.019 240.616 614.208 241.711 613.838ZM46.088 358.087C47.6977 357.144 50.1255 356.438 51.4054 354.823C54.2225 351.255 56.5909 347.312 58.8735 343.363C59.9819 341.444 58.8736 340.072 56.7031 340.481C49.004 341.932 41.3247 343.462 33.6455 345.024C31.5476 345.453 31.1319 346.989 32.491 348.374C35.308 351.242 38.3098 353.946 41.4237 356.484C42.4463 357.322 44.056 357.421 46.088 358.087ZM65.8799 381.653C65.3455 380.67 65.1872 379.938 64.7319 379.595C61.2354 376.997 57.8576 374.156 54.0905 372.026C50.8117 370.173 47.2228 370.971 44.8807 373.938C42.189 377.347 39.9129 381.105 37.716 384.864C36.6473 386.69 37.8414 387.996 40.0845 387.58C47.9221 386.136 55.7465 384.64 63.5577 383.077C64.3559 382.932 65.0354 382.193 65.8799 381.653ZM602.814 425.396C594.422 427.69 586.855 429.734 579.314 431.871C578.727 432.035 577.817 433.044 577.929 433.321C578.259 434.139 578.866 435.055 579.624 435.451C584.843 438.168 590.088 440.845 595.432 443.304C596.243 443.68 598.328 443.179 598.578 442.566C600.544 437.845 602.293 433.031 603.883 428.165C604.12 427.42 603.183 426.292 602.814 425.396ZM574.874 441.781C574.69 443.001 574.043 444.326 574.419 445.216C577.177 451.751 580.093 458.219 583.068 464.661C584.17 467.042 585.76 467.075 587.073 464.76C589.23 460.962 591.308 457.118 593.221 453.195C593.571 452.469 593.294 450.683 592.766 450.406C587.356 447.551 581.828 444.906 576.339 442.216C576.141 442.117 575.917 442.084 574.874 441.781ZM397.955 601.132C396.543 594.611 395.435 588.96 394.062 583.369C393.568 581.344 391.971 581.074 390.691 582.749C387.247 587.252 383.929 591.848 380.61 596.451C379.476 598.027 380.175 599.293 381.831 599.688C386.271 600.763 390.737 601.739 395.243 602.484C396.094 602.636 397.15 601.561 397.955 601.132ZM623.661 353.346C623.576 353.161 623.424 352.198 622.856 351.737C622.414 351.381 621.214 351.335 620.785 351.684C616.464 355.192 612.182 358.746 608.006 362.425C606.7 363.579 607.195 365.287 608.798 365.234C611.166 365.155 611.674 366.685 612.538 368.122C613.713 370.087 614.808 372.098 616.094 373.984C616.589 374.703 617.526 375.125 618.258 375.685C618.852 374.874 619.808 374.142 619.987 373.252C621.26 366.856 622.375 360.427 623.661 353.346ZM553.77 364.311C553.961 364.72 554.165 365.979 554.891 366.441C555.432 366.784 556.752 366.283 557.517 365.821C567.828 359.61 568.706 353.154 560.433 344.648C560.354 344.569 560.288 344.47 560.195 344.418C559.377 343.983 558.447 343.112 557.754 343.264C557.154 343.402 556.534 344.662 556.409 345.499C555.498 351.546 554.7 357.592 553.77 364.311ZM15.6613 293.725C16.6443 293.725 17.6404 293.666 18.6168 293.738C20.9853 293.916 21.8891 292.861 21.3086 290.593C19.8571 284.896 18.4388 279.199 16.8422 273.542C16.6047 272.684 15.6349 271.708 14.797 271.451C14.0911 271.234 12.8112 271.755 12.2901 272.374C11.7227 273.047 11.6435 274.201 11.5248 275.164C10.8914 280.254 10.3768 285.364 9.68412 290.448C9.38065 292.67 9.96782 293.85 12.3758 293.745C13.471 293.685 14.5661 293.725 15.6613 293.725ZM373.914 35.0851C373.914 37.1688 373.987 39.2524 373.894 41.3294C373.782 43.8812 375.095 44.4417 377.206 43.7559C380.841 42.5756 384.437 41.2899 388.046 40.0436C390.084 39.3381 390.434 38.0391 388.831 36.6874C384.978 33.4433 381.066 30.2585 377.021 27.2649C375.524 26.1572 374 26.5067 373.927 28.8408C373.875 30.9179 373.921 33.0015 373.914 35.0851ZM90.7253 167.006C90.7319 167.006 90.7319 167.006 90.7385 167.006C90.7385 164.817 90.7979 162.635 90.7187 160.452C90.6461 158.54 89.8017 157.478 87.7697 158.5C84.0686 160.36 80.3609 162.213 76.7324 164.204C74.9248 165.193 74.8984 166.571 76.6071 167.778C80.0838 170.224 83.5606 172.684 87.1232 175.018C89.452 176.547 90.5603 175.967 90.7055 173.244C90.8111 171.167 90.7253 169.083 90.7253 167.006ZM391.239 571.645C390.368 567.821 389.543 563.976 388.606 560.165C388.085 558.055 386.766 557.805 385.235 559.196C381.831 562.302 378.479 565.46 375.141 568.638C373.393 570.306 373.921 571.698 376.085 572.133C380.155 572.957 384.278 573.504 388.382 574.137C390.256 574.427 391.417 573.827 391.239 571.645ZM160.914 69.6298C158.618 69.6298 156.316 69.5573 154.026 69.6496C151.961 69.7353 151.13 70.8694 152.403 72.6365C155.023 76.2631 157.78 79.7908 160.564 83.292C161.818 84.868 163.256 84.7756 164.206 82.9689C165.981 79.5929 167.676 76.1774 169.279 72.7157C170.216 70.6914 169.444 69.5836 167.148 69.6166C165.077 69.6628 162.999 69.6364 160.914 69.6298Z"
      fill="#E0DFDF">
    </path>
  </g>
  <g class="rotate-left">
    <path
      d="M317.456 90.6377C371.026 91.396 419.035 108.019 460.835 141.66C501.508 174.391 527.659 216.46 539.726 267.192C542.351 278.236 544.436 289.419 544.159 300.932C543.855 313.526 544.819 326.199 543.737 338.708C541.283 367.18 533.438 394.319 520.165 419.672C489.052 479.108 441.287 518.401 376.673 536.929C358.478 542.145 339.814 545.079 320.9 544.776C266.452 543.885 217.151 527.922 174.572 493.239C134.79 460.831 108.665 419.686 96.2555 369.903C90.3179 346.093 87.9627 321.834 90.7665 297.51C95.8794 253.2 111.007 212.662 139.131 177.471C171.451 137.031 212.599 110.182 262.699 97.027C275.735 93.5917 300.145 90.7168 317.456 90.6377ZM543.341 318.603C544.185 195.023 443.973 92.8136 319.99 92.0422C193.711 91.2575 93.6033 190.81 91.9078 313.823C90.1991 437.911 188.242 543.384 318.762 542.837C445.12 542.31 543.407 440.166 543.341 318.603Z"
      fill="#E0DFDF">
    </path>
  </g>
  <path d="M479.195 312.07C478.588 362.393 461.904 403.927 425.915 437.061C402.422 458.695 374.661 471.803 343.245 477.217C328.968 479.676 314.626 479.096 300.316 477.474C272.132 474.289 246.324 464.629 223.359 448.033C188.241 422.654 166.549 388.538 158.329 345.942C155.611 331.858 154.674 317.642 156.39 303.419C159.708 275.883 168.39 250.181 184.125 227.129C208.508 191.391 241.956 168.629 284.146 159.477C301.411 155.732 319.158 155.514 336.872 157.723C366.078 161.363 392.606 171.623 415.901 189.584C449.606 215.57 470.408 249.541 477.414 291.636C478.628 298.948 478.727 306.445 479.195 312.07ZM317.396 158.462C305.106 158.178 292.993 159.616 281.177 162.411C243.593 171.3 213.318 191.642 190.029 222.336C172.441 245.519 162.677 272 158.672 300.577C156.614 315.288 157.623 330.084 160.348 344.748C167.895 385.386 188.083 418.401 220.766 443.516C242.933 460.555 268.108 470.874 295.916 474.922C312.554 477.342 329.08 477.791 345.587 474.593C382.32 467.485 413.427 450.255 437.777 421.744C469.576 384.522 481.742 341.194 475.342 292.902C471.417 263.309 458.869 237.145 439.334 214.674C407.219 177.709 366.17 159.523 317.396 158.462Z" fill="#E0DFDF"/>
  <path d="M315.693 507.099C318.906 510.449 321.941 514.009 325.398 517.088C328.07 519.469 331.276 521.249 334.245 523.293C331.461 527.078 329.376 527.381 325.82 524.559C321.809 521.368 317.745 518.236 314.097 515.387C312.896 516.95 312.005 518.921 310.481 519.95C302.69 525.205 294.912 530.731 285.366 532.294C273.154 534.285 261.589 532.65 251.396 524.948C250.895 524.566 250.248 524.381 249.898 523.801C253.665 522.166 256.753 523.273 259.999 524.355C264.518 525.858 269.143 527.645 273.814 527.955C285.075 528.693 294.503 523.498 303.482 517.359C305.995 515.644 308.667 514.167 311.438 512.479C307.295 508.939 302.525 504.85 297.749 500.769C298.125 500.255 298.507 499.74 298.883 499.226C300.157 498.316 301.437 497.406 303.007 496.285C306.483 499.437 309.927 502.602 313.417 505.701C314.11 506.321 315.001 506.716 315.799 507.218C315.805 507.204 315.693 507.099 315.693 507.099Z" fill="#E0DFDF"/>
  <path d="M315.694 507.1L315.806 507.205C313.609 503.262 313.767 502.51 317.376 499.998C329.673 491.446 343.376 489.857 357.798 491.842C358.332 491.914 358.893 492.02 359.375 492.251C365.352 495.099 371.322 497.974 378.144 501.244C375.703 504.027 373.73 506.724 371.289 508.9C369.666 510.35 364.158 506.961 364.573 504.699C365.279 500.849 362.871 499.392 360.179 498.442C351.933 495.521 343.488 494.479 335.288 498.33C330.571 500.545 326.17 503.486 321.763 506.308C319.751 507.601 317.917 508.346 315.694 507.1Z" fill="#E0DFDF"/>
  <path d="M493.715 237.283C496.044 238.668 498.004 239.512 499.527 240.85C500.821 241.985 502.536 243.778 502.41 245.123C502.166 247.754 501.065 250.161 497.304 250.385C495.833 250.471 493.742 252.957 493.26 254.71C490.905 263.302 490.964 271.947 495.609 279.819C498.254 284.303 501.817 288.253 504.977 292.44C505.307 292.875 505.755 293.218 506.092 293.647C507.636 295.638 507.378 297.557 505.617 299.199C503.809 300.88 502.133 300.405 500.477 298.73C492.521 290.66 488.985 280.67 487.217 269.724C485.944 261.871 486.781 254.579 490.403 247.444C491.914 244.497 492.515 241.094 493.715 237.283Z" fill="#E0DFDF"/>
  <path d="M141.927 327.011C142.257 335.55 140.364 344.168 133.991 351.487C132.526 353.168 131.721 355.436 130.692 357.481C129.604 359.656 128.33 360.23 126.483 358.265C125.586 357.309 124.497 356.524 123.66 355.522C122.545 354.184 120.526 353.096 121.918 350.814C123.297 348.566 124.464 346.185 127.948 347.043C130.804 347.742 132.262 345.434 133.153 343.423C136.722 335.378 138.827 327.011 135.568 318.373C133.806 313.711 131.207 309.379 129.096 304.843C128.436 303.425 127.552 301.697 127.869 300.372C128.132 299.251 129.914 297.893 131.141 297.761C132.276 297.642 134.011 298.717 134.717 299.772C140.041 307.737 142.185 316.652 141.927 327.011Z" fill="#E0DFDF"/>
  <path d="M494.375 320.503C493.9 322.884 493.947 325.547 492.858 327.605C486.762 339.157 483.681 351.599 481.352 364.312C479.426 374.803 480.323 385.287 481.643 395.692C482.091 399.233 481.069 400.71 477.592 401.943C474.986 391.037 475.731 380.104 476.299 369.363C477.249 351.276 481.774 334.06 492.099 318.624C493.023 319.389 493.762 320.002 494.494 320.609L494.375 320.503Z" fill="#E0DFDF"/>
  <path d="M300.693 142.234C303.45 140.836 306.05 141.285 308.834 142.452C319.013 146.731 329.793 148.241 340.705 149.474C353.471 150.912 365.808 148.993 378.046 145.96C381.529 145.096 382.703 146.764 384.359 149.89C379.649 150.806 375.361 151.986 371.006 152.415C361.427 153.351 351.795 154.604 342.209 154.439C328.375 154.202 314.811 151.789 302.236 145.445C300.66 144.648 299.677 143.922 300.805 142.116L300.693 142.234Z" fill="#E0DFDF"/>
  <path d="M216.768 467.234C230.906 466.673 244.483 467.946 257.763 471.131C272.198 474.592 285.795 480.164 297.288 490.404C294.853 493.121 292.491 493.075 289.918 491.248C276.288 481.575 260.956 475.911 244.648 473.168C237.252 471.922 229.56 472.212 222.006 472.212C218.654 472.205 217.678 470.537 216.768 467.234Z" fill="#E0DFDF"/>
  <path d="M177.27 203.898C174.552 233.135 168.087 260.275 146.91 281.962C144.495 278.632 144.528 276.753 147.042 273.819C157.558 261.534 164.326 247.246 168.437 231.81C170.416 224.385 170.878 216.519 171.564 208.811C171.867 205.369 173.51 204.34 177.27 203.898Z" fill="#E0DFDF"/>
  <path d="M394.696 493.206C387.287 490.384 388.211 490.542 392.044 485.096C398.12 476.458 405.542 469.429 414.745 464.049C422.668 459.413 430.631 457.725 439.524 460.31C441.741 460.956 444.215 460.719 446.927 460.917C446.122 463.211 445.291 465.835 444.275 468.387C443.476 470.385 441.807 470.84 439.716 470.807C437.598 470.781 437.75 469.192 436.899 468.064C435.751 466.548 433.541 465.123 431.68 464.965C423.229 464.233 416.045 467.622 409.777 472.976C404.328 477.632 399.571 482.907 396.781 489.685C396.292 490.885 395.461 491.94 394.696 493.206Z" fill="#E0DFDF"/>
  <path d="M429.549 457.343C438.614 432.108 452.29 410.309 473.955 393.739C476.258 398.289 475.954 399.397 472.708 402.094C457.475 414.773 445.62 429.952 438.541 448.619C437.881 450.353 437.063 452.021 436.403 453.756C435.236 456.822 433.303 458.45 429.549 457.343Z" fill="#E0DFDF"/>
  <path d="M484.202 221.656C483.43 223.891 482.77 225.79 482.012 227.986C474.187 224.531 467.168 220.423 461.547 214.62C456.718 209.635 452.601 203.886 448.675 198.129C446.056 194.285 445.357 189.775 446.155 184.922C446.749 181.329 446.274 177.557 446.274 173.337C448.893 173.996 451.869 174.319 454.389 175.559C455.616 176.159 456.243 178.427 456.625 180.056C456.757 180.616 455.464 181.836 454.587 182.245C452.152 183.373 451.677 185.456 451.743 187.678C451.948 194.773 454.923 200.82 459.521 206.009C465.116 212.326 471.839 217.133 479.94 219.849C481.266 220.304 482.526 220.944 484.202 221.656Z" fill="#E0DFDF"/>
  <path d="M289.232 515.612C286.692 512.4 285.32 509.473 285.643 505.609C285.801 503.736 284.706 501.316 283.4 499.833C274.843 490.107 258.495 487.634 245.861 493.912C242.279 495.692 240.128 495.079 239.634 491.933C239.508 491.155 240.221 489.619 240.848 489.441C252.103 486.131 263.443 484.133 275.015 488.056C282.193 490.489 287.292 495.369 291.614 501.382C293.316 503.749 295.493 505.82 297.657 507.805C299.22 509.235 298.897 510.238 297.373 511.128C294.747 512.658 292.043 514.069 289.232 515.612Z" fill="#E0DFDF"/>
  <path d="M497.746 377.195C492.237 364.159 488.352 351.124 493.597 337.376C495.22 333.129 498.472 329.437 501.296 325.738C503.803 322.454 506.864 319.599 509.476 316.388C510.908 314.627 511.97 315.339 512.887 316.559C514.649 318.907 516.225 321.399 517.927 323.905C515.354 326.812 512.795 328.916 508.816 328.56C505.201 328.237 503.308 330.914 501.546 333.419C494.164 343.93 493.893 358.786 500.774 369.685C503.499 373.997 503.044 375.31 497.746 377.195Z" fill="#E0DFDF"/>
  <path d="M294.021 125.327C296.654 122.934 299.359 120.468 302.169 117.909C305.098 119.986 307.493 122.063 307.632 125.756C307.77 129.534 310.238 131.552 313.22 133.233C324.072 139.359 340.057 137.875 349.63 129.824C352.876 127.094 354.558 127.101 356.234 130.141C356.603 130.813 356.26 132.653 355.7 132.956C344.003 139.365 331.877 144.225 318.187 140.724C314.777 139.853 311.405 138.218 308.463 136.266C303.68 133.081 299.266 129.343 294.021 125.327Z" fill="#E0DFDF"/>
  <path d="M430.665 449.944C429.992 453.538 428.204 455.47 424.958 456.288C409.758 460.118 396.312 467.523 384.173 477.229C378.981 481.383 374.469 486.395 369.659 491.023C369.033 491.63 368.571 492.698 367.865 492.876C366.684 493.173 365.153 493.292 364.197 492.744C363.702 492.461 363.629 490.054 364.217 489.494C372.16 481.851 379.021 472.976 388.904 467.497C391.008 466.33 393.119 465.156 395.072 463.765C405.7 456.202 417.859 452.654 430.665 449.944Z" fill="#E0DFDF"/>
  <path d="M376.619 153.332C379.845 151.604 382.121 151.531 384.938 154.294C398.832 167.943 415.081 177.735 434.002 182.858C436.1 183.425 438.192 184.045 440.257 184.744C444.413 186.149 444.406 186.175 444.558 190.435C429.839 191.582 383.019 166.11 376.619 153.332Z" fill="#E0DFDF"/>
  <path d="M436.945 190.797C440.33 191.113 442.474 192.004 443.595 194.898C449.744 210.802 459.297 224.451 471.687 236.07C475.909 240.032 480.679 243.408 485.198 247.042C485.541 247.318 485.917 247.536 486.273 247.8C487.665 248.822 488.351 249.989 487.269 251.69C486.095 253.523 484.631 253.134 483.364 252.066C474.675 244.747 464.852 238.681 458.261 229.034C455.609 225.15 452.469 221.596 449.619 217.844C443.562 209.886 440.712 200.43 436.945 190.797Z" fill="#E0DFDF"/>
  <path d="M178.517 211.969C177.448 208.217 178.615 206.279 182.112 204.386C199.094 195.221 213.232 182.851 223.24 166.116C224.249 164.428 225.562 162.918 226.538 161.21C228.181 158.335 230.411 157.577 233.386 158.968C227.666 175.835 191.698 210.71 178.517 211.969Z" fill="#E0DFDF"/>
  <path d="M161.686 431.627C159.931 430.862 157.866 429.906 155.755 429.042C152.806 427.829 152.424 425.548 153.222 422.864C153.394 422.29 154.126 421.499 154.627 421.479C158.849 421.308 159.423 418.163 159.74 415.09C160.67 405.938 157.57 397.9 151.553 391.293C146.829 386.097 141.222 381.706 135.574 376.563C136.175 375.501 137.204 373.688 138.418 371.538C148.089 378.738 155.92 386.809 160.934 397.32C162.293 400.168 163.362 403.155 164.457 406.122C166.14 410.692 166.12 415.235 164.569 419.916C163.355 423.602 162.689 427.473 161.686 431.627Z" fill="#E0DFDF"/>
  <path d="M300.804 142.115C294.648 145.828 288.684 149.929 282.292 153.167C270.984 158.89 259.419 164.112 246.514 165.2C241.527 165.622 236.533 166.018 231.229 166.446C232.489 163.268 234.171 161.415 237.522 161.191C256.622 159.905 273.992 153.397 290.07 143.289C293.467 141.153 296.245 138.054 299.517 135.686C300.599 134.902 302.433 134.552 303.746 134.836C305.692 135.258 305.982 136.682 304.452 138.225C303.165 139.524 301.945 140.896 300.698 142.234C300.691 142.234 300.804 142.115 300.804 142.115Z" fill="#E0DFDF"/>
  <path d="M225.674 465.064C221.531 466.073 219.235 465.743 216.992 462.301C206.45 446.133 192.721 433.322 175.271 424.723C173.509 423.853 171.748 422.956 170.059 421.954C166.305 419.732 166.272 419.567 167.255 414.932C191.368 426.108 211.516 441.715 225.674 465.064Z" fill="#E0DFDF"/>
  <path d="M217.619 152.012C218.721 150.061 219.955 147.898 221.168 145.722C222.409 143.493 224.56 143.652 226.367 144.265C227.258 144.568 227.957 146.19 228.261 147.337C228.901 149.771 231.638 151.597 235.491 152.019C246.007 153.173 254.94 149.434 262.705 142.808C266.822 139.293 270.312 135.047 274.27 130.939C274.125 130.939 274.382 130.86 274.547 130.952C280.069 134.157 280.049 134.143 275.656 138.581C266.089 148.247 254.867 155.013 241.376 157.334C237.879 157.934 233.994 157.347 230.477 156.509C226.176 155.481 222.072 153.608 217.619 152.012Z" fill="#E0DFDF"/>
  <path d="M126.931 281.837C125.605 278.745 124.187 275.619 122.979 272.408C122.821 271.98 123.619 270.918 124.226 270.516C126.562 268.973 128.976 268.307 131.971 268.874C133.878 269.237 136.471 268.689 138.048 267.562C144.995 262.583 148.63 255.482 149.844 247.121C150.728 241.048 149.995 235.167 147.548 229.47C146.274 226.502 147.422 224.676 150.503 224.452C151.269 224.399 152.707 225.177 152.819 225.771C154.937 236.94 156.058 248.097 151.427 259.01C149.006 264.72 145.311 269.309 140.106 272.731C135.943 275.481 131.892 278.402 126.931 281.837Z" fill="#E0DFDF"/>
  <path d="M174.539 416.679C171.062 415.769 169.4 413.851 168.859 410.507C166.259 394.366 159.946 379.669 150.584 366.349C147.068 361.351 142.839 356.848 138.88 352.166C137.686 350.755 136.413 349.456 138.175 347.682C140.226 345.612 141.473 347.425 142.753 348.75C154.239 360.646 162.538 374.578 168.819 389.77C172.362 398.335 173.2 407.474 174.539 416.679Z" fill="#E0DFDF"/>
  <path d="M438.655 164.277C438.378 162.721 438.094 161.165 437.791 159.457C452.833 158.448 467.327 158.851 479.948 167.924C488.88 174.346 493.38 183.544 495.148 194.206C495.234 194.721 495.108 195.268 495.075 196C491.401 195.841 489.613 194.022 488.603 190.679C484.678 177.682 476.596 168.557 462.999 165.603C457.504 164.409 451.692 164.627 446.018 164.29C443.722 164.165 441.42 164.277 438.655 164.277Z" fill="#E0DFDF"/>
  <path d="M424.958 131.189C421.112 131.941 418.183 131.704 415.531 129.303C404.902 119.696 392.493 117.296 378.837 120.758C374.627 121.826 370.577 123.521 366.381 124.675C365.477 124.925 363.722 124.384 363.34 123.679C362.759 122.604 362.904 121.048 363.029 119.729C363.069 119.294 363.953 118.786 364.547 118.575C378.632 113.623 392.803 110.241 407.251 117.21C414.02 120.481 419.799 125.057 424.958 131.189Z" fill="#E0DFDF"/>
  <path d="M418.803 506.624C419.839 503.63 421.514 501.652 424.892 501.105C441.201 498.454 452.442 487.106 454.949 470.8C455.563 466.811 456.005 462.775 456.256 458.747C456.552 453.953 456.427 453.946 461.309 454.599C462.187 471.987 455.576 493.496 440.171 501.804C432.941 505.701 424.608 507.778 418.803 506.624Z" fill="#E0DFDF"/>
  <path d="M491.512 444.301C490.747 440.549 491.486 437.727 494.27 435.274C505.235 425.601 508.665 413.224 506.653 399.107C506.072 395.025 504.865 391.03 504.219 386.955C504.073 386.045 504.839 384.37 505.578 384.093C506.759 383.651 508.309 383.922 509.609 384.258C510.07 384.376 510.38 385.524 510.559 386.256C513.171 396.977 514.662 407.824 511.542 418.638C508.348 429.689 501.045 437.773 491.512 444.301Z" fill="#E0DFDF"/>
  <path d="M166.682 446.879C155.697 445.356 144.996 443.107 135.516 436.79C123.232 428.601 116.661 414.319 119.148 400.004C121.767 400.92 123.938 402.147 124.109 405.167C125.27 425.825 138.221 436.553 156.04 439.85C158.297 440.265 160.533 440.799 162.802 441.109C167.698 441.775 167.816 441.894 166.682 446.879Z" fill="#E0DFDF"/>
  <path d="M206.859 156.714C205.217 156.542 203.653 156.377 201.812 156.186C205.217 140.928 210.079 126.95 223.273 117.718C231.566 111.916 241 110.696 250.85 111.916C251.47 111.995 252.051 112.391 252.829 112.707C251.648 115.338 250.157 117.138 246.997 117.112C223.095 116.894 214.143 131.163 209.835 145.781C208.799 149.309 207.902 152.883 206.859 156.714Z" fill="#E0DFDF"/>
  <path d="M170.916 159.925C170.995 163.617 169.88 166.228 166.766 168.088C154.35 175.499 148.366 186.702 147.898 200.964C147.759 205.105 147.786 209.266 148.05 213.393C148.188 215.49 147.139 216.018 145.609 215.925C144.415 215.86 142.924 215.53 142.185 214.739C141.479 213.987 141.354 212.484 141.354 211.31C141.367 203.2 141.591 195.083 144.091 187.269C148.419 173.778 158.309 165.688 170.916 159.925Z" fill="#E0DFDF"/>
  <path d="M173.668 477.374C177.699 476.755 180.344 478.212 182.693 481.383C190.075 491.327 200.097 496.542 212.552 496.45C217.995 496.41 223.438 495.758 228.861 495.191C230.787 494.993 231.645 495.843 231.711 497.419C231.757 498.613 231.282 499.866 230.827 501.013C230.688 501.369 229.897 501.593 229.376 501.659C216.537 503.275 203.771 504.02 191.995 497.136C183.953 492.428 178.167 485.551 173.668 477.374Z" fill="#E0DFDF"/>
  <path d="M367.306 483.968C364.278 488.821 362.846 489.144 357.542 488.472C350.615 487.588 343.621 486.533 336.681 486.698C322.47 487.034 309.164 491.149 296.84 498.303C296.088 498.738 295.224 499.688 294.617 499.543C293.178 499.206 291.866 498.349 290.5 497.703C291.015 496.767 291.305 495.349 292.09 494.973C297.104 492.58 302.138 490.153 307.343 488.221C320.082 483.487 333.277 481.166 346.9 482.023C353.531 482.445 360.148 483.276 367.306 483.968Z" fill="#E0DFDF"/>
  <path d="M494.482 320.608C493.96 319.336 493.545 318.004 492.898 316.79C486.387 304.612 480.416 292.189 479.097 278.217C478.226 268.986 478.074 259.682 477.586 250.227C481.861 251.209 483.345 252.897 483.352 256.332C483.359 262.887 482.864 269.48 483.392 275.995C484.513 289.875 489.85 302.377 497.114 314.113C498.031 315.597 499.04 317.041 500.096 318.432C502.662 321.821 502.636 322.303 498.572 325.943C497.2 324.169 495.788 322.336 494.376 320.503L494.482 320.608Z" fill="#E0DFDF"/>
  <path d="M146.532 351.077C142.976 348.618 142.098 345.914 143.253 342.242C146.09 333.215 147.825 324.023 147.277 314.456C146.604 302.633 144.012 291.331 138.938 280.617C138.562 279.825 137.804 278.902 137.982 278.243C138.338 276.937 139.222 275.783 139.888 274.563C140.852 275.124 142.382 275.467 142.686 276.271C144.625 281.467 146.439 286.729 148.029 292.044C150.866 301.539 152.344 311.258 151.81 321.194C151.262 331.263 149.619 341.134 146.532 351.077Z" fill="#E0DFDF"/>
  <path d="M514.292 300.24C516.383 299.317 518.033 299.97 519.484 301.599C528.714 311.964 536.822 322.877 537.072 337.62C537.211 345.5 536.122 353.122 532.026 360.046C531.498 360.936 530.831 361.747 530.231 362.591C529.868 362.518 529.505 362.439 529.149 362.367C529.281 359.551 528.714 356.479 529.657 353.96C536.208 336.374 529.439 322.395 518.145 309.531C515.928 307.006 513.025 304.882 513.553 300.92C513.791 300.689 514.041 300.465 514.292 300.24Z" fill="#E0DFDF"/>
  <path d="M528.357 271.261C526.002 270.245 524.326 269.098 524.141 266.151C523.171 250.609 514.291 240.752 500.774 234.428C497.924 233.096 494.876 232.193 491.92 231.085C491.834 231.052 491.781 230.927 491.57 230.676C491.861 229.674 492.197 228.553 492.52 227.426C493.18 225.111 494.895 224.353 496.822 225.362C506.005 230.136 515.782 234.151 522.05 243.04C527.809 251.203 530.395 260.223 528.799 270.245C528.746 270.529 528.555 270.799 528.357 271.261Z" fill="#E0DFDF"/>
  <path d="M340.064 530.672C341.899 529.815 343.752 528.173 345.567 528.213C363.188 528.641 374.542 519.667 381.984 504.561C382.709 503.097 383.455 501.64 384.2 500.183C384.247 500.09 384.352 500.025 384.761 499.629C385.751 500.031 386.912 500.499 388.08 500.974C390.27 501.871 390.89 503.486 389.61 505.392C384.194 513.456 379.318 522.008 370.861 527.494C362.152 533.138 352.652 534.51 342.571 532.664C341.839 532.532 341.16 532.136 340.454 531.866C340.315 531.477 340.19 531.075 340.064 530.672Z" fill="#E0DFDF"/>
  <path d="M129.755 366.765C129.557 367.286 129.498 367.503 129.399 367.695C126.674 373.115 125.619 373.497 121.02 369.356C115.505 364.391 109.627 359.571 105.187 353.723C98.4379 344.841 97.6133 334.39 100.45 323.681C100.721 322.666 101.222 321.71 101.723 320.483C104.184 322.092 105.405 323.833 105.042 326.569C102.759 343.687 111.012 355.226 124.847 363.778C126.404 364.754 127.994 365.697 129.755 366.765Z" fill="#E0DFDF"/>
  <path d="M122.61 294.694C120.248 295.802 118.164 295.663 116.732 293.211C110.92 283.241 105.338 273.086 105.794 261.092C106.189 250.714 108.954 241.014 116.376 233.194C116.679 232.878 116.996 232.574 117.346 232.304C117.491 232.192 117.715 232.192 118.843 231.889C118.144 234.955 118.19 238.001 116.831 240.177C106.777 256.305 111.085 271.359 119.819 286.162C121.409 288.859 123.441 291.338 122.518 294.786L122.61 294.694Z" fill="#E0DFDF"/>
  <path d="M279.574 124.24C279.534 122.723 278.835 120.659 279.567 119.789C286.342 111.685 293.705 104.096 303.786 100.153C313.207 96.4667 322.951 95.992 332.768 98.6822C334.232 99.0844 335.637 99.7372 337.03 100.357C337.709 100.654 338.309 101.135 338.943 101.537C338.943 101.88 338.943 102.23 338.943 102.573C336.132 102.777 333.124 103.733 330.544 103.06C314.968 99.0185 302.704 104.933 291.825 115.318C289.298 117.732 287.048 120.442 284.7 123.04C283.202 124.695 281.513 125.215 279.461 124.127L279.574 124.24Z" fill="#E0DFDF"/>
  <path d="M374.793 133.273C377.214 132.587 379.141 131.842 381.126 131.552C382.571 131.341 385.19 131.348 385.415 131.954C386.206 134.071 388.39 136.141 386.246 138.924C385.566 139.801 386.015 142.168 386.727 143.395C390.844 150.443 397.204 155.006 404.388 158.554C410.86 161.752 417.794 161.323 424.695 161.125C426.687 161.066 428.693 160.578 428.693 163.789C428.693 166.776 427.037 167.165 424.668 167.165C407.43 167.198 393.714 160.413 383.798 146.21C380.876 142.017 377.953 137.816 374.793 133.273Z" fill="#E0DFDF"/>
  <path d="M494.671 394.412C495.146 396.825 495.74 398.619 495.78 400.432C495.813 402.021 495.667 404.659 494.823 405.015C492.672 405.931 490.08 407.764 487.658 404.936C487.21 404.408 485.574 404.454 484.703 404.791C474.84 408.582 468.262 415.908 464.363 425.383C462.582 429.708 462.41 434.713 461.645 439.428C461.408 440.905 461.606 442.454 461.606 443.872C456.143 445.322 455.021 444.406 455.628 439.349C457.542 423.603 464.891 411.325 478.765 403.261C483.858 400.307 489.057 397.531 494.671 394.412Z" fill="#E0DFDF"/>
  <path d="M158.348 207.882C158.618 204.189 158.856 200.985 159.12 197.45C162.2 197.945 165.446 195.716 167.848 199.422C168.29 200.101 170.572 200.035 171.819 199.666C184.532 195.888 193.802 188.318 197.925 175.315C198.651 173.034 199.35 170.713 199.726 168.359C200.095 166.031 201.144 165.431 203.302 166.057C205.525 166.697 206.402 168.029 205.637 170.231C202.899 178.111 199.601 185.628 193.551 191.714C186.234 199.066 176.919 202.336 167.379 205.264C164.589 206.121 161.778 206.886 158.348 207.882Z" fill="#E0DFDF"/>
  <path d="M223.28 485.433C218.827 485.433 215.508 485.433 212.177 485.433C211.84 483.698 211.484 482.228 211.299 480.731C211.213 480.019 211.2 478.865 211.603 478.602C215.324 476.182 213.635 472.957 212.368 470.478C206.879 459.724 199.048 451.561 186.606 449.088C183.511 448.475 180.384 448.026 177.297 447.512C176.215 442.197 177.475 441.149 182.667 442.356C194.272 445.052 204.491 450.222 210.851 460.515C215.561 468.144 218.932 476.59 223.28 485.433Z" fill="#E0DFDF"/>
  <path d="M353.061 499.359C352.177 503.275 350.033 504.647 347.091 505.043C345.903 505.201 344.643 505.036 343.502 505.339C340.718 506.084 339.748 508.959 341.852 510.878C343.284 512.184 345.329 513.186 347.242 513.509C349.452 513.885 351.814 513.351 354.11 513.252C355.192 513.206 356.432 512.935 357.336 513.351C359.012 514.122 360.496 515.322 362.06 516.338C360.661 517.379 359.395 518.757 357.831 519.41C351.438 522.094 345.263 521.54 339.359 517.788C335.961 515.632 334.081 512.606 333.692 508.676C333.507 506.777 332.88 504.264 333.797 503.084C334.767 501.838 337.333 501.785 339.227 501.304C341.978 500.612 344.729 499.86 347.526 499.405C349.222 499.135 351.003 499.359 353.061 499.359Z" fill="#E0DFDF"/>
  <path d="M516.944 264.924C516.944 273.179 513.065 278.283 505.003 280.617C500.26 281.995 500.24 281.995 498.749 277.36C497.482 273.423 496.17 269.493 495.074 265.511C494.844 264.673 495.49 263.598 495.728 262.629C496.704 262.959 498.076 262.998 498.584 263.677C499.699 265.181 500.57 266.948 501.19 268.728C501.863 270.68 501.903 273.126 504.542 273.39C507.392 273.674 508.896 271.465 509.153 269.203C509.476 266.368 508.79 263.427 508.704 260.526C508.638 258.165 508.401 255.686 509.001 253.47C509.707 250.886 511.614 250.668 512.834 253.022C514.754 256.734 516.166 260.704 517.789 264.568C517.518 264.693 517.228 264.812 516.944 264.924Z" fill="#E0DFDF"/>
  <path d="M119.577 334.369C118.778 336.888 118.251 339.552 117.083 341.886C116.172 343.706 114.648 343.877 113.468 341.662C109.78 334.752 111.673 324.287 117.465 319.019C121.035 315.768 125.567 316.263 129.783 315.603C130.304 315.524 131.577 317.206 131.722 318.188C132.435 322.922 132.969 327.69 133.345 332.47C133.424 333.453 132.554 334.514 132.125 335.536C131.168 334.91 129.743 334.488 129.347 333.611C128.589 331.903 128.523 329.905 127.949 328.092C127.427 326.457 126.834 323.786 125.864 323.588C124.379 323.285 121.734 324.254 121.015 325.507C119.57 328.026 119.095 331.099 118.224 333.947C118.679 334.092 119.128 334.231 119.577 334.369Z" fill="#E0DFDF"/>
  <path d="M505.096 338.84C507.741 340.884 508.487 342.968 506.56 345.75C505.188 347.728 505.076 349.944 507.029 351.678C508.962 353.399 511.106 352.977 513.045 351.586C516.225 349.298 517.268 345.935 517.644 342.21C518.066 338.009 518.864 333.954 524.135 332.095C524.188 340.891 523.581 349.146 517.73 355.964C513.877 360.448 506.732 361.437 501.414 358.496C500.906 358.213 500.234 357.514 500.273 357.052C500.755 351.052 499.514 344.643 504.225 339.605C504.443 339.374 504.7 339.183 505.096 338.84Z" fill="#E0DFDF"/>
  <path d="M309.551 111.144C317.903 109.898 325.8 109.727 333.07 114.079C338.599 117.382 340.862 125.123 338.15 130.853C337.873 131.433 337.009 132.132 336.435 132.112C330.233 131.901 323.636 134.084 318.233 129.132C319.862 126.29 322.138 125.387 325.292 127.029C327.41 128.13 329.409 127.774 330.847 125.855C332.325 123.883 331.751 121.859 330.332 120.118C327.641 116.828 323.913 116.241 319.948 116.347C315.818 116.459 312.104 115.654 309.551 111.144Z" fill="#E0DFDF"/>
  <path d="M280.663 520.512C272.7 520.09 265.377 518.632 259.433 513.404C254.016 508.643 253.258 501.502 257.269 495.567C257.625 495.033 258.542 494.42 259.057 494.526C265.119 495.726 271.941 495.047 276.19 501.212C273.993 503.368 271.756 504.06 269.098 501.792C267.336 500.289 265.331 499.952 263.444 501.62C261.484 503.355 261.583 505.471 262.705 507.601C264.572 511.155 267.95 512.335 271.572 513.133C275.629 514.03 279.462 515.256 280.663 520.512Z" fill="#E0DFDF"/>
  <path d="M137.957 259.88C135.925 257.559 135.272 255.337 137.852 252.831C139.58 251.156 140.161 249.027 138.452 246.956C136.684 244.813 134.375 245.077 132.185 246.152C128.649 247.879 127.184 251.156 126.095 254.684C124.928 258.482 123.173 261.759 118.258 262.682C118.489 261.192 118.607 259.88 118.898 258.607C120.336 252.218 122.638 246.264 127.626 241.701C132.574 237.171 141.197 237.184 145.67 241.741C146.019 242.097 146.428 242.789 146.296 243.145C144.205 249.033 144.627 256.188 137.957 259.88Z" fill="#E0DFDF"/>
  <path d="M341.793 110.169C346.622 107.676 348.113 107.848 350.937 111.448C357.409 119.697 363.762 128.038 370.214 136.293C372.286 138.944 374.522 141.456 376.726 144.094C371.791 146.909 370.623 146.619 367.496 142.676C359.626 132.752 351.669 122.882 343.766 112.978C343.099 112.147 342.538 111.23 341.793 110.169Z" fill="#E0DFDF"/>
  <path d="M294.443 531.648C297.755 528.912 301.027 527.5 305.454 529.439C317.844 534.866 331.936 530.402 338.731 521.507C339.179 520.92 340.525 520.643 341.357 520.788C343.052 521.085 344.688 521.77 346.377 522.305C336.785 537.787 316.617 540.82 294.443 531.648Z" fill="#E0DFDF"/>
  <path d="M533.412 317.015C530.351 313.896 528.721 310.876 530.06 306.531C533.959 293.831 528.622 279.879 517.018 273.022C517.44 270.839 517.869 268.61 518.377 265.979C525.845 270.397 531.439 275.989 534.078 284.211C537.067 293.548 536.869 306.973 533.412 317.015Z" fill="#E0DFDF"/>
  <path d="M521.627 364.285C523.033 370.055 522.663 371.05 518.467 373.655C507.879 380.242 497.283 386.823 486.681 393.383C485.679 394.003 484.57 394.452 483.495 394.992C481.654 390.054 482.202 388.675 486.358 386.078C496.934 379.464 507.443 372.745 517.999 366.105C519.048 365.432 520.222 364.977 521.627 364.285Z" fill="#E0DFDF"/>
  <path d="M223.213 473.834C229.23 472.891 229.454 473.109 231.789 477.982C237.08 489.006 242.484 499.978 247.834 510.977C248.401 512.137 248.916 513.331 249.457 514.511C244.793 516.344 242.761 515.638 240.762 511.465C235.24 499.952 229.751 488.419 224.282 476.88C223.826 475.924 223.576 474.883 223.213 473.834Z" fill="#E0DFDF"/>
  <path d="M105.94 275.388C108.988 279.416 108.731 283.182 106.567 287.652C100.913 299.369 103.763 312.293 113.428 320.983C112.531 323.041 111.6 325.17 110.65 327.353C95.6151 316.124 95.3908 295.07 105.94 275.388Z" fill="#E0DFDF"/>
  <path d="M170.078 209.457C170.019 216.005 169.979 215.906 164.774 217.851C153.354 222.117 141.974 226.502 130.573 230.827C129.485 231.243 128.344 231.533 127.248 231.876C125.553 227.629 126.51 225.295 130.62 223.772C138.569 220.831 146.579 218.029 154.541 215.114C158.018 213.842 161.429 212.411 164.893 211.112C166.502 210.519 168.158 210.07 170.078 209.457Z" fill="#E0DFDF"/>
  <path d="M414.298 156.166C407.259 155.243 400.991 153.416 395.74 148.115C398.801 146.361 401.242 145.86 403.544 148.333C405.458 150.383 407.654 150.904 409.944 149.17C411.962 147.647 411.936 144.937 410.01 142.405C407.74 139.411 404.778 137.407 401.011 136.899C398.148 136.51 396.584 134.684 395.449 132.336C394.427 130.22 395.054 129.053 397.554 128.907C409.845 128.176 419.681 140.737 415.743 152.197C415.327 153.43 414.859 154.643 414.298 156.166Z" fill="#E0DFDF"/>
  <path d="M414.006 134.097C431.086 129.567 456.802 138.231 460.82 158.191C458.129 158.876 456.314 158.547 454.975 155.54C450.72 145.979 442.513 141.443 432.755 139.55C428.606 138.746 424.238 138.713 419.99 138.884C416.256 139.042 415.22 136.754 414.006 134.097Z" fill="#E0DFDF"/>
  <path d="M460.457 477.473C459.989 474.202 460.774 472.62 463.822 471.552C475.512 467.477 480.823 458.14 483.277 446.733C483.759 444.498 484.128 442.163 484.01 439.902C483.812 436.077 485.969 434.422 489.776 432.998C490.594 441.788 489.09 449.838 485.56 457.481C480.625 468.156 472.61 475.165 460.457 477.473Z" fill="#E0DFDF"/>
  <path d="M467.523 431.113C469.311 424.381 471.746 418.354 477.36 413.745C479.227 416.396 479.359 418.572 477.208 420.695C476.74 421.157 476.205 421.559 475.757 422.033C474.187 423.715 473.494 425.587 474.992 427.632C476.443 429.61 478.528 429.821 480.593 428.931C484.294 427.335 486.887 424.598 487.982 420.649C488.747 417.886 490.403 416.106 493.141 415.202C495.694 414.352 496.65 414.985 496.519 417.649C495.925 429.583 482.321 438.05 471.581 433.157C470.288 432.57 469.041 431.885 467.523 431.113Z" fill="#E0DFDF"/>
  <path d="M191.954 177.511C189.414 183.023 186.34 187.757 181.55 191.127C180.844 191.621 179.835 191.687 178.964 191.951C178.825 191.034 178.284 189.927 178.621 189.247C179.333 187.803 180.244 186.188 181.537 185.344C183.787 183.874 184.974 182.087 184.044 179.607C183.002 176.838 180.481 176.475 177.988 177.247C174.537 178.308 171.674 180.326 170.097 183.709C168.923 186.228 166.97 187.533 164.325 188.021C161.587 188.522 160.511 187.454 161.171 184.836C164.034 173.469 178.779 167.897 188.213 174.623C189.447 175.506 190.628 176.482 191.954 177.511Z" fill="#E0DFDF"/>
  <path d="M189.475 454.916C195.755 457.184 201.488 460.231 205.598 466.409C202.135 467.352 199.555 467.504 197.662 464.246C196.428 462.116 194.264 461.338 191.988 462.499C189.699 463.666 189.283 465.802 190.075 468.136C191.342 471.862 193.895 474.473 197.457 476.023C199.938 477.104 201.554 478.7 202.128 481.456C202.735 484.364 201.647 485.564 198.632 484.548C193.71 482.9 189.798 479.722 186.849 475.502C182.231 468.908 183.075 462.644 189.475 454.916Z" fill="#E0DFDF"/>
  <path d="M207.195 133.583C207.063 136.115 206.865 138.192 204.081 138.509C191.837 139.887 184.632 147.542 179.909 158.099C178.583 161.059 177.89 164.297 176.867 167.389C176.604 168.181 176.359 169.374 175.792 169.605C174.255 170.225 172.546 170.429 170.91 170.798C170.95 169.46 170.725 168.049 171.062 166.789C173.852 156.253 178.16 146.619 187.304 139.874C193.123 135.568 199.608 133.524 207.195 133.583Z" fill="#E0DFDF"/>
  <path d="M184.711 476.775C178.114 476.735 172.104 475.173 166.404 472.72C154.661 467.656 146.421 459.486 144.481 446.246C144.349 445.349 144.798 444.367 144.976 443.424C146.388 444.169 148.829 444.683 149.046 445.685C152.371 460.858 163.316 467.122 177.118 470.082C183.412 471.441 183.814 471.586 184.711 476.775Z" fill="#E0DFDF"/>
  <path d="M523.563 350.576C533.887 368.94 528.946 394.313 515.362 405.041C514.399 401.618 514.9 398.565 516.748 395.71C520.092 390.547 523.002 385.292 523.761 378.969C524.572 372.23 524.902 365.577 521.491 359.491C519.4 355.752 521.174 353.425 523.563 350.576Z" fill="#E0DFDF"/>
  <path d="M383.732 112.43C380.446 112.245 377.906 112.443 375.551 111.883C373.15 111.309 370.959 109.911 368.63 108.988C358.161 104.827 347.677 104.438 337.755 110.241C333.975 112.45 331.197 112.133 328.123 109.647C338.125 97.7126 372.365 98.8467 383.732 112.43Z" fill="#E0DFDF"/>
  <path d="M262.77 518.256C243.684 526.247 220.046 519.785 209.754 504.778C213 503.809 215.738 504.587 218.271 506.486C222.902 509.961 227.336 513.653 233.188 515.176C240.095 516.977 247.009 518.137 253.797 515.381C257.769 513.765 260.144 515.361 262.77 518.256Z" fill="#E0DFDF"/>
  <path d="M140.548 193.454C140.766 197.681 139.156 200.773 136.418 203.351C128.653 210.657 125.137 219.803 124.86 230.287C124.807 232.324 125.289 234.408 125.724 236.432C126.661 240.824 126.192 241.991 122.122 244.622C115.531 225.302 124.952 201.36 140.548 193.454Z" fill="#E0DFDF"/>
  <path d="M515.381 234.118C511.786 232.16 509.074 230.379 508.777 225.401C508.078 213.73 496.526 201.387 484.334 198.129C481.986 197.503 479.558 197.028 478.713 194.279C478.08 192.235 478.964 191.259 481.009 191.602C494.032 193.797 511.225 209.853 514.062 222.691C514.86 226.291 514.939 230.043 515.381 234.118Z" fill="#E0DFDF"/>
  <path d="M378.969 522.865C380.941 519.846 382.828 517.122 387.855 517.366C399.684 517.927 413.024 508.155 417.985 496.385C418.757 494.558 420.024 492.857 421.389 491.407C421.911 490.846 423.336 491.123 424.345 491.018C424.398 492.125 424.906 493.51 424.431 494.301C421.845 498.607 419.305 502.992 416.211 506.922C410.095 514.676 402.435 520.38 392.52 522.404C390.402 522.839 388.172 522.786 385.995 522.852C383.646 522.918 381.291 522.865 378.969 522.865Z" fill="#E0DFDF"/>
  <path d="M293.58 103.417C291.02 106.971 287.952 108.276 283.611 107.894C270.08 106.7 259.736 112.443 251.938 123.297C250.882 124.767 249.622 126.211 248.144 127.207C247.379 127.721 245.934 127.227 244.793 127.194C244.958 126.119 244.78 124.787 245.354 124.002C249.767 117.923 255.111 112.76 261.431 108.659C271.11 102.375 283.394 100.364 293.58 103.417Z" fill="#E0DFDF"/>
  <path d="M437.908 453.98C439.181 448.019 440.178 447.485 445.746 447.03C456.598 446.14 467.669 446.733 478.112 442.678C479.155 442.276 480.428 442.474 481.563 442.401C482.262 446.76 481.813 447.986 477.96 448.712C469.179 450.353 460.346 451.732 451.505 452.965C447.092 453.571 442.599 453.644 437.908 453.98Z" fill="#E0DFDF"/>
  <path d="M440.218 182.897C434.683 182.798 433.574 181.809 432.651 176.745C431.364 169.67 430.19 162.569 428.574 155.573C427.729 151.9 425.908 148.465 424.82 144.832C424.43 143.533 424.714 140.776 424.985 140.737C427.036 140.44 429.398 140.051 430.263 142.946C432.545 150.647 435.105 158.276 437.104 166.05C438.516 171.51 439.182 177.154 440.218 182.897Z" fill="#E0DFDF"/>
  <path d="M106.969 359.129C109.535 361.747 112.299 363.415 111.877 368.393C110.69 382.603 117.907 392.691 129.657 399.984C131.438 401.091 133.041 402.575 134.447 404.138C134.875 404.613 134.691 406.241 134.189 406.775C133.761 407.224 132.236 407.217 131.597 406.802C118.508 398.342 107.747 388.141 106.21 371.426C106.006 369.171 106.461 366.863 106.606 364.575C106.718 362.881 106.83 361.18 106.969 359.129Z" fill="#E0DFDF"/>
  <path d="M169.854 423.537C175.607 425.317 175.706 425.555 175.64 431.001C175.534 440.081 175.482 449.167 175.567 458.247C175.587 460.172 176.537 462.078 176.636 464.01C176.702 465.335 176.042 466.7 175.706 468.051C173.839 467.451 171.207 467.781 170.976 464.952C170.276 456.249 169.511 447.545 169.181 438.821C168.996 433.804 169.597 428.759 169.854 423.537Z" fill="#E0DFDF"/>
  <path d="M224.829 160.894C223.002 166.327 221.893 166.815 216.582 166.097C208.461 164.995 200.314 164.085 192.146 163.406C189.362 163.176 186.505 164.039 183.675 164.085C182.507 164.105 180.304 163.202 180.33 162.846C180.469 161.033 180.522 158.58 183.187 158.566C191.585 158.533 199.99 158.441 208.369 158.837C213.805 159.094 219.202 160.162 224.829 160.894Z" fill="#E0DFDF"/>
  <path d="M470.486 211.232C468.454 209.445 466.389 208.086 464.931 206.24C462.945 203.728 461.289 200.912 459.812 198.064C459.429 197.325 460.221 195.974 460.471 194.905C461.679 195.459 463.044 195.822 464.041 196.64C464.707 197.187 464.76 198.433 465.241 199.277C466.891 202.205 469.582 202.172 471.304 199.244C473.56 195.407 472.802 189.986 468.705 187.224C465.122 184.81 465.327 181.942 465.842 177.973C472.888 182.878 477.083 189.096 477.981 197.207C478.654 203.372 475.553 207.875 470.486 211.232Z" fill="#E0DFDF"/>
  <path d="M485.66 245.163C480.276 242.631 480.256 242.255 481.556 237.217C484.116 227.3 486.478 217.337 488.839 207.367C489.103 206.246 488.859 205 488.806 203.807C488.721 201.954 489.75 201.723 491.115 202.33C494.282 203.734 495.852 207.077 494.882 210.829C492.943 218.32 490.825 225.757 488.8 233.228C487.757 237.099 486.755 240.982 485.66 245.163Z" fill="#E0DFDF"/>
  <path d="M371.197 492.237C373.968 487.371 374.753 487.18 379.391 488.973C387.921 492.284 396.485 495.521 405.094 498.627C407.106 499.352 409.363 499.378 411.48 499.82C412.16 499.959 413.149 500.255 413.328 500.724C413.532 501.258 413.156 502.233 412.721 502.741C410.669 505.115 408.281 506.618 404.956 505.306C397.052 502.201 389.135 499.121 381.219 496.042C377.9 494.769 374.568 493.523 371.197 492.237Z" fill="#E0DFDF"/>
  <path d="M440.362 479.643C434.478 486.243 428.006 489.797 419.898 489.843C413.643 489.883 409.593 486.283 406.512 480.935C410.945 477.322 414.31 472.225 420.656 471.704C421.718 471.618 422.853 472.396 423.955 472.779C423.242 473.873 422.596 475.027 421.778 476.036C421.488 476.392 420.683 476.28 420.274 476.596C418.981 477.579 417.767 478.66 416.52 479.702C417.701 481.106 418.611 483.045 420.122 483.803C423.942 485.716 428.025 484.964 430.625 481.825C433.303 478.581 436.193 479.306 440.362 479.643Z" fill="#E0DFDF"/>
  <path d="M138.583 353.992C143.155 358.417 143.062 358.37 140.588 363.164C136.736 370.635 132.916 378.125 129.3 385.715C127.915 388.616 127.143 391.807 126.081 394.9C122.34 394.425 120.183 390.62 122.043 386.658C125.481 379.365 129.287 372.244 132.949 365.05C134.77 361.47 136.59 357.896 138.583 353.992Z" fill="#E0DFDF"/>
  <path d="M146.559 390.165C148.802 393.653 151.131 396.937 153.058 400.438C153.796 401.777 153.796 403.623 153.79 405.232C153.79 406.162 153.104 407.085 152.721 408.014C151.613 407.263 150.274 406.702 149.482 405.707C148.882 404.948 149.099 403.597 148.756 402.581C147.734 399.594 145.589 399.106 143.294 401.262C139.889 404.46 139.731 410.131 142.937 414.107C145.801 417.648 145.827 417.846 143.623 423.411C139.329 418.248 136.188 413.217 136.03 406.735C135.806 397.741 138.596 393.258 146.559 390.165Z" fill="#E0DFDF"/>
  <path d="M279.467 124.128C280.806 125.209 282.067 126.416 283.505 127.346C287.8 130.115 292.167 132.779 296.864 135.707C295.406 137.23 294.371 138.311 292.952 139.801C286.612 136.03 280.358 132.12 273.925 128.539C268.905 125.743 263.673 123.33 258.501 120.811C257.023 120.093 256.74 119.315 257.881 118.088C260.038 115.76 263.06 115.095 265.93 116.624C270.528 119.077 275.04 121.701 279.586 124.253C279.573 124.24 279.467 124.128 279.467 124.128Z" fill="#E0DFDF"/>
  <path d="M260.164 140.5C257.868 141.937 255.968 143.553 253.778 144.39C250.901 145.491 247.82 146.131 244.766 146.632C243.981 146.764 242.991 145.63 242.094 145.083C242.945 144.107 243.67 142.946 244.706 142.227C245.313 141.805 246.514 142.333 247.259 142.003C248.388 141.509 249.865 140.83 250.228 139.867C250.571 138.957 249.978 137.328 249.265 136.445C246.362 132.864 241.032 132.357 236.77 135.04C233.194 137.295 232.244 137.328 227.705 135.086C233.722 129.851 240.458 128.229 247.946 128.974C253.791 129.561 258.356 133.9 260.164 140.5Z" fill="#E0DFDF"/>
  <path d="M514.292 300.24C514.041 300.464 513.79 300.688 513.546 300.912C510.888 304.222 508.262 307.565 505.557 310.836C504.046 312.669 502.397 314.39 500.807 316.164C497.225 312.557 497.139 312.497 499.844 308.772C502.852 304.624 506.184 300.701 509.119 296.508C513.289 290.567 517.234 284.461 521.239 278.474C525.019 281.487 525.263 282.608 522.578 286.94C519.827 291.384 517.056 295.809 514.292 300.24Z" fill="#E0DFDF"/>
  <path d="M122.506 294.788C126.214 291.735 129.902 288.662 133.629 285.635C134.902 284.6 136.255 283.67 137.568 282.701C140.682 286.387 140.721 286.934 137.271 290C133.339 293.489 129.15 296.687 125.323 300.28C120.158 305.14 115.236 310.25 110.262 315.202C107.154 311.074 107.154 310.322 111.033 306.34C114.853 302.43 118.739 298.586 122.605 294.702C122.612 294.695 122.506 294.788 122.506 294.788Z" fill="#E0DFDF"/>
  <path d="M386.772 120.336C388.211 121.681 390.124 122.769 390.988 124.417C392.796 127.873 393.944 131.657 395.567 135.218C396.635 137.565 395.375 138.429 393.561 139.036C391.925 139.583 390.124 140.374 389.154 137.987C387.188 133.154 385.13 128.354 383.309 123.461C382.266 120.672 384.549 121.14 386.772 120.336Z" fill="#E0DFDF"/>
  <path d="M505.063 403.808C506.528 407.85 505.499 410.368 501.679 411.575C497.945 412.755 494.118 413.652 490.378 414.819C488.161 415.505 487.356 414.331 486.921 412.564C486.498 410.85 485.964 408.924 488.392 408.245C493.934 406.709 499.508 405.285 505.063 403.808Z" fill="#E0DFDF"/>
  <path d="M202.484 477.124C203.646 476.636 204.998 475.594 206.284 475.66C207.465 475.726 209.385 476.801 209.596 477.744C210.738 482.834 211.49 488.01 212.242 493.18C212.328 493.76 211.694 494.861 211.16 495.046C209.194 495.718 205.559 493.549 205.15 491.492C204.246 486.995 203.467 482.485 202.484 477.124Z" fill="#E0DFDF"/>
  <path d="M150.108 196.777C149.916 192.247 151.242 190.236 155.095 189.761C159.1 189.267 163.144 189.029 167.175 189.003C167.973 188.996 169.312 190.355 169.464 191.238C169.721 192.755 170.513 195.221 167.927 195.498C162.009 196.124 156.052 196.375 150.108 196.777Z" fill="#E0DFDF"/>
  <path d="M234.784 142.208C233.597 144.397 232.053 144.898 229.54 144.094C225.522 142.808 221.306 142.162 217.255 140.955C216.094 140.612 215.223 139.28 214.221 138.403C215.619 137.223 217.17 134.902 218.384 135.067C223.529 135.766 228.616 137.078 233.617 138.522C234.276 138.713 234.336 140.995 234.672 142.307L234.784 142.208Z" fill="#E0DFDF"/>
  <path d="M464.496 186.696C458.327 186.96 457.912 186.452 457.813 181.283C457.747 177.59 457.14 173.904 457.08 170.205C457.061 168.933 457.951 167.64 458.426 166.354C460.076 167.33 462.985 168.122 463.163 169.322C464.014 174.992 464.12 180.768 464.496 186.696Z" fill="#E0DFDF"/>
  <path d="M432.572 472.106C438.813 472.106 444.5 472.027 450.173 472.192C451.044 472.218 451.875 473.405 452.726 474.058C451.644 475.449 450.635 477.961 449.474 478.034C444.137 478.357 438.753 478.067 433.396 477.77C432.822 477.737 431.932 476.28 431.892 475.442C431.826 474.196 432.38 472.924 432.572 472.106Z" fill="#E0DFDF"/>
  <path d="M150.668 415.604C151.447 416.138 152.225 416.673 152.826 417.088C152.061 422.396 151.414 427.592 150.497 432.742C150.273 433.988 149.131 435.069 148.412 436.223C147.113 434.937 145.206 433.862 144.678 432.313C144.137 430.724 144.955 428.673 145.153 426.827C145.424 424.328 145.668 421.829 145.945 419.33C146.367 415.532 146.822 415.196 150.761 415.703L150.668 415.604Z" fill="#E0DFDF"/>
  <path d="M506.685 239.67C512.405 242.05 512.847 243.066 510.327 248.334C509.252 250.589 508.288 252.976 506.778 254.915C506.237 255.607 504.073 255.567 502.931 255.119C501.552 254.578 499.877 253.642 501.011 251.407C502.971 247.53 504.798 243.58 506.685 239.67Z" fill="#E0DFDF"/>
  <path d="M374.198 513.719C371.961 518.44 369.151 519.831 365.351 516.442C363.51 514.8 361.155 513.739 359.13 512.288C357.494 511.121 357.863 509.697 359.004 508.352C360.126 507.026 361.135 505.325 363.279 506.697C366.941 509.024 370.569 511.385 374.198 513.719Z" fill="#E0DFDF"/>
  <path d="M507.437 267.68C503.142 265.049 499.131 262.682 495.219 260.15C492.824 258.6 494.044 256.457 494.764 254.578C495.562 252.495 497.158 253.213 498.583 253.807C505.372 256.622 508.202 260.935 507.437 267.68Z" fill="#E0DFDF"/>
  <path d="M346.312 511.207C349.275 507.39 351.999 503.73 354.889 500.209C356.69 498.013 358.828 499.081 360.78 500.104C363.004 501.257 361.922 502.82 361.097 504.225C357.376 510.574 352.989 512.691 346.312 511.207Z" fill="#E0DFDF"/>
  <path d="M524.451 320.378C527.084 323.325 527.203 325.04 524.841 327.849C523.363 329.603 521.667 331.172 520.176 332.913C516.317 337.416 515.136 337.357 511.527 331.983C515.73 328.205 519.992 324.38 524.451 320.378Z" fill="#E0DFDF"/>
  <path d="M124.253 341.477C125.474 343.053 125.494 344.451 124.108 346.079C121.575 349.06 119.246 352.218 116.594 355.614C115.4 354.487 113.922 353.59 113.223 352.278C112.695 351.282 112.701 349.502 113.262 348.526C114.489 346.376 116.185 344.484 117.755 342.539C120.374 339.294 120.922 339.235 124.346 341.576C124.352 341.576 124.253 341.477 124.253 341.477Z" fill="#E0DFDF"/>
  <path d="M310.871 123.646C306.457 119.591 302.301 115.767 298.145 111.942C300.388 109.041 302.142 108.606 304.973 110.498C307.328 112.068 309.545 113.841 311.834 115.503C315.238 117.969 315.357 119.11 312.48 122.202C312.038 122.684 311.511 123.079 310.871 123.646Z" fill="#E0DFDF"/>
  <path d="M124.255 341.478L124.354 341.577C123.08 338.438 120.026 335.959 120.811 332.049C121.042 330.914 121.24 329.767 121.543 328.105C125.343 331.627 128.873 334.666 132.112 337.996C133.966 339.902 132.732 342.097 131.169 343.416C130.449 344.029 128.563 343.522 127.303 343.166C126.214 342.869 125.264 342.064 124.255 341.478Z" fill="#E0DFDF"/>
  <path d="M115.313 273.826C113.492 271.089 113.703 268.689 116.369 266.711C119.087 264.693 121.845 262.735 124.622 260.81C126.964 259.188 128.145 260.777 129.313 262.55C130.553 264.43 130.197 265.59 128.158 266.658C123.916 268.88 119.786 271.313 115.313 273.826Z" fill="#E0DFDF"/>
  <path d="M292.108 522.364C288.763 524.725 287.483 524.698 284.884 521.922C282.726 519.621 280.688 517.201 278.597 514.834C276.769 512.77 277.402 511.194 279.421 509.658C281.433 508.122 282.707 508.445 284.066 510.574C286.573 514.504 289.317 518.296 292.108 522.364Z" fill="#E0DFDF"/>
  <path d="M470.96 195.227C465.669 194.39 460.629 193.744 455.668 192.728C453.497 192.287 453.102 190.48 453.92 187.354C465.227 187.394 470.941 188.66 470.96 195.227Z" fill="#E0DFDF"/>
  <path d="M422.457 483.223C423.849 477.994 424.911 473.234 426.481 468.651C426.864 467.543 428.856 466.844 430.248 466.33C430.559 466.218 432.089 467.794 431.97 468.381C431.192 472.297 430.321 476.227 429.081 480.019C428.236 482.61 425.808 483.177 422.457 483.223Z" fill="#E0DFDF"/>
  <path d="M234.679 142.313C235.53 141.08 236.513 139.92 237.199 138.601C238.763 135.588 241.026 134.223 245.347 135.258C242.933 140.144 240.821 144.964 238.13 149.434C237.556 150.384 234.871 150.061 232.535 150.417C233.492 146.949 234.145 144.575 234.791 142.201C234.785 142.208 234.679 142.313 234.679 142.313Z" fill="#E0DFDF"/>
  <path d="M484.466 406.9C485.218 410.613 486.346 414.094 486.471 417.615C486.55 419.791 485.191 422.059 484.288 424.209C484.07 424.73 483.034 425.304 482.513 425.192C482.031 425.093 481.556 424.15 481.398 423.497C480.685 420.543 480.131 417.549 479.445 414.582C478.244 409.406 478.759 408.529 484.466 406.9Z" fill="#E0DFDF"/>
  <path d="M388.375 142.096C392.004 140.942 395.329 139.405 398.792 138.95C401.055 138.654 403.648 139.636 405.871 140.579C407.738 141.37 407.092 142.696 405.462 143.263C401.979 144.476 398.482 145.643 394.939 146.678C391.179 147.779 390.216 147.087 388.375 142.096Z" fill="#E0DFDF"/>
  <path d="M150.763 415.703C149.279 414.872 147.867 413.87 146.303 413.244C143.235 412.024 141.923 409.841 142.074 406.05C143.849 406.439 145.525 406.663 147.101 407.184C149.892 408.114 152.637 409.188 155.374 410.263C158.66 411.549 159.181 413.329 157.347 416.633C155.111 416.283 152.881 415.934 150.657 415.591C150.671 415.604 150.763 415.703 150.763 415.703Z" fill="#E0DFDF"/>
  <path d="M171.28 197.727C169.545 186.992 171.003 181.915 176.67 180.049C176.769 181.157 176.894 182.165 176.934 183.174C177.039 185.792 176.953 188.429 177.224 191.027C177.752 196.177 176.927 197.232 171.28 197.727Z" fill="#E0DFDF"/>
  <path d="M211.304 473.807C197.773 475.435 194.408 474.671 193.359 469.547C198.123 469.059 202.859 468.301 207.603 468.176C211.198 468.083 210.776 471.275 211.304 473.807Z" fill="#E0DFDF"/>
  <path d="M284.14 504.106C278.077 510.884 272.304 512.902 266.736 509.737C268.425 508.484 269.89 507.277 271.467 506.255C273.571 504.89 275.794 503.703 277.919 502.365C281.851 499.892 282.016 499.919 284.14 504.106Z" fill="#E0DFDF"/>
  <path d="M325.841 119.393C321.975 123.013 318.169 126.693 314.164 130.154C313.676 130.576 311.928 130.095 311.195 129.495C310.595 129.007 310.12 127.233 310.463 126.877C313.313 123.93 316.163 120.89 319.468 118.51C320.788 117.56 323.255 118.193 325.201 118.108C325.413 118.543 325.63 118.971 325.841 119.393Z" fill="#E0DFDF"/>
  <path d="M130.751 249.837C133.146 254.65 135.613 259.437 137.817 264.337C138.035 264.818 136.735 266.295 135.851 266.836C135.27 267.192 133.634 266.994 133.384 266.545C131.503 263.13 129.471 259.714 128.284 256.042C127.73 254.334 128.957 252.046 129.372 250.022C129.828 249.962 130.289 249.896 130.751 249.837Z" fill="#E0DFDF"/>
  <path d="M514.18 347.379C510.835 343.047 507.589 339.103 504.66 334.936C502.833 332.338 506.066 331.943 506.725 330.301C513.982 336.275 518.073 342.328 514.18 347.379Z" fill="#E0DFDF"/>
  <path d="M314.565 160.387C366.176 161.93 407.231 180.359 439.155 217.7C458.373 240.178 470.525 266.421 473.791 295.763C478.547 338.51 468.605 377.928 442.348 412.565C419.231 443.061 388.804 462.506 351.589 471.282C338.17 474.447 324.567 475.027 310.772 474.164C287.602 472.719 265.514 467.372 245.122 456.327C201.903 432.913 174.148 397.379 163.263 349.232C159.865 334.198 158.552 318.841 160.465 303.491C169.444 231.546 218.706 179.469 282.621 163.98C283.789 163.697 284.963 163.393 286.157 163.275C296.495 162.193 306.84 161.165 314.565 160.387ZM317.936 163.67C232.653 163.473 163.454 232.265 162.926 317.292C162.398 402.747 231.512 471.988 315.964 472.838C402.138 473.709 472.221 403.986 472.293 318.558C472.379 233.089 403.516 163.868 317.936 163.67Z" fill="#E0DFDF"/>
</svg>
