<svg xmlns="http://www.w3.org/2000/svg" xmlns:xlink="http://www.w3.org/1999/xlink" width="720" height="720" viewBox="0 0 720 720" fill="none">
  <mask id="maskMenu" mask-type="alpha" maskUnits="userSpaceOnUse" x="0" y="0" width="720" height="720">
    <path d="M0.0075043 347.38C0.487311 341.964 1.02708 336.554 1.44691 331.13C5.52527 278.09 20.8716 228.508 47.0435 182.243C66.888 147.17 92.0479 116.389 122.291 89.8611C167.475 50.2423 219.309 23.302 277.808 9.37055C300.141 4.05152 322.79 0.990644 345.753 0.225424C432.613 -2.6479 510.844 21.9292 579.696 74.9769C641.479 122.578 683.297 184.238 705.698 259.005C712.175 280.633 716.224 302.727 718.353 325.219C720.369 346.54 720.549 367.883 718.81 389.167C714.154 446.026 697.564 499.231 667.298 547.688C613.92 633.13 537.871 687.505 440.095 711.354C422.2 715.721 403.952 718.489 385.502 719.149C371.43 719.652 357.298 720.425 343.264 719.712C289.241 716.989 237.827 703.845 190.356 677.617C94.9942 624.937 34.606 545.234 8.90641 439.304C4.01838 419.168 1.38692 398.687 0.637225 377.966C0.592243 376.759 0.224909 375.558 0 374.35C0.00749698 365.363 0.0075043 356.368 0.0075043 347.38ZM113.369 562.722C127.531 562.722 141.176 562.722 154.805 562.722C154.805 576.586 154.805 590.142 154.805 604.104C153.373 604.104 152.159 604.104 150.937 604.104C140.201 604.104 129.473 604.014 118.737 604.209C117.23 604.239 114.951 605.349 114.486 606.534C114.014 607.735 114.869 610.128 115.948 611.178C135.575 630.301 156.972 647.144 180.842 660.707C182.019 661.375 183.683 661.195 185.123 661.413C184.86 659.957 184.913 658.337 184.276 657.061C181.344 651.165 178.181 645.381 175.189 639.506C174.312 637.781 173.675 635.928 176.396 634.998C178.615 634.24 180.595 633.557 181.959 636.468C183.653 640.069 185.603 643.55 187.507 647.046C189.539 650.767 190.806 650.767 193.092 647.069C202.441 631.922 211.7 616.722 221.168 601.651C223.065 598.627 222.45 597.202 219.549 595.506C204.772 586.856 191.128 576.646 178.323 565.28C162.669 551.386 149.025 535.714 136.46 519.022C134.743 516.741 131.789 514.701 129.045 514.018C119.292 511.58 109.343 509.959 99.5673 507.611C96.3511 506.838 95.3015 507.994 94.4544 510.582C92.0254 518.024 89.5364 525.444 87.0549 532.863C85.6529 537.057 84.6109 537.627 80.4576 536.397C73.6803 534.379 66.933 532.248 60.1258 530.335C58.8738 529.982 57.4043 530.425 56.0399 530.5C56.3023 531.843 56.2648 533.358 56.8796 534.514C70.2317 559.728 88.0595 581.635 107.267 602.506C108.519 603.864 110.34 604.696 111.9 605.769C112.387 603.834 113.272 601.906 113.294 599.97C113.429 587.629 113.369 575.28 113.369 562.722ZM636.613 239.679C642.491 241.915 648.196 243.963 653.789 246.274C656.683 247.466 658.324 247.114 659.456 243.94C661.923 237.046 664.727 230.271 667.276 223.407C669.143 218.381 670.784 217.068 676.002 216.978C679.998 216.91 680.575 216.032 678.626 212.574C669.517 196.437 660.311 180.345 651.24 164.177C649.68 161.402 648.301 161.214 645.715 163.075C627.107 176.458 608.417 189.715 589.72 202.971C587.553 204.509 586.893 205.829 588.438 208.463C595.417 220.384 602.12 232.462 609.024 244.428C609.759 245.703 611.169 246.589 612.263 247.654C613.163 246.416 614.347 245.291 614.917 243.91C618.688 234.87 622.331 225.778 626.117 216.445C633.727 219.363 641.104 222.199 648.481 225.027C654.921 227.503 654.958 227.593 651.495 233.542C651.39 233.715 651.112 233.79 650.88 233.933C645.077 232.162 639.237 230.459 633.457 228.576C631.253 227.863 629.993 228.313 629.064 230.504C625.15 239.784 621.027 248.974 617.226 258.299C616.484 260.122 616.266 262.576 616.799 264.451C621.387 280.581 626.185 296.643 631.028 312.698C631.328 313.68 632.392 314.821 633.322 315.091C633.907 315.256 635.166 314.07 635.691 313.223C637.535 310.267 639.087 307.139 640.946 304.19C643.488 300.161 644.867 299.884 649.216 302.172C647.221 307.244 645.257 312.337 643.211 317.401C642.146 320.02 642.918 321.243 645.744 321.092C646.614 321.047 647.469 320.875 648.331 320.755C665.454 318.384 682.562 315.916 699.708 313.695C707.085 312.743 707.175 312.878 706.133 305.541C701.927 275.922 693.028 247.654 681.378 220.204C680.958 219.206 679.803 218.523 678.986 217.698C678.109 218.606 676.894 219.371 676.422 220.451C674.975 223.745 673.836 227.173 672.546 230.534C669.188 239.304 665.806 248.067 662.283 257.234C652.424 253.386 642.918 249.672 633.15 245.853C634.552 243.355 635.511 241.652 636.613 239.679ZM573.256 593.443C569.823 580.022 566.516 567.073 563.203 554.132C562.168 550.103 561.194 549.766 557.985 552.376C551.71 557.493 545.532 562.737 539.175 567.741C526.947 577.366 514.652 586.916 502.297 596.376C500.011 598.124 499.711 599.73 501.21 602.033C502.5 604.014 503.617 606.099 504.809 608.14C512.126 620.721 519.42 633.31 526.805 645.853C527.442 646.933 528.672 647.661 529.624 648.546C530.411 647.534 531.453 646.633 531.925 645.501C533.207 642.41 534.257 639.221 535.389 636.063C536.701 632.394 538.005 628.733 539.317 625.072C544.378 626.963 545.48 628.988 543.898 633.512C541.304 640.894 538.433 648.171 535.906 655.576C535.247 657.504 535.427 659.71 535.217 661.788C537.128 661.173 539.22 660.872 540.929 659.897C565.122 646.108 586.316 628.418 606.258 609.145C608.957 606.534 610.029 603.083 609.377 599.572C607.667 590.42 605.576 581.342 603.604 572.242C603.049 569.669 601.542 569.234 599.556 570.794C597.501 572.415 595.582 574.2 593.596 575.911C586.916 581.665 580.236 587.426 573.256 593.443ZM678.919 415.124C684.894 409.67 690.449 404.666 695.899 399.557C696.799 398.71 697.241 397.374 697.901 396.264C696.776 395.694 695.712 394.831 694.527 394.606C689.279 393.616 684.002 392.798 678.731 391.95C668.678 390.33 658.632 388.657 648.563 387.149C643.915 386.451 642.926 387.336 644.26 391.913C645.422 395.911 647.551 399.648 649.373 403.436C652.319 409.558 651.922 411.689 646.292 415.612C641.396 419.018 636.186 421.974 631.38 425.5C628.861 427.353 625.93 429.634 624.895 432.364C620.12 445.013 615.981 457.902 611.521 470.67C610.704 473.004 611.161 474.346 613.433 475.434C617.691 477.482 621.904 479.628 626.005 481.961C636.756 488.068 647.596 488.968 659.187 484.054C665.754 481.271 672.831 479.651 679.728 477.685C686.513 475.749 691.566 471.736 694.153 465.231C696.072 460.415 696.776 455.118 698.763 450.34C702.234 441.997 698.951 436.07 693.148 430.406C688.252 425.635 683.799 420.406 678.919 415.124ZM606.108 552.541C608.365 560.824 610.471 568.573 612.578 576.323C613.845 580.99 614.767 585.791 616.521 590.27C617.316 592.31 619.73 593.721 621.417 595.416C622.579 594.013 623.861 592.693 624.865 591.185C626.035 589.445 626.785 587.411 628.029 585.731C636.388 574.403 644.74 563.074 653.279 551.881C657.665 546.127 658.947 540.065 656.15 533.351C652.957 525.669 649.943 517.881 646.247 510.447C639.282 496.44 628.869 486.32 613.028 482.839C607.592 481.646 605.043 482.674 602.397 487.745C593.948 503.905 583.984 519.074 572.559 533.283C569.53 537.042 568.151 541.273 569.35 546.157C571.562 555.197 573.706 564.26 575.895 573.315C576.907 577.516 577.949 577.861 581.211 574.943C589.375 567.628 597.509 560.276 606.108 552.541ZM231.162 109.952C231.866 116.471 232.099 116.614 237.797 114.513C239.431 113.913 241.073 113.35 242.7 112.743C259.2 106.531 275.701 100.342 292.172 94.0548C293.289 93.6272 294.106 92.4419 295.066 91.6092C294.181 90.6864 293.454 89.4785 292.382 88.9009C289.331 87.2504 286.13 85.8625 283.003 84.3546C271.6 78.848 260.198 73.3339 248.607 67.7298C249.447 66.5145 250.122 65.5017 250.834 64.5189C260.228 51.6302 269.644 38.7565 278.97 25.8228C279.667 24.855 279.69 23.4071 280.02 22.1842C278.753 21.9592 277.411 21.344 276.241 21.5766C259.283 24.99 242.73 29.7689 226.701 36.3333C206.452 44.6307 187.559 55.3738 169.709 67.9699C168.614 68.7426 167.985 70.183 167.138 71.3083C168.525 71.871 169.904 72.8913 171.306 72.9138C181.037 73.0563 190.776 72.9813 200.514 72.9963C201.699 72.9963 202.876 73.1013 204.502 73.1764C200.177 81.7363 196.023 89.9062 191.923 98.091C190.221 101.474 190.768 102.39 194.449 103.072C206.639 105.331 218.829 107.634 231.162 109.952ZM350.484 49.252C349.561 46.0261 349.202 42.9577 347.86 40.4145C343.122 31.3969 338.076 22.5443 333.083 13.6618C331.561 10.9535 329.027 10.1133 326.081 10.5634C315.885 12.1238 305.719 13.8868 295.501 15.2372C290.943 15.8374 288.499 18.2606 286.699 22.1992C284.54 26.9181 282.329 31.6895 279.502 36.0107C273.91 44.5481 267.942 52.838 261.997 61.1354C260.265 63.5586 260.018 65.3891 262.919 66.8595C278.303 74.6393 293.642 82.5165 309.145 90.0562C311.432 91.1665 314.558 91.1365 317.197 90.8139C322.115 90.2213 326.981 89.1334 331.809 87.9931C332.941 87.7305 334.223 86.6502 334.762 85.5999C338.796 77.7602 342.867 69.9279 346.488 61.8931C348.287 57.8795 349.179 53.4607 350.484 49.252ZM456.573 48.4718C447.255 51.045 438.536 53.3932 429.854 55.8614C423.924 57.5494 419.853 61.0154 418.594 67.4597C417.379 73.6715 415.752 79.8008 414.23 85.9525C413.526 88.7958 414.043 90.3713 417.259 91.4141C432.373 96.313 447.382 101.542 462.443 106.621C468.576 108.692 471.23 107.611 474.311 101.82C484.545 82.6066 494.763 63.3785 504.974 44.1505C507.028 40.2794 506.87 39.9043 502.545 38.4939C480.249 31.2093 457.945 23.9322 435.649 16.6476C433.797 16.0475 431.938 14.8621 430.514 17.4879C429.262 19.7985 429.967 21.3665 431.751 23.0245C438.228 29.0637 444.683 35.1329 450.981 41.3597C453.05 43.4153 454.617 45.9585 456.573 48.4718ZM138.537 115.721C136.25 117.312 134.263 118.969 132.029 120.185C125.927 123.508 119.689 126.577 113.617 129.953C112.799 130.403 112.042 132.218 112.282 133.126C113.969 139.398 119.629 142.151 125.732 139.825C127.584 139.12 129.368 138.213 131.175 137.38C136.925 134.732 142.622 131.956 148.44 129.473C150.832 128.452 153.471 128.242 154.708 131.408C156.02 134.754 153.381 135.437 151.177 136.284C143.41 139.255 135.628 142.189 127.853 145.152C124.15 146.562 123.843 147.898 126.669 150.659C134.976 158.761 143.35 166.788 151.626 174.921C153.508 176.774 154.925 176.909 156.979 175.056C169.956 163.367 183.001 151.761 196.106 140.208C198.13 138.423 198.572 136.997 197.05 134.551C184.868 115.023 172.783 95.4277 160.743 75.8096C159.071 73.0788 157.744 72.4561 155.015 74.8418C139.519 88.3757 123.88 101.745 108.286 115.173C106.839 116.419 105.385 117.567 106.809 119.847C108.189 122.045 109.793 121.963 111.9 121.078C118.085 118.482 124.36 116.119 130.507 113.448C133.281 112.24 135.53 112.428 138.537 115.721ZM496.082 649.507C503.115 650.737 509.697 651.96 516.317 652.988C517.659 653.198 519.121 652.658 520.53 652.47C520.238 651.097 520.268 649.544 519.615 648.381C511.489 633.97 503.152 619.686 495.145 605.207C493.391 602.033 491.727 601.665 488.668 602.986C475.908 608.5 463.081 613.849 450.291 619.296C446.497 620.909 444.758 624.022 445.725 628.028C450.958 649.627 456.303 671.203 461.566 692.794C462.264 695.652 463.523 696.358 466.364 695.127C485.961 686.635 505.604 678.247 525.261 669.898C527.195 669.072 528.402 668.21 528.049 665.816C527.697 663.416 526.438 662.531 524.159 662.11C514.532 660.355 504.936 658.434 494.898 656.484C495.265 654.233 495.633 652.095 496.082 649.507ZM79.0706 342.286C79.0781 342.219 79.0856 342.151 79.0856 342.084C80.3301 342.151 81.702 342.571 82.7891 342.181C84.0336 341.738 85.8104 340.733 86.0128 339.705C89.2215 323.748 92.2878 307.769 95.2116 291.759C96.0812 286.98 94.4994 284.482 89.9412 282.802C69.332 275.194 48.6854 267.692 28.0837 260.085C25.3098 259.057 23.9303 259.747 23.2706 262.643C20.7816 273.536 18.3526 284.452 15.5487 295.263C14.6491 298.721 15.6612 299.966 18.8324 300.146C21.8387 300.319 23.2556 301.744 23.9678 304.79C25.7821 312.525 28.3986 320.087 29.9579 327.867C31.3224 334.686 33.8413 339.368 41.7281 338.805C42.8227 338.73 43.9473 339.045 45.0568 339.21C49.585 339.878 50.2597 339.143 48.7678 334.844C45.8065 326.284 42.7852 317.739 39.7415 309.209C39.1192 307.469 38.6094 305.953 40.746 304.775C43.4075 303.305 44.7495 304.205 45.829 306.831C49.645 316.149 53.6184 325.399 57.4943 334.686C58.9712 338.227 60.9279 340.823 65.3212 340.951C69.9168 341.093 74.4899 341.821 79.0706 342.286ZM99.5748 359.541C99.4699 499.059 209.046 620.789 361.302 622.004C432.793 622.574 494.928 595.694 545.36 544.762C601.535 488.03 626.56 418.831 620.727 339.278C611.618 214.967 506.496 101.212 361.886 100.334C216.887 99.4639 100.789 216.1 99.5748 359.541ZM577.927 100.867C578.234 105.916 578.422 110.522 578.841 115.106C578.954 116.306 579.771 117.439 580.266 118.609C581.3 118.062 582.582 117.732 583.332 116.921C587.478 112.435 591.481 107.806 595.567 103.26C597.127 101.527 596.714 100.274 594.967 98.9538C578.677 86.6277 562.401 74.2867 546.17 61.8931C543.643 59.9651 542.279 60.8053 540.944 63.251C538.2 68.2775 535.239 73.1764 532.495 78.2028C525.171 91.6317 517.861 105.068 510.664 118.564C507.313 124.844 508.145 129.638 513.228 133.434C523.101 140.816 533.11 148.018 543.013 155.355C544.88 156.743 546.192 156.645 547.804 154.912C551.463 150.989 555.301 147.23 559.064 143.412C567.011 135.354 571.434 125.834 571.539 114.356C571.577 109.907 572.147 105.458 572.477 100.867C574.343 100.867 576.038 100.867 577.927 100.867ZM690.734 343.344C686.183 343.194 685.321 341.146 686.423 337.425C687.48 333.869 688.057 330.163 688.83 326.524C689.572 323.028 688.86 322.105 685.388 322.563C668.753 324.784 652.132 327.117 635.489 329.315C633.097 329.63 632.73 330.95 632.827 332.923C633.427 345.505 633.854 358.101 634.634 370.674C635.031 377.111 635.309 377.111 641.591 378.401C643.173 378.724 644.785 378.852 646.382 379.114C664.165 382.01 681.932 385.003 699.73 387.772C708.202 389.084 708.404 388.904 709.401 380.142C711.59 360.794 710.316 341.573 706.665 322.495C706.425 321.243 705.211 320.177 704.453 319.022C703.539 319.937 702.339 320.695 701.762 321.783C698.013 328.947 694.392 336.172 690.734 343.344ZM578.886 163.51C572.821 165.1 572.034 164.763 571.232 159.271C570.64 155.212 570.67 151.071 570.212 146.99C570.107 146.075 569.283 144.904 568.466 144.522C567.948 144.282 566.636 145.1 566.052 145.767C561.793 150.659 557.685 155.685 553.412 160.561C551.852 162.339 551.995 163.772 553.457 165.438C562.408 175.671 571.367 185.904 580.243 196.204C581.923 198.147 583.34 198.14 585.304 196.692C589.922 193.301 594.653 190.067 599.338 186.766C613.395 176.879 627.414 166.938 641.546 157.155C644.133 155.37 644.642 153.93 642.363 151.604C640.617 149.826 639.087 147.838 637.46 145.947C627.384 134.214 617.279 122.503 607.247 110.725C605.696 108.909 604.286 108.384 602.157 109.772C594.533 114.723 587.838 120.597 583.302 128.602C577.11 139.548 576.12 151.206 578.886 163.51ZM406.966 653.273C408.75 651.847 409.785 651.135 410.692 650.294C417.634 643.828 424.599 637.383 431.421 630.804C432.298 629.964 432.426 628.351 432.905 627.09C431.661 626.835 430.364 626.235 429.172 626.393C425.116 626.933 421.098 627.796 417.057 628.433C404.537 630.399 392.017 632.387 379.474 634.18C376.768 634.562 375.996 635.665 375.921 638.276C375.516 652.748 374.946 667.212 374.422 681.683C374.144 689.171 373.949 696.658 373.499 704.13C373.177 709.494 373.342 710.057 378.815 709.772C387.639 709.314 396.59 709.291 405.234 707.693C419.741 705.008 434.052 701.272 448.409 697.843C449.346 697.618 450.013 696.26 450.801 695.435C449.863 694.76 449.016 693.747 447.982 693.477C442.809 692.149 437.591 691.039 432.388 689.823C427.41 688.66 422.44 687.46 417.177 686.215C422.432 678.96 427.32 672.201 432.231 665.456C435.432 661.06 435.214 660.437 430.116 659.162C422.799 657.316 415.505 655.441 406.966 653.273ZM58.5439 488.496C68.3649 490.971 77.7736 493.229 87.1149 495.758C90.4285 496.658 91.9954 495.975 92.9775 492.509C95.2416 484.519 97.6631 476.62 102.206 469.418C103.961 466.634 104.59 462.366 104.021 459.065C103.068 453.513 100.385 448.276 99.11 442.755C98.1279 438.501 95.8788 438.314 92.4152 438.996C80.8324 441.277 69.2196 443.415 57.6217 445.598C46.8711 447.616 36.1204 449.612 25.3697 451.637C21.5913 452.35 21.119 453.13 22.4759 456.634C29.9654 475.982 37.4624 495.337 45.0418 514.648C45.4767 515.751 46.6687 517.244 47.5833 517.304C48.8353 517.379 50.3947 516.494 51.3918 515.563C52.089 514.911 52.104 513.5 52.3814 512.42C54.3981 504.618 56.4072 496.815 58.5439 488.496ZM362.801 47.459C363.139 49.3945 363.071 50.88 363.648 52.0428C368.746 62.3958 373.904 72.7112 379.16 82.9817C380.884 86.3576 383.898 87.7755 387.669 88.1582C392.579 88.6608 397.535 89.231 402.31 90.4088C405.197 91.1215 406.239 90.8064 406.928 87.8131C412.214 64.7064 417.657 41.6298 423.024 18.5382C423.534 16.34 423.264 14.8396 420.303 14.487C407.723 12.9866 395.173 11.1486 382.586 9.68564C381.484 9.5581 379.632 10.916 379.04 12.0638C374.406 21.0064 369.901 30.024 365.575 39.1241C364.263 41.8849 363.611 44.9608 362.801 47.459ZM108.496 169.136C108.496 176.676 108.699 183.968 108.459 191.245C107.911 207.487 107.867 207.562 121.983 215.695C122.411 215.942 122.883 216.422 123.28 216.37C124.66 216.197 126.661 216.317 127.284 215.477C133.851 206.565 140.268 197.54 146.498 188.387C147.181 187.389 147.016 184.868 146.221 183.961C130.597 166.166 114.809 148.513 99.08 130.808C97.2133 128.707 95.7064 128.707 94.0121 131.033C83.8312 145.017 73.6278 158.986 63.3494 172.902C61.6926 175.146 62.1049 176.526 64.1891 178.146C71.7835 184.006 79.6553 184.613 88.1644 179.969C95.0017 176.233 101.914 172.64 108.496 169.136ZM110.475 246.469C111.143 245.711 112.102 244.983 112.597 244.015C115.303 238.704 117.815 233.295 120.566 228.013C121.848 225.553 121.091 224.277 118.94 222.859C99.4024 209.986 79.9103 197.044 60.4631 184.028C57.9666 182.355 56.6172 182.58 55.3427 185.386C46.3088 205.304 37.2 225.185 28.0911 245.073C27.334 246.731 26.5843 248.277 28.6385 249.612C30.5352 250.85 32.102 250.925 33.9688 249.274C41.2484 242.83 48.7603 236.633 55.9649 230.106C57.8767 228.381 59.3836 228.283 61.5802 229.079C76.5141 234.488 91.4781 239.807 106.435 245.148C107.612 245.561 108.796 245.921 110.475 246.469ZM328.053 672.628C328.045 672.628 328.038 672.628 328.038 672.628C328.038 661.893 328.075 651.157 328.023 640.422C327.993 634.3 326.058 632.132 320.121 631.374C315.435 630.774 310.712 630.406 306.049 629.671C303.852 629.326 302.795 630.024 302.166 632.012C295.643 652.725 289.046 673.409 282.613 694.152C281.077 699.118 283.603 702.599 288.724 703.387C300.389 705.18 312.084 706.831 323.704 708.886C327.273 709.516 328.128 708.534 328.098 705.21C327.978 694.355 328.053 683.491 328.053 672.628ZM10.1659 365.738C10.1659 372.227 10.1359 378.709 10.1734 385.198C10.2034 389.542 10.8106 390.09 14.994 389.272C36.6677 385.056 58.3415 380.817 80.0002 376.526C83.6213 375.806 86.5901 373.383 86.695 369.887C86.83 365.175 86.0728 360.291 84.8058 355.737C83.8312 352.256 80.7049 350.253 76.8665 349.833C72.1734 349.316 67.4953 348.693 62.8022 348.138C46.7512 346.24 30.6926 344.447 14.6641 342.406C11.268 341.971 10.0909 342.999 10.1434 346.285C10.2333 352.759 10.1659 359.248 10.1659 365.738ZM251.576 616.13C251.801 615.89 252.033 615.65 252.258 615.409C250.519 613.511 249.11 611.028 246.98 609.828C242.565 607.345 237.692 605.694 233.163 603.383C230.495 602.018 229.198 602.813 227.773 605.124C215.913 624.39 203.963 643.595 192.035 662.823C189.898 666.274 190.063 666.874 193.819 668.667C204.353 673.694 214.893 678.705 225.434 683.717C229.625 685.705 230.09 685.51 231.462 681.151C237.647 661.525 243.839 641.892 249.994 622.251C250.624 620.248 251.051 618.17 251.576 616.13ZM366.917 634.187C356.976 634.187 347.275 634.187 337.574 634.187C335.115 634.187 334.86 635.853 334.86 637.758C334.867 653.978 334.845 670.19 334.927 686.41C334.935 687.513 335.737 688.608 336.172 689.703C337.349 689.216 338.758 688.998 339.673 688.203C347.747 681.143 354.067 681.293 361.917 688.758C363.004 689.793 364.496 690.409 365.8 691.219C366.317 689.673 367.269 688.128 367.277 686.582C367.382 670.618 367.337 654.646 367.307 638.681C367.314 637.338 367.089 636.003 366.917 634.187ZM266.802 668.202C277.358 668.195 285.23 663.228 287.546 655.396C289.578 648.509 291.407 641.569 293.199 634.615C294.316 630.279 292.007 626.047 287.696 624.652C279.802 622.094 271.833 619.768 263.939 617.225C261.082 616.302 259.965 617.428 259.125 620.038C256.884 627 254.627 633.962 251.951 640.767C250.347 644.855 248.712 649.042 251.029 652.935C254.41 658.614 257.341 664.946 263.991 667.812C265.086 668.27 266.428 668.157 266.802 668.202ZM60.3281 237.646C58.9562 238.471 57.0745 239.207 55.71 240.489C51.2718 244.668 46.9836 249.012 42.7028 253.356C40.0788 256.026 40.3937 257.279 43.9922 258.577C61.0104 264.706 78.0585 270.761 95.0466 276.972C97.6331 277.918 98.9076 277.415 99.8447 274.857C101.929 269.148 104.073 263.453 106.442 257.864C107.657 254.999 106.659 253.873 104.036 252.943C91.0808 248.337 78.171 243.595 65.2312 238.936C63.8443 238.426 62.3673 238.171 60.3281 237.646ZM46.3613 415.86C45.4017 414.104 44.9219 411.831 43.5424 410.916C34.831 405.147 25.9695 399.595 17.0106 394.216C15.9761 393.593 13.7944 394.081 12.5949 394.801C11.7852 395.289 11.2679 397.172 11.4554 398.29C13.9743 413.241 16.6058 428.178 19.3197 443.1C19.5296 444.24 20.5642 446.086 21.2539 446.108C22.9257 446.146 25.2873 445.853 26.2094 444.728C32.1545 437.526 37.8822 430.136 43.4599 422.642C44.8019 420.849 45.2967 418.425 46.3613 415.86ZM95.1516 431.374C94.3794 427.015 93.6072 422.739 92.865 418.463C90.8409 406.85 88.8616 395.236 86.755 383.638C86.59 382.708 85.7804 381.567 84.9632 381.2C84.3935 380.945 82.969 381.59 82.4967 382.25C76.3942 390.72 70.2991 399.19 64.4215 407.817C62.5773 410.526 63.297 414.997 65.801 416.677C74.3625 422.417 83.044 427.983 91.778 433.467C93.8021 434.72 95.0616 433.64 95.1516 431.374ZM134.061 597.764C137.674 597.764 141.295 597.659 144.909 597.802C147.398 597.899 148.23 596.767 148.223 594.463C148.178 587.224 148.193 579.984 148.208 572.752C148.215 570.449 147.158 569.301 144.812 569.309C137.202 569.331 129.6 569.331 121.991 569.301C119.667 569.294 118.445 570.329 118.572 572.677C118.962 580.149 119.457 587.614 119.772 595.086C119.862 597.299 120.934 597.824 122.853 597.787C126.579 597.719 130.32 597.764 134.061 597.764ZM507.815 103.328C507.47 94.9851 503.519 86.4627 500.386 77.7452C499.441 75.1194 497.642 75.7496 496.442 78.0002C490.715 88.7283 485.017 99.4714 479.222 110.169C478.06 112.315 478.487 113.545 480.639 114.603C485.871 117.176 490.969 120.02 496.285 122.398C497.432 122.908 499.771 122.451 500.671 121.55C505.319 116.899 507.77 111.167 507.815 103.328ZM506.061 66.4169C506.038 75.0219 509.719 82.2765 514.495 89.0659C516.122 91.3766 517.674 91.039 519.166 88.2482C524.271 78.7355 529.302 69.1852 534.459 59.7025C535.651 57.5044 535.546 56.1315 533.132 54.9686C527.547 52.2679 522.022 49.4471 516.512 46.5962C514.487 45.5459 513.01 45.816 511.818 47.8191C508.407 53.5582 505.993 59.605 506.061 66.4169ZM87.2348 507.596C86.2527 506.223 85.4356 503.762 84.0786 503.425C78.4634 502.007 72.6982 501.092 66.948 500.326C65.9059 500.191 63.9942 501.377 63.6043 502.382C61.6401 507.453 59.9383 512.637 58.4389 517.866C58.184 518.752 59.0837 520.702 59.9158 521.04C65.8609 523.508 71.896 525.766 77.9761 527.874C78.8382 528.174 80.8399 527.559 81.0573 526.937C83.2014 520.74 85.0832 514.461 87.2348 507.596ZM365.23 711.414C365.283 711.595 365.335 711.782 365.388 711.962C366.685 711.452 368.064 711.077 369.219 710.342C369.511 710.154 369.368 708.571 368.934 708.069C364.66 703.2 360.455 698.241 355.844 693.702C353.565 691.459 350.401 690.559 347.342 692.839C342.049 696.785 336.757 700.731 331.569 704.813C330.759 705.45 330.504 706.786 329.994 707.798C331.051 708.309 332.086 709.194 333.173 709.276C343.849 710.057 354.54 710.717 365.23 711.414ZM363.716 8.52281C357.493 8.99544 351.541 9.48308 345.588 9.8882C342.484 10.0983 342.064 11.5762 343.339 14.0969C346.825 20.9539 350.236 27.8483 353.775 34.6828C355.214 37.4736 356.766 37.5861 358.325 34.9829C362.336 28.2685 366.28 21.5015 370.103 14.6746C371.82 11.6062 369.908 8.58282 366.452 8.53031C365.448 8.5078 364.451 8.52281 363.716 8.52281ZM357.418 86.9953C361.144 86.9953 364.878 87.1079 368.604 86.9578C371.693 86.8378 372.42 85.5024 370.815 82.8616C366.632 75.9747 362.381 69.1327 358.026 62.3508C356.541 60.0326 354.832 60.1976 353.595 62.7034C350.304 69.3653 347.087 76.0647 343.924 82.7941C342.529 85.75 343.249 86.8753 346.6 86.9728C350.206 87.0778 353.812 87.0028 357.418 86.9953ZM121.428 504.048C125.117 504.13 125.874 503.132 124.405 500.334C119.952 491.879 115.423 483.469 110.835 475.089C110.423 474.339 109.238 473.311 108.721 473.469C107.837 473.731 106.809 474.692 106.51 475.577C104.148 482.749 101.839 489.951 99.8223 497.221C99.5524 498.188 100.842 500.551 101.711 500.732C108.399 502.082 115.154 503.042 121.428 504.048ZM196.226 111.055C195.769 111.212 194.374 111.265 193.932 111.94C193.504 112.6 193.767 114.056 194.232 114.888C197.26 120.305 200.499 125.601 203.513 131.025C204.705 133.171 206.069 133.494 208.049 132.263C214.361 128.325 220.711 124.439 226.963 120.402C227.728 119.907 228.5 118.482 228.313 117.732C228.118 116.966 226.806 116.126 225.869 115.961C216.228 114.296 206.549 112.743 196.226 111.055ZM274.389 698.241C273.865 697.07 273.707 696.59 273.452 696.178C271.016 692.141 268.931 687.813 265.978 684.197C264.343 682.194 261.39 680.611 258.803 680.176C251.156 678.885 244.214 682.209 237.287 684.782C235.06 685.615 235.465 687.685 237.789 688.465C248.832 692.164 259.89 695.802 270.993 699.306C271.878 699.584 273.145 698.661 274.389 698.241ZM52.089 407.255C53.9182 406.182 56.6771 405.379 58.1315 403.541C61.3327 399.482 64.0242 394.996 66.6181 390.502C67.8776 388.319 66.6181 386.759 64.1516 387.224C55.4027 388.874 46.6762 390.615 37.9497 392.393C35.5656 392.881 35.0933 394.629 36.6377 396.204C39.8389 399.467 43.25 402.543 46.7886 405.432C47.9506 406.384 49.7799 406.497 52.089 407.255ZM74.5799 434.067C73.9726 432.95 73.7927 432.117 73.2754 431.727C69.302 428.771 65.4636 425.537 61.1828 423.114C57.4568 421.006 53.3785 421.914 50.7171 425.29C47.6583 429.168 45.0718 433.445 42.5753 437.721C41.3608 439.799 42.7178 441.284 45.2667 440.812C54.1731 439.169 63.0646 437.466 71.941 435.688C72.8481 435.523 73.6203 434.683 74.5799 434.067ZM684.736 483.837C675.2 486.447 666.601 488.773 658.032 491.204C657.365 491.391 656.33 492.539 656.458 492.854C656.833 493.785 657.522 494.827 658.384 495.277C664.314 498.368 670.275 501.414 676.347 504.213C677.269 504.64 679.638 504.07 679.923 503.372C682.157 498.001 684.144 492.524 685.951 486.988C686.221 486.14 685.156 484.857 684.736 483.837ZM652.987 502.48C652.777 503.867 652.042 505.375 652.469 506.388C655.603 513.823 658.917 521.182 662.298 528.512C663.55 531.22 665.357 531.258 666.849 528.625C669.3 524.303 671.661 519.93 673.836 515.466C674.233 514.641 673.918 512.607 673.318 512.292C667.171 509.044 660.888 506.036 654.651 502.975C654.426 502.862 654.171 502.825 652.987 502.48ZM451.94 683.784C450.336 676.364 449.076 669.935 447.517 663.573C446.955 661.27 445.14 660.963 443.686 662.868C439.773 667.992 436.002 673.221 432.231 678.458C430.941 680.251 431.736 681.691 433.618 682.141C438.663 683.364 443.738 684.474 448.859 685.322C449.826 685.495 451.026 684.272 451.94 683.784ZM708.427 401.861C708.329 401.651 708.157 400.555 707.512 400.03C707.01 399.625 705.645 399.573 705.158 399.97C700.247 403.961 695.382 408.005 690.636 412.191C689.152 413.504 689.714 415.447 691.536 415.387C694.227 415.297 694.805 417.038 695.787 418.673C697.121 420.909 698.366 423.197 699.828 425.342C700.39 426.16 701.455 426.64 702.287 427.278C702.961 426.355 704.048 425.522 704.251 424.51C705.698 417.233 706.965 409.918 708.427 401.861ZM629.004 414.337C629.221 414.802 629.454 416.235 630.278 416.76C630.893 417.15 632.392 416.58 633.262 416.055C644.98 408.988 645.977 401.643 636.576 391.965C636.486 391.875 636.411 391.763 636.306 391.703C635.376 391.208 634.319 390.217 633.532 390.39C632.85 390.547 632.145 391.98 632.003 392.933C630.968 399.813 630.061 406.692 629.004 414.337ZM17.5129 334.026C18.63 334.026 19.762 333.959 20.8716 334.041C23.563 334.244 24.5901 333.043 23.9303 330.463C22.281 323.981 20.6692 317.499 18.8549 311.062C18.585 310.087 17.4829 308.977 16.5308 308.684C15.7286 308.436 14.2742 309.029 13.682 309.734C13.0372 310.499 12.9473 311.812 12.8123 312.908C12.0926 318.699 11.5078 324.513 10.7207 330.298C10.3758 332.826 11.043 334.169 13.7794 334.049C15.0239 333.981 16.2684 334.026 17.5129 334.026ZM424.621 39.7543C424.621 42.1249 424.704 44.4956 424.599 46.8588C424.471 49.7621 425.963 50.3998 428.362 49.6196C432.493 48.2767 436.579 46.8138 440.68 45.3959C442.996 44.5932 443.394 43.1152 441.572 41.5773C437.194 37.8862 432.748 34.2627 428.152 30.8567C426.45 29.5964 424.719 29.994 424.636 32.6497C424.576 35.0129 424.629 37.3836 424.621 39.7543ZM102.814 189.85C102.821 189.85 102.821 189.85 102.828 189.85C102.828 187.359 102.896 184.876 102.806 182.393C102.724 180.217 101.764 179.009 99.4549 180.172C95.2491 182.288 91.0358 184.396 86.9124 186.661C84.8583 187.787 84.8283 189.355 86.77 190.728C90.7209 193.511 94.6718 196.309 98.7202 198.965C101.367 200.705 102.626 200.045 102.791 196.947C102.911 194.584 102.814 192.213 102.814 189.85ZM444.308 650.234C443.319 645.883 442.382 641.509 441.317 637.173C440.725 634.772 439.225 634.487 437.486 636.07C433.618 639.604 429.809 643.197 426.016 646.813C424.029 648.711 424.629 650.294 427.088 650.79C431.713 651.727 436.399 652.35 441.062 653.07C443.191 653.4 444.511 652.718 444.308 650.234ZM182.574 79.0581C179.965 79.0581 177.348 78.9755 174.747 79.0806C172.4 79.1781 171.456 80.4685 172.903 82.479C175.879 86.6052 179.013 90.6189 182.177 94.6025C183.601 96.3955 185.235 96.2905 186.315 94.2349C188.332 90.3938 190.258 86.5077 192.08 82.5691C193.145 80.2659 192.267 79.0055 189.658 79.043C187.304 79.0956 184.943 79.0656 182.574 79.0581Z" fill="#414245"/>
    <path d="M360.462 102.962C421.338 103.825 475.893 122.738 523.394 161.014C569.613 198.254 599.331 246.118 613.043 303.84C616.027 316.406 618.396 329.129 618.081 342.228C617.736 356.557 618.831 370.976 617.601 385.208C614.812 417.602 605.898 448.481 590.814 477.327C555.458 544.951 501.18 589.657 427.755 610.738C407.078 616.672 385.869 620.01 364.376 619.665C302.503 618.652 246.478 600.49 198.093 561.028C152.886 524.155 123.198 477.342 109.096 420.701C102.349 393.61 99.6724 366.01 102.859 338.334C108.669 287.92 125.859 241.797 157.819 201.758C194.547 155.747 241.305 125.198 298.237 110.231C313.051 106.323 340.79 103.052 360.462 102.962ZM617.151 362.334C618.111 221.728 504.232 105.438 363.341 104.56C219.841 103.667 106.082 216.935 104.156 356.895C102.214 498.078 213.626 618.082 361.947 617.46C505.536 616.859 617.226 500.644 617.151 362.334Z" fill="#414245"/>
    <path d="M544.26 354.898C543.57 412.155 524.611 459.411 483.715 497.109C457.018 521.724 425.471 536.638 389.77 542.797C373.547 545.595 357.248 544.935 340.987 543.09C308.96 539.466 279.632 528.476 253.535 509.593C213.629 480.717 188.978 441.901 179.637 393.437C176.548 377.412 175.484 361.238 177.433 345.055C181.204 313.726 191.07 284.483 208.95 258.255C236.659 217.594 274.669 191.696 322.612 181.283C342.232 177.022 362.399 176.775 382.528 179.288C415.717 183.429 445.862 195.102 472.334 215.538C510.636 245.104 534.274 283.755 542.236 331.649C543.615 339.969 543.728 348.499 544.26 354.898ZM360.397 180.128C346.43 179.805 332.665 181.441 319.238 184.622C276.528 194.735 242.125 217.879 215.66 252.801C195.673 279.179 184.578 309.308 180.027 341.822C177.688 358.559 178.835 375.394 181.931 392.079C190.508 438.315 213.449 475.878 250.589 504.454C275.778 523.839 304.387 535.58 335.987 540.186C354.894 542.94 373.674 543.45 392.431 539.811C434.175 531.724 469.523 512.121 497.194 479.682C533.33 437.332 547.154 388.035 539.882 333.089C535.421 299.42 521.162 269.651 498.964 244.084C462.468 202.027 415.822 181.336 360.397 180.128Z" fill="#414245"/>
    <path d="M358.463 576.797C362.114 580.608 365.562 584.659 369.491 588.163C372.527 590.871 376.17 592.896 379.544 595.222C376.38 599.528 374.011 599.873 369.97 596.662C365.412 593.031 360.794 589.468 356.648 586.227C355.284 588.005 354.272 590.248 352.54 591.418C343.686 597.398 334.847 603.685 323.999 605.463C310.122 607.728 296.98 605.868 285.397 597.105C284.827 596.67 284.093 596.46 283.695 595.8C287.976 593.939 291.485 595.2 295.173 596.43C300.309 598.14 305.564 600.174 310.872 600.526C323.669 601.366 334.382 595.455 344.586 588.47C347.442 586.52 350.478 584.839 353.627 582.918C348.919 578.89 343.499 574.239 338.071 569.595C338.498 569.01 338.933 568.424 339.36 567.839C340.807 566.804 342.262 565.769 344.046 564.493C347.997 568.079 351.91 571.68 355.876 575.206C356.663 575.911 357.675 576.362 358.583 576.932C358.59 576.917 358.463 576.797 358.463 576.797Z" fill="#414245"/>
    <path d="M358.461 576.798L358.588 576.918C356.092 572.432 356.272 571.577 360.373 568.719C374.347 558.988 389.918 557.18 406.307 559.438C406.914 559.521 407.551 559.641 408.098 559.904C414.891 563.144 421.675 566.415 429.427 570.136C426.653 573.302 424.412 576.371 421.638 578.846C419.794 580.497 413.534 576.641 414.006 574.068C414.808 569.686 412.072 568.028 409.013 566.948C399.642 563.625 390.046 562.439 380.727 566.821C375.367 569.341 370.366 572.687 365.358 575.898C363.072 577.369 360.987 578.216 358.461 576.798Z" fill="#414245"/>
    <path d="M560.76 269.81C563.406 271.385 565.633 272.345 567.364 273.868C568.834 275.159 570.783 277.199 570.641 278.73C570.363 281.723 569.111 284.461 564.838 284.716C563.166 284.814 560.79 287.642 560.242 289.638C557.566 299.413 557.633 309.248 562.911 318.206C565.918 323.307 569.966 327.801 573.557 332.565C573.932 333.06 574.442 333.45 574.824 333.938C576.578 336.204 576.286 338.387 574.284 340.255C572.23 342.168 570.326 341.628 568.444 339.722C559.403 330.54 555.384 319.174 553.375 306.72C551.928 297.785 552.88 289.488 556.996 281.37C558.713 278.017 559.395 274.146 560.76 269.81Z" fill="#414245"/>
    <path d="M161 371.899C161.375 381.614 159.223 391.42 151.981 399.747C150.317 401.66 149.402 404.241 148.233 406.567C146.996 409.042 145.549 409.695 143.449 407.459C142.43 406.372 141.193 405.479 140.241 404.338C138.974 402.816 136.68 401.578 138.262 398.982C139.828 396.424 141.155 393.715 145.114 394.691C148.36 395.486 150.017 392.86 151.029 390.572C155.085 381.419 157.476 371.899 153.773 362.071C151.771 356.767 148.817 351.838 146.418 346.677C145.669 345.064 144.664 343.098 145.024 341.59C145.324 340.315 147.348 338.77 148.742 338.62C150.032 338.485 152.004 339.707 152.806 340.908C158.856 349.97 161.292 360.113 161 371.899Z" fill="#414245"/>
    <path d="M561.51 364.492C560.97 367.2 561.022 370.231 559.785 372.571C552.858 385.715 549.357 399.872 546.711 414.336C544.521 426.272 545.541 438.2 547.04 450.039C547.55 454.067 546.388 455.748 542.437 457.151C539.476 444.742 540.323 432.304 540.968 420.083C542.047 399.504 547.19 379.916 558.923 362.354C559.973 363.224 560.812 363.921 561.645 364.612L561.51 364.492Z" fill="#414245"/>
    <path d="M341.415 161.665C344.549 160.075 347.503 160.585 350.667 161.913C362.235 166.782 374.485 168.5 386.885 169.903C401.391 171.538 415.411 169.355 429.318 165.904C433.276 164.921 434.61 166.819 436.492 170.375C431.139 171.418 426.266 172.761 421.318 173.249C410.433 174.314 399.487 175.739 388.594 175.552C372.873 175.282 357.459 172.536 343.17 165.319C341.378 164.411 340.261 163.586 341.543 161.53L341.415 161.665Z" fill="#414245"/>
    <path d="M246.045 531.438C262.111 530.8 277.54 532.248 292.631 535.872C309.035 539.81 324.486 546.15 337.546 557.801C334.779 560.891 332.095 560.839 329.171 558.761C313.683 547.755 296.26 541.311 277.727 538.19C269.323 536.772 260.582 537.102 251.998 537.102C248.189 537.095 247.08 535.196 246.045 531.438Z" fill="#414245"/>
    <path d="M201.162 231.827C198.073 265.092 190.726 295.971 166.66 320.645C163.917 316.857 163.954 314.718 166.81 311.38C178.761 297.403 186.452 281.146 191.123 263.584C193.372 255.136 193.897 246.186 194.677 237.416C195.022 233.5 196.888 232.33 201.162 231.827Z" fill="#414245"/>
    <path d="M448.238 560.99C439.819 557.779 440.869 557.959 445.224 551.762C452.129 541.935 460.563 533.937 471.022 527.816C480.025 522.542 489.074 520.621 499.18 523.562C501.699 524.297 504.51 524.027 507.592 524.252C506.677 526.863 505.733 529.849 504.578 532.752C503.671 535.025 501.774 535.543 499.398 535.505C496.991 535.475 497.163 533.667 496.196 532.384C494.892 530.659 492.38 529.038 490.266 528.858C480.663 528.026 472.498 531.882 465.376 537.974C459.184 543.27 453.779 549.272 450.607 556.984C450.053 558.349 449.108 559.55 448.238 560.99Z" fill="#414245"/>
    <path d="M487.844 520.186C498.145 491.475 513.686 466.673 538.306 447.82C540.922 452.997 540.577 454.257 536.889 457.326C519.578 471.752 506.106 489.022 498.062 510.261C497.312 512.234 496.383 514.132 495.633 516.105C494.306 519.593 492.11 521.446 487.844 520.186Z" fill="#414245"/>
    <path d="M549.948 252.029C549.071 254.572 548.322 256.732 547.459 259.231C538.568 255.299 530.591 250.626 524.204 244.024C518.716 238.352 514.038 231.81 509.577 225.261C506.601 220.887 505.806 215.756 506.713 210.234C507.388 206.145 506.848 201.854 506.848 197.053C509.825 197.803 513.206 198.171 516.07 199.581C517.464 200.264 518.176 202.844 518.611 204.697C518.761 205.335 517.292 206.723 516.295 207.188C513.528 208.471 512.988 210.842 513.063 213.37C513.296 221.442 516.677 228.322 521.902 234.226C528.26 241.413 535.899 246.882 545.105 249.973C546.612 250.491 548.044 251.218 549.948 252.029Z" fill="#414245"/>
    <path d="M328.392 586.482C325.506 582.828 323.947 579.498 324.314 575.101C324.494 572.971 323.249 570.217 321.765 568.529C312.041 557.464 293.464 554.65 279.107 561.792C275.036 563.818 272.592 563.12 272.03 559.542C271.888 558.657 272.697 556.909 273.41 556.706C286.199 552.94 299.087 550.667 312.236 555.131C320.393 557.899 326.188 563.45 331.099 570.292C333.033 572.986 335.507 575.341 337.966 577.6C339.743 579.227 339.375 580.368 337.644 581.381C334.66 583.121 331.586 584.727 328.392 586.482Z" fill="#414245"/>
    <path d="M565.338 428.995C559.078 414.164 554.662 399.332 560.622 383.69C562.466 378.858 566.162 374.657 569.371 370.449C572.22 366.713 575.699 363.464 578.667 359.811C580.294 357.807 581.501 358.618 582.543 360.006C584.545 362.676 586.337 365.512 588.271 368.363C585.347 371.671 582.438 374.065 577.918 373.659C573.809 373.292 571.658 376.338 569.656 379.189C561.267 391.147 560.96 408.049 568.779 420.45C571.875 425.357 571.358 426.85 565.338 428.995Z" fill="#414245"/>
    <path d="M333.834 142.43C336.825 139.707 339.899 136.901 343.093 133.99C346.421 136.353 349.143 138.717 349.3 142.918C349.458 147.217 352.262 149.512 355.65 151.425C367.983 158.395 386.148 156.707 397.026 147.547C400.714 144.441 402.626 144.448 404.53 147.907C404.95 148.672 404.56 150.765 403.923 151.11C390.631 158.402 376.852 163.931 361.295 159.948C357.419 158.957 353.589 157.097 350.245 154.876C344.81 151.253 339.794 146.999 333.834 142.43Z" fill="#414245"/>
    <path d="M489.111 511.77C488.346 515.858 486.315 518.056 482.626 518.987C465.353 523.345 450.074 531.77 436.28 542.813C430.38 547.54 425.252 553.241 419.786 558.508C419.074 559.198 418.549 560.413 417.747 560.616C416.405 560.953 414.666 561.088 413.579 560.466C413.017 560.143 412.934 557.405 413.601 556.767C422.628 548.072 430.425 537.974 441.655 531.74C444.047 530.412 446.446 529.077 448.665 527.494C460.742 518.889 474.559 514.853 489.111 511.77Z" fill="#414245"/>
    <path d="M427.697 174.289C431.363 172.323 433.95 172.24 437.151 175.384C452.94 190.913 471.405 202.054 492.906 207.883C495.29 208.528 497.666 209.234 500.013 210.029C504.736 211.627 504.729 211.657 504.901 216.503C488.175 217.809 434.969 188.828 427.697 174.289Z" fill="#414245"/>
    <path d="M496.25 216.919C500.096 217.279 502.532 218.292 503.807 221.585C510.794 239.68 521.65 255.21 535.729 268.429C540.527 272.938 545.947 276.779 551.083 280.912C551.473 281.227 551.9 281.475 552.305 281.775C553.887 282.938 554.667 284.266 553.437 286.201C552.103 288.287 550.438 287.844 548.999 286.629C539.125 278.302 527.962 271.4 520.473 260.424C517.459 256.005 513.89 251.962 510.652 247.693C503.769 238.638 500.531 227.88 496.25 216.919Z" fill="#414245"/>
    <path d="M202.576 241.009C201.362 236.74 202.689 234.534 206.662 232.381C225.959 221.953 242.026 207.879 253.398 188.839C254.546 186.918 256.037 185.2 257.147 183.257C259.014 179.986 261.548 179.123 264.929 180.706C258.429 199.897 217.555 239.576 202.576 241.009Z" fill="#414245"/>
    <path d="M183.45 490.925C181.456 490.055 179.11 488.967 176.711 487.984C173.359 486.604 172.925 484.008 173.832 480.954C174.027 480.302 174.859 479.402 175.429 479.379C180.227 479.184 180.879 475.605 181.239 472.109C182.296 461.696 178.772 452.551 171.935 445.034C166.567 439.122 160.195 434.126 153.777 428.274C154.46 427.066 155.629 425.003 157.009 422.558C167.999 430.75 176.898 439.933 182.596 451.891C184.14 455.132 185.355 458.53 186.599 461.906C188.511 467.105 188.488 472.274 186.727 477.601C185.347 481.795 184.59 486.198 183.45 490.925Z" fill="#414245"/>
    <path d="M341.542 161.532C334.547 165.756 327.77 170.422 320.505 174.106C307.655 180.618 294.513 186.559 279.849 187.797C274.181 188.277 268.506 188.727 262.479 189.215C263.91 185.599 265.822 183.491 269.631 183.236C291.334 181.773 311.074 174.368 329.344 162.867C333.205 160.437 336.361 156.911 340.08 154.217C341.309 153.325 343.393 152.927 344.885 153.25C347.097 153.73 347.427 155.35 345.687 157.106C344.226 158.584 342.839 160.144 341.422 161.667C341.414 161.667 341.542 161.532 341.542 161.532Z" fill="#414245"/>
    <path d="M256.166 528.969C251.458 530.117 248.849 529.742 246.3 525.826C234.32 507.431 218.719 492.854 198.889 483.071C196.888 482.081 194.886 481.061 192.967 479.92C188.701 477.392 188.663 477.205 189.78 471.931C217.182 484.647 240.078 502.404 256.166 528.969Z" fill="#414245"/>
    <path d="M247.01 172.792C248.262 170.571 249.664 168.111 251.043 165.635C252.453 163.099 254.897 163.279 256.951 163.977C257.963 164.322 258.758 166.168 259.102 167.473C259.83 170.241 262.941 172.319 267.319 172.8C279.269 174.112 289.42 169.859 298.244 162.319C302.922 158.32 306.888 153.489 311.386 148.815C311.221 148.815 311.514 148.725 311.701 148.83C317.976 152.476 317.954 152.461 312.961 157.51C302.09 168.508 289.338 176.206 274.006 178.846C270.033 179.529 265.617 178.861 261.621 177.909C256.733 176.738 252.07 174.608 247.01 172.792Z" fill="#414245"/>
    <path d="M143.957 320.5C142.45 316.982 140.838 313.426 139.466 309.772C139.287 309.285 140.194 308.077 140.883 307.619C143.537 305.864 146.281 305.106 149.685 305.751C151.851 306.164 154.798 305.541 156.59 304.258C164.484 298.594 168.615 290.514 169.994 281.001C170.999 274.092 170.167 267.4 167.385 260.918C165.938 257.542 167.243 255.464 170.744 255.209C171.614 255.149 173.248 256.034 173.375 256.709C175.782 269.418 177.056 282.112 171.793 294.528C169.042 301.025 164.844 306.246 158.929 310.14C154.198 313.268 149.595 316.592 143.957 320.5Z" fill="#414245"/>
    <path d="M198.056 473.92C194.105 472.884 192.216 470.701 191.601 466.898C188.647 448.532 181.472 431.81 170.834 416.656C166.838 410.969 162.033 405.845 157.535 400.518C156.178 398.913 154.731 397.435 156.732 395.417C159.064 393.061 160.481 395.124 161.935 396.632C174.988 410.166 184.419 426.018 191.556 443.303C195.582 453.049 196.534 463.447 198.056 473.92Z" fill="#414245"/>
    <path d="M498.191 186.744C497.876 184.974 497.554 183.203 497.209 181.26C514.302 180.112 530.773 180.57 545.115 190.893C555.266 198.2 560.379 208.665 562.388 220.796C562.485 221.382 562.343 222.004 562.305 222.837C558.129 222.657 556.098 220.586 554.951 216.783C550.49 201.996 541.306 191.613 525.855 188.252C519.61 186.894 513.005 187.142 506.558 186.759C503.949 186.617 501.332 186.744 498.191 186.744Z" fill="#414245"/>
    <path d="M482.628 149.099C478.257 149.954 474.929 149.684 471.915 146.953C459.837 136.022 445.735 133.292 430.217 137.23C425.434 138.446 420.83 140.374 416.062 141.687C415.035 141.972 413.041 141.356 412.606 140.554C411.947 139.331 412.111 137.56 412.254 136.06C412.299 135.565 413.303 134.987 413.978 134.747C429.984 129.113 446.088 125.264 462.506 133.194C470.198 136.915 476.765 142.122 482.628 149.099Z" fill="#414245"/>
    <path d="M475.631 576.256C476.808 572.85 478.712 570.599 482.551 569.976C501.083 566.961 513.858 554.049 516.707 535.497C517.404 530.958 517.906 526.366 518.191 521.783C518.528 516.329 518.386 516.321 523.934 517.064C524.931 536.847 517.419 561.319 499.913 570.772C491.697 575.206 482.228 577.569 475.631 576.256Z" fill="#414245"/>
    <path d="M558.256 505.346C557.386 501.077 558.226 497.866 561.39 495.075C573.85 484.07 577.748 469.988 575.461 453.926C574.802 449.282 573.43 444.736 572.695 440.099C572.53 439.064 573.4 437.159 574.239 436.843C575.581 436.341 577.343 436.648 578.82 437.031C579.345 437.166 579.697 438.471 579.9 439.304C582.868 451.503 584.563 463.844 581.017 476.147C577.388 488.721 569.089 497.919 558.256 505.346Z" fill="#414245"/>
    <path d="M189.13 508.277C176.647 506.544 164.487 503.986 153.714 496.799C139.754 487.481 132.287 471.231 135.114 454.944C138.09 455.987 140.557 457.382 140.752 460.818C142.071 484.323 156.788 496.529 177.037 500.28C179.601 500.752 182.142 501.36 184.721 501.713C190.284 502.47 190.419 502.605 189.13 508.277Z" fill="#414245"/>
    <path d="M234.786 178.141C232.919 177.946 231.142 177.758 229.051 177.541C232.919 160.181 238.444 144.276 253.438 133.773C262.862 127.171 273.583 125.783 284.776 127.171C285.481 127.261 286.14 127.711 287.025 128.071C285.683 131.065 283.989 133.113 280.398 133.083C253.236 132.835 243.063 149.07 238.167 165.702C236.99 169.716 235.97 173.782 234.786 178.141Z" fill="#414245"/>
    <path d="M193.94 181.795C194.03 185.996 192.763 188.967 189.224 191.083C175.115 199.515 168.315 212.261 167.783 228.488C167.625 233.2 167.655 237.933 167.955 242.63C168.113 245.016 166.921 245.616 165.181 245.511C163.824 245.436 162.13 245.061 161.29 244.16C160.488 243.305 160.346 241.595 160.346 240.259C160.361 231.032 160.616 221.796 163.457 212.906C168.375 197.557 179.613 188.352 193.94 181.795Z" fill="#414245"/>
    <path d="M197.064 542.979C201.645 542.273 204.651 543.931 207.32 547.54C215.709 558.853 227.097 564.787 241.252 564.682C247.437 564.637 253.622 563.895 259.784 563.249C261.973 563.024 262.948 563.992 263.023 565.785C263.075 567.143 262.536 568.568 262.018 569.874C261.861 570.279 260.961 570.534 260.369 570.609C245.78 572.447 231.273 573.295 217.891 565.463C208.752 560.106 202.177 552.281 197.064 542.979Z" fill="#414245"/>
    <path d="M417.11 550.481C413.669 556.003 412.042 556.37 406.014 555.605C398.143 554.6 390.196 553.399 382.309 553.587C366.16 553.969 351.039 558.651 337.035 566.791C336.18 567.286 335.198 568.366 334.508 568.201C332.874 567.818 331.382 566.843 329.83 566.108C330.415 565.043 330.745 563.43 331.637 563.002C337.335 560.279 343.055 557.518 348.97 555.32C363.447 549.933 378.44 547.293 393.922 548.268C401.456 548.748 408.976 549.693 417.11 550.481Z" fill="#414245"/>
    <path d="M561.629 364.612C561.037 363.164 560.565 361.649 559.83 360.268C552.431 346.412 545.646 332.278 544.146 316.381C543.157 305.878 542.984 295.292 542.43 284.534C547.288 285.652 548.975 287.573 548.982 291.481C548.99 298.938 548.427 306.44 549.027 313.853C550.301 329.645 556.367 343.869 564.621 357.223C565.663 358.911 566.81 360.554 568.009 362.136C570.926 365.993 570.896 366.54 566.278 370.681C564.718 368.663 563.114 366.578 561.509 364.492L561.629 364.612Z" fill="#414245"/>
    <path d="M166.229 399.28C162.188 396.481 161.191 393.405 162.503 389.227C165.727 378.956 167.698 368.498 167.076 357.613C166.311 344.161 163.365 331.303 157.6 319.112C157.172 318.211 156.31 317.161 156.513 316.411C156.918 314.925 157.922 313.613 158.679 312.225C159.774 312.862 161.513 313.252 161.858 314.168C164.062 320.079 166.124 326.066 167.931 332.113C171.154 342.916 172.834 353.974 172.226 365.28C171.604 376.736 169.737 387.966 166.229 399.28Z" fill="#414245"/>
    <path d="M584.142 341.44C586.518 340.39 588.392 341.133 590.042 342.986C600.53 354.779 609.744 367.195 610.029 383.97C610.186 392.935 608.949 401.607 604.294 409.485C603.694 410.497 602.936 411.42 602.254 412.381C601.842 412.298 601.43 412.208 601.025 412.125C601.175 408.922 600.53 405.426 601.602 402.56C609.047 382.552 601.355 366.647 588.52 352.011C586.001 349.137 582.702 346.722 583.302 342.213C583.572 341.95 583.857 341.695 584.142 341.44Z" fill="#414245"/>
    <path d="M600.125 308.467C597.449 307.311 595.545 306.006 595.335 302.653C594.233 284.97 584.142 273.754 568.781 266.56C565.542 265.044 562.078 264.016 558.72 262.756C558.622 262.719 558.562 262.576 558.322 262.291C558.652 261.151 559.035 259.875 559.402 258.592C560.152 255.959 562.101 255.096 564.29 256.244C574.726 261.676 585.836 266.245 592.958 276.358C599.503 285.645 602.442 295.908 600.628 307.311C600.568 307.634 600.35 307.942 600.125 308.467Z" fill="#414245"/>
    <path d="M386.154 603.616C388.238 602.641 390.345 600.773 392.407 600.818C412.431 601.305 425.334 591.095 433.79 573.908C434.615 572.242 435.462 570.584 436.309 568.926C436.362 568.821 436.482 568.746 436.946 568.296C438.071 568.754 439.39 569.286 440.717 569.826C443.206 570.847 443.911 572.685 442.457 574.853C436.302 584.028 430.761 593.758 421.15 600C411.254 606.422 400.459 607.982 389.003 605.882C388.171 605.732 387.399 605.281 386.597 604.974C386.439 604.531 386.297 604.074 386.154 603.616Z" fill="#414245"/>
    <path d="M147.166 417.127C146.941 417.72 146.874 417.968 146.761 418.185C143.665 424.352 142.466 424.787 137.24 420.076C130.973 414.427 124.293 408.943 119.247 402.288C111.578 392.183 110.641 380.292 113.865 368.108C114.172 366.953 114.742 365.865 115.312 364.47C118.108 366.3 119.495 368.281 119.083 371.394C116.489 390.87 125.867 403.999 141.588 413.729C143.358 414.839 145.165 415.912 147.166 417.127Z" fill="#414245"/>
    <path d="M139.044 335.13C136.36 336.39 133.991 336.233 132.364 333.442C125.759 322.099 119.417 310.545 119.934 296.899C120.384 285.091 123.525 274.055 131.959 265.157C132.304 264.797 132.664 264.452 133.061 264.145C133.226 264.017 133.481 264.017 134.763 263.672C133.968 267.16 134.021 270.626 132.476 273.102C121.051 291.452 125.946 308.58 135.872 325.422C137.679 328.491 139.988 331.311 138.939 335.235L139.044 335.13Z" fill="#414245"/>
    <path d="M317.417 141.193C317.372 139.467 316.577 137.119 317.409 136.129C325.109 126.909 333.475 118.274 344.931 113.787C355.636 109.594 366.709 109.053 377.865 112.114C379.529 112.572 381.126 113.315 382.708 114.02C383.48 114.357 384.162 114.905 384.882 115.363C384.882 115.753 384.882 116.15 384.882 116.541C381.688 116.773 378.27 117.861 375.339 117.096C357.638 112.497 343.701 119.226 331.339 131.042C328.467 133.788 325.911 136.871 323.242 139.827C321.54 141.71 319.621 142.303 317.289 141.065L317.417 141.193Z" fill="#414245"/>
    <path d="M425.617 151.47C428.369 150.69 430.558 149.842 432.814 149.512C434.456 149.272 437.432 149.279 437.687 149.97C438.587 152.378 441.068 154.733 438.632 157.899C437.86 158.897 438.37 161.59 439.179 162.986C443.857 171.006 451.084 176.197 459.249 180.233C466.603 183.872 474.482 183.384 482.324 183.159C484.588 183.092 486.867 182.536 486.867 186.19C486.867 189.588 484.986 190.031 482.294 190.031C462.705 190.069 447.119 182.349 435.851 166.189C432.529 161.418 429.208 156.639 425.617 151.47Z" fill="#414245"/>
    <path d="M561.848 448.584C562.388 451.33 563.062 453.37 563.107 455.433C563.145 457.241 562.98 460.242 562.02 460.647C559.576 461.69 556.63 463.776 553.878 460.557C553.369 459.957 551.509 460.01 550.52 460.392C539.312 464.706 531.837 473.041 527.407 483.822C525.382 488.743 525.188 494.437 524.318 499.801C524.048 501.482 524.273 503.245 524.273 504.858C518.065 506.508 516.791 505.465 517.481 499.711C519.655 481.796 528.006 467.827 543.772 458.652C549.56 455.291 555.468 452.133 561.848 448.584Z" fill="#414245"/>
    <path d="M179.658 236.355C179.966 232.154 180.235 228.508 180.535 224.487C184.036 225.05 187.725 222.514 190.454 226.73C190.956 227.503 193.55 227.428 194.967 227.008C209.414 222.709 219.947 214.096 224.633 199.302C225.457 196.706 226.252 194.066 226.679 191.387C227.099 188.739 228.291 188.056 230.743 188.769C233.269 189.497 234.266 191.012 233.397 193.518C230.285 202.483 226.537 211.035 219.662 217.96C211.348 226.325 200.762 230.046 189.922 233.377C186.75 234.352 183.557 235.222 179.658 236.355Z" fill="#414245"/>
    <path d="M253.441 552.146C248.381 552.146 244.61 552.146 240.824 552.146C240.441 550.173 240.037 548.5 239.827 546.797C239.729 545.987 239.714 544.674 240.172 544.374C244.4 541.621 242.481 537.952 241.041 535.131C234.804 522.895 225.905 513.608 211.765 510.794C208.249 510.097 204.696 509.586 201.187 509.001C199.958 502.955 201.39 501.762 207.29 503.135C220.477 506.203 232.09 512.085 239.317 523.796C244.67 532.476 248.501 542.086 253.441 552.146Z" fill="#414245"/>
    <path d="M400.923 567.988C399.918 572.444 397.481 574.005 394.138 574.455C392.788 574.635 391.356 574.447 390.059 574.792C386.896 575.64 385.794 578.911 388.185 581.094C389.812 582.58 392.136 583.72 394.31 584.088C396.822 584.515 399.506 583.907 402.115 583.795C403.344 583.742 404.753 583.435 405.781 583.907C407.685 584.785 409.372 586.151 411.148 587.306C409.559 588.491 408.12 590.059 406.343 590.802C399.078 593.855 392.061 593.225 385.351 588.956C381.49 586.503 379.354 583.06 378.911 578.588C378.702 576.428 377.989 573.57 379.031 572.227C380.133 570.809 383.05 570.749 385.201 570.201C388.328 569.413 391.454 568.558 394.633 568.04C396.559 567.733 398.583 567.988 400.923 567.988Z" fill="#414245"/>
    <path d="M587.156 301.259C587.156 310.651 582.748 316.458 573.587 319.114C568.196 320.682 568.174 320.682 566.48 315.408C565.04 310.929 563.548 306.458 562.304 301.926C562.041 300.973 562.776 299.751 563.046 298.648C564.156 299.023 565.715 299.068 566.292 299.841C567.559 301.551 568.549 303.562 569.253 305.587C570.018 307.808 570.063 310.591 573.062 310.891C576.301 311.214 578.01 308.701 578.302 306.127C578.67 302.902 577.89 299.556 577.792 296.255C577.717 293.569 577.448 290.748 578.13 288.227C578.932 285.286 581.099 285.039 582.486 287.717C584.667 291.941 586.272 296.457 588.116 300.853C587.808 300.996 587.478 301.131 587.156 301.259Z" fill="#414245"/>
    <path d="M135.598 380.271C134.69 383.137 134.091 386.168 132.764 388.824C131.729 390.894 129.997 391.089 128.655 388.569C124.465 380.706 126.616 368.8 133.199 362.806C137.254 359.108 142.405 359.67 147.195 358.92C147.788 358.83 149.235 360.743 149.4 361.861C150.209 367.247 150.816 372.671 151.244 378.111C151.334 379.228 150.344 380.436 149.857 381.599C148.77 380.886 147.15 380.406 146.701 379.408C145.838 377.465 145.764 375.192 145.111 373.129C144.519 371.269 143.844 368.23 142.742 368.005C141.055 367.66 138.049 368.763 137.232 370.188C135.59 373.054 135.05 376.55 134.061 379.791C134.578 379.956 135.088 380.114 135.598 380.271Z" fill="#414245"/>
    <path d="M573.691 385.358C576.697 387.684 577.545 390.055 575.355 393.221C573.796 395.471 573.669 397.992 575.888 399.965C578.084 401.923 580.521 401.443 582.725 399.86C586.339 397.257 587.523 393.431 587.95 389.192C588.43 384.413 589.337 379.799 595.327 377.684C595.387 387.691 594.698 397.084 588.048 404.841C583.67 409.943 575.55 411.068 569.508 407.722C568.931 407.4 568.166 406.604 568.211 406.079C568.758 399.252 567.349 391.96 572.702 386.229C572.949 385.966 573.241 385.748 573.691 385.358Z" fill="#414245"/>
    <path d="M351.482 126.29C360.974 124.872 369.947 124.677 378.209 129.629C384.492 133.387 387.063 142.195 383.982 148.714C383.667 149.374 382.685 150.169 382.033 150.147C374.985 149.907 367.488 152.39 361.348 146.756C363.2 143.523 365.787 142.495 369.37 144.363C371.777 145.616 374.048 145.21 375.683 143.027C377.362 140.784 376.71 138.481 375.098 136.5C372.039 132.757 367.803 132.089 363.298 132.209C358.605 132.337 354.384 131.422 351.482 126.29Z" fill="#414245"/>
    <path d="M318.654 592.054C309.605 591.574 301.284 589.916 294.529 583.967C288.374 578.55 287.512 570.425 292.07 563.674C292.475 563.066 293.517 562.368 294.102 562.488C300.991 563.854 308.743 563.081 313.571 570.095C311.075 572.549 308.533 573.336 305.512 570.756C303.51 569.045 301.231 568.662 299.087 570.561C296.861 572.534 296.973 574.942 298.247 577.365C300.369 581.409 304.208 582.752 308.323 583.659C312.934 584.68 317.29 586.075 318.654 592.054Z" fill="#414245"/>
    <path d="M156.486 295.519C154.177 292.878 153.434 290.35 156.366 287.499C158.33 285.594 158.99 283.171 157.048 280.815C155.039 278.377 152.415 278.677 149.926 279.9C145.907 281.865 144.243 285.594 143.006 289.607C141.679 293.929 139.685 297.657 134.1 298.708C134.362 297.012 134.497 295.519 134.827 294.071C136.461 286.802 139.078 280.027 144.745 274.836C150.368 269.682 160.167 269.697 165.25 274.881C165.647 275.286 166.112 276.074 165.962 276.479C163.585 283.178 164.065 291.318 156.486 295.519Z" fill="#414245"/>
    <path d="M388.121 125.182C393.609 122.346 395.303 122.541 398.512 126.638C405.866 136.023 413.086 145.513 420.418 154.906C422.772 157.922 425.314 160.78 427.818 163.781C422.21 166.984 420.883 166.654 417.329 162.168C408.385 150.877 399.344 139.646 390.363 128.378C389.605 127.433 388.968 126.39 388.121 125.182Z" fill="#414245"/>
    <path d="M334.314 604.728C338.078 601.614 341.796 600.009 346.827 602.214C360.906 608.389 376.92 603.31 384.642 593.189C385.151 592.521 386.681 592.206 387.625 592.371C389.552 592.709 391.411 593.489 393.331 594.097C382.43 611.712 359.512 615.163 334.314 604.728Z" fill="#414245"/>
    <path d="M605.868 360.524C602.39 356.975 600.538 353.539 602.06 348.595C606.49 334.146 600.425 318.272 587.238 310.469C587.718 307.986 588.205 305.45 588.783 302.457C597.269 307.483 603.627 313.845 606.625 323.2C610.022 333.824 609.797 349.098 605.868 360.524Z" fill="#414245"/>
    <path d="M592.482 414.307C594.079 420.871 593.659 422.004 588.891 424.967C576.858 432.462 564.818 439.949 552.77 447.414C551.631 448.119 550.371 448.629 549.149 449.244C547.058 443.625 547.68 442.057 552.403 439.101C564.421 431.577 576.363 423.932 588.358 416.377C589.55 415.612 590.885 415.094 592.482 414.307Z" fill="#414245"/>
    <path d="M253.367 538.949C260.204 537.876 260.459 538.124 263.113 543.668C269.126 556.211 275.266 568.695 281.346 581.208C281.991 582.529 282.575 583.887 283.19 585.23C277.89 587.315 275.581 586.513 273.309 581.764C267.034 568.665 260.797 555.544 254.582 542.415C254.064 541.327 253.78 540.142 253.367 538.949Z" fill="#414245"/>
    <path d="M120.103 313.162C123.567 317.746 123.275 322.03 120.816 327.116C114.391 340.447 117.629 355.152 128.612 365.039C127.593 367.38 126.536 369.803 125.456 372.286C108.371 359.51 108.116 335.556 120.103 313.162Z" fill="#414245"/>
    <path d="M192.988 238.148C192.921 245.598 192.876 245.486 186.961 247.699C173.984 252.553 161.051 257.542 148.097 262.463C146.86 262.936 145.563 263.266 144.318 263.656C142.391 258.824 143.478 256.169 148.149 254.436C157.183 251.09 166.284 247.901 175.333 244.585C179.284 243.137 183.16 241.509 187.096 240.031C188.925 239.356 190.807 238.846 192.988 238.148Z" fill="#414245"/>
    <path d="M470.512 177.516C462.513 176.466 455.391 174.388 449.423 168.356C452.902 166.361 455.676 165.791 458.292 168.604C460.466 170.937 462.963 171.53 465.564 169.557C467.858 167.824 467.828 164.74 465.639 161.859C463.06 158.453 459.694 156.173 455.413 155.595C452.16 155.152 450.383 153.074 449.094 150.404C447.932 147.995 448.644 146.668 451.485 146.503C465.452 145.67 476.63 159.961 472.154 173C471.682 174.403 471.15 175.783 470.512 177.516Z" fill="#414245"/>
    <path d="M470.184 152.407C489.593 147.253 518.816 157.11 523.382 179.82C520.323 180.6 518.262 180.225 516.74 176.804C511.904 165.926 502.578 160.764 491.49 158.611C486.774 157.696 481.811 157.658 476.983 157.853C472.74 158.033 471.563 155.43 470.184 152.407Z" fill="#414245"/>
    <path d="M522.967 543.091C522.434 539.37 523.327 537.57 526.79 536.354C540.075 531.718 546.11 521.095 548.899 508.116C549.446 505.573 549.866 502.917 549.731 500.344C549.506 495.993 551.957 494.11 556.283 492.489C557.213 502.49 555.503 511.65 551.493 520.345C545.885 532.491 536.776 540.466 522.967 543.091Z" fill="#414245"/>
    <path d="M530.996 490.342C533.028 482.682 535.794 475.825 542.174 470.581C544.296 473.597 544.446 476.073 542.002 478.488C541.469 479.014 540.862 479.471 540.352 480.011C538.568 481.924 537.781 484.055 539.483 486.381C541.132 488.631 543.501 488.871 545.848 487.859C550.053 486.043 553 482.93 554.244 478.436C555.114 475.292 556.996 473.267 560.107 472.239C563.008 471.271 564.095 471.991 563.945 475.022C563.27 488.601 547.812 498.234 535.607 492.667C534.137 492 532.72 491.22 530.996 490.342Z" fill="#414245"/>
    <path d="M217.848 201.802C214.961 208.074 211.468 213.461 206.025 217.294C205.223 217.857 204.076 217.932 203.086 218.232C202.929 217.189 202.314 215.929 202.696 215.156C203.506 213.513 204.54 211.675 206.01 210.715C208.566 209.042 209.916 207.009 208.859 204.188C207.674 201.037 204.81 200.625 201.976 201.502C198.056 202.71 194.802 205.006 193.01 208.854C191.676 211.72 189.457 213.206 186.45 213.761C183.339 214.331 182.117 213.116 182.867 210.137C186.12 197.204 202.876 190.864 213.597 198.516C214.999 199.522 216.341 200.632 217.848 201.802Z" fill="#414245"/>
    <path d="M215.03 517.423C222.167 520.004 228.682 523.47 233.353 530.499C229.417 531.572 226.485 531.744 224.334 528.038C222.932 525.615 220.473 524.73 217.886 526.05C215.285 527.378 214.813 529.809 215.712 532.465C217.152 536.703 220.053 539.674 224.101 541.437C226.92 542.668 228.757 544.483 229.409 547.619C230.099 550.927 228.862 552.293 225.436 551.138C219.843 549.262 215.397 545.646 212.046 540.845C206.798 533.342 207.758 526.215 215.03 517.423Z" fill="#414245"/>
    <path d="M235.164 151.822C235.014 154.703 234.789 157.066 231.626 157.426C217.711 158.994 209.524 167.704 204.157 179.715C202.65 183.083 201.863 186.767 200.7 190.285C200.401 191.186 200.123 192.543 199.478 192.806C197.732 193.511 195.79 193.744 193.931 194.164C193.976 192.641 193.721 191.035 194.103 189.603C197.274 177.614 202.17 166.654 212.561 158.979C219.173 154.08 226.543 151.754 235.164 151.822Z" fill="#414245"/>
    <path d="M209.617 542.293C202.12 542.248 195.29 540.47 188.813 537.679C175.468 531.917 166.104 522.622 163.9 507.558C163.75 506.537 164.26 505.419 164.463 504.347C166.067 505.194 168.841 505.78 169.088 506.92C172.867 524.182 185.304 531.309 200.988 534.678C208.14 536.223 208.597 536.388 209.617 542.293Z" fill="#414245"/>
    <path d="M594.674 398.709C606.407 419.602 600.791 448.471 585.355 460.677C584.261 456.783 584.831 453.31 586.93 450.061C590.731 444.187 594.037 438.208 594.899 431.013C595.821 423.346 596.196 415.776 592.32 408.852C589.943 404.598 591.96 401.95 594.674 398.709Z" fill="#414245"/>
    <path d="M435.776 127.754C432.043 127.544 429.156 127.769 426.48 127.132C423.751 126.479 421.262 124.888 418.615 123.838C406.718 119.104 394.805 118.662 383.53 125.264C379.234 127.777 376.078 127.417 372.584 124.588C383.949 111.009 422.859 112.3 435.776 127.754Z" fill="#414245"/>
    <path d="M298.322 589.491C276.633 598.584 249.771 591.232 238.076 574.157C241.765 573.054 244.876 573.939 247.755 576.1C253.018 580.054 258.056 584.255 264.705 585.988C272.555 588.036 280.412 589.356 288.126 586.22C292.639 584.382 295.338 586.198 298.322 589.491Z" fill="#414245"/>
    <path d="M159.43 219.944C159.677 224.753 157.848 228.272 154.736 231.205C145.913 239.517 141.917 249.923 141.602 261.851C141.542 264.169 142.089 266.54 142.584 268.843C143.648 273.84 143.116 275.168 138.49 278.161C131.001 256.18 141.707 228.939 159.43 219.944Z" fill="#414245"/>
    <path d="M585.382 266.206C581.296 263.978 578.215 261.953 577.877 256.289C577.082 243.01 563.955 228.966 550.101 225.26C547.432 224.547 544.673 224.007 543.713 220.878C542.994 218.553 543.998 217.442 546.322 217.833C561.121 220.331 580.659 238.599 583.882 253.205C584.789 257.301 584.879 261.57 585.382 266.206Z" fill="#414245"/>
    <path d="M430.363 594.734C432.605 591.298 434.749 588.2 440.462 588.478C453.904 589.115 469.063 577.997 474.7 564.606C475.578 562.528 477.017 560.592 478.569 558.942C479.161 558.304 480.78 558.619 481.928 558.499C481.987 559.759 482.565 561.335 482.025 562.235C479.086 567.134 476.2 572.123 472.684 576.594C465.734 585.417 457.03 591.906 445.762 594.209C443.356 594.705 440.822 594.644 438.348 594.72C435.679 594.795 433.002 594.734 430.363 594.734Z" fill="#414245"/>
    <path d="M333.331 117.501C330.422 121.545 326.936 123.03 322.003 122.595C306.627 121.237 294.871 127.772 286.01 140.12C284.81 141.793 283.378 143.436 281.699 144.569C280.829 145.154 279.188 144.592 277.891 144.554C278.078 143.331 277.876 141.816 278.528 140.923C283.543 134.006 289.616 128.132 296.798 123.466C307.796 116.316 321.755 114.028 333.331 117.501Z" fill="#414245"/>
    <path d="M497.342 516.357C498.789 509.575 499.921 508.968 506.248 508.45C518.581 507.437 531.161 508.113 543.028 503.499C544.213 503.041 545.66 503.266 546.949 503.184C547.744 508.143 547.234 509.538 542.856 510.363C532.877 512.231 522.839 513.799 512.793 515.202C507.778 515.892 502.672 515.975 497.342 516.357Z" fill="#414245"/>
    <path d="M499.967 207.93C493.677 207.817 492.417 206.692 491.368 200.93C489.906 192.88 488.571 184.801 486.735 176.841C485.775 172.662 483.706 168.754 482.469 164.62C482.026 163.142 482.349 160.006 482.656 159.961C484.988 159.623 487.672 159.181 488.654 162.474C491.248 171.237 494.157 179.917 496.428 188.762C498.033 194.974 498.79 201.395 499.967 207.93Z" fill="#414245"/>
    <path d="M121.269 408.44C124.185 411.419 127.326 413.317 126.847 418.981C125.497 435.148 133.699 446.626 147.051 454.924C149.075 456.184 150.897 457.872 152.494 459.65C152.981 460.19 152.771 462.043 152.201 462.651C151.714 463.161 149.982 463.154 149.255 462.681C134.381 453.056 122.154 441.45 120.407 422.432C120.174 419.866 120.692 417.24 120.857 414.637C120.984 412.709 121.111 410.774 121.269 408.44Z" fill="#414245"/>
    <path d="M192.732 481.722C199.269 483.747 199.382 484.017 199.307 490.214C199.187 500.545 199.127 510.883 199.224 521.213C199.247 523.404 200.326 525.572 200.439 527.77C200.514 529.278 199.764 530.831 199.382 532.369C197.26 531.686 194.269 532.061 194.006 528.843C193.212 518.94 192.342 509.037 191.967 499.112C191.757 493.403 192.44 487.663 192.732 481.722Z" fill="#414245"/>
    <path d="M255.204 182.897C253.127 189.079 251.868 189.634 245.833 188.816C236.604 187.563 227.345 186.528 218.064 185.755C214.9 185.493 211.654 186.476 208.438 186.528C207.111 186.551 204.607 185.523 204.637 185.118C204.794 183.055 204.854 180.264 207.883 180.249C217.427 180.211 226.978 180.106 236.499 180.556C242.677 180.849 248.809 182.064 255.204 182.897Z" fill="#414245"/>
    <path d="M534.364 240.17C532.055 238.137 529.708 236.591 528.052 234.491C525.795 231.632 523.913 228.429 522.234 225.188C521.799 224.348 522.699 222.81 522.984 221.595C524.356 222.225 525.907 222.637 527.039 223.568C527.797 224.19 527.857 225.608 528.404 226.569C530.278 229.899 533.337 229.862 535.294 226.531C537.858 222.165 536.995 215.998 532.34 212.855C528.269 210.109 528.501 206.845 529.086 202.329C537.093 207.911 541.861 214.985 542.881 224.213C543.645 231.227 540.122 236.351 534.364 240.17Z" fill="#414245"/>
    <path d="M551.609 278.773C545.491 275.892 545.469 275.465 546.946 269.733C549.855 258.45 552.539 247.114 555.222 235.771C555.522 234.495 555.245 233.077 555.185 231.719C555.088 229.611 556.257 229.349 557.809 230.039C561.407 231.637 563.192 235.441 562.09 239.709C559.886 248.232 557.479 256.694 555.177 265.194C553.993 269.598 552.853 274.017 551.609 278.773Z" fill="#414245"/>
    <path d="M421.533 559.888C424.682 554.351 425.574 554.134 430.844 556.174C440.538 559.94 450.269 563.624 460.053 567.157C462.339 567.983 464.903 568.013 467.31 568.515C468.082 568.673 469.206 569.01 469.409 569.543C469.641 570.151 469.214 571.261 468.719 571.839C466.388 574.54 463.674 576.25 459.895 574.757C450.914 571.224 441.917 567.72 432.921 564.217C429.15 562.769 425.364 561.351 421.533 559.888Z" fill="#414245"/>
    <path d="M500.133 545.56C493.446 553.069 486.091 557.113 476.877 557.165C469.77 557.21 465.167 553.114 461.666 547.03C466.704 542.919 470.527 537.12 477.739 536.527C478.946 536.429 480.236 537.315 481.488 537.75C480.678 538.995 479.944 540.308 479.014 541.456C478.684 541.861 477.769 541.733 477.305 542.094C475.835 543.211 474.456 544.442 473.039 545.627C474.381 547.225 475.415 549.431 477.132 550.293C481.473 552.469 486.114 551.614 489.067 548.043C492.111 544.352 495.395 545.177 500.133 545.56Z" fill="#414245"/>
    <path d="M157.199 402.597C162.394 407.631 162.289 407.578 159.478 413.032C155.099 421.532 150.759 430.055 146.65 438.69C145.076 441.99 144.199 445.622 142.992 449.14C138.741 448.6 136.289 444.271 138.404 439.762C142.31 431.465 146.635 423.363 150.796 415.178C152.865 411.104 154.934 407.038 157.199 402.597Z" fill="#414245"/>
    <path d="M166.261 443.755C168.81 447.724 171.456 451.46 173.645 455.443C174.485 456.966 174.485 459.067 174.477 460.897C174.477 461.955 173.698 463.005 173.263 464.063C172.003 463.208 170.481 462.57 169.582 461.437C168.899 460.575 169.147 459.037 168.757 457.881C167.595 454.483 165.158 453.928 162.55 456.381C158.681 460.02 158.501 466.471 162.145 470.995C165.398 475.024 165.428 475.249 162.924 481.581C158.044 475.707 154.475 469.982 154.295 462.608C154.04 452.375 157.212 447.273 166.261 443.755Z" fill="#414245"/>
    <path d="M317.298 141.064C318.819 142.295 320.251 143.667 321.886 144.725C326.766 147.876 331.729 150.907 337.067 154.238C335.41 155.971 334.233 157.201 332.621 158.897C325.417 154.606 318.31 150.157 311 146.083C305.295 142.902 299.35 140.156 293.472 137.291C291.793 136.473 291.471 135.588 292.768 134.192C295.219 131.544 298.653 130.786 301.914 132.527C307.139 135.318 312.267 138.303 317.433 141.207C317.418 141.192 317.298 141.064 317.298 141.064Z" fill="#414245"/>
    <path d="M295.36 159.691C292.751 161.327 290.592 163.165 288.103 164.118C284.834 165.371 281.333 166.098 277.862 166.668C276.97 166.819 275.845 165.528 274.826 164.905C275.793 163.795 276.617 162.475 277.794 161.657C278.484 161.177 279.848 161.777 280.696 161.402C281.978 160.839 283.657 160.067 284.069 158.971C284.459 157.936 283.784 156.083 282.975 155.078C279.676 151.004 273.619 150.426 268.775 153.48C264.712 156.045 263.633 156.083 258.475 153.532C265.312 147.576 272.966 145.73 281.475 146.578C288.118 147.245 293.306 152.182 295.36 159.691Z" fill="#414245"/>
    <path d="M584.141 341.439C583.856 341.695 583.572 341.95 583.294 342.205C580.273 345.971 577.289 349.774 574.215 353.495C572.499 355.581 570.624 357.539 568.817 359.557C564.747 355.453 564.649 355.386 567.723 351.147C571.142 346.428 574.927 341.965 578.264 337.193C583.002 330.434 587.485 323.487 592.036 316.675C596.331 320.103 596.609 321.379 593.557 326.308C590.431 331.364 587.283 336.398 584.141 341.439Z" fill="#414245"/>
    <path d="M138.927 335.236C143.14 331.762 147.331 328.266 151.567 324.823C153.014 323.645 154.551 322.587 156.043 321.484C159.581 325.678 159.626 326.301 155.705 329.789C151.237 333.758 146.476 337.396 142.128 341.485C136.258 347.014 130.665 352.828 125.013 358.463C121.482 353.766 121.482 352.911 125.89 348.38C130.23 343.931 134.646 339.557 139.039 335.138C139.047 335.131 138.927 335.236 138.927 335.236Z" fill="#414245"/>
    <path d="M439.233 136.748C440.868 138.278 443.042 139.516 444.024 141.392C446.078 145.323 447.382 149.629 449.227 153.68C450.441 156.351 449.009 157.334 446.948 158.024C445.088 158.647 443.042 159.547 441.94 156.831C439.706 151.332 437.367 145.871 435.297 140.304C434.113 137.131 436.707 137.663 439.233 136.748Z" fill="#414245"/>
    <path d="M573.655 459.274C575.32 463.873 574.15 466.739 569.809 468.112C565.566 469.455 561.218 470.475 556.967 471.803C554.448 472.583 553.533 471.248 553.039 469.237C552.559 467.287 551.952 465.096 554.71 464.323C561.008 462.575 567.343 460.955 573.655 459.274Z" fill="#414245"/>
    <path d="M229.814 542.688C231.134 542.133 232.671 540.948 234.133 541.023C235.475 541.098 237.656 542.321 237.896 543.394C239.193 549.185 240.048 555.074 240.903 560.956C241 561.616 240.28 562.869 239.673 563.079C237.439 563.844 233.308 561.376 232.843 559.036C231.816 553.919 230.932 548.788 229.814 542.688Z" fill="#414245"/>
    <path d="M170.296 223.722C170.078 218.568 171.585 216.28 175.963 215.74C180.514 215.177 185.11 214.907 189.69 214.877C190.598 214.869 192.119 216.415 192.292 217.42C192.584 219.146 193.484 221.951 190.545 222.267C183.82 222.979 177.05 223.264 170.296 223.722Z" fill="#414245"/>
    <path d="M266.517 161.633C265.167 164.124 263.413 164.694 260.556 163.779C255.991 162.316 251.2 161.581 246.597 160.208C245.278 159.818 244.288 158.302 243.148 157.305C244.738 155.962 246.5 153.321 247.879 153.509C253.727 154.304 259.507 155.797 265.19 157.44C265.939 157.657 266.007 160.253 266.389 161.746L266.517 161.633Z" fill="#414245"/>
    <path d="M527.558 212.255C520.548 212.555 520.076 211.977 519.963 206.095C519.888 201.894 519.199 197.7 519.131 193.492C519.109 192.044 520.121 190.573 520.661 189.11C522.535 190.221 525.841 191.121 526.044 192.486C527.011 198.938 527.131 205.51 527.558 212.255Z" fill="#414245"/>
    <path d="M491.278 536.983C498.371 536.983 504.833 536.893 511.28 537.08C512.27 537.11 513.215 538.46 514.182 539.203C512.952 540.786 511.805 543.644 510.486 543.727C504.421 544.095 498.303 543.765 492.215 543.427C491.563 543.389 490.551 541.731 490.506 540.779C490.431 539.361 491.061 537.913 491.278 536.983Z" fill="#414245"/>
    <path d="M170.93 472.698C171.815 473.306 172.699 473.914 173.382 474.386C172.512 480.425 171.777 486.337 170.735 492.196C170.48 493.614 169.183 494.845 168.366 496.157C166.889 494.695 164.723 493.472 164.123 491.709C163.508 489.901 164.438 487.567 164.663 485.467C164.97 482.624 165.247 479.78 165.562 476.937C166.042 472.616 166.559 472.233 171.035 472.811L170.93 472.698Z" fill="#414245"/>
    <path d="M575.496 272.523C581.996 275.232 582.499 276.387 579.635 282.381C578.413 284.947 577.318 287.663 575.601 289.868C574.987 290.656 572.527 290.611 571.231 290.101C569.664 289.486 567.759 288.42 569.049 285.877C571.276 281.466 573.352 276.972 575.496 272.523Z" fill="#414245"/>
    <path d="M424.943 584.331C422.401 589.702 419.207 591.285 414.889 587.429C412.798 585.561 410.121 584.353 407.82 582.703C405.96 581.375 406.38 579.754 407.677 578.224C408.952 576.716 410.099 574.78 412.535 576.341C416.696 578.989 420.819 581.675 424.943 584.331Z" fill="#414245"/>
    <path d="M576.352 304.395C571.472 301.402 566.914 298.709 562.468 295.828C559.747 294.065 561.133 291.627 561.951 289.488C562.858 287.118 564.672 287.935 566.291 288.611C574.006 291.814 577.222 296.72 576.352 304.395Z" fill="#414245"/>
    <path d="M393.254 581.47C396.62 577.126 399.716 572.963 403 568.956C405.047 566.458 407.476 567.673 409.695 568.836C412.221 570.149 410.992 571.927 410.055 573.525C405.826 580.75 400.841 583.158 393.254 581.47Z" fill="#414245"/>
    <path d="M595.687 364.352C598.678 367.705 598.813 369.656 596.129 372.852C594.45 374.847 592.523 376.633 590.829 378.613C586.443 383.737 585.101 383.67 581 377.555C585.776 373.257 590.619 368.905 595.687 364.352Z" fill="#414245"/>
    <path d="M140.914 388.356C142.301 390.149 142.323 391.739 140.749 393.592C137.87 396.983 135.224 400.577 132.21 404.441C130.853 403.158 129.174 402.137 128.379 400.645C127.779 399.512 127.787 397.486 128.424 396.376C129.819 393.93 131.745 391.777 133.53 389.564C136.506 385.873 137.128 385.805 141.019 388.469C141.026 388.469 140.914 388.356 140.914 388.356Z" fill="#414245"/>
    <path d="M352.981 140.517C347.966 135.903 343.243 131.552 338.52 127.2C341.069 123.899 343.063 123.404 346.279 125.557C348.955 127.343 351.474 129.361 354.076 131.252C357.944 134.057 358.079 135.355 354.81 138.874C354.308 139.421 353.708 139.871 352.981 140.517Z" fill="#414245"/>
    <path d="M140.913 388.356L141.026 388.469C139.579 384.898 136.108 382.077 137 377.628C137.262 376.338 137.487 375.032 137.832 373.142C142.15 377.148 146.161 380.606 149.842 384.395C151.949 386.563 150.547 389.061 148.77 390.562C147.953 391.259 145.809 390.682 144.377 390.277C143.14 389.939 142.06 389.024 140.913 388.356Z" fill="#414245"/>
    <path d="M130.756 311.387C128.687 308.273 128.927 305.543 131.956 303.292C135.045 300.996 138.179 298.768 141.335 296.577C143.996 294.732 145.338 296.54 146.665 298.558C148.075 300.696 147.67 302.017 145.353 303.232C140.533 305.76 135.839 308.528 130.756 311.387Z" fill="#414245"/>
    <path d="M331.66 594.161C327.859 596.847 326.405 596.817 323.451 593.659C320.999 591.04 318.683 588.287 316.306 585.594C314.23 583.246 314.95 581.453 317.244 579.705C319.53 577.957 320.977 578.324 322.521 580.747C325.37 585.219 328.489 589.532 331.66 594.161Z" fill="#414245"/>
    <path d="M534.901 221.959C528.888 221.007 523.16 220.272 517.522 219.116C515.056 218.614 514.606 216.558 515.536 213.002C528.386 213.047 534.878 214.487 534.901 221.959Z" fill="#414245"/>
    <path d="M479.785 549.632C481.367 543.683 482.574 538.266 484.358 533.053C484.793 531.792 487.057 530.997 488.639 530.412C488.992 530.284 490.731 532.077 490.596 532.745C489.711 537.201 488.722 541.672 487.312 545.986C486.353 548.935 483.594 549.58 479.785 549.632Z" fill="#414245"/>
    <path d="M266.399 161.754C267.367 160.351 268.484 159.031 269.263 157.531C271.04 154.102 273.612 152.549 278.522 153.727C275.778 159.286 273.379 164.77 270.32 169.857C269.668 170.937 266.617 170.569 263.963 170.974C265.05 167.028 265.792 164.328 266.527 161.627C266.519 161.634 266.399 161.754 266.399 161.754Z" fill="#414245"/>
    <path d="M550.248 462.792C551.103 467.016 552.385 470.977 552.527 474.983C552.617 477.459 551.073 480.039 550.046 482.485C549.798 483.078 548.621 483.731 548.029 483.603C547.482 483.491 546.942 482.418 546.762 481.675C545.952 478.314 545.322 474.908 544.543 471.532C543.178 465.643 543.763 464.645 550.248 462.792Z" fill="#414245"/>
    <path d="M441.057 161.507C445.18 160.194 448.958 158.446 452.894 157.928C455.466 157.591 458.412 158.709 460.939 159.782C463.06 160.682 462.326 162.19 460.474 162.835C456.515 164.215 452.542 165.543 448.516 166.721C444.243 167.974 443.148 167.186 441.057 161.507Z" fill="#414245"/>
    <path d="M171.035 472.81C169.349 471.865 167.744 470.725 165.967 470.012C162.481 468.624 160.989 466.141 161.162 461.827C163.178 462.27 165.083 462.525 166.874 463.118C170.046 464.175 173.164 465.398 176.276 466.621C180.009 468.084 180.601 470.11 178.517 473.868C175.976 473.47 173.442 473.073 170.915 472.683C170.93 472.698 171.035 472.81 171.035 472.81Z" fill="#414245"/>
    <path d="M194.354 224.8C192.382 212.586 194.039 206.81 200.479 204.687C200.591 205.947 200.734 207.095 200.779 208.243C200.899 211.221 200.801 214.222 201.109 217.178C201.709 223.037 200.771 224.237 194.354 224.8Z" fill="#414245"/>
    <path d="M239.835 538.918C224.459 540.771 220.635 539.901 219.443 534.071C224.856 533.516 230.239 532.654 235.629 532.511C239.715 532.406 239.235 536.037 239.835 538.918Z" fill="#414245"/>
    <path d="M322.607 573.391C315.717 581.103 309.158 583.399 302.83 579.798C304.749 578.372 306.414 577 308.205 575.837C310.597 574.284 313.123 572.933 315.537 571.411C320.006 568.597 320.193 568.627 322.607 573.391Z" fill="#414245"/>
    <path d="M369.993 135.679C365.6 139.798 361.274 143.984 356.724 147.922C356.169 148.403 354.182 147.855 353.35 147.172C352.668 146.617 352.128 144.599 352.518 144.194C355.756 140.84 358.995 137.382 362.751 134.674C364.251 133.593 367.054 134.314 369.266 134.216C369.506 134.711 369.753 135.199 369.993 135.679Z" fill="#414245"/>
    <path d="M148.296 284.093C151.018 289.569 153.822 295.016 156.326 300.59C156.573 301.138 155.096 302.818 154.092 303.433C153.432 303.838 151.573 303.613 151.288 303.103C149.151 299.217 146.842 295.331 145.493 291.152C144.863 289.209 146.257 286.606 146.73 284.303C147.247 284.235 147.772 284.16 148.296 284.093Z" fill="#414245"/>
    <path d="M584.015 395.07C580.214 390.141 576.525 385.655 573.197 380.914C571.12 377.958 574.793 377.508 575.543 375.64C583.79 382.437 588.438 389.324 584.015 395.07Z" fill="#414245"/>
    <path d="M357.179 182.318C415.828 184.074 462.481 205.042 498.759 247.527C520.598 273.102 534.407 302.961 538.118 336.345C543.524 384.982 532.226 429.829 502.388 469.238C476.118 503.936 441.542 526.06 399.252 536.045C384.003 539.646 368.544 540.306 352.868 539.323C326.539 537.68 301.439 531.596 278.266 519.03C229.153 492.39 197.613 451.961 185.243 397.18C181.382 380.075 179.89 362.603 182.064 345.138C192.268 263.282 248.248 204.03 320.878 186.407C322.205 186.084 323.54 185.739 324.897 185.604C336.644 184.374 348.4 183.204 357.179 182.318ZM361.01 186.054C264.096 185.829 185.461 264.099 184.861 360.84C184.261 458.068 262.799 536.848 358.768 537.815C456.694 538.806 536.334 459.478 536.416 362.28C536.514 265.037 458.26 186.28 361.01 186.054Z" fill="#414245"/>
    <circle cx="361.334" cy="362.001" r="170" fill="#414245"/>
  </mask>
  <g mask="url(#maskMenu)">
    <rect x="-280" width="1280" height="720" fill="url(#patternMenu)"/>
  </g>
  <defs>
    <pattern id="patternMenu" patternContentUnits="objectBoundingBox" width="1" height="1">
      <use xlink:href="#image0" transform="scale(0.000250892 0.00044603)"/>
    </pattern>
    <image id="image0" width="3986" height="2242" xlink:href="img/promo-1280.jpg"/>
  </defs>
</svg>