<svg xmlns="http://www.w3.org/2000/svg" xmlns:xlink="http://www.w3.org/1999/xlink">
  <symbol id="dudinka" viewBox="0 0 80 12">
    <path d="M8.12 0.199219H1.764V5.08522C1.764 6.58322 1.484 7.71722 0.91 8.45922H0V11.8752H1.61V9.99922H7.56V11.8752H9.17V8.45922H8.12V0.199219ZM2.674 8.45922C3.136 7.68922 3.374 6.56922 3.374 5.11322V1.71122H6.51V8.45922H2.674Z" />
    <path d="M16.3913 5.36522L14.0113 0.199219H12.3873L15.6493 7.12922C15.2433 8.17922 14.5993 8.61322 13.4933 8.50122V9.99922C15.1593 10.0972 16.3773 9.25722 17.1193 7.47922L20.1573 0.199219H18.5333L16.3913 5.36522Z" />
    <path d="M30.5911 0.199219H24.2351V5.08522C24.2351 6.58322 23.9551 7.71722 23.3811 8.45922H22.4711V11.8752H24.0811V9.99922H30.0311V11.8752H31.6411V8.45922H30.5911V0.199219ZM25.1451 8.45922C25.6071 7.68922 25.8451 6.56922 25.8451 5.11322V1.71122H28.9811V8.45922H25.1451Z" />
    <path d="M43.3338 9.99922V0.199219H42.0738L37.4538 6.84922V0.199219H35.8438V9.99922H37.1038L41.7238 3.34922V9.99922H43.3338Z" />
    <path d="M53.9011 4.21722H49.7011V0.199219H48.0911V9.99922H49.7011V5.75722H53.9011V9.99922H55.5111V0.199219H53.9011V4.21722Z" />
    <path d="M63.56 4.97322L67.522 0.199219H65.604L61.88 4.59522V0.199219H60.27V9.99922H61.88V5.33722L65.744 9.99922H67.662L63.56 4.97322Z" />
    <path d="M79.8306 9.99922L76.2886 0.199219H74.3566L70.8006 9.99922H72.5506L73.2366 8.02522H77.4086L78.0946 9.99922H79.8306ZM75.3226 2.08922L76.8766 6.51322H73.7686L75.3226 2.08922Z" />
  </symbol>
  <symbol id="tyjaha" viewBox="0 0 57 10">
    <path d="M0 0.199219V1.73922H2.772V9.99922H4.382V1.73922H7.14V0.199219H0Z" />
    <path d="M14.7425 9.99922C15.6665 9.99922 16.4365 9.69122 17.0525 9.07522C17.6825 8.44522 17.9905 7.68922 17.9905 6.77922C17.9905 5.86922 17.6825 5.11322 17.0525 4.49722C16.4365 3.86722 15.6665 3.55922 14.7425 3.55922H12.7405V0.199219H11.1305V9.99922H14.7425ZM20.5525 9.99922V0.199219H18.9425V9.99922H20.5525ZM12.7405 5.07122H14.7425C15.6945 5.07122 16.3805 5.78522 16.3805 6.77922C16.3805 7.77322 15.6945 8.48722 14.7425 8.48722H12.7405V5.07122Z" />
    <path d="M28.1612 0.199219C27.2792 0.199219 26.5372 0.507219 25.9212 1.12322C25.3192 1.72522 25.0112 2.46722 25.0112 3.34922C25.0112 4.02122 25.2212 4.63722 25.6272 5.18322C26.0472 5.72922 26.5792 6.09322 27.2232 6.28922L24.7312 9.99922H26.5512L28.9172 6.42922H30.4712V9.99922H32.0812V0.199219H28.1612ZM28.1612 4.98722C27.3072 4.98722 26.6212 4.25922 26.6212 3.34922C26.6212 2.43922 27.3072 1.71122 28.1612 1.71122H30.4712V4.98722H28.1612Z" />
    <path d="M40.9859 4.95922L43.8839 0.199219H42.0499L40.0619 3.46122L38.0739 0.199219H36.2539L39.1519 4.95922L36.0719 9.99922H37.9059L40.0619 6.45722L42.2179 9.99922H44.0519L40.9859 4.95922Z" />
    <path d="M56.1564 9.99922L52.6144 0.199219H50.6824L47.1264 9.99922H48.8764L49.5624 8.02522H53.7344L54.4204 9.99922H56.1564ZM51.6484 2.08922L53.2024 6.51322H50.0944L51.6484 2.08922Z" />
  </symbol>
  <symbol id="igarka" viewBox="0 0 64 10">
    <path d="M7.49 9.99922V0.199219H6.23L1.61 6.84922V0.199219H0V9.99922H1.26L5.88 3.34922V9.99922H7.49Z" />
    <path d="M12.2473 0.199219V9.99922H13.8573V1.73922H17.7773V0.199219H12.2473Z" />
    <path d="M28.7727 9.99922L25.2307 0.199219H23.2987L19.7427 9.99922H21.4927L22.1787 8.02522H26.3507L27.0367 9.99922H28.7727ZM24.2647 2.08922L25.8187 6.51322H22.7107L24.2647 2.08922Z" />
    <path d="M32.6266 0.199219V9.99922H34.2366V6.63922H36.2386C37.1626 6.63922 37.9326 6.33122 38.5486 5.71522C39.1786 5.08522 39.4866 4.32922 39.4866 3.41922C39.4866 2.50922 39.1786 1.73922 38.5486 1.12322C37.9326 0.507219 37.1626 0.199219 36.2386 0.199219H32.6266ZM34.2366 5.12722V1.71122H36.2386C37.1906 1.71122 37.8766 2.42522 37.8766 3.41922C37.8766 4.41322 37.1906 5.12722 36.2386 5.12722H34.2366Z" />
    <path d="M46.9744 4.97322L50.9364 0.199219H49.0184L45.2944 4.59522V0.199219H43.6844V9.99922H45.2944V5.33722L49.1584 9.99922H51.0764L46.9744 4.97322Z" />
    <path d="M63.245 9.99922L59.703 0.199219H57.771L54.215 9.99922H55.965L56.651 8.02522H60.823L61.509 9.99922H63.245ZM58.737 2.08922L60.291 6.51322H57.183L58.737 2.08922Z" />
  </symbol>
  <symbol id="ermakovo" viewBox="0 0 93 11">
    <path d="M1.61 5.81358H5.53V4.28758H1.61V1.73958H5.88V0.199578H0V9.99958H5.95V8.45958H1.61V5.81358Z" />
    <path d="M10.2238 0.199578V9.99958H11.8338V6.63958H13.8358C14.7598 6.63958 15.5298 6.33158 16.1458 5.71558C16.7758 5.08558 17.0838 4.32958 17.0838 3.41958C17.0838 2.50958 16.7758 1.73958 16.1458 1.12358C15.5298 0.507579 14.7598 0.199578 13.8358 0.199578H10.2238ZM11.8338 5.12758V1.71158H13.8358C14.7878 1.71158 15.4738 2.42558 15.4738 3.41958C15.4738 4.41358 14.7878 5.12758 13.8358 5.12758H11.8338Z" />
    <path d="M28.9396 0.199578L25.9716 5.09958L23.0176 0.199578H21.2816V9.99958H22.8916V2.99958L25.8736 7.94158H26.0696L29.0516 3.01358V9.99958H30.6616V0.199578H28.9396Z" />
    <path d="M43.5356 9.99958L39.9936 0.199578H38.0616L34.5056 9.99958H36.2556L36.9416 8.02558H41.1136L41.7996 9.99958H43.5356ZM39.0276 2.08958L40.5816 6.51358H37.4736L39.0276 2.08958Z" />
    <path d="M50.6795 4.97358L54.6415 0.199578H52.7235L48.9995 4.59558V0.199578H47.3895V9.99958H48.9995V5.33758L52.8635 9.99958H54.7815L50.6795 4.97358Z" />
    <path d="M65.981 8.71158C66.975 7.71758 67.465 6.51358 67.465 5.09958C67.465 3.68558 66.975 2.48158 65.981 1.50158C65.001 0.507579 63.797 0.0175781 62.383 0.0175781C60.969 0.0175781 59.765 0.507579 58.771 1.50158C57.791 2.48158 57.301 3.68558 57.301 5.09958C57.301 6.51358 57.791 7.71758 58.771 8.71158C59.765 9.69158 60.969 10.1816 62.383 10.1816C63.797 10.1816 65.001 9.69158 65.981 8.71158ZM59.905 7.61958C59.247 6.94758 58.911 6.10758 58.911 5.09958C58.911 4.09158 59.247 3.25158 59.905 2.59358C60.577 1.92158 61.403 1.58558 62.383 1.58558C63.363 1.58558 64.189 1.92158 64.847 2.59358C65.519 3.25158 65.855 4.09158 65.855 5.09958C65.855 6.10758 65.519 6.94758 64.847 7.61958C64.189 8.27758 63.363 8.61358 62.383 8.61358C61.403 8.61358 60.577 8.27758 59.905 7.61958Z" />
    <path d="M77.5016 4.91758C78.1596 4.42758 78.4956 3.76958 78.4956 2.91558C78.4956 2.14558 78.2156 1.50158 77.6556 0.983578C77.1096 0.465578 76.4236 0.199578 75.6256 0.199578H71.7336V9.99958H75.9336C76.7596 9.99958 77.4456 9.73358 78.0196 9.20158C78.5936 8.66958 78.8736 7.99758 78.8736 7.19958C78.8736 6.17758 78.3556 5.36558 77.5016 4.91758ZM75.6256 1.71158C76.3396 1.71158 76.8856 2.27158 76.8856 2.99958C76.8856 3.72758 76.3396 4.28758 75.6256 4.28758H73.3436V1.71158H75.6256ZM73.3436 8.48758V5.74358H75.9336C76.6756 5.74358 77.2636 6.34558 77.2636 7.11558C77.2636 7.88558 76.6756 8.48758 75.9336 8.48758H73.3436Z" />
    <path d="M91.2685 8.71158C92.2625 7.71758 92.7525 6.51358 92.7525 5.09958C92.7525 3.68558 92.2625 2.48158 91.2685 1.50158C90.2885 0.507579 89.0845 0.0175781 87.6705 0.0175781C86.2565 0.0175781 85.0525 0.507579 84.0585 1.50158C83.0785 2.48158 82.5885 3.68558 82.5885 5.09958C82.5885 6.51358 83.0785 7.71758 84.0585 8.71158C85.0525 9.69158 86.2565 10.1816 87.6705 10.1816C89.0845 10.1816 90.2885 9.69158 91.2685 8.71158ZM85.1925 7.61958C84.5345 6.94758 84.1985 6.10758 84.1985 5.09958C84.1985 4.09158 84.5345 3.25158 85.1925 2.59358C85.8645 1.92158 86.6905 1.58558 87.6705 1.58558C88.6505 1.58558 89.4765 1.92158 90.1345 2.59358C90.8065 3.25158 91.1425 4.09158 91.1425 5.09958C91.1425 6.10758 90.8065 6.94758 90.1345 7.61958C89.4765 8.27758 88.6505 8.61358 87.6705 8.61358C86.6905 8.61358 85.8645 8.27758 85.1925 7.61958Z" />
  </symbol>
  <symbol id="turuhansk" viewBox="0 0 100 11">
    <path d="M0 0.199578V1.73958H2.772V9.99958H4.382V1.73958H7.14V0.199578H0Z" />
    <path d="M14.5045 5.36558L12.1245 0.199578H10.5005L13.7625 7.12958C13.3565 8.17958 12.7125 8.61358 11.6065 8.50158V9.99958C13.2725 10.0976 14.4905 9.25758 15.2325 7.47958L18.2705 0.199578H16.6465L14.5045 5.36558Z" />
    <path d="M22.1884 0.199578V9.99958H23.7984V6.63958H25.8004C26.7244 6.63958 27.4944 6.33158 28.1104 5.71558C28.7404 5.08558 29.0484 4.32958 29.0484 3.41958C29.0484 2.50958 28.7404 1.73958 28.1104 1.12358C27.4944 0.507579 26.7244 0.199578 25.8004 0.199578H22.1884ZM23.7984 5.12758V1.71158H25.8004C26.7524 1.71158 27.4384 2.42558 27.4384 3.41958C27.4384 4.41358 26.7524 5.12758 25.8004 5.12758H23.7984Z" />
    <path d="M36.1963 5.36558L33.8163 0.199578H32.1923L35.4543 7.12958C35.0483 8.17958 34.4043 8.61358 33.2983 8.50158V9.99958C34.9643 10.0976 36.1823 9.25758 36.9243 7.47958L39.9623 0.199578H38.3383L36.1963 5.36558Z" />
    <path d="M48.0242 4.95958L50.9222 0.199578H49.0882L47.1002 3.46158L45.1122 0.199578H43.2922L46.1902 4.95958L43.1102 9.99958H44.9442L47.1002 6.45758L49.2562 9.99958H51.0902L48.0242 4.95958Z" />
    <path d="M63.1947 9.99958L59.6527 0.199578H57.7207L54.1647 9.99958H55.9147L56.6007 8.02558H60.7727L61.4587 9.99958H63.1947ZM58.6867 2.08958L60.2407 6.51358H57.1327L58.6867 2.08958Z" />
    <path d="M72.8585 4.21758H68.6585V0.199578H67.0485V9.99958H68.6585V5.75758H72.8585V9.99958H74.4685V0.199578H72.8585V4.21758Z" />
    <path d="M83.8614 10.1816C84.7574 10.1816 85.5834 9.97158 86.3254 9.55158C87.0814 9.11758 87.6694 8.54358 88.0754 7.82958L86.6754 7.03158C86.1714 7.99758 85.0934 8.61358 83.8614 8.61358C82.8114 8.61358 81.9714 8.27758 81.3134 7.61958C80.6694 6.96158 80.3474 6.12158 80.3474 5.09958C80.3474 4.07758 80.6694 3.23758 81.3134 2.57958C81.9714 1.92158 82.8114 1.58558 83.8614 1.58558C85.0934 1.58558 86.1574 2.20158 86.6754 3.16758L88.0754 2.35558C87.2354 0.913578 85.6394 0.0175781 83.8614 0.0175781C82.3914 0.0175781 81.1594 0.507578 80.1934 1.48758C79.2274 2.45358 78.7374 3.65758 78.7374 5.09958C78.7374 6.54158 79.2274 7.74558 80.1934 8.72558C81.1594 9.69158 82.3914 10.1816 83.8614 10.1816Z" />
    <path d="M95.503 4.97358L99.465 0.199578H97.547L93.823 4.59558V0.199578H92.213V9.99958H93.823V5.33758L97.687 9.99958H99.605L95.503 4.97358Z" />
  </symbol>
  <symbol id="kangotovo" viewBox="0 0 103 11">
    <path d="M3.29 4.97358L7.252 0.199578H5.334L1.61 4.59558V0.199578H0V9.99958H1.61V5.33758L5.474 9.99958H7.392L3.29 4.97358Z" />
    <path d="M19.5606 9.99958L16.0186 0.199578H14.0866L10.5306 9.99958H12.2806L12.9666 8.02558H17.1386L17.8246 9.99958H19.5606ZM15.0526 2.08958L16.6066 6.51358H13.4986L15.0526 2.08958Z" />
    <path d="M29.2245 4.21758H25.0245V0.199578H23.4145V9.99958H25.0245V5.75758H29.2245V9.99958H30.8345V0.199578H29.2245V4.21758Z" />
    <path d="M35.5934 0.199578V9.99958H37.2034V1.73958H41.1234V0.199578H35.5934Z" />
    <path d="M52.681 8.71158C53.675 7.71758 54.165 6.51358 54.165 5.09958C54.165 3.68558 53.675 2.48158 52.681 1.50158C51.701 0.507579 50.497 0.0175781 49.083 0.0175781C47.669 0.0175781 46.465 0.507579 45.471 1.50158C44.491 2.48158 44.001 3.68558 44.001 5.09958C44.001 6.51358 44.491 7.71758 45.471 8.71158C46.465 9.69158 47.669 10.1816 49.083 10.1816C50.497 10.1816 51.701 9.69158 52.681 8.71158ZM46.605 7.61958C45.947 6.94758 45.611 6.10758 45.611 5.09958C45.611 4.09158 45.947 3.25158 46.605 2.59358C47.277 1.92158 48.103 1.58558 49.083 1.58558C50.063 1.58558 50.889 1.92158 51.547 2.59358C52.219 3.25158 52.555 4.09158 52.555 5.09958C52.555 6.10758 52.219 6.94758 51.547 7.61958C50.889 8.27758 50.063 8.61358 49.083 8.61358C48.103 8.61358 47.277 8.27758 46.605 7.61958Z" />
    <path d="M57.103 0.199578V1.73958H59.875V9.99958H61.485V1.73958H64.243V0.199578H57.103Z" />
    <path d="M75.863 8.71158C76.857 7.71758 77.347 6.51358 77.347 5.09958C77.347 3.68558 76.857 2.48158 75.863 1.50158C74.883 0.507579 73.679 0.0175781 72.265 0.0175781C70.851 0.0175781 69.647 0.507579 68.653 1.50158C67.673 2.48158 67.183 3.68558 67.183 5.09958C67.183 6.51358 67.673 7.71758 68.653 8.71158C69.647 9.69158 70.851 10.1816 72.265 10.1816C73.679 10.1816 74.883 9.69158 75.863 8.71158ZM69.787 7.61958C69.1291 6.94758 68.793 6.10758 68.793 5.09958C68.793 4.09158 69.1291 3.25158 69.787 2.59358C70.459 1.92158 71.285 1.58558 72.265 1.58558C73.245 1.58558 74.0711 1.92158 74.729 2.59358C75.401 3.25158 75.737 4.09158 75.737 5.09958C75.737 6.10758 75.401 6.94758 74.729 7.61958C74.0711 8.27758 73.245 8.61358 72.265 8.61358C71.285 8.61358 70.459 8.27758 69.787 7.61958Z" />
    <path d="M87.3836 4.91758C88.0416 4.42758 88.3776 3.76958 88.3776 2.91558C88.3776 2.14558 88.0976 1.50158 87.5376 0.983578C86.9916 0.465578 86.3056 0.199578 85.5076 0.199578H81.6156V9.99958H85.8156C86.6416 9.99958 87.3276 9.73358 87.9016 9.20158C88.4756 8.66958 88.7556 7.99758 88.7556 7.19958C88.7556 6.17758 88.2376 5.36558 87.3836 4.91758ZM85.5076 1.71158C86.2216 1.71158 86.7676 2.27158 86.7676 2.99958C86.7676 3.72758 86.2216 4.28758 85.5076 4.28758H83.2256V1.71158H85.5076ZM83.2256 8.48758V5.74358H85.8156C86.5576 5.74358 87.1456 6.34558 87.1456 7.11558C87.1456 7.88558 86.5576 8.48758 85.8156 8.48758H83.2256Z" />
    <path d="M101.151 8.71158C102.145 7.71758 102.635 6.51358 102.635 5.09958C102.635 3.68558 102.145 2.48158 101.151 1.50158C100.171 0.507579 98.9665 0.0175781 97.5525 0.0175781C96.1385 0.0175781 94.9345 0.507579 93.9405 1.50158C92.9605 2.48158 92.4705 3.68558 92.4705 5.09958C92.4705 6.51358 92.9605 7.71758 93.9405 8.71158C94.9345 9.69158 96.1385 10.1816 97.5525 10.1816C98.9665 10.1816 100.171 9.69158 101.151 8.71158ZM95.0745 7.61958C94.4165 6.94758 94.0805 6.10758 94.0805 5.09958C94.0805 4.09158 94.4165 3.25158 95.0745 2.59358C95.7465 1.92158 96.5725 1.58558 97.5525 1.58558C98.5325 1.58558 99.3586 1.92158 100.017 2.59358C100.689 3.25158 101.025 4.09158 101.025 5.09958C101.025 6.10758 100.689 6.94758 100.017 7.61958C99.3586 8.27758 98.5325 8.61358 97.5525 8.61358C96.5725 8.61358 95.7465 8.27758 95.0745 7.61958Z" />
  </symbol>
  <symbol id="staroobryadci" viewBox="0 0 150 26">
    <path d="M8.33094 0.199219H1.97494V5.08522C1.97494 6.58322 1.69494 7.71722 1.12094 8.45922H0.210938V11.8752H1.82094V9.99922H7.77094V11.8752H9.38094V8.45922H8.33094V0.199219ZM2.88494 8.45922C3.34694 7.68922 3.58494 6.56922 3.58494 5.11322V1.71122H6.72094V8.45922H2.88494Z" />
    <path d="M15.1937 5.81322H19.1137V4.28722H15.1937V1.73922H19.4637V0.199219H13.5837V9.99922H19.5337V8.45922H15.1937V5.81322Z" />
    <path d="M23.8075 0.199219V9.99922H25.4175V6.63922H27.4195C28.3435 6.63922 29.1135 6.33122 29.7295 5.71522C30.3595 5.08522 30.6675 4.32922 30.6675 3.41922C30.6675 2.50922 30.3595 1.73922 29.7295 1.12322C29.1135 0.507219 28.3435 0.199219 27.4195 0.199219H23.8075ZM25.4175 5.12722V1.71122H27.4195C28.3715 1.71122 29.0575 2.42522 29.0575 3.41922C29.0575 4.41322 28.3715 5.12722 27.4195 5.12722H25.4175Z" />
    <path d="M36.4753 5.81322H40.3953V4.28722H36.4753V1.73922H40.7453V0.199219H34.8653V9.99922H40.8153V8.45922H36.4753V5.81322Z" />
    <path d="M50.8571 4.91722C51.5151 4.42722 51.8511 3.76922 51.8511 2.91522C51.8511 2.14522 51.5711 1.50122 51.0111 0.983219C50.4651 0.465219 49.7791 0.199219 48.9811 0.199219H45.0891V9.99922H49.2891C50.1151 9.99922 50.8011 9.73322 51.3751 9.20122C51.9491 8.66922 52.2291 7.99722 52.2291 7.19922C52.2291 6.17722 51.7111 5.36522 50.8571 4.91722ZM48.9811 1.71122C49.6951 1.71122 50.2411 2.27122 50.2411 2.99922C50.2411 3.72722 49.6951 4.28722 48.9811 4.28722H46.6991V1.71122H48.9811ZM46.6991 8.48722V5.74322H49.2891C50.0311 5.74322 50.6191 6.34522 50.6191 7.11522C50.6191 7.88522 50.0311 8.48722 49.2891 8.48722H46.6991Z" />
    <path d="M62.2441 4.21722H58.0441V0.199219H56.4341V9.99922H58.0441V5.75722H62.2441V9.99922H63.8541V0.199219H62.2441V4.21722Z" />
    <path d="M71.455 0.199219C70.573 0.199219 69.831 0.507219 69.215 1.12322C68.613 1.72522 68.305 2.46722 68.305 3.34922C68.305 4.02122 68.515 4.63722 68.921 5.18322C69.341 5.72922 69.873 6.09322 70.517 6.28922L68.025 9.99922H69.845L72.211 6.42922H73.765V9.99922H75.375V0.199219H71.455ZM71.455 4.98722C70.601 4.98722 69.915 4.25922 69.915 3.34922C69.915 2.43922 70.601 1.71122 71.455 1.71122H73.765V4.98722H71.455Z" />
    <path d="M5.61494 24.1812C6.51094 24.1812 7.33694 23.9712 8.07894 23.5512C8.83494 23.1172 9.42294 22.5432 9.82894 21.8292L8.42894 21.0312C7.92494 21.9972 6.84694 22.6132 5.61494 22.6132C4.56494 22.6132 3.72494 22.2772 3.06694 21.6192C2.42294 20.9612 2.10094 20.1212 2.10094 19.0992C2.10094 18.0772 2.42294 17.2372 3.06694 16.5792C3.72494 15.9212 4.56494 15.5852 5.61494 15.5852C6.84694 15.5852 7.91094 16.2012 8.42894 17.1672L9.82894 16.3552C8.98894 14.9132 7.39294 14.0172 5.61494 14.0172C4.14494 14.0172 2.91294 14.5072 1.94694 15.4872C0.980937 16.4532 0.490938 17.6572 0.490938 19.0992C0.490938 20.5412 0.980937 21.7452 1.94694 22.7252C2.91294 23.6912 4.14494 24.1812 5.61494 24.1812Z" />
    <path d="M13.1281 14.1992V15.7392H15.9001V23.9992H17.5101V15.7392H20.2681V14.1992H13.1281Z" />
    <path d="M31.6814 23.9992L28.1394 14.1992H26.2074L22.6514 23.9992H24.4014L25.0874 22.0252H29.2594L29.9454 23.9992H31.6814ZM27.1734 16.0892L28.7274 20.5132H25.6194L27.1734 16.0892Z" />
    <path d="M35.5352 14.1992V23.9992H37.1452V20.6392H39.1472C40.0712 20.6392 40.8412 20.3312 41.4572 19.7152C42.0872 19.0852 42.3952 18.3292 42.3952 17.4192C42.3952 16.5092 42.0872 15.7392 41.4572 15.1232C40.8412 14.5072 40.0712 14.1992 39.1472 14.1992H35.5352ZM37.1452 19.1272V15.7112H39.1472C40.0992 15.7112 40.7852 16.4252 40.7852 17.4192C40.7852 18.4132 40.0992 19.1272 39.1472 19.1272H37.1452Z" />
    <path d="M54.701 22.7112C55.695 21.7172 56.185 20.5132 56.185 19.0992C56.185 17.6852 55.695 16.4812 54.701 15.5012C53.721 14.5072 52.517 14.0172 51.103 14.0172C49.689 14.0172 48.485 14.5072 47.491 15.5012C46.511 16.4812 46.021 17.6852 46.021 19.0992C46.021 20.5132 46.511 21.7172 47.491 22.7112C48.485 23.6912 49.689 24.1812 51.103 24.1812C52.517 24.1812 53.721 23.6912 54.701 22.7112ZM48.625 21.6192C47.967 20.9472 47.631 20.1072 47.631 19.0992C47.631 18.0912 47.967 17.2512 48.625 16.5932C49.297 15.9212 50.123 15.5852 51.103 15.5852C52.083 15.5852 52.909 15.9212 53.567 16.5932C54.239 17.2512 54.575 18.0912 54.575 19.0992C54.575 20.1072 54.239 20.9472 53.567 21.6192C52.909 22.2772 52.083 22.6132 51.103 22.6132C50.123 22.6132 49.297 22.2772 48.625 21.6192Z" />
    <path d="M68.6436 22.7112C69.6376 21.7172 70.1276 20.5132 70.1276 19.0992C70.1276 17.6852 69.6376 16.4812 68.6436 15.5012C67.6636 14.5072 66.4596 14.0172 65.0456 14.0172C63.6316 14.0172 62.4276 14.5072 61.4336 15.5012C60.4536 16.4812 59.9636 17.6852 59.9636 19.0992C59.9636 20.5132 60.4536 21.7172 61.4336 22.7112C62.4276 23.6912 63.6316 24.1812 65.0456 24.1812C66.4596 24.1812 67.6636 23.6912 68.6436 22.7112ZM62.5676 21.6192C61.9096 20.9472 61.5736 20.1072 61.5736 19.0992C61.5736 18.0912 61.9096 17.2512 62.5676 16.5932C63.2396 15.9212 64.0656 15.5852 65.0456 15.5852C66.0256 15.5852 66.8516 15.9212 67.5096 16.5932C68.1816 17.2512 68.5176 18.0912 68.5176 19.0992C68.5176 20.1072 68.1816 20.9472 67.5096 21.6192C66.8516 22.2772 66.0256 22.6132 65.0456 22.6132C64.0656 22.6132 63.2396 22.2772 62.5676 21.6192Z" />
    <path d="M76.0062 17.9792V15.7392H80.4162V14.1992H74.3962V23.9992H78.1062C79.0162 23.9992 79.7582 23.7192 80.3602 23.1452C80.9622 22.5712 81.2562 21.8572 81.2562 20.9892C81.2562 20.1212 80.9622 19.4072 80.3602 18.8332C79.7582 18.2592 79.0162 17.9792 78.1062 17.9792H76.0062ZM76.0062 22.4872V19.4912H78.1062C78.9882 19.4912 79.6462 20.0932 79.6462 20.9892C79.6462 21.8852 78.9882 22.4872 78.1062 22.4872H76.0062Z" />
    <path d="M85.3856 14.1992V23.9992H86.9956V20.6392H88.9976C89.9216 20.6392 90.6916 20.3312 91.3076 19.7152C91.9376 19.0852 92.2456 18.3292 92.2456 17.4192C92.2456 16.5092 91.9376 15.7392 91.3076 15.1232C90.6916 14.5072 89.9216 14.1992 88.9976 14.1992H85.3856ZM86.9956 19.1272V15.7112H88.9976C89.9496 15.7112 90.6356 16.4252 90.6356 17.4192C90.6356 18.4132 89.9496 19.1272 88.9976 19.1272H86.9956Z" />
    <path d="M98.9163 14.1992C98.0343 14.1992 97.2923 14.5072 96.6763 15.1232C96.0743 15.7252 95.7663 16.4672 95.7663 17.3492C95.7663 18.0212 95.9763 18.6372 96.3823 19.1832C96.8023 19.7292 97.3343 20.0932 97.9783 20.2892L95.4863 23.9992H97.3063L99.6723 20.4292H101.226V23.9992H102.836V14.1992H98.9163ZM98.9163 18.9872C98.0623 18.9872 97.3763 18.2592 97.3763 17.3492C97.3763 16.4392 98.0623 15.7112 98.9163 15.7112H101.226V18.9872H98.9163Z" />
    <path d="M114.947 14.1992H108.591V19.0852C108.591 20.5832 108.311 21.7172 107.737 22.4592H106.827V25.8752H108.437V23.9992H114.387V25.8752H115.997V22.4592H114.947V14.1992ZM109.501 22.4592C109.963 21.6892 110.201 20.5692 110.201 19.1132V15.7112H113.337V22.4592H109.501Z" />
    <path d="M127.41 14.1992H125.8V22.4592H121.81V14.1992H120.2V23.9992H126.85V25.8752H128.46V22.4592H127.41V14.1992Z" />
    <path d="M134.276 19.8132H138.196V18.2872H134.276V15.7392H138.546V14.1992H132.666V23.9992H138.616V22.4592H134.276V19.8132Z" />
    <path d="M148.658 18.9172C149.316 18.4272 149.652 17.7692 149.652 16.9152C149.652 16.1452 149.372 15.5012 148.812 14.9832C148.266 14.4652 147.58 14.1992 146.782 14.1992H142.89V23.9992H147.09C147.916 23.9992 148.602 23.7332 149.176 23.2012C149.75 22.6692 150.03 21.9972 150.03 21.1992C150.03 20.1772 149.512 19.3652 148.658 18.9172ZM146.782 15.7112C147.496 15.7112 148.042 16.2712 148.042 16.9992C148.042 17.7272 147.496 18.2872 146.782 18.2872H144.5V15.7112H146.782ZM144.5 22.4872V19.7432H147.09C147.832 19.7432 148.42 20.3452 148.42 21.1152C148.42 21.8852 147.832 22.4872 147.09 22.4872H144.5Z" />
  </symbol>
  <symbol id="bahta" viewBox="0 0 52 10">
    <path d="M1.61 3.97922V1.73922H6.02V0.199219H0V9.99922H3.71C4.62 9.99922 5.362 9.71922 5.964 9.14522C6.566 8.57122 6.86 7.85722 6.86 6.98922C6.86 6.12122 6.566 5.40722 5.964 4.83322C5.362 4.25922 4.62 3.97922 3.71 3.97922H1.61ZM1.61 8.48722V5.49122H3.71C4.592 5.49122 5.25 6.09322 5.25 6.98922C5.25 7.88522 4.592 8.48722 3.71 8.48722H1.61Z" />
    <path d="M18.8907 9.99922L15.3487 0.199219H13.4167L9.8607 9.99922H11.6107L12.2967 8.02522H16.4687L17.1547 9.99922H18.8907ZM14.3827 2.08922L15.9367 6.51322H12.8287L14.3827 2.08922Z" />
    <path d="M26.8885 4.95922L29.7865 0.199219H27.9525L25.9645 3.46122L23.9765 0.199219H22.1565L25.0545 4.95922L21.9745 9.99922H23.8085L25.9645 6.45722L28.1205 9.99922H29.9545L26.8885 4.95922Z" />
    <path d="M33.1691 0.199219V1.73922H35.9411V9.99922H37.5511V1.73922H40.3091V0.199219H33.1691Z" />
    <path d="M51.7223 9.99922L48.1803 0.199219H46.2483L42.6923 9.99922H44.4423L45.1283 8.02522H49.3003L49.9863 9.99922H51.7223ZM47.2143 2.08922L48.7683 6.51322H45.6603L47.2143 2.08922Z" />
  </symbol>
  <symbol id="vorogovo" viewBox="0 0 95 11">
    <path d="M5.768 4.91758C6.426 4.42758 6.762 3.76958 6.762 2.91558C6.762 2.14558 6.482 1.50158 5.922 0.983578C5.376 0.465578 4.69 0.199578 3.892 0.199578H0V9.99958H4.2C5.026 9.99958 5.712 9.73358 6.286 9.20158C6.86 8.66958 7.14 7.99758 7.14 7.19958C7.14 6.17758 6.622 5.36558 5.768 4.91758ZM3.892 1.71158C4.606 1.71158 5.152 2.27158 5.152 2.99958C5.152 3.72758 4.606 4.28758 3.892 4.28758H1.61V1.71158H3.892ZM1.61 8.48758V5.74358H4.2C4.942 5.74358 5.53 6.34558 5.53 7.11558C5.53 7.88558 4.942 8.48758 4.2 8.48758H1.61Z" />
    <path d="M19.5349 8.71158C20.5289 7.71758 21.0189 6.51358 21.0189 5.09958C21.0189 3.68558 20.5289 2.48158 19.5349 1.50158C18.5549 0.507579 17.3509 0.0175781 15.9369 0.0175781C14.5229 0.0175781 13.3189 0.507579 12.3249 1.50158C11.3449 2.48158 10.8549 3.68558 10.8549 5.09958C10.8549 6.51358 11.3449 7.71758 12.3249 8.71158C13.3189 9.69158 14.5229 10.1816 15.9369 10.1816C17.3509 10.1816 18.5549 9.69158 19.5349 8.71158ZM13.4589 7.61958C12.8009 6.94758 12.4649 6.10758 12.4649 5.09958C12.4649 4.09158 12.8009 3.25158 13.4589 2.59358C14.1309 1.92158 14.9569 1.58558 15.9369 1.58558C16.9169 1.58558 17.7429 1.92158 18.4009 2.59358C19.0729 3.25158 19.4089 4.09158 19.4089 5.09958C19.4089 6.10758 19.0729 6.94758 18.4009 7.61958C17.7429 8.27758 16.9169 8.61358 15.9369 8.61358C14.9569 8.61358 14.1309 8.27758 13.4589 7.61958Z" />
    <path d="M25.2875 0.199578V9.99958H26.8975V6.63958H28.8995C29.8235 6.63958 30.5935 6.33158 31.2095 5.71558C31.8395 5.08558 32.1475 4.32958 32.1475 3.41958C32.1475 2.50958 31.8395 1.73958 31.2095 1.12358C30.5935 0.507579 29.8235 0.199578 28.8995 0.199578H25.2875ZM26.8975 5.12758V1.71158H28.8995C29.8515 1.71158 30.5375 2.42558 30.5375 3.41958C30.5375 4.41358 29.8515 5.12758 28.8995 5.12758H26.8975Z" />
    <path d="M44.4533 8.71158C45.4473 7.71758 45.9373 6.51358 45.9373 5.09958C45.9373 3.68558 45.4473 2.48158 44.4533 1.50158C43.4733 0.507579 42.2693 0.0175781 40.8553 0.0175781C39.4413 0.0175781 38.2373 0.507579 37.2433 1.50158C36.2633 2.48158 35.7733 3.68558 35.7733 5.09958C35.7733 6.51358 36.2633 7.71758 37.2433 8.71158C38.2373 9.69158 39.4413 10.1816 40.8553 10.1816C42.2693 10.1816 43.4733 9.69158 44.4533 8.71158ZM38.3773 7.61958C37.7193 6.94758 37.3833 6.10758 37.3833 5.09958C37.3833 4.09158 37.7193 3.25158 38.3773 2.59358C39.0493 1.92158 39.8753 1.58558 40.8553 1.58558C41.8353 1.58558 42.6613 1.92158 43.3193 2.59358C43.9913 3.25158 44.3273 4.09158 44.3273 5.09958C44.3273 6.10758 43.9913 6.94758 43.3193 7.61958C42.6613 8.27758 41.8353 8.61358 40.8553 8.61358C39.8753 8.61358 39.0493 8.27758 38.3773 7.61958Z" />
    <path d="M50.2059 0.199578V9.99958H51.8159V1.73958H55.7359V0.199578H50.2059Z" />
    <path d="M67.2935 8.71158C68.2875 7.71758 68.7775 6.51358 68.7775 5.09958C68.7775 3.68558 68.2875 2.48158 67.2935 1.50158C66.3135 0.507579 65.1095 0.0175781 63.6955 0.0175781C62.2815 0.0175781 61.0775 0.507579 60.0835 1.50158C59.1035 2.48158 58.6135 3.68558 58.6135 5.09958C58.6135 6.51358 59.1035 7.71758 60.0835 8.71158C61.0775 9.69158 62.2815 10.1816 63.6955 10.1816C65.1095 10.1816 66.3135 9.69158 67.2935 8.71158ZM61.2175 7.61958C60.5595 6.94758 60.2235 6.10758 60.2235 5.09958C60.2235 4.09158 60.5595 3.25158 61.2175 2.59358C61.8895 1.92158 62.7155 1.58558 63.6955 1.58558C64.6755 1.58558 65.5015 1.92158 66.1595 2.59358C66.8315 3.25158 67.1675 4.09158 67.1675 5.09958C67.1675 6.10758 66.8315 6.94758 66.1595 7.61958C65.5015 8.27758 64.6755 8.61358 63.6955 8.61358C62.7155 8.61358 61.8895 8.27758 61.2175 7.61958Z" />
    <path d="M78.8141 4.91758C79.4721 4.42758 79.8081 3.76958 79.8081 2.91558C79.8081 2.14558 79.5281 1.50158 78.9681 0.983578C78.4221 0.465578 77.7361 0.199578 76.9381 0.199578H73.0461V9.99958H77.2461C78.0721 9.99958 78.7581 9.73358 79.3321 9.20158C79.9061 8.66958 80.1861 7.99758 80.1861 7.19958C80.1861 6.17758 79.6681 5.36558 78.8141 4.91758ZM76.9381 1.71158C77.6521 1.71158 78.1981 2.27158 78.1981 2.99958C78.1981 3.72758 77.6521 4.28758 76.9381 4.28758H74.6561V1.71158H76.9381ZM74.6561 8.48758V5.74358H77.2461C77.9881 5.74358 78.5761 6.34558 78.5761 7.11558C78.5761 7.88558 77.9881 8.48758 77.2461 8.48758H74.6561Z" />
    <path d="M92.581 8.71158C93.575 7.71758 94.065 6.51358 94.065 5.09958C94.065 3.68558 93.575 2.48158 92.581 1.50158C91.601 0.507579 90.397 0.0175781 88.983 0.0175781C87.569 0.0175781 86.365 0.507579 85.371 1.50158C84.391 2.48158 83.901 3.68558 83.901 5.09958C83.901 6.51358 84.391 7.71758 85.371 8.71158C86.365 9.69158 87.569 10.1816 88.983 10.1816C90.397 10.1816 91.601 9.69158 92.581 8.71158ZM86.505 7.61958C85.847 6.94758 85.511 6.10758 85.511 5.09958C85.511 4.09158 85.847 3.25158 86.505 2.59358C87.177 1.92158 88.003 1.58558 88.983 1.58558C89.963 1.58558 90.789 1.92158 91.447 2.59358C92.119 3.25158 92.455 4.09158 92.455 5.09958C92.455 6.10758 92.119 6.94758 91.447 7.61958C90.789 8.27758 89.963 8.61358 88.983 8.61358C88.003 8.61358 87.177 8.27758 86.505 7.61958Z" />
  </symbol>
  <symbol id="jarcevo" viewBox="0 0 67 12">
    <path d="M3.43 0.199578C2.548 0.199578 1.806 0.507579 1.19 1.12358C0.588 1.72558 0.28 2.46758 0.28 3.34958C0.28 4.02158 0.49 4.63758 0.896 5.18358C1.316 5.72958 1.848 6.09358 2.492 6.28958L0 9.99958H1.82L4.186 6.42958H5.74V9.99958H7.35V0.199578H3.43ZM3.43 4.98758C2.576 4.98758 1.89 4.25958 1.89 3.34958C1.89 2.43958 2.576 1.71158 3.43 1.71158H5.74V4.98758H3.43Z" />
    <path d="M12.1107 0.199578V9.99958H13.7207V6.63958H15.7227C16.6467 6.63958 17.4167 6.33158 18.0327 5.71558C18.6627 5.08558 18.9707 4.32958 18.9707 3.41958C18.9707 2.50958 18.6627 1.73958 18.0327 1.12358C17.4167 0.507579 16.6467 0.199578 15.7227 0.199578H12.1107ZM13.7207 5.12758V1.71158H15.7227C16.6747 1.71158 17.3607 2.42558 17.3607 3.41958C17.3607 4.41358 16.6747 5.12758 15.7227 5.12758H13.7207Z" />
    <path d="M30.3785 0.199578H28.7685V8.45958H24.7785V0.199578H23.1685V9.99958H29.8185V11.8756H31.4285V8.45958H30.3785V0.199578Z" />
    <path d="M37.2445 5.81358H41.1645V4.28758H37.2445V1.73958H41.5145V0.199578H35.6345V9.99958H41.5845V8.45958H37.2445V5.81358Z" />
    <path d="M51.6263 4.91758C52.2843 4.42758 52.6203 3.76958 52.6203 2.91558C52.6203 2.14558 52.3403 1.50158 51.7803 0.983578C51.2343 0.465578 50.5483 0.199578 49.7503 0.199578H45.8583V9.99958H50.0583C50.8843 9.99958 51.5703 9.73358 52.1443 9.20158C52.7183 8.66958 52.9983 7.99758 52.9983 7.19958C52.9983 6.17758 52.4803 5.36558 51.6263 4.91758ZM49.7503 1.71158C50.4643 1.71158 51.0103 2.27158 51.0103 2.99958C51.0103 3.72758 50.4643 4.28758 49.7503 4.28758H47.4683V1.71158H49.7503ZM47.4683 8.48758V5.74358H50.0583C50.8003 5.74358 51.3883 6.34558 51.3883 7.11558C51.3883 7.88558 50.8003 8.48758 50.0583 8.48758H47.4683Z" />
    <path d="M65.3932 8.71158C66.3872 7.71758 66.8772 6.51358 66.8772 5.09958C66.8772 3.68558 66.3872 2.48158 65.3932 1.50158C64.4132 0.507579 63.2092 0.0175781 61.7952 0.0175781C60.3812 0.0175781 59.1772 0.507579 58.1832 1.50158C57.2032 2.48158 56.7132 3.68558 56.7132 5.09958C56.7132 6.51358 57.2032 7.71758 58.1832 8.71158C59.1772 9.69158 60.3812 10.1816 61.7952 10.1816C63.2092 10.1816 64.4132 9.69158 65.3932 8.71158ZM59.3172 7.61958C58.6592 6.94758 58.3232 6.10758 58.3232 5.09958C58.3232 4.09158 58.6592 3.25158 59.3172 2.59358C59.9892 1.92158 60.8152 1.58558 61.7952 1.58558C62.7752 1.58558 63.6012 1.92158 64.2592 2.59358C64.9312 3.25158 65.2672 4.09158 65.2672 5.09958C65.2672 6.10758 64.9312 6.94758 64.2592 7.61958C63.6012 8.27758 62.7752 8.61358 61.7952 8.61358C60.8152 8.61358 59.9892 8.27758 59.3172 7.61958Z" />
  </symbol>
  <symbol id="enisejsk" viewBox="0 0 91 13">
    <path d="M1.61 8.8143H5.53V7.2883H1.61V4.7403H5.88V3.2003H0V13.0003H5.95V11.4603H1.61V8.8143Z" />
    <path d="M16.0338 7.2183H11.8338V3.2003H10.2238V13.0003H11.8338V8.7583H16.0338V13.0003H17.6438V3.2003H16.0338V7.2183Z" />
    <path d="M29.8927 13.0003V3.2003H28.6327L24.0127 9.8503V3.2003H22.4027V13.0003H23.6627L28.2827 6.3503V13.0003H29.8927Z" />
    <path d="M39.284 13.1823C40.18 13.1823 41.006 12.9723 41.748 12.5523C42.504 12.1183 43.092 11.5443 43.498 10.8303L42.098 10.0323C41.594 10.9983 40.516 11.6143 39.284 11.6143C38.234 11.6143 37.394 11.2783 36.736 10.6203C36.092 9.9623 35.77 9.1223 35.77 8.1003C35.77 7.0783 36.092 6.2383 36.736 5.5803C37.394 4.9223 38.234 4.5863 39.284 4.5863C40.516 4.5863 41.58 5.2023 42.098 6.1683L43.498 5.3563C42.658 3.9143 41.062 3.0183 39.284 3.0183C37.814 3.0183 36.582 3.5083 35.616 4.4883C34.65 5.4543 34.16 6.6583 34.16 8.1003C34.16 9.5423 34.65 10.7463 35.616 11.7263C36.582 12.6923 37.814 13.1823 39.284 13.1823Z" />
    <path d="M49.2455 8.8143H53.1656V7.2883H49.2455V4.7403H53.5155V3.2003H47.6355V13.0003H53.5855V11.4603H49.2455V8.8143Z" />
    <path d="M63.5714 2.2203V0.904297H59.6514V2.2203H63.5714ZM65.3494 13.0003V3.2003H64.0894L59.4694 9.8503V3.2003H57.8594V13.0003H59.1194L63.7394 6.3503V13.0003H65.3494Z" />
    <path d="M74.7406 13.1823C75.6366 13.1823 76.4626 12.9723 77.2046 12.5523C77.9606 12.1183 78.5486 11.5443 78.9546 10.8303L77.5546 10.0323C77.0506 10.9983 75.9726 11.6143 74.7406 11.6143C73.6906 11.6143 72.8506 11.2783 72.1926 10.6203C71.5486 9.9623 71.2266 9.1223 71.2266 8.1003C71.2266 7.0783 71.5486 6.2383 72.1926 5.5803C72.8506 4.9223 73.6906 4.5863 74.7406 4.5863C75.9726 4.5863 77.0366 5.2023 77.5546 6.1683L78.9546 5.3563C78.1146 3.9143 76.5186 3.0183 74.7406 3.0183C73.2706 3.0183 72.0386 3.5083 71.0726 4.4883C70.1066 5.4543 69.6166 6.6583 69.6166 8.1003C69.6166 9.5423 70.1066 10.7463 71.0726 11.7263C72.0386 12.6923 73.2706 13.1823 74.7406 13.1823Z" />
    <path d="M86.3822 7.9743L90.3442 3.2003H88.4262L84.7022 7.5963V3.2003H83.0922V13.0003H84.7022V8.3383L88.5662 13.0003H90.4842L86.3822 7.9743Z" />
  </symbol>
  <symbol id="galanino" viewBox="0 0 92 11">
    <path d="M0 0.199578V9.99958H1.61V1.73958H5.53V0.199578H0Z" />
    <path d="M16.5255 9.99958L12.9835 0.199578H11.0515L7.49547 9.99958H9.24547L9.93147 8.02558H14.1035L14.7895 9.99958H16.5255ZM12.0175 2.08958L13.5715 6.51358H10.4635L12.0175 2.08958Z" />
    <path d="M19.6497 9.99958C20.6157 10.0976 21.3717 9.91558 22.0437 9.34158C22.7157 8.73958 23.0937 7.56358 23.0937 5.84158V1.73958H26.4397V9.99958H28.0497V0.199578H21.4837V5.86958C21.4837 8.03958 20.8817 8.68358 19.6497 8.51558V9.99958Z" />
    <path d="M40.9243 9.99958L37.3823 0.199578H35.4503L31.8943 9.99958H33.6443L34.3303 8.02558H38.5023L39.1883 9.99958H40.9243ZM36.4163 2.08958L37.9703 6.51358H34.8623L36.4163 2.08958Z" />
    <path d="M50.5881 4.21758H46.3881V0.199578H44.7781V9.99958H46.3881V5.75758H50.5881V9.99958H52.1981V0.199578H50.5881V4.21758Z" />
    <path d="M64.447 9.99958V0.199578H63.187L58.567 6.84958V0.199578H56.957V9.99958H58.217L62.837 3.34958V9.99958H64.447Z" />
    <path d="M75.0143 4.21758H70.8143V0.199578H69.2043V9.99958H70.8143V5.75758H75.0143V9.99958H76.6243V0.199578H75.0143V4.21758Z" />
    <path d="M89.5732 8.71158C90.5672 7.71758 91.0572 6.51358 91.0572 5.09958C91.0572 3.68558 90.5672 2.48158 89.5732 1.50158C88.5932 0.507579 87.3892 0.0175781 85.9752 0.0175781C84.5612 0.0175781 83.3572 0.507579 82.3632 1.50158C81.3832 2.48158 80.8932 3.68558 80.8932 5.09958C80.8932 6.51358 81.3832 7.71758 82.3632 8.71158C83.3572 9.69158 84.5612 10.1816 85.9752 10.1816C87.3892 10.1816 88.5932 9.69158 89.5732 8.71158ZM83.4972 7.61958C82.8392 6.94758 82.5032 6.10758 82.5032 5.09958C82.5032 4.09158 82.8392 3.25158 83.4972 2.59358C84.1692 1.92158 84.9952 1.58558 85.9752 1.58558C86.9552 1.58558 87.7812 1.92158 88.4392 2.59358C89.1112 3.25158 89.4472 4.09158 89.4472 5.09958C89.4472 6.10758 89.1112 6.94758 88.4392 7.61958C87.7812 8.27758 86.9552 8.61358 85.9752 8.61358C84.9952 8.61358 84.1692 8.27758 83.4972 7.61958Z" />
  </symbol>
  <symbol id="barabanovo" viewBox="0 0 115 11">
    <path d="M1.61 3.97958V1.73958H6.02V0.199578H0V9.99958H3.71C4.62 9.99958 5.362 9.71958 5.964 9.14558C6.566 8.57158 6.86 7.85758 6.86 6.98958C6.86 6.12158 6.566 5.40758 5.964 4.83358C5.362 4.25958 4.62 3.97958 3.71 3.97958H1.61ZM1.61 8.48758V5.49158H3.71C4.592 5.49158 5.25 6.09358 5.25 6.98958C5.25 7.88558 4.592 8.48758 3.71 8.48758H1.61Z" />
    <path d="M18.8907 9.99958L15.3487 0.199578H13.4167L9.8607 9.99958H11.6107L12.2967 8.02558H16.4687L17.1547 9.99958H18.8907ZM14.3827 2.08958L15.9367 6.51358H12.8287L14.3827 2.08958Z" />
    <path d="M22.7445 0.199578V9.99958H24.3545V6.63958H26.3565C27.2805 6.63958 28.0505 6.33158 28.6665 5.71558C29.2965 5.08558 29.6045 4.32958 29.6045 3.41958C29.6045 2.50958 29.2965 1.73958 28.6665 1.12358C28.0505 0.507579 27.2805 0.199578 26.3565 0.199578H22.7445ZM24.3545 5.12758V1.71158H26.3565C27.3085 1.71158 27.9945 2.42558 27.9945 3.41958C27.9945 4.41358 27.3085 5.12758 26.3565 5.12758H24.3545Z" />
    <path d="M40.938 9.99958L37.396 0.199578H35.464L31.908 9.99958H33.658L34.344 8.02558H38.516L39.202 9.99958H40.938ZM36.43 2.08958L37.984 6.51358H34.876L36.43 2.08958Z" />
    <path d="M46.4018 3.97958V1.73958H50.8118V0.199578H44.7918V9.99958H48.5018C49.4118 9.99958 50.1538 9.71958 50.7558 9.14558C51.3578 8.57158 51.6518 7.85758 51.6518 6.98958C51.6518 6.12158 51.3578 5.40758 50.7558 4.83358C50.1538 4.25958 49.4118 3.97958 48.5018 3.97958H46.4018ZM46.4018 8.48758V5.49158H48.5018C49.3838 5.49158 50.0418 6.09358 50.0418 6.98958C50.0418 7.88558 49.3838 8.48758 48.5018 8.48758H46.4018Z" />
    <path d="M63.6825 9.99958L60.1405 0.199578H58.2085L54.6525 9.99958H56.4025L57.0885 8.02558H61.2605L61.9465 9.99958H63.6825ZM59.1745 2.08958L60.7285 6.51358H57.6205L59.1745 2.08958Z" />
    <path d="M73.3463 4.21758H69.1463V0.199578H67.5363V9.99958H69.1463V5.75758H73.3463V9.99958H74.9563V0.199578H73.3463V4.21758Z" />
    <path d="M87.9052 8.71158C88.8992 7.71758 89.3892 6.51358 89.3892 5.09958C89.3892 3.68558 88.8992 2.48158 87.9052 1.50158C86.9252 0.507579 85.7212 0.0175781 84.3072 0.0175781C82.8932 0.0175781 81.6892 0.507579 80.6952 1.50158C79.7152 2.48158 79.2252 3.68558 79.2252 5.09958C79.2252 6.51358 79.7152 7.71758 80.6952 8.71158C81.6892 9.69158 82.8932 10.1816 84.3072 10.1816C85.7212 10.1816 86.9252 9.69158 87.9052 8.71158ZM81.8292 7.61958C81.1712 6.94758 80.8352 6.10758 80.8352 5.09958C80.8352 4.09158 81.1712 3.25158 81.8292 2.59358C82.5012 1.92158 83.3272 1.58558 84.3072 1.58558C85.2872 1.58558 86.1132 1.92158 86.7712 2.59358C87.4432 3.25158 87.7792 4.09158 87.7792 5.09958C87.7792 6.10758 87.4432 6.94758 86.7712 7.61958C86.1132 8.27758 85.2872 8.61358 84.3072 8.61358C83.3272 8.61358 82.5012 8.27758 81.8292 7.61958Z" />
    <path d="M99.4258 4.91758C100.084 4.42758 100.42 3.76958 100.42 2.91558C100.42 2.14558 100.14 1.50158 99.5798 0.983578C99.0338 0.465578 98.3478 0.199578 97.5498 0.199578H93.6578V9.99958H97.8578C98.6838 9.99958 99.3698 9.73358 99.9438 9.20158C100.518 8.66958 100.798 7.99758 100.798 7.19958C100.798 6.17758 100.28 5.36558 99.4258 4.91758ZM97.5498 1.71158C98.2638 1.71158 98.8098 2.27158 98.8098 2.99958C98.8098 3.72758 98.2638 4.28758 97.5498 4.28758H95.2678V1.71158H97.5498ZM95.2678 8.48758V5.74358H97.8578C98.5998 5.74358 99.1878 6.34558 99.1878 7.11558C99.1878 7.88558 98.5998 8.48758 97.8578 8.48758H95.2678Z" />
    <path d="M113.193 8.71158C114.187 7.71758 114.677 6.51358 114.677 5.09958C114.677 3.68558 114.187 2.48158 113.193 1.50158C112.213 0.507579 111.009 0.0175781 109.595 0.0175781C108.181 0.0175781 106.977 0.507579 105.983 1.50158C105.003 2.48158 104.513 3.68558 104.513 5.09958C104.513 6.51358 105.003 7.71758 105.983 8.71158C106.977 9.69158 108.181 10.1816 109.595 10.1816C111.009 10.1816 112.213 9.69158 113.193 8.71158ZM107.117 7.61958C106.459 6.94758 106.123 6.10758 106.123 5.09958C106.123 4.09158 106.459 3.25158 107.117 2.59358C107.789 1.92158 108.615 1.58558 109.595 1.58558C110.575 1.58558 111.401 1.92158 112.059 2.59358C112.731 3.25158 113.067 4.09158 113.067 5.09958C113.067 6.10758 112.731 6.94758 112.059 7.61958C111.401 8.27758 110.575 8.61358 109.595 8.61358C108.615 8.61358 107.789 8.27758 107.117 7.61958Z" />
  </symbol>
  <symbol id="krasnojarsk" viewBox="0 0 115 11">
    <path d="M3.29 4.97358L7.252 0.199578H5.334L1.61 4.59558V0.199578H0V9.99958H1.61V5.33758L5.474 9.99958H7.392L3.29 4.97358Z" />
    <path d="M11.2355 0.199578V9.99958H12.8455V6.63958H14.8475C15.7715 6.63958 16.5415 6.33158 17.1575 5.71558C17.7875 5.08558 18.0955 4.32958 18.0955 3.41958C18.0955 2.50958 17.7875 1.73958 17.1575 1.12358C16.5415 0.507579 15.7715 0.199578 14.8475 0.199578H11.2355ZM12.8455 5.12758V1.71158H14.8475C15.7995 1.71158 16.4855 2.42558 16.4855 3.41958C16.4855 4.41358 15.7995 5.12758 14.8475 5.12758H12.8455Z" />
    <path d="M29.429 9.99958L25.887 0.199578H23.955L20.399 9.99958H22.149L22.835 8.02558H27.007L27.693 9.99958H29.429ZM24.921 2.08958L26.475 6.51358H23.367L24.921 2.08958Z" />
    <path d="M37.5477 10.1816C38.4437 10.1816 39.2697 9.97158 40.0117 9.55158C40.7677 9.11758 41.3557 8.54358 41.7617 7.82958L40.3617 7.03158C39.8577 7.99758 38.7797 8.61358 37.5477 8.61358C36.4977 8.61358 35.6577 8.27758 34.9997 7.61958C34.3557 6.96158 34.0337 6.12158 34.0337 5.09958C34.0337 4.07758 34.3557 3.23758 34.9997 2.57958C35.6577 1.92158 36.4977 1.58558 37.5477 1.58558C38.7797 1.58558 39.8437 2.20158 40.3617 3.16758L41.7617 2.35558C40.9217 0.913578 39.3257 0.0175781 37.5477 0.0175781C36.0777 0.0175781 34.8457 0.507578 33.8797 1.48758C32.9137 2.45358 32.4237 3.65758 32.4237 5.09958C32.4237 6.54158 32.9137 7.74558 33.8797 8.72558C34.8457 9.69158 36.0777 10.1816 37.5477 10.1816Z" />
    <path d="M51.7092 4.21758H47.5092V0.199578H45.8992V9.99958H47.5092V5.75758H51.7092V9.99958H53.3192V0.199578H51.7092V4.21758Z" />
    <path d="M66.2681 8.71158C67.2621 7.71758 67.7521 6.51358 67.7521 5.09958C67.7521 3.68558 67.2621 2.48158 66.2681 1.50158C65.2881 0.507579 64.0841 0.0175781 62.6701 0.0175781C61.2561 0.0175781 60.0521 0.507579 59.0581 1.50158C58.0781 2.48158 57.5881 3.68558 57.5881 5.09958C57.5881 6.51358 58.0781 7.71758 59.0581 8.71158C60.0521 9.69158 61.2561 10.1816 62.6701 10.1816C64.0841 10.1816 65.2881 9.69158 66.2681 8.71158ZM60.1921 7.61958C59.5341 6.94758 59.1981 6.10758 59.1981 5.09958C59.1981 4.09158 59.5341 3.25158 60.1921 2.59358C60.8641 1.92158 61.6901 1.58558 62.6701 1.58558C63.6501 1.58558 64.4761 1.92158 65.1341 2.59358C65.8061 3.25158 66.1421 4.09158 66.1421 5.09958C66.1421 6.10758 65.8061 6.94758 65.1341 7.61958C64.4761 8.27758 63.6501 8.61358 62.6701 8.61358C61.6901 8.61358 60.8641 8.27758 60.1921 7.61958Z" />
    <path d="M74.644 0.199578C73.762 0.199578 73.02 0.507579 72.404 1.12358C71.802 1.72558 71.4939 2.46758 71.4939 3.34958C71.4939 4.02158 71.704 4.63758 72.11 5.18358C72.53 5.72958 73.062 6.09358 73.706 6.28958L71.214 9.99958H73.034L75.4 6.42958H76.954V9.99958H78.5639V0.199578H74.644ZM74.644 4.98758C73.79 4.98758 73.104 4.25958 73.104 3.34958C73.104 2.43958 73.79 1.71158 74.644 1.71158H76.954V4.98758H74.644Z" />
    <path d="M83.3246 0.199578V9.99958H84.9346V6.63958H86.9366C87.8606 6.63958 88.6306 6.33158 89.2466 5.71558C89.8766 5.08558 90.1846 4.32958 90.1846 3.41958C90.1846 2.50958 89.8766 1.73958 89.2466 1.12358C88.6306 0.507579 87.8606 0.199578 86.9366 0.199578H83.3246ZM84.9346 5.12758V1.71158H86.9366C87.8886 1.71158 88.5746 2.42558 88.5746 3.41958C88.5746 4.41358 87.8886 5.12758 86.9366 5.12758H84.9346Z" />
    <path d="M98.9344 10.1816C99.8304 10.1816 100.656 9.97158 101.398 9.55158C102.154 9.11758 102.742 8.54358 103.148 7.82958L101.748 7.03158C101.244 7.99758 100.166 8.61358 98.9344 8.61358C97.8844 8.61358 97.0444 8.27758 96.3864 7.61958C95.7424 6.96158 95.4204 6.12158 95.4204 5.09958C95.4204 4.07758 95.7424 3.23758 96.3864 2.57958C97.0444 1.92158 97.8844 1.58558 98.9344 1.58558C100.166 1.58558 101.23 2.20158 101.748 3.16758L103.148 2.35558C102.308 0.913578 100.712 0.0175781 98.9344 0.0175781C97.4644 0.0175781 96.2324 0.507578 95.2664 1.48758C94.3004 2.45358 93.8104 3.65758 93.8104 5.09958C93.8104 6.54158 94.3004 7.74558 95.2664 8.72558C96.2324 9.69158 97.4644 10.1816 98.9344 10.1816Z" />
    <path d="M110.576 4.97358L114.538 0.199578H112.62L108.896 4.59558V0.199578H107.286V9.99958H108.896V5.33758L112.76 9.99958H114.678L110.576 4.97358Z" />
  </symbol>
  <symbol id="plato-putorana" viewBox="0 0 155 11">
    <path d="M0.980469 0.199578V9.99958H2.59047V1.73958H6.58047V9.99958H8.19047V0.199578H0.980469Z" />
    <path d="M12.1563 9.99958C13.1223 10.0976 13.8783 9.91558 14.5503 9.34158C15.2223 8.73958 15.6003 7.56358 15.6003 5.84158V1.73958H18.9463V9.99958H20.5563V0.199578H13.9903V5.86958C13.9903 8.03958 13.3883 8.68358 12.1563 8.51558V9.99958Z" />
    <path d="M33.4309 9.99958L29.8889 0.199578H27.9569L24.4009 9.99958H26.1509L26.8369 8.02558H31.0089L31.6949 9.99958H33.4309ZM28.9229 2.08958L30.4769 6.51358H27.3689L28.9229 2.08958Z" />
    <path d="M35.8175 0.199578V1.73958H38.5895V9.99958H40.1995V1.73958H42.9575V0.199578H35.8175Z" />
    <path d="M54.5775 8.71158C55.5715 7.71758 56.0615 6.51358 56.0615 5.09958C56.0615 3.68558 55.5715 2.48158 54.5775 1.50158C53.5975 0.507579 52.3935 0.0175781 50.9795 0.0175781C49.5655 0.0175781 48.3615 0.507579 47.3675 1.50158C46.3875 2.48158 45.8975 3.68558 45.8975 5.09958C45.8975 6.51358 46.3875 7.71758 47.3675 8.71158C48.3615 9.69158 49.5655 10.1816 50.9795 10.1816C52.3935 10.1816 53.5975 9.69158 54.5775 8.71158ZM48.5015 7.61958C47.8435 6.94758 47.5075 6.10758 47.5075 5.09958C47.5075 4.09158 47.8435 3.25158 48.5015 2.59358C49.1735 1.92158 49.9995 1.58558 50.9795 1.58558C51.9595 1.58558 52.7855 1.92158 53.4435 2.59358C54.1155 3.25158 54.4515 4.09158 54.4515 5.09958C54.4515 6.10758 54.1155 6.94758 53.4435 7.61958C52.7855 8.27758 51.9595 8.61358 50.9795 8.61358C49.9995 8.61358 49.1735 8.27758 48.5015 7.61958Z" />
    <path d="M66.6301 0.199578V9.99958H68.2401V1.73958H72.2301V9.99958H73.8401V0.199578H66.6301Z" />
    <path d="M81.9779 5.36558L79.5979 0.199578H77.9739L81.2359 7.12958C80.8299 8.17958 80.1859 8.61358 79.0799 8.50158V9.99958C80.7459 10.0976 81.9639 9.25758 82.7059 7.47958L85.7439 0.199578H84.1199L81.9779 5.36558Z" />
    <path d="M88.8917 0.199578V1.73958H91.6637V9.99958H93.2737V1.73958H96.0317V0.199578H88.8917Z" />
    <path d="M107.652 8.71158C108.646 7.71758 109.136 6.51358 109.136 5.09958C109.136 3.68558 108.646 2.48158 107.652 1.50158C106.672 0.507579 105.468 0.0175781 104.054 0.0175781C102.64 0.0175781 101.436 0.507579 100.442 1.50158C99.4617 2.48158 98.9717 3.68558 98.9717 5.09958C98.9717 6.51358 99.4617 7.71758 100.442 8.71158C101.436 9.69158 102.64 10.1816 104.054 10.1816C105.468 10.1816 106.672 9.69158 107.652 8.71158ZM101.576 7.61958C100.918 6.94758 100.582 6.10758 100.582 5.09958C100.582 4.09158 100.918 3.25158 101.576 2.59358C102.248 1.92158 103.074 1.58558 104.054 1.58558C105.034 1.58558 105.86 1.92158 106.518 2.59358C107.19 3.25158 107.526 4.09158 107.526 5.09958C107.526 6.10758 107.19 6.94758 106.518 7.61958C105.86 8.27758 105.034 8.61358 104.054 8.61358C103.074 8.61358 102.248 8.27758 101.576 7.61958Z" />
    <path d="M113.404 0.199578V9.99958H115.014V6.63958H117.016C117.94 6.63958 118.71 6.33158 119.326 5.71558C119.956 5.08558 120.264 4.32958 120.264 3.41958C120.264 2.50958 119.956 1.73958 119.326 1.12358C118.71 0.507579 117.94 0.199578 117.016 0.199578H113.404ZM115.014 5.12758V1.71158H117.016C117.968 1.71158 118.654 2.42558 118.654 3.41958C118.654 4.41358 117.968 5.12758 117.016 5.12758H115.014Z" />
    <path d="M131.598 9.99958L128.056 0.199578H126.124L122.568 9.99958H124.318L125.004 8.02558H129.176L129.862 9.99958H131.598ZM127.09 2.08958L128.644 6.51358H125.536L127.09 2.08958Z" />
    <path d="M141.262 4.21758H137.062V0.199578H135.452V9.99958H137.062V5.75758H141.262V9.99958H142.872V0.199578H141.262V4.21758Z" />
    <path d="M155.75 9.99958L152.208 0.199578H150.276L146.72 9.99958H148.47L149.156 8.02558H153.328L154.014 9.99958H155.75ZM151.242 2.08958L152.796 6.51358H149.688L151.242 2.08958Z" />
  </symbol>
</svg>
