<svg width="20" height="20" viewBox="0 0 20 20" fill="none" xmlns="http://www.w3.org/2000/svg">
<g clip-path="url(#clip0)">
<path d="M10.2653 7.79591L9.99926 7.96304L9.73325 7.79591L4.51693 4.51841L7.79442 9.73473L7.96156 10.0007L7.79442 10.2667L4.51693 15.4831L9.73325 12.2056L9.99926 12.0384L10.2653 12.2056L15.4816 15.4831L12.2041 10.2667L12.037 10.0007L12.2041 9.73473L15.4816 4.51841L10.2653 7.79591Z" stroke="#C8A97A"/>
<path d="M14.0122 10L14.7633 8.80469L20 10L14.7633 11.1954L14.0122 10Z" fill="#DCCCB5"/>
<path d="M5.98828 10L5.23723 11.1954L0.000513077 10L5.23723 8.80469L5.98828 10Z" fill="#DCCCB5"/>
<path d="M11.1953 14.7628L9.99996 19.9995L8.80462 14.7628L9.99996 14.0117L11.1953 14.7628Z" fill="#DCCCB5"/>
<path d="M8.80462 5.23672L9.99996 0L11.1953 5.23672L9.99996 5.98777L8.80462 5.23672Z" fill="#DCCCB5"/>
</g>
<defs>
<clipPath id="clip0">
<rect width="20" height="20" fill="white" transform="matrix(-1 0 0 1 20 0)"/>
</clipPath>
</defs>
</svg>
