<svg width="50" height="50" viewBox="0 0 50 50" fill="none" xmlns="http://www.w3.org/2000/svg">
<circle cx="25" cy="25" r="21.5" stroke="white" stroke-opacity="0.2"/>
<path d="M32.8281 16.7402H27.6106C27.3706 16.7402 27.1758 16.935 27.1758 17.175C27.1758 17.415 27.3706 17.6098 27.6106 17.6098H32.8281C33.0682 17.6098 33.263 17.415 33.263 17.175C33.263 16.935 33.0682 16.7402 32.8281 16.7402Z" fill="white"/>
<path d="M33.1344 16.8664L31.3952 15.1272C31.2256 14.9576 30.9499 14.9576 30.7804 15.1272C30.6108 15.2967 30.6108 15.5724 30.7804 15.742L32.2117 17.1734L30.7795 18.6056C30.61 18.7751 30.61 19.0508 30.7795 19.2204C30.8648 19.3047 30.976 19.3474 31.0874 19.3474C31.1987 19.3474 31.31 19.3048 31.3952 19.2204L33.1344 17.4812C33.304 17.3116 33.304 17.0359 33.1344 16.8664Z" fill="white"/>
<path d="M21.5196 16.7402H16.302C16.062 16.7402 15.8672 16.935 15.8672 17.175C15.8672 17.415 16.062 17.6098 16.302 17.6098H21.5196C21.7596 17.6098 21.9544 17.415 21.9544 17.175C21.9544 16.935 21.7596 16.7402 21.5196 16.7402Z" fill="white"/>
<path d="M16.917 17.1734L18.3483 15.742C18.5179 15.5724 18.5179 15.2967 18.3483 15.1272C18.1788 14.9576 17.9031 14.9576 17.7335 15.1272L15.9944 16.8664C15.8248 17.036 15.8248 17.3117 15.9944 17.4812L17.7336 19.2204C17.8188 19.3048 17.9301 19.3474 18.0414 19.3474C18.1527 19.3474 18.264 19.3048 18.3484 19.2196C18.518 19.05 18.518 18.7743 18.3484 18.6048L16.917 17.1734Z" fill="white"/>
<path d="M32.3916 23.6946C32.0342 23.6946 31.7011 23.8033 31.4246 23.9885C31.1863 23.312 30.5402 22.825 29.7828 22.825C29.4254 22.825 29.0923 22.9337 28.8158 23.1189C28.5776 22.4424 27.9314 21.9554 27.174 21.9554C26.8575 21.9554 26.5601 22.0406 26.3045 22.1893V19.3466C26.3045 18.3874 25.5244 17.6074 24.5653 17.6074C23.6061 17.6074 22.8261 18.3874 22.8261 19.3466V26.7382L21.3147 25.6051C20.419 24.9329 19.1442 25.0225 18.3503 25.8156C17.8416 26.3243 17.8416 27.1512 18.3503 27.66L24.5427 33.8532C25.2818 34.5924 26.2653 34.9993 27.3106 34.9993H29.348C31.9847 34.9993 34.1308 32.854 34.1308 30.2166V25.4338C34.1308 24.4746 33.3508 23.6946 32.3916 23.6946ZM33.2612 30.2165C33.2612 32.374 31.5055 34.1297 29.348 34.1297H27.3106C26.4966 34.1297 25.7323 33.8132 25.1575 33.2384L18.9651 27.0451C18.7955 26.8756 18.7955 26.5999 18.9651 26.4303C19.2347 26.1616 19.5947 26.0234 19.9564 26.0234C20.2504 26.0234 20.546 26.1147 20.7939 26.3007L23 27.9556C23.1322 28.0547 23.3096 28.0695 23.4557 27.9965C23.6027 27.9226 23.6957 27.7721 23.6957 27.6077V19.3466C23.6957 18.8675 24.0853 18.477 24.5653 18.477C25.0453 18.477 25.4349 18.8675 25.4349 19.3466V25.8686C25.4349 26.1086 25.6297 26.3034 25.8697 26.3034C26.1097 26.3034 26.3045 26.1086 26.3045 25.8686V23.6946C26.3045 23.2154 26.6941 22.825 27.1741 22.825C27.6541 22.825 28.0436 23.2155 28.0436 23.6946V25.8686C28.0436 26.1086 28.2385 26.3034 28.4785 26.3034C28.7185 26.3034 28.9133 26.1086 28.9133 25.8686V24.5642C28.9133 24.085 29.3028 23.6946 29.7828 23.6946C30.2629 23.6946 30.6524 24.0851 30.6524 24.5642V25.8686C30.6524 26.1086 30.8472 26.3034 31.0872 26.3034C31.3272 26.3034 31.522 26.1086 31.522 25.8686V25.4338C31.522 24.9546 31.9116 24.5642 32.3916 24.5642C32.8716 24.5642 33.2612 24.9547 33.2612 25.4338V30.2165Z" fill="white"/>
<circle cx="25" cy="25" r="24.5" stroke="white" stroke-opacity="0.5"/>
</svg>
