<svg width="60" height="60" viewBox="0 0 60 60" fill="none" xmlns="http://www.w3.org/2000/svg">
<circle cx="30" cy="30" r="26.5" stroke="white" stroke-opacity="0.2"/>
<g clip-path="url(#clip0)">
<path d="M27.8487 36.5337L27.8436 36.5386C23.6217 36.2249 21.0088 35.0569 21.0088 34.1545C21.0088 33.7587 21.5939 33.1458 23.2283 32.6053C23.4915 32.5173 23.6304 32.2418 23.5385 31.99C23.4465 31.7381 23.1586 31.6052 22.8953 31.6932C20.4994 32.4895 20 33.4692 20 34.1545C20 36.2007 24.1816 37.2335 27.768 37.499H27.8083C28.0869 37.5096 28.3218 37.3022 28.3329 37.0356C28.3441 36.7691 28.1273 36.5444 27.8487 36.5337Z" fill="white"/>
<path d="M39.9995 34.5604C39.9895 33.8715 39.5343 32.901 37.4387 32.0915C37.1804 31.9929 36.8915 32.1235 36.7935 32.3831C36.6955 32.6428 36.8253 32.9332 37.0836 33.0318C38.279 33.4894 38.9892 34.0375 38.9892 34.5403C38.9892 35.4002 36.8435 36.4763 33.3024 36.9137L34.0076 36.0539C34.1963 35.851 34.1857 35.5328 33.984 35.3432C33.7822 35.1535 33.4657 35.1642 33.2771 35.367C33.2629 35.3823 33.2496 35.3984 33.2374 35.4153L31.762 37.2154C31.7486 37.2362 31.7369 37.2581 31.727 37.2808C31.7093 37.3078 31.6942 37.3364 31.6819 37.3663C31.6789 37.3981 31.6789 37.43 31.6819 37.4618C31.6789 37.4936 31.6789 37.5256 31.6819 37.5574C31.6789 37.5892 31.6789 37.6211 31.6819 37.6529C31.6873 37.6838 31.6956 37.7141 31.7069 37.7434C31.7224 37.7737 31.7408 37.8024 31.762 37.8289C31.7737 37.85 31.7871 37.8702 31.802 37.8893L33.2774 39.3978C33.4722 39.595 33.789 39.5961 33.9851 39.4003C34.1813 39.2045 34.1824 38.886 33.9876 38.6888L33.2574 37.9496C36.5734 37.5674 39.9995 36.5014 39.9995 34.5604Z" fill="white"/>
<path fill-rule="evenodd" clip-rule="evenodd" d="M34 25V28.3333C34 30.5425 32.2091 32.3333 30 32.3333C27.7909 32.3333 26 30.5425 26 28.3333V25C26 22.7909 27.7909 21 30 21C32.2091 21 34 22.7909 34 25ZM25 25C25 22.2386 27.2386 20 30 20C32.7614 20 35 22.2386 35 25V28.3333C35 31.0948 32.7614 33.3333 30 33.3333C27.2386 33.3333 25 31.0948 25 28.3333V25ZM30 23.3333C29.5398 23.3333 29.1667 23.7064 29.1667 24.1667V25.8333C29.1667 26.2936 29.5398 26.6667 30 26.6667C30.4602 26.6667 30.8333 26.2936 30.8333 25.8333V24.1667C30.8333 23.7064 30.4602 23.3333 30 23.3333Z" fill="white"/>
</g>
<circle cx="30" cy="30" r="29.5" stroke="white" stroke-opacity="0.5"/>
<defs>
<clipPath id="clip0">
<rect width="20" height="20" fill="white" transform="translate(20 20)"/>
</clipPath>
</defs>
</svg>
