<svg width="20" height="50" viewBox="0 0 20 50" fill="none" xmlns="http://www.w3.org/2000/svg">
<path d="M12.888 49.7885L14.1252 49.2612L15.1552 48.7351L16.3929 47.7871L17.3214 45.894L18.558 43.8931L19.0733 41.788L19.4847 40.2095L19.6913 37.5782L19.2793 35.2621L18.4558 32.7351L17.0104 30.9475L15.3607 29.4717L13.1973 28.4205L11.341 28.103L11.2366 27.5774L11.6503 20.2096L13.2983 20.1048L15.6711 19.5792L17.3202 18.2105L18.6601 16.7358L19.5886 15.1574L20 12.9456L20 10.316L19.5886 7.47438L18.6601 5.05285L17.9388 4.10428L16.5972 2.94711L14.5366 1.57844L12.0623 0.316376L9.79457 -4.55487e-07L7.73282 -5.47506e-07L5.56722 0.841376L3.19618 2.31551L1.85687 4.10428L0.72299 6.21002L0.51642 9.57896L0.928428 12.6321L1.54701 14.9476L2.68145 16.7364L3.71148 18.1045L5.15521 19.2628L8.04097 20.1059L8.76284 21.1582L8.55683 27.6852L7.62952 28.2113L6.70053 28.3162L5.2585 28.8424L3.19562 29.7903L1.75302 31.3688L0.927868 33.1576L0.102156 35.3688L-1.62681e-06 38.0006L0.102156 41.0526L1.03059 44.104L2.0623 45.8946L3.40219 47.6839L5.46449 49.052L7.01038 49.6836L8.5557 50L11.2355 50L12.888 49.7885ZM12.682 3.47326L14.5378 4.52785L15.6728 5.47411L16.4962 7.05312L17.1159 8.52668L16.9094 9.57954L15.9809 9.68385L14.2285 9.68385L12.4766 9.68385L11.5481 9.57954L11.2377 8.73702L11.1356 5.68503L11.2377 4.42182L11.4449 3.47383L12.682 3.47383L12.682 3.47326ZM6.08421 10.1063L4.33232 9.78989L3.50603 8.94736L3.71204 7.36777L4.53833 5.78876L5.67163 4.42067L7.01208 3.26291L7.93995 3.05315L8.96997 3.05315L9.07382 4.73704L9.17655 6.84278L9.07382 8.5261L8.86782 10.1063L8.14651 10.2094L6.08421 10.1063ZM7.42409 18.2111L6.28965 17.4746L5.26018 16.4206L4.43447 15.0519L3.91974 13.7893L3.8159 12.8413L4.74432 12.4212L8.14595 12.5249L9.17598 12.7364L9.38255 13.4729L9.38255 16.42L9.38255 17.6838L8.35139 18.2105L7.42409 18.2105L7.42409 18.2111ZM11.4449 18.0008L11.4449 15.3689L11.3416 13.2631L11.3416 12.2108L12.8875 11.9994L15.0525 11.9994L16.3929 11.9994L17.011 12.6327L17.4224 13.3692L17.4224 15.158L16.5978 16.5261L15.6716 17.4746L14.5366 18.0008L13.0929 18.2111L11.4449 18.0008ZM14.1252 32.1053L15.2596 33.2636L16.1875 34.3147L16.4962 35.2627L16.5989 36.421L15.3623 36.6302L13.6105 36.6302L12.5793 36.6302L11.7542 36.421L11.3427 35.4731L11.446 33.6843L11.9607 32.2096L12.7864 31.684L14.1252 32.1053ZM6.90879 37.1575L5.05306 36.946L3.71261 36.946L3.30059 36.4205L3.30059 35.1573L4.33288 33.4734L5.6722 32.1053L7.21809 31.4737L8.45581 31.684L8.66181 32.5248L8.86725 33.7886L8.86725 35.1567L8.86725 36.5259L8.24867 37.2624L6.90879 37.1575ZM5.56835 44.6314L4.74432 43.8937L4.2279 42.736L3.81645 41.2624L3.81645 40.4199L4.2279 39.7883L6.18749 39.8926L7.21809 40.2095L8.14651 40.7368L8.14651 42.6322L7.94051 43.8931L7.63122 44.5253L6.80607 44.6314L5.56835 44.6314ZM11.4449 46.2092L10.9296 45.3684L10.9296 43.8931L11.0323 41.9989L11.0323 40.7368L11.4449 39.8926L13.094 39.6828L14.3312 39.6828L15.6722 39.6828L16.3929 40.4199L16.3929 41.8946L16.0831 43.1566L14.6394 44.8411L13.4044 46.1043L12.2694 46.3152L11.4449 46.2092Z" fill="#F0F0F0"/>
</svg>
