<svg width="53" height="50" viewBox="0 0 53 50" fill="none" xmlns="http://www.w3.org/2000/svg">
<path d="M25.8982 0.0284271C22.594 0.157059 19.1159 0.837555 16.0973 1.94544C14.7641 2.43507 13.0416 3.2359 11.8822 3.8998C8.27156 5.97863 5.27375 9.06577 3.0875 12.9579C1.78734 15.2732 0.847422 17.962 0.396094 20.684C0.10625 22.4309 0.0234375 23.4392 0.0234375 25.2898C0.0234375 27.4309 0.151797 28.7919 0.536875 30.767C1.18281 34.0741 2.51609 37.2525 4.53672 40.3189C5.50977 41.7878 6.42484 42.9122 7.67945 44.1737C9.29844 45.8044 10.6897 46.8293 12.4826 47.7172C14.5032 48.7172 16.3251 49.1695 18.8467 49.3023C22.2503 49.4807 26.4696 48.6757 31.0781 46.9703C35.9599 45.1612 39.5871 43.0118 42.0963 40.4392C43.4048 39.1031 44.2577 37.8666 44.9782 36.2649C46.8829 32.0243 47.2597 26.7255 46.0051 21.7836C44.912 17.4849 42.6967 14.0658 39.0654 11.0948C36.8212 9.25249 33.9724 7.65913 31.3638 6.77117C28.5855 5.82926 25.0535 5.78362 21.6499 6.63839C18.8591 7.33963 15.7164 8.71722 13.3687 10.2691C12.1679 11.0616 11.1659 11.8873 10.2218 12.8459C8.76844 14.3355 7.77055 15.8708 6.99625 17.821C5.34828 21.9703 5.19508 26.9288 6.58633 31.0533C7.97758 35.1861 11.2652 38.9911 15.2071 41.0367C17.1532 42.045 18.9627 42.5015 21.24 42.5595C23.5836 42.6176 25.5421 42.2359 27.6166 41.3189C31.5046 39.601 36.9371 35.8625 39.7155 32.9952C40.6513 32.0284 40.8624 31.684 40.9701 30.9703C41.2889 28.8583 40.2827 25.2483 37.7694 19.5015C37.1607 18.1114 36.4858 16.6757 36.3243 16.4309C36.2415 16.3064 35.9972 16.0243 35.7777 15.8044C35.1566 15.1861 34.4983 14.7297 33.4217 14.1903C31.6868 13.3147 29.6455 12.7006 27.5545 12.4226C26.7884 12.3189 25.1902 12.2981 24.5525 12.3811C21.5091 12.7836 18.5403 14.2774 16.1512 16.6135C13.7786 18.9371 12.5613 21.406 12.2921 24.4392C12.2341 25.1239 12.2673 26.821 12.3501 27.3853C12.495 28.3396 12.6275 28.9205 12.8594 29.6467C13.4184 31.3728 14.1223 32.5305 15.4017 33.821C16.292 34.7214 17.0621 35.3064 18.1345 35.9122C19.1117 36.4641 20.5568 37.0118 21.033 37.0118C22.6354 37.0118 27.6 34.7587 30.6806 32.6301C32.2251 31.5637 32.6681 31.0409 33.0822 29.8044C33.4052 28.8293 33.5211 27.9786 33.4838 26.8085C33.4052 24.2317 32.3576 21.7172 30.7469 20.2234C29.455 19.0243 27.6911 18.1778 25.8941 17.8998C25.2937 17.8085 24.2047 17.8044 23.7037 17.8956C22.2752 18.1529 21.0785 18.7961 19.9771 19.8956C19.1738 20.6965 18.7473 21.3728 18.4202 22.377C18.089 23.3894 17.9441 24.3894 17.9813 25.4766C18.0269 26.8085 18.3002 27.6674 18.9295 28.4475C19.4761 29.1239 20.5527 29.6384 21.4305 29.6467C21.7659 29.6467 21.828 29.6342 22.0474 29.5222C22.3911 29.3479 22.536 29.1073 22.5567 28.6882C22.5898 28.0865 22.2793 27.4641 21.7203 27.0118C21.5713 26.8915 21.3808 26.6965 21.3021 26.5803C20.6065 25.5637 20.9295 23.5803 21.9481 22.5803C22.2006 22.3313 22.7596 22.0326 23.1654 21.9288C24.391 21.6135 25.9686 21.8749 27.1404 22.5844C27.8277 23.0035 28.2915 23.489 28.6103 24.128C29.3266 25.572 29.2314 27.6259 28.366 29.4434C28.0348 30.1363 27.7408 30.5471 27.1652 31.1197C25.2398 33.0367 22.2048 33.8044 20.209 32.879C19.5051 32.5554 18.6355 31.8542 18.0807 31.1695C16.7557 29.5347 15.9814 27.2898 15.9814 25.1114C15.9814 24.3977 16.0352 23.9413 16.2257 23.0243C16.706 20.7297 17.4638 19.0907 18.5486 18.0077C19.5009 17.0533 20.3746 16.6135 22.8466 15.85C24.8092 15.2442 25.2937 15.1612 26.5814 15.1986C28.5358 15.2566 30.25 15.8251 31.8193 16.933C32.2913 17.2691 33.2561 18.2276 33.6743 18.7836C35.815 21.6135 36.7839 25.7172 36.1049 29.099C35.5997 31.6135 34.3492 33.962 32.635 35.6093C30.7552 37.4185 27.7739 38.85 24.9045 39.3313C23.919 39.4932 23.5919 39.5181 22.4408 39.5181C21.1572 39.5139 20.5816 39.4517 19.5755 39.1944C17.5383 38.6757 15.5094 37.5181 13.8283 35.9164C11.6669 33.8459 10.3709 31.5886 9.60899 28.5471C9.03344 26.2608 8.96305 24.2732 9.38125 22.2649C9.59656 21.2359 10.0852 19.9786 10.6276 19.0658C10.9961 18.4392 11.3356 17.9869 12.0685 17.1322C15.3189 13.3355 17.7826 11.5305 20.7017 10.8127C21.9356 10.5098 23.2192 10.377 25.7409 10.2857C29.1527 10.1612 31.2727 10.4807 33.0656 11.3894C34.3534 12.0367 35.5252 12.9662 36.9164 14.4392C38.4402 16.0492 39.3594 17.3106 40.3076 19.0824C42.6595 23.4932 43.3592 28.7421 42.1005 32.5347C41.3593 34.7836 39.9846 36.8708 37.9391 38.8791C36.0759 40.7089 34.1546 42.0409 32.1506 42.8956C28.9457 44.2608 24.2378 45.3106 20.3829 45.5181C19.5175 45.5637 18.5279 45.5181 18.1801 45.4143C17.588 45.2359 15.5673 44.3396 14.2796 43.6882C12.1555 42.6093 10.727 41.6259 9.47649 40.3728C7.91133 38.8044 7.11633 37.3811 6.19711 34.5015C6.0025 33.8915 4.98805 30.4641 4.71891 29.5015C3.61336 25.5595 3.12477 22.6342 3.26555 20.7878C3.38977 19.1612 3.81625 18.128 4.99219 16.5761C5.18266 16.323 5.60086 15.7753 5.92383 15.3521C6.24266 14.9288 6.74781 14.2193 7.04594 13.7753C7.92375 12.4641 8.43719 11.8293 9.37711 10.8915C10.9381 9.32718 12.8055 8.00353 15.0498 6.8666C17.795 5.47656 20.7597 4.53465 24.0763 4.00353C27.7822 3.41017 30.6144 3.27739 32.8545 3.59274C35.5831 3.97863 37.7156 4.94129 40.2248 6.92054C41.4463 7.88735 43.1853 9.9081 44.7836 12.2193C46.8622 15.2276 48.3114 18.2359 48.771 20.4973C48.9077 21.1571 49.301 24.0367 49.4749 25.6425C49.6985 27.6799 49.7772 29.5015 49.6902 30.5595C49.537 32.3604 49.1727 33.5181 48.0506 35.7463C47.2349 37.3645 45.7981 40.1156 45.5786 40.489C44.531 42.24 42.941 43.4143 38.8377 45.4683C37.9391 45.9205 36.7839 46.4807 36.2705 46.7172C35.2767 47.1737 35.0241 47.3313 34.7302 47.684C34.254 48.2483 34.0263 48.7131 34.0014 49.1654C33.989 49.4434 33.9973 49.4973 34.0842 49.6259C34.5397 50.3064 36.2581 50.0326 39.1109 48.8127C43.9969 46.7297 47.6531 43.8542 50.0298 40.2234C50.6384 39.294 51.2099 38.2317 51.5245 37.4434C52.5017 34.9828 53.1559 29.5512 52.9572 25.601C52.8578 23.6882 52.6549 22.377 52.1084 20.1405C50.4273 13.2732 47.3839 8.00768 43.2764 4.86245C38.9495 1.5471 32.5522 -0.232983 25.8982 0.0284271Z" fill="#F0F0F0"/>
</svg>
