<svg width="59" height="50" viewBox="0 0 59 50" fill="none" xmlns="http://www.w3.org/2000/svg">
<path d="M14.5958 0.0502892C13.858 0.186977 13.1157 0.505917 12.5993 0.897755C12.3411 1.09367 11.963 1.51285 11.714 1.8819C11.6264 2.01404 11.5388 2.12339 11.5158 2.12339C11.4973 2.12339 11.1192 1.96848 10.6766 1.78167C10.234 1.59486 9.82362 1.43995 9.75906 1.43995C9.53775 1.43995 9.2611 1.74977 9.2611 2.00037C9.2611 2.21451 9.3487 2.25552 10.2847 2.48333C10.7873 2.60635 11.2161 2.72026 11.2391 2.73392C11.2668 2.75215 11.2622 2.81594 11.2253 2.91162C11.1884 2.98907 11.1469 3.14399 11.1285 3.24878C11.1008 3.42648 11.087 3.44014 10.9763 3.42192C10.7642 3.39003 9.94811 3.31257 9.45936 3.28067L8.99367 3.25334L8.9199 3.39003C8.8323 3.55405 8.82308 3.90488 8.90146 3.98234C8.94296 4.02335 9.25649 4.03701 10.0311 4.03701H11.1054V4.37418C11.1054 4.684 11.0962 4.71134 11.004 4.73868C10.944 4.7569 10.4876 4.77968 9.98038 4.79791C9.132 4.82524 9.05823 4.83436 8.94757 4.92548C8.80002 5.0485 8.79541 5.25353 8.93834 5.36744C9.03056 5.44034 9.14583 5.44945 10.0726 5.44945H11.1054L11.1239 5.54969C11.1377 5.60892 11.1561 5.78206 11.17 5.94153L11.1884 6.22857L10.1648 6.21946C9.59769 6.2149 9.11355 6.22401 9.08589 6.24224C9.00751 6.2878 9.01673 6.57029 9.09972 6.65231C9.19194 6.74343 9.29799 6.7571 10.3216 6.81633C10.7919 6.84367 11.1884 6.88012 11.2022 6.89834C11.2207 6.91656 11.2437 7.03959 11.253 7.17172C11.276 7.40864 11.276 7.4132 11.1654 7.38586C10.8426 7.3084 10.3354 7.27651 10.0588 7.31752C9.05361 7.47699 7.84559 8.32901 7.28308 9.27671C6.80817 10.0695 6.66984 10.2791 6.49463 10.4294C6.27332 10.6299 5.95056 10.7939 5.63703 10.8668C5.01918 11.0126 4.65493 10.6709 3.28092 8.6525L2.56164 7.60001L2.83829 7.03503C3.36392 5.95975 4.1708 4.67489 4.83936 3.85476C5.26817 3.32624 5.4526 3.1531 5.87679 2.87973C6.10733 2.73392 6.26409 2.58812 6.38397 2.41499C6.54996 2.17806 6.5638 2.1325 6.5638 1.8409C6.5638 1.53107 6.55918 1.52196 6.37475 1.35338C6.14421 1.13468 5.77535 0.99799 5.20823 0.915977C4.64571 0.829411 4.40134 0.829411 4.11086 0.915977C3.87571 0.984322 3.62673 1.19847 3.57601 1.38072C3.36392 2.10061 3.34547 2.13705 2.86134 2.86605C2.58469 3.27156 2.20661 3.85932 2.01296 4.1737C1.23835 5.4449 0.159426 7.25373 0.0810428 7.42687C-0.0941667 7.80959 0.0118812 8.25155 0.426851 8.85753C0.924815 9.59109 2.4141 11.368 3.29475 12.2793C3.98637 12.9946 4.90853 13.7783 5.13445 13.8375C5.60936 13.9651 6.30098 13.7555 6.66062 13.3728C6.87272 13.1541 7.83637 11.9695 8.279 11.3954C8.59715 10.9762 8.88302 10.7074 9.10433 10.6162C9.43631 10.4796 9.87894 10.5752 10.1233 10.8349C10.6028 11.3452 11.0224 13.6598 11.027 15.7921C11.0316 16.6032 11.0178 16.7763 10.9302 17.1044C10.8149 17.5418 10.5659 18.0931 10.1233 18.8904C9.23344 20.4851 9.07667 20.9498 8.93373 22.4898C8.85996 23.2917 8.90607 25.178 9.02595 26.3854C9.07667 26.8866 9.16888 27.807 9.23343 28.4358C9.44553 30.5225 9.49164 31.6342 9.39942 32.7688C9.27954 34.2359 8.99367 35.3203 8.42194 36.4639C7.75799 37.7897 6.91421 38.783 5.43415 39.9859C3.45613 41.5897 3.15643 42.4143 4.10164 43.681C4.52583 44.2505 4.67799 44.6378 4.99152 45.9773C5.2405 47.0526 5.42032 47.5265 5.66469 47.7679C6.28254 48.3739 7.23236 47.8591 7.23236 46.9114C7.23236 46.72 7.15397 46.2644 7.01565 45.6584C6.81278 44.7517 6.79894 44.6651 6.79894 43.9954C6.79433 43.3666 6.80817 43.2527 6.90499 42.9702C7.28769 41.8676 7.86865 41.134 9.5608 39.6305C11.2806 38.1041 11.8846 37.448 12.3088 36.6461C12.8483 35.621 12.9543 34.7416 12.7653 32.91C12.6085 31.3563 12.5716 30.7139 12.6224 30.1489C12.65 29.8619 12.6869 29.6113 12.7053 29.5976C12.7284 29.5794 12.9405 29.5293 13.1803 29.4837C13.42 29.4381 13.7428 29.3607 13.8949 29.3197C14.2039 29.224 14.1716 29.2058 14.3791 29.6022C14.8355 30.477 14.9692 31.8028 14.8217 34.0855C14.7341 35.5344 14.6557 35.9627 14.19 37.5665C13.8534 38.7238 13.7059 39.3617 13.5722 40.282C13.337 41.8403 13.0973 42.8426 12.6731 43.9726C12.5716 44.246 12.4748 44.5877 12.461 44.7289C12.4103 45.1891 12.6362 45.5399 13.6828 46.6061C14.7433 47.6859 15.5594 48.137 16.0297 47.8955C16.2003 47.809 16.2418 47.6814 16.2142 47.3716C16.1865 47.0982 16.0113 46.7246 15.541 45.9409C15.0153 45.0706 14.9231 44.8383 14.8955 44.3371C14.8632 43.6582 15.0799 42.9611 15.9928 40.7832C17.3346 37.5847 17.8049 36.2224 18.0492 34.8145C18.1461 34.2359 18.183 33.0102 18.1184 32.3541C18.0308 31.4702 17.9432 30.9554 17.5605 29.0463C17.0625 26.5859 17.0026 26.1348 16.9749 24.7452C16.9242 22.4807 17.1317 20.2618 17.6066 17.9336C17.7034 17.4461 17.8279 16.79 17.8833 16.4801C18.123 15.0768 18.3766 14.4116 18.87 13.8922C19.2434 13.4958 19.6077 13.3227 20.1195 13.2953C20.4515 13.2771 20.5344 13.2908 20.7235 13.3773C21.0047 13.514 21.4105 13.9104 21.8808 14.5164C22.7615 15.6509 23.8865 16.4893 25.8276 17.4597C26.593 17.847 27.1325 18.0612 27.8425 18.2753L28.3267 18.4166L28.3543 18.6216C28.5019 19.6513 28.5526 19.8062 28.7693 19.8928C28.88 19.9383 28.9215 19.9383 29.0137 19.8791C29.2396 19.7288 29.2442 19.6741 29.2073 16.6123C29.0967 7.25828 29.1151 7.84149 28.9168 7.62734C28.7462 7.44054 28.405 7.61823 27.9209 8.1422C27.5567 8.53404 27.2247 9.02156 26.5377 10.1652C25.9798 11.0901 25.6801 11.5093 25.2974 11.8783C24.4352 12.7167 23.6237 12.8716 22.637 12.375C21.8116 11.9649 20.8203 10.9762 19.995 9.73689C19.8198 9.47718 19.6861 9.2357 19.6999 9.20381C19.7091 9.17647 19.746 9.017 19.7783 8.86209C19.8059 8.70262 19.8382 8.56137 19.8474 8.55226C19.8659 8.52948 20.0273 8.62972 20.5621 9.00789C20.848 9.20836 21.0509 9.32227 21.1292 9.32227C21.2906 9.32227 21.4612 9.14002 21.5027 8.92588C21.5534 8.65705 21.4474 8.57504 20.6728 8.25611C20.1103 8.02374 19.9812 7.95084 19.9858 7.88249C19.9904 7.83693 20.0088 7.67746 20.0273 7.53622L20.0549 7.27651L20.3638 7.39042C20.5344 7.4542 20.8664 7.59089 21.1016 7.69113C21.5304 7.87794 21.535 7.87794 21.6272 7.78681C21.7747 7.63646 21.8209 7.3403 21.724 7.14438C21.6318 6.96213 21.5442 6.92568 20.765 6.77077C20.5114 6.71609 20.2578 6.66597 20.1979 6.65231C20.1195 6.63863 20.101 6.60674 20.1149 6.52929C20.1287 6.47461 20.1518 6.33337 20.1656 6.21946L20.1933 6.00531L20.9863 6.0281C21.7563 6.05088 21.784 6.05088 21.867 5.9552C22.0975 5.70005 21.8762 5.28998 21.535 5.33554C21.4428 5.34466 21.1016 5.36744 20.7834 5.38111L20.2025 5.40845L20.1702 5.03939C20.1518 4.83436 20.1471 4.65667 20.161 4.64299C20.1702 4.62933 20.5483 4.58376 20.9955 4.5382C21.7148 4.46986 21.8209 4.44707 21.9223 4.35595C22.0837 4.20104 22.0744 3.97778 21.8946 3.80465C21.8116 3.71807 21.724 3.67707 21.6779 3.69074C21.6318 3.69985 21.4382 3.72263 21.2491 3.74086C21.0601 3.75908 20.7097 3.80009 20.4745 3.84109C20.2347 3.87754 20.0273 3.89121 20.0042 3.87299C19.9858 3.85021 19.9443 3.69985 19.912 3.53582L19.8567 3.24422L19.9904 3.13032C20.7465 2.49244 21.475 1.82267 21.4935 1.74977C21.5488 1.54018 21.3413 1.30326 21.1016 1.30326C20.9679 1.30326 20.5575 1.60397 19.8751 2.2054C19.663 2.3922 19.4878 2.53345 19.4786 2.52889C19.474 2.51978 19.4233 2.42865 19.3633 2.33297C18.8285 1.40805 17.4037 0.346447 16.3571 0.0958519C15.9283 -0.00894165 15.0338 -0.031723 14.5958 0.0502892ZM16.4493 1.2577C17.2147 1.47184 17.8418 1.8409 18.4135 2.41954C19.0175 3.02552 19.2619 3.53582 19.3633 4.37873C19.4233 4.87992 19.3679 5.51324 19.1927 6.31514C18.9161 7.58178 18.4688 8.52948 17.7034 9.46807C17.5421 9.66399 17.413 9.82346 17.4083 9.82346C17.353 9.8189 15.79 9.40884 15.7761 9.39973C15.7669 9.38605 15.79 9.0899 15.8268 8.73907C15.873 8.288 15.9237 8.04652 15.9882 7.91439C16.0943 7.71847 16.5277 7.35852 17.0718 7.02136C17.3576 6.84822 17.4222 6.78444 17.4821 6.62041C17.6297 6.23313 17.6665 6.00987 17.6712 5.58614C17.6712 5.23986 17.6435 5.08039 17.5467 4.7888C17.2792 3.99145 16.6706 3.14854 16.2188 2.94351C15.6839 2.70659 15.0476 2.91162 14.4851 3.50849C14.0517 3.96867 13.8627 4.35139 13.835 4.83436C13.8119 5.25353 13.8949 5.64082 14.0932 6.03721C14.1992 6.2468 14.2638 6.31514 14.4989 6.44727C14.9877 6.72976 15.0061 6.76621 14.8401 7.17627C14.6557 7.63646 13.7566 8.93954 13.2171 9.52274L13.0097 9.75056L12.7837 9.63665C12.4057 9.44984 12.1382 9.00333 12.0276 8.35634C11.8939 7.59089 11.94 5.11229 12.1013 4.1737C12.2627 3.23967 12.5486 2.58812 13.0189 2.08694C13.4707 1.61309 14.0102 1.33516 14.7894 1.18935C15.2551 1.10279 15.9974 1.13012 16.4493 1.2577ZM27.6581 11.3817C27.6304 11.8419 27.5843 12.3021 27.5613 12.4114C27.5013 12.6893 27.3215 13.0219 27.114 13.2361C26.9711 13.3864 26.9019 13.4229 26.7728 13.4229C26.3671 13.4229 26.1458 13.2088 26.2011 12.867C26.2195 12.7668 26.3025 12.498 26.3855 12.2702C26.4731 12.0378 26.5746 11.7553 26.6207 11.6368C26.7267 11.3316 26.9711 11.04 27.3492 10.762C27.5336 10.6254 27.6904 10.5251 27.6996 10.5342C27.7088 10.5433 27.6904 10.9215 27.6581 11.3817ZM28.0915 16.0746C28.11 16.5576 28.1376 17.0041 28.1515 17.0633C28.1791 17.1727 28.1745 17.1727 27.9025 17.1499C27.4506 17.1089 27.1002 16.872 26.948 16.512C26.8466 16.2751 26.8558 16.1658 26.9941 15.8924C27.1232 15.6372 27.3492 15.4322 27.6627 15.291C28.0685 15.1087 28.0546 15.0814 28.0915 16.0746Z" fill="#F0F0F0"/>
<path d="M44.3367 0.327911C44.2675 0.396255 44.2122 0.469158 44.2122 0.487381C44.2122 0.510162 44.2814 0.665077 44.3644 0.838215L44.5165 1.1526L44.2675 1.36674L44.0186 1.57633L43.8341 1.47609C43.7281 1.41686 43.4837 1.23461 43.2901 1.06602C42.9627 0.792652 42.9258 0.769871 42.8244 0.819988C42.6814 0.888332 42.497 1.16171 42.5154 1.28017C42.5247 1.3394 42.6492 1.44419 42.8705 1.57633C43.0549 1.68568 43.2901 1.8497 43.3869 1.94083L43.5667 2.1003L43.3316 2.44202C43.1702 2.66983 43.0687 2.77918 43.018 2.77007C42.9765 2.76095 42.7644 2.66072 42.5477 2.55136C42.1927 2.37367 42.1328 2.35545 42.0313 2.40101C41.8699 2.47391 41.7454 2.73817 41.7962 2.89309C41.8331 2.98877 41.9299 3.048 42.2987 3.19835L42.7598 3.38516L42.7414 3.60842C42.7368 3.73143 42.7183 3.8499 42.7045 3.87268C42.6907 3.89546 42.4693 3.90002 42.2204 3.88635C41.81 3.86357 41.7501 3.87268 41.6717 3.95013C41.5057 4.11416 41.5841 4.45132 41.81 4.52878C41.8884 4.55612 42.0959 4.59257 42.2757 4.61079L42.5984 4.64268V4.92973V5.22133H42.1235C41.8146 5.22133 41.6302 5.23956 41.5933 5.276C41.5149 5.35346 41.5241 5.63595 41.6117 5.75897C41.6763 5.85009 41.7178 5.85921 42.1558 5.85921H42.6307L42.6584 6.09158C42.6768 6.21915 42.6768 6.41051 42.6584 6.51986L42.6353 6.71578L42.2803 6.74312C41.727 6.79324 41.6947 6.80235 41.6071 6.9846C41.5011 7.2033 41.538 7.49035 41.6947 7.62248C41.7916 7.69993 41.893 7.72727 42.2757 7.75005L42.7368 7.7865V8.36515V8.94379L42.2665 8.97569C41.621 9.01669 41.3259 9.09415 40.9155 9.32652C40.1639 9.75025 39.6014 10.2788 38.398 11.6958C37.6972 12.5205 37.0332 13.2403 36.9779 13.2403C36.9641 13.2403 36.9041 13.1355 36.8442 13.0125C36.7842 12.8895 36.5722 12.5387 36.3693 12.2334C35.9082 11.5409 35.7007 11.1353 35.6131 10.7663C35.4932 10.2378 35.4333 9.3493 35.4287 8.09177V6.8388L35.5486 6.61099C35.6131 6.48341 35.7468 6.23738 35.839 6.05968C36.0557 5.64051 36.1019 5.31701 35.9635 5.18032C35.8437 5.06186 35.7192 5.0573 35.4656 5.18032C35.2166 5.29879 34.9261 5.61773 34.0547 6.7249C31.906 9.4632 31.2928 10.2241 30.4398 11.2037C29.8727 11.8552 29.7759 12.0557 29.8727 12.3564C29.9326 12.5341 30.0341 12.6025 30.2416 12.6025C30.5413 12.6025 30.7626 12.4293 31.1729 11.8735C31.4311 11.5272 31.5695 11.4862 32.4317 11.4907C33.9947 11.5044 34.4789 11.7915 35.1981 13.1492C36.0465 14.7393 36.3508 15.154 36.6736 15.154C36.8903 15.154 37.0978 15.0674 37.4159 14.8305C37.8401 14.5206 38.0015 14.3657 38.9006 13.3588C39.8596 12.2972 40.2931 11.9099 40.8002 11.6593C41.123 11.4953 41.1737 11.4862 41.561 11.4862C41.9207 11.4907 42.0083 11.5044 42.2157 11.6138C42.5293 11.7732 42.7414 11.96 42.9166 12.2334C43.3085 12.8394 43.4745 13.5729 43.6359 15.5002C43.6774 15.9559 43.7788 16.94 43.8664 17.6872C44.2722 21.0908 44.3044 21.5191 44.3044 23.3643C44.3044 25.3737 44.1845 26.3214 43.7788 27.5242C43.5114 28.317 43.2716 28.8455 42.4002 30.5769C41.5518 32.2627 41.3259 32.7685 41.0538 33.584C40.4775 35.2972 40.4775 36.7552 41.0584 38.8465C41.1414 39.1609 41.538 40.3774 41.9299 41.5575C42.3218 42.7375 42.6722 43.8265 42.6999 43.986C42.7736 44.3687 42.6907 44.9655 42.4786 45.5898C42.2526 46.2641 42.0221 46.6833 41.5702 47.2756C41.289 47.6401 41.1599 47.8497 41.1276 48C41.0677 48.2461 41.1138 48.4648 41.2705 48.6288C41.455 48.8247 41.5564 48.7791 42.1558 48.1959C42.9857 47.3895 43.2117 47.2391 44.0001 46.9521C44.452 46.7881 44.7609 46.5967 44.8762 46.4053C45.0652 46.0864 44.9223 45.3483 43.8157 40.9879C42.7644 36.8235 42.8151 37.0468 42.8151 36.4772C42.8151 36.0672 42.8336 35.9487 42.9442 35.6571C43.1056 35.2243 43.3223 34.8507 43.8019 34.1946C44.0139 33.9075 44.3828 33.3653 44.6272 32.9872C44.8762 32.609 45.245 32.0668 45.4571 31.7797C45.9044 31.1692 46.8035 30.0529 46.845 30.0529C46.8772 30.0529 46.9648 31.0462 47.0063 31.8754C47.0386 32.5133 46.9695 33.7526 46.8588 34.5272C46.7251 35.4885 46.7666 35.9897 47.0709 37.1379C47.3752 38.2679 48.3158 40.8057 48.7354 41.6395C48.8368 41.8308 49.1089 42.332 49.3486 42.7558C50.2569 44.3641 50.4137 44.9018 50.4091 46.3871C50.4045 47.0705 50.386 47.2665 50.3077 47.5535C50.2016 47.9499 50.0033 48.36 49.7359 48.7518C49.2426 49.4717 49.2103 49.8863 49.6391 49.9911C49.7866 50.0275 50.2293 49.9455 50.3307 49.8635C50.3676 49.8362 50.5797 49.581 50.7964 49.3077C51.5802 48.3144 52.0459 47.7904 52.4148 47.4806C52.8159 47.148 53.0465 46.8518 53.0926 46.6149C53.1295 46.4144 53.0234 46.1821 52.7237 45.8221C52.2442 45.2389 52.2211 45.1341 52.2073 43.3572C52.1889 41.2294 52.1289 41.0335 50.8748 39.0515C50.5751 38.5731 50.2385 38.0127 50.1278 37.7986C49.7221 37.0149 49.5792 36.295 49.6207 35.2698C49.6714 34.1444 49.8604 33.3608 50.6857 30.9186C51.5987 28.2122 51.7001 27.752 51.7001 26.2257C51.7001 25.2689 51.6863 25.041 51.5526 24.107C51.4742 23.5284 51.3727 22.7401 51.3359 22.3529C51.2621 21.6102 51.133 20.7673 50.8748 19.3229C50.5244 17.3501 50.4137 16.1609 50.4829 15.0811C50.5797 13.5456 50.8102 12.9351 51.4373 12.5022C51.7739 12.2744 51.9491 12.2926 52.3733 12.6116C53.8303 13.696 54.9323 15.3043 55.6469 17.3865C55.8683 18.0381 55.8683 17.8376 55.6516 19.5508C55.5732 20.175 55.5086 20.7809 55.5086 20.8949C55.5086 21.2867 55.7853 21.5373 56.0573 21.3915C56.2878 21.2685 56.3754 20.9905 56.4953 19.9836C56.6567 18.6668 56.6936 18.4709 56.8688 17.9515C57.0809 17.3273 57.3345 16.8033 57.9615 15.7007C58.4733 14.8031 58.8376 14.1106 58.9667 13.7962C59.0174 13.6641 59.0128 13.6367 58.9436 13.5593C58.8376 13.4454 58.5517 13.4363 58.4226 13.5456C58.3027 13.6504 57.7863 14.5206 57.1039 15.7827C56.7996 16.3386 56.5368 16.7942 56.5184 16.7942C56.463 16.7942 56.1772 16.2748 56.0158 15.8784C55.9374 15.6962 55.693 15.0674 55.4763 14.4933C54.6787 12.361 53.6643 10.5294 52.779 9.61356C52.1566 8.97569 51.4096 8.45627 51.1053 8.45627C51.0546 8.45627 50.8102 8.57929 50.5566 8.72965C49.8927 9.12604 49.7451 9.1306 49.3394 8.77977L49.1411 8.61118L49.2333 8.36059C49.2841 8.2239 49.3486 8.02798 49.3763 7.91863C49.427 7.72727 49.4316 7.72271 49.5745 7.75005C49.6575 7.76828 49.8512 7.83662 50.008 7.90952C50.2293 8.00976 50.3077 8.02798 50.3584 7.98698C50.4875 7.87763 50.5751 7.70449 50.5751 7.54047C50.5751 7.37644 50.5751 7.37644 50.2016 7.2352C49.9987 7.15318 49.8051 7.0894 49.7682 7.0894C49.6621 7.0894 49.6529 7.02561 49.7129 6.67478L49.7728 6.33761L50.2154 6.34217C50.6396 6.34673 50.6581 6.34217 50.7088 6.23738C50.7872 6.06879 50.7687 5.86832 50.6673 5.76808C50.5889 5.69062 50.5151 5.67696 50.2016 5.67696H49.8327L49.8696 5.45826C49.8881 5.33979 49.9019 5.17121 49.9065 5.08464C49.9065 4.89784 49.9711 4.8705 50.4183 4.86139C50.6027 4.85683 50.7226 4.83405 50.7549 4.79304C50.8379 4.69281 50.8702 4.42398 50.8056 4.31464C50.7549 4.21896 50.7272 4.2144 50.3123 4.22351L49.8742 4.23718L49.7636 3.89546C49.7036 3.71321 49.6575 3.53096 49.6668 3.49451C49.6714 3.44895 49.8558 3.38972 50.2062 3.31226L50.7365 3.1938L50.7503 3.03433C50.7733 2.78373 50.5428 2.35089 50.3814 2.35089C50.3584 2.35089 50.1417 2.42379 49.9019 2.51036C49.6668 2.59693 49.4362 2.66983 49.3901 2.66983C49.3348 2.66983 49.2472 2.55136 49.1089 2.2871C48.7169 1.53077 48.1913 0.970345 47.5827 0.674187C47.2415 0.510162 47.2277 0.505608 46.6836 0.505608C46.1165 0.505608 45.7292 0.573952 45.2911 0.760757L45.1067 0.838215L44.9223 0.532944C44.7655 0.282349 44.7148 0.232231 44.5995 0.218563C44.4981 0.20945 44.4243 0.236786 44.3367 0.327911ZM46.8404 1.50343C47.2277 1.60366 47.5228 1.78592 47.9008 2.16864C48.4818 2.74728 48.7446 3.37605 48.8045 4.32375C48.8414 4.87961 48.7538 6.61099 48.6616 7.24886C48.5694 7.85485 48.3296 8.67497 48.2282 8.70231C48.076 8.74787 47.5504 8.82077 47.3614 8.82077C47.1723 8.82077 47.1677 8.81622 47.1354 8.65219C47.0939 8.43349 47.1493 7.47212 47.2092 7.35822C47.2369 7.31265 47.283 7.27164 47.3153 7.27164C47.4167 7.27164 47.7118 6.99827 47.8317 6.80235C48.0576 6.41507 48.1729 5.59039 48.0853 4.92517C47.9608 3.92735 47.472 3.089 46.8311 2.75184C46.679 2.67439 46.5545 2.6516 46.3055 2.64705C46.0242 2.64705 45.9366 2.66983 45.6369 2.81563C45.0606 3.09811 44.5672 3.64942 44.3229 4.29185C43.871 5.48559 44.2675 6.50164 45.3372 6.86158C45.5678 6.93904 45.5724 6.93904 45.6047 7.1623C45.6185 7.28532 45.6369 7.77739 45.6369 8.2558L45.6416 9.1306L44.9868 9.23083C44.6226 9.28551 44.226 9.33107 44.0969 9.33563L43.8664 9.34474L43.7189 8.75243C43.4099 7.53135 43.2901 6.32394 43.3777 5.33524C43.5206 3.82712 43.7696 3.12545 44.3966 2.46935C44.8531 1.99095 45.471 1.61733 45.9827 1.50798C46.3562 1.42597 46.5407 1.42597 46.8404 1.50343ZM34.7417 7.9642C34.8938 8.86178 34.8662 10.0464 34.7002 9.99173C34.6034 9.96439 34.4097 9.63634 34.1192 9.00758L33.8334 8.39704L33.9394 8.27858C34.1792 8.0052 34.6402 7.54958 34.6587 7.5678C34.6725 7.57692 34.7094 7.75917 34.7417 7.9642ZM33.5337 9.3493C33.778 9.94617 33.8979 10.6296 33.7919 10.8255C33.6628 11.067 32.7544 11.067 32.1181 10.8301L31.989 10.78L32.3717 10.2924C33.1878 9.23083 33.3354 9.04858 33.3723 9.04858C33.3953 9.04858 33.4691 9.18527 33.5337 9.3493Z" fill="#F0F0F0"/>
</svg>
