<svg width="32" height="50" viewBox="0 0 32 50" fill="none" xmlns="http://www.w3.org/2000/svg">
<path d="M0.939028 4.6868L1.87713 3.73256L2.55968 2.95035L3.32772 2.68993L4.09576 2.77689L4.35224 3.38375L3.92571 4.25293L2.98714 5.46759L2.64563 6.50927L2.64563 7.8109L3.41368 8.59216L4.26581 9.11347L5.11982 9.54687L5.7164 9.54687L5.80283 7.20451L6.55593 6.87139L8.10743 6.94314L8.36111 8.85305L9.21651 9.11347L10.5816 8.93954L12.2877 7.98435L12.6297 6.50927L12.3732 5.29366L11.6907 4.59888L10.9231 4.07899L9.98409 3.99155L9.21651 3.64417L8.87454 2.86338L8.78904 1.73473L9.55708 1.3883L10.4102 1.21484L11.4342 1.47384L12.8843 2.34254L14.0794 3.55815L14.6769 4.51334L14.9329 5.72801L14.5064 8.07179L13.2263 9.37342L12.0327 10.5016L10.7521 11.1968L9.04505 11.2829L8.19199 11.2829L8.19199 12.3255L7.85001 17.1851L7.93644 19.5298L8.27701 22.134L8.53256 24.3913L8.70401 29.077L8.78904 31.2473L8.61852 33.7646L8.61852 36.1088L8.19199 38.1922L7.42301 40.536L6.48491 42.1845L4.86427 43.3122L3.41368 43.9205L2.13267 44.1809L1.45059 43.4001L1.45059 42.2719L2.04811 41.4902L2.90072 41.1428L4.01074 40.9689L5.03432 39.4068L5.37536 37.5839L5.37536 36.2823L5.37536 35.587L4.26581 35.328L2.81616 35.1546L1.70661 35.328L0.597518 35.328L0.0845593 34.5463L0.0845593 33.6776L0.341509 32.9833L1.3651 32.9833L2.38915 33.1567L4.18172 33.0707L5.2908 33.0707L5.80283 32.8103L5.80283 31.7682L5.46133 31.0739L4.35224 31.2473L2.73066 31.2473L1.19364 31.1608L0.0845593 30.9004L0.170986 30.1196L0.682085 29.5104L1.87713 29.4253L3.24222 29.5988L4.26581 29.6843L5.03432 29.6843L5.46133 29.3374L5.80283 28.5561L5.88739 26.1268L5.80283 23.7826L5.7164 21.8731L5.2908 21.3523L3.75472 21.3523L2.13267 21.3523L1.45059 21.0914L1.3651 20.3971L1.79116 19.8763L3.24222 19.7902L4.69328 19.7902L5.63184 19.7023L6.05931 19.095L6.05931 18.0538L5.20531 17.3595L3.41368 17.3595L1.79116 17.3595L0.682085 17.3595L0.0845593 16.7526L1.07851e-08 15.7974L0.512025 15.624L1.62064 15.5365L3.07077 15.2752L4.26581 15.2752L5.03432 15.2752L5.63184 15.0162L5.97335 13.3653L6.14294 11.6298L3.92571 11.2829L1.70661 9.98122L0.853071 9.11347L0.255546 7.55143L0.426069 6.07444L0.939028 4.6868Z" fill="#F0F0F0"/>
<path d="M12.1576 13.9772L11.135 13.5438L10.707 13.1959L10.707 12.6756L16.1688 9.55051L16.6804 9.20313L17.2779 9.46402L18.0464 10.1583L19.4115 11.2005L20.351 11.8083L20.8621 12.2412L21.1191 12.849L20.7775 13.3689L18.1324 13.8037L17.1933 13.8912L17.1074 14.412L17.1933 21.3559L17.3634 26.1305L17.5344 29.429L17.6194 32.8995L17.6194 35.2438L17.7054 37.6745L17.7054 40.1913L17.4489 42.1881L17.1074 45.6606L16.9369 47.2236L16.6804 48.8716L16.3393 49.6529L15.4872 49.9998L14.5477 49.9998L13.7806 49.392L13.8647 47.9164L14.2917 44.1845L14.8892 39.1501L14.8892 36.0245L15.0597 31.6853L15.0597 27.6925L14.6327 23.0045L14.7182 19.9673L14.7182 17.4496L14.7182 15.9745L14.4622 15.1063L14.1207 14.412L13.5232 14.239L12.1576 13.9772Z" fill="#F0F0F0"/>
<path d="M8.09483 3.9082C8.55967 3.9082 8.93575 4.25606 8.93575 4.68946C8.93575 5.12049 8.55967 5.47072 8.09483 5.47072C7.63045 5.47072 7.25391 5.12096 7.25391 4.68946C7.25391 4.25654 7.63045 3.9082 8.09483 3.9082Z" fill="#F0F0F0"/>
<path d="M17.0519 3.40234C17.5634 3.40234 17.9783 3.78775 17.9783 4.26249C17.9783 4.73723 17.563 5.12263 17.0519 5.12263C16.5403 5.12263 16.125 4.73723 16.125 4.26249C16.125 3.78775 16.5403 3.40234 17.0519 3.40234Z" fill="#F0F0F0"/>
<path d="M17.0558 6.68555C17.5201 6.68555 17.8972 7.03626 17.8972 7.46728C17.8972 7.89878 17.5201 8.24901 17.0558 8.24901C16.5909 8.24901 16.2148 7.89925 16.2148 7.46728C16.2148 7.03626 16.5909 6.68555 17.0558 6.68555Z" fill="#F0F0F0"/>
<path d="M25.0012 43.7487L24.8306 42.3587L25.4277 41.1441L26.8783 39.582L27.5599 38.0195L27.6463 37.0657L27.5599 36.0221L26.5372 35.7622L25.0012 35.7622L23.9766 35.7622L23.2941 35.4148L23.2941 34.3746L24.1481 34.0276L25.4277 33.8528L26.3658 33.8528L27.2198 33.5933L27.8164 33.158L27.9878 32.3767L27.9878 31.4225L26.8783 31.3365L25.1722 31.4225L23.8057 31.4225L23.0376 30.9016L23.0376 30.1209L23.6356 29.6L24.8306 29.5116L26.1102 29.5116L26.8783 29.5116L27.5599 29.2526L27.6463 28.6458L27.9033 26.1281L27.7314 24.911L27.9878 23.5234L28.0733 21.8744L27.9878 20.5723L27.6463 19.7036L26.8783 19.3571L25.1722 19.4446L23.7211 19.4446L22.6966 19.4446L22.441 18.8372L22.7825 18.4015L23.9766 17.7941L25.2567 17.7941L26.4513 17.7081L27.1348 17.6212L27.5599 16.3186L27.2198 15.7108L26.7078 15.2764L25.3427 15.3648L24.0621 15.8842L22.7825 16.0586L21.844 16.0586L21.16 15.7108L21.16 14.8435L22.0995 14.1482L23.4651 13.8888L24.8306 13.4549L26.0257 13.4549L26.1957 12.9341L26.2808 11.4576L25.6832 10.9367L24.4896 10.9367L22.954 10.9367L21.4174 10.4168L20.3083 9.89503L19.6263 9.02775L19.1983 7.81214L19.0273 6.33658L19.1124 4.94799L19.2829 3.5594L19.8809 2.1708L20.8194 1.30258L21.6734 1.12865L22.612 1.12865L23.1236 1.30258L23.3801 1.99688L23.3801 2.77814L23.2095 3.29945L22.1845 3.5594L21.587 4.08024L21.5029 5.12097L21.5029 6.16313L21.5029 7.11832L21.7575 7.81214L22.441 8.15953L23.4651 8.5934L24.4896 8.5934L24.9152 8.24649L24.6601 7.20576L24.4027 5.90223L24.4896 5.03543L25.2567 4.8615L25.9393 4.8615L26.4513 5.20841L26.8783 5.99015L27.2198 7.29083L27.4758 7.72613L28.3289 7.20576L29.267 6.51051L29.694 5.55532L29.694 4.34019L29.1824 3.38499L28.3289 2.86463L27.1348 2.51677L26.1102 2.1708L25.5127 1.563L25.4277 0.868703L25.8542 0.346912L26.5372 5.64994e-09L27.4758 0.0874414L28.8409 0.520366L30.121 1.38954L31.0595 2.08337L31.5711 2.95159L31.999 5.12097L31.9131 6.59748L30.974 8.07304L29.9505 8.68037L28.9259 9.37466L28.1584 9.80949L28.1584 10.5908L28.7554 12.5002L29.5235 15.2764L30.121 16.7539L30.5484 18.6624L30.5484 20.3114L30.5484 23.7838L30.8031 26.648L30.8031 28.2114L30.8895 29.6856L30.8895 31.3365L31.0595 33.4189L31.0595 35.3293L31.0595 37.3247L30.6325 39.6685L29.9505 41.318L28.9259 42.5327L27.9033 43.8348L27.0483 44.53L25.8542 44.4426L25.0012 43.7487Z" fill="#F0F0F0"/>
</svg>
