<svg width="302" height="344" viewBox="0 0 302 344" fill="none" xmlns="http://www.w3.org/2000/svg">
<path d="M126.09 0.482513C123.418 1.45004 121.718 3.70752 121.718 6.31439C121.718 7.12067 123.067 16.5269 124.713 27.1963C126.333 37.8388 127.574 46.6538 127.466 46.7613C127.358 46.8419 126.279 47.1644 125.091 47.4063C120.179 48.5081 113.243 50.8463 107.603 53.265C105.849 54.0175 104.391 54.5819 104.337 54.5281C104.283 54.4744 99.8302 46.4388 94.4325 36.6831C89.0348 26.9275 84.2579 18.4619 83.7991 17.8975C83.3672 17.3063 82.4496 16.5538 81.7749 16.1775C79.373 14.9144 75.9994 15.8013 73.8673 18.2738C72.437 19.9669 71.8972 22.6275 72.6529 24.3744C72.9227 25.0194 90.4112 56.7588 92.1924 59.8494L92.8402 60.9781L90.7621 62.3756C86.6059 65.1707 81.586 69.1481 77.8076 72.6688L76.1074 74.2275L59.1317 60.1181C49.7937 52.3244 41.5892 45.5788 40.9145 45.095C39.1873 43.9125 36.8123 43.7244 34.9501 44.6382C32.5481 45.8475 31.0638 48.2125 31.0368 50.9C31.0368 53.9907 30.416 53.3725 49.7397 69.4438C59.3476 77.4257 67.1742 84.0906 67.0933 84.2519C67.0393 84.3863 66.0947 85.8106 64.9882 87.3694C63.8816 88.955 62.2623 91.4275 61.3987 92.8788C60.5351 94.3569 59.7794 95.5931 59.7254 95.6469C59.6984 95.7006 57.9172 95.0825 55.8121 94.2494C53.68 93.4431 44.1261 89.7075 34.5453 85.9719C18.7031 79.7906 17.0028 79.1725 15.5185 79.1725C12.1449 79.1725 9.76994 81.6719 9.50005 85.515C9.3921 87.0738 9.47306 87.5306 10.0938 88.7669C10.5256 89.6806 11.2003 90.4869 11.8211 90.9438C12.3878 91.32 22.0766 95.2169 33.3308 99.5975C44.6119 103.978 53.8959 107.606 53.9499 107.66C54.0039 107.714 53.4911 109.488 52.8164 111.584C51.6019 115.319 50.1985 120.694 50.1985 121.581C50.1985 122.119 50.6843 122.146 44.0452 121.339C33.3308 120.023 20.8622 118.518 13.1705 117.577C8.87932 117.039 5.07396 116.717 4.66913 116.798C-0.836497 118.141 -1.64615 127.843 3.5896 129.509C4.07539 129.671 14.1151 130.934 25.909 132.358C37.7029 133.783 47.6346 134.992 47.9585 135.046C48.4983 135.18 48.5252 135.288 48.5522 139.534C48.5522 144.452 48.9301 149.048 49.6318 153.106C49.9017 154.637 50.0906 155.874 50.0636 155.874C49.9826 155.874 17.9474 164.42 11.6051 166.113C8.87932 166.866 6.23446 167.699 5.74867 168.021C4.53419 168.747 3.61659 170.01 3.23875 171.408C2.51006 174.149 4.34527 177.884 7.12507 179.336C9.04125 180.303 10.3097 180.115 20.9161 177.266C26.2598 175.842 32.818 174.068 35.4899 173.342C38.1617 172.617 44.6659 170.87 49.9556 169.472L59.5635 166.893L74.5151 166.866C82.7465 166.839 98.5887 166.758 109.708 166.651L129.949 166.462L131.542 167.376C135.104 169.365 139.179 170.843 143.551 171.703L145.872 172.16L145.953 184.066L146.007 195.971L142.283 200.432C130.786 214.192 122.123 225.91 118.938 231.93C116.86 235.827 115.348 239.643 113.081 246.684L111.138 252.677L109.276 254.827C107.198 257.246 106.874 258.16 107.549 259.772C108.682 262.46 111.813 263.965 116.32 263.938C118.695 263.911 120.584 263.427 121.853 262.46C123.148 261.466 123.31 260.337 122.527 257.918L121.907 256.037L123.823 252.247C126.279 247.41 130.705 240.046 136.723 230.774C142.742 221.556 142.607 221.717 143.578 221.717C144.847 221.717 145.198 222.524 145.198 225.426C145.198 231.392 144.199 235.451 138.451 252.758C131.515 273.613 127.547 286.594 126.468 291.996C125.901 294.898 125.361 299.171 124.713 306.239C124.39 309.491 124.093 312.555 124.012 313.039L123.85 313.926L119.613 313.872C117.211 313.845 115.079 313.952 114.674 314.114C112.137 315.108 111.759 318.79 113.972 320.859C114.512 321.343 115.214 321.558 117.454 321.854C121.826 322.445 124.74 322.982 125.01 323.251C125.631 323.869 124.174 325.025 119.154 327.874C115.645 329.862 114.755 330.615 114.539 331.797C114.296 333.087 115.294 334.969 116.671 335.882C118.533 337.119 119.424 336.931 123.445 334.512C126.171 332.899 127.142 332.442 127.952 332.442C129.355 332.442 129.625 332.899 131.191 338.006C132.621 342.682 133.242 343.622 134.996 343.918C136.264 344.106 138.208 343.219 139.044 342.064C140.07 340.586 140.016 338.919 138.747 335.184C137.506 331.502 137.398 330.669 138.154 330.427C138.693 330.266 140.664 330.857 142.229 331.636C143.902 332.469 144.82 332.55 146.088 331.932C148.139 330.937 149.084 328.116 147.977 326.261C147.708 325.804 145.036 323.842 141.203 321.289L134.888 317.07L135.077 315.162C135.698 308.309 136.939 300.246 138.073 295.624C139.53 289.496 144.82 272.646 147.033 267.029C148.112 264.287 148.517 263.589 149.786 262.245C151.135 260.847 151.405 260.686 152.35 260.686C153.51 260.686 154.239 261.143 155.102 262.433C155.642 263.239 159.474 271.839 162.875 279.902C164.251 283.154 172.645 303.256 173.454 305.191C173.508 305.379 173.023 305.621 172.267 305.809C170.027 306.347 166.734 307.825 165.844 308.712C164.467 310.029 164.386 311.91 165.574 313.737C166.464 315.054 167.328 315.296 171.619 315.35C173.778 315.377 175.775 315.484 176.018 315.619C177.233 316.183 176.693 317.339 173.589 320.671C171.43 322.982 171.106 323.95 171.808 325.697C172.456 327.282 174.129 328.25 175.991 328.089C177.692 327.927 178.096 327.551 181.011 323.359C183.278 320.134 183.845 319.542 184.736 319.542C184.979 319.542 186.733 321.128 188.595 323.063C190.484 324.998 192.346 326.745 192.751 326.96C194.586 327.901 196.853 327.067 197.798 325.079C198.851 322.956 198.581 322.069 196.098 319.274C194.209 317.177 193.075 315.242 193.318 314.571C193.615 313.818 194.775 313.388 197.204 313.146C198.716 312.985 199.984 312.716 200.389 312.447C202.764 310.889 202.656 307.583 200.146 305.729C199.471 305.191 198.904 305.164 192.454 305.003C188.622 304.922 185.356 304.761 185.194 304.654C184.844 304.439 181.875 298.822 180.202 295.194C177.881 290.168 177.233 287.454 175.991 277.886C174.642 267.754 174.345 266.599 170.702 259.074C169.325 256.198 167.949 253.027 167.652 252.059C166.977 249.856 166.33 245.69 165.979 241.229C165.628 236.552 165.628 223.303 166.006 222.336C166.276 221.61 166.68 221.18 167.139 221.18C168.111 221.153 180.283 234.913 185.95 242.438C189.324 246.926 190.187 248.377 190.835 250.769C191.834 254.317 192.94 255.553 195.531 255.956C199.039 256.547 204.086 253.403 205.247 249.963C206.164 247.195 205.382 245.152 202.575 243.083C200.497 241.578 199.687 240.422 192.832 229.672C191.267 227.173 189.216 224.136 188.325 222.954C185.761 219.541 181.146 215.241 174.858 210.376C165.925 203.469 162.281 199.787 160.257 195.729L159.367 193.902L159.232 182.668L159.097 171.434L160.176 171.166C162.551 170.574 165.439 169.472 168.246 168.075L171.187 166.624H208.081H244.974L267.077 173.262C286.536 179.094 289.424 179.873 291.097 179.9C292.77 179.927 293.148 179.846 294.093 179.174C296.387 177.616 297.439 174.068 296.467 171.192C295.901 169.499 294.578 167.941 293.175 167.349C292.608 167.107 283.945 164.474 273.932 161.518C263.92 158.534 254.716 155.82 253.502 155.444C252.099 155.014 251.343 154.664 251.397 154.449C251.451 154.261 251.694 152.81 251.937 151.171C252.18 149.558 252.395 148.188 252.449 148.161C252.53 148.053 259.763 147.086 282.973 144.049C292.689 142.759 297.898 141.979 298.627 141.657C300.921 140.636 302.216 138.217 301.892 135.503C301.46 131.955 298.815 129.268 295.712 129.268C295.01 129.268 285.267 130.477 274.067 131.955C262.84 133.433 253.448 134.643 253.178 134.643C252.746 134.643 252.665 134.293 252.53 132.143C252.422 130.799 252.261 129.053 252.18 128.327L252.018 126.983L273.15 120.963C284.782 117.658 294.74 114.728 295.28 114.459C297.385 113.411 298.384 111.423 298.168 108.735C297.871 105.134 295.118 102.312 291.879 102.312C290.935 102.312 284.701 103.978 270.559 108.009C259.574 111.154 250.29 113.788 249.913 113.841C249.265 113.976 249.184 113.841 247.807 109.864C247.025 107.606 246.35 105.644 246.323 105.483C246.296 105.349 253.016 101.828 261.248 97.6625C284.62 85.8375 285.132 85.5688 285.915 84.4131C287.48 82.1556 287.399 78.635 285.726 76.1357C284.566 74.4156 283.135 73.6363 281.111 73.6363C279.384 73.6363 280.733 72.9913 249.481 88.8475L240.278 93.5238L238.739 91.0244C237.903 89.6538 236.175 87.1813 234.907 85.515L232.613 82.4781L234.043 80.9194C234.826 80.0863 240.71 73.8244 247.106 67.0519C262.597 50.5775 262.273 50.9807 262.759 49.2069C263.029 48.32 263.137 47.3525 263.029 46.7075C262.3 42.1656 256.741 39.3975 253.151 41.7625C252.584 42.1119 245.729 49.2069 237.903 57.4844C230.076 65.7888 223.626 72.5613 223.545 72.5613C223.491 72.5613 222.115 71.4056 220.468 70.0081C218.849 68.5838 216.285 66.5144 214.747 65.4125C213.235 64.2838 211.967 63.2625 211.913 63.1281C211.859 63.0207 216.447 54.9582 222.061 45.2025C227.701 35.4738 232.505 26.9275 232.775 26.2019C233.315 24.6163 233.126 23.1919 232.208 21.5794C229.914 17.6288 223.815 17.0107 221.305 20.4507C220.9 21.0419 216.042 29.2925 210.51 38.8332C205.004 48.3738 200.362 56.1675 200.2 56.1675C200.065 56.1675 198.284 55.3882 196.26 54.4475C190.835 51.9482 186.49 50.3088 180.768 48.6425C178.906 48.105 178.69 47.9706 178.798 47.46C178.879 47.1375 180.525 38.1344 182.469 27.4113C185.059 13.1675 185.977 7.55066 185.896 6.50253C185.734 4.72879 184.655 3.08942 183.008 2.17566C181.632 1.42316 179.041 1.15439 177.422 1.58441C175.856 1.98752 174.183 3.30441 173.535 4.59439C173.131 5.37378 171.916 11.4744 169.379 25.4225C167.409 36.28 165.736 45.2294 165.655 45.31C165.574 45.3907 164.548 45.31 163.388 45.1757C159.097 44.5844 151.135 44.3425 146.007 44.5844C143.254 44.7456 140.933 44.7725 140.852 44.665C140.772 44.5575 139.503 36.7369 138.073 27.2769C134.591 4.46002 134.537 4.1644 133.728 2.76691C132.324 0.428772 129.059 -0.565582 126.09 0.482513ZM159.097 54.555C160.581 54.6894 162.281 54.8775 162.875 54.985L163.982 55.1463L161.795 67.2131C160.581 73.8513 159.528 79.3338 159.447 79.4144C159.367 79.495 158.179 79.4413 156.776 79.28C155.372 79.1456 152.404 79.0113 150.163 79.0113H146.061L145.899 78.1244C145.818 77.6675 145.009 72.4269 144.118 66.5144C143.227 60.6019 142.445 55.4956 142.364 55.1732C142.256 54.6894 142.364 54.5819 143.093 54.4744C144.928 54.2594 156.506 54.3131 159.097 54.555ZM131.002 68.1269C131.973 74.4694 132.837 80.0325 132.918 80.4356C132.999 80.8925 132.918 81.215 132.702 81.2688C130.138 82.0482 125.658 83.6069 123.823 84.3863L121.448 85.4075L115.537 74.7382C112.272 68.8794 109.519 63.8806 109.438 63.6656C109.141 62.8863 118.56 59.2581 125.766 57.3769C127.628 56.8932 129.167 56.5169 129.194 56.5438C129.221 56.5438 130.03 61.7575 131.002 68.1269ZM180.31 58.7475C184.277 60.0107 187.407 61.22 191.753 63.2088C193.696 64.1225 195.288 64.875 195.342 64.9019C195.396 64.9557 187.003 79.5219 183.764 84.9775L182.711 86.7781L179.932 85.4881C178.42 84.7894 176.099 83.795 174.804 83.3113C172.996 82.6394 172.429 82.3169 172.51 81.9944C172.591 81.7525 173.589 76.2163 174.777 69.6856C175.937 63.1281 176.99 57.78 177.071 57.78C177.152 57.78 178.609 58.21 180.31 58.7475ZM103.366 80.0863C106.361 85.4881 109.087 90.4063 109.465 91.0244L110.113 92.1263L108.278 93.5506C104.067 96.8563 99.0205 102.285 95.8629 106.881C95.0532 108.117 94.2706 109.111 94.1626 109.111C94.0546 109.111 91.6797 108.224 88.8729 107.123C79.9667 103.629 72.5179 100.726 71.0605 100.189C70.2779 99.8931 69.6302 99.5438 69.6302 99.4094C69.6302 98.9525 73.1386 93.5775 75.3787 90.5944C79.9397 84.5744 85.5803 78.8232 91.4368 74.2544C94.7833 71.6475 97.5092 69.8469 97.7521 70.0888C97.86 70.1963 100.397 74.7113 103.366 80.0863ZM208.242 73.0182C209.781 74.1738 213.262 77.0763 215.232 78.8232L216.582 80.0325L215.232 81.4569C214.504 82.2632 210.51 86.5094 206.353 90.9169L198.824 98.8988L196.637 96.8294C195.423 95.7006 194.289 94.6256 194.101 94.4375C193.804 94.1956 194.91 92.0725 200.119 83.0694C203.627 76.9956 206.596 72.0238 206.731 72.0238C206.839 72.0238 207.514 72.4807 208.242 73.0182ZM227.053 92.0994C230.346 96.6681 234.016 103.279 236.229 108.601C237.66 112.068 239.171 116.69 238.928 116.905C238.604 117.228 213.721 124.242 213.559 124.081C213.478 124 213.019 122.737 212.534 121.286C211.427 117.98 209.565 113.761 208.162 111.315L207.082 109.461L216.231 99.7319C221.278 94.4106 225.434 90.03 225.461 90.03C225.515 90.03 226.217 90.9706 227.053 92.0994ZM156.965 92.5294C157.126 92.6906 154.994 105.08 154.752 105.349C154.617 105.456 150.271 105.376 150.136 105.241C150.056 105.161 148.166 92.9863 148.166 92.5025C148.166 92.18 148.787 92.1263 152.484 92.2338C154.832 92.2875 156.857 92.4219 156.965 92.5294ZM136.022 100.511C136.48 103.683 136.939 106.612 137.02 106.988C137.128 107.606 137.02 107.741 135.779 108.251L134.429 108.816L131.488 103.521C129.868 100.619 128.411 97.9581 128.222 97.6356C127.952 97.0713 128.006 96.9906 128.924 96.5875C131.218 95.5931 134.807 94.3838 134.969 94.545C135.077 94.6525 135.536 97.34 136.022 100.511ZM173.158 97.0175C175.91 98.3075 175.991 98.3613 175.667 98.9525C175.29 99.6781 169.433 109.729 169.325 109.891C169.19 110.052 167.598 109.353 167.598 109.138C167.598 108.923 169.379 99.1406 169.784 97.0713C169.946 96.3188 170.135 95.6738 170.189 95.6738C170.27 95.6738 171.592 96.265 173.158 97.0175ZM119.424 109.031C120.881 111.664 122.419 114.406 122.851 115.104L123.607 116.394L122.257 117.98L120.881 119.539L118.128 118.464C109.465 115.131 107.684 114.379 107.684 114.191C107.684 113.411 115.888 104.274 116.59 104.274C116.698 104.274 117.993 106.424 119.424 109.031ZM187.38 111.046C186.193 112.283 184.034 114.567 182.55 116.153C181.065 117.738 179.77 118.921 179.635 118.786C179.5 118.652 179.635 118.222 179.932 117.792C180.229 117.389 181.227 115.696 182.172 114.083C183.116 112.444 184.547 109.998 185.356 108.601L186.814 106.101L188.19 107.445L189.567 108.816L187.38 111.046ZM76.1074 116.233C82.4227 118.706 87.8473 120.829 88.1712 120.936L88.7379 121.178L88.0902 123.248C85.4993 131.633 85.1485 140.689 87.0647 150.149C87.4155 151.95 87.7124 153.509 87.7124 153.589C87.7124 153.643 81.586 153.751 74.0832 153.777C66.5805 153.831 60.4541 153.831 60.4541 153.831C60.4541 153.804 60.3192 153.132 60.1842 152.353C59.5365 148.994 59.1047 143.565 59.1047 138.674C59.1047 129.939 60.1302 123.355 62.8021 114.674C63.5848 112.175 63.8816 111.53 64.2055 111.611C64.4484 111.691 69.7921 113.761 76.1074 116.233ZM158.287 113.519C161.661 114.406 165.817 116.394 168.651 118.518C178.366 125.828 181.74 138.486 176.774 149.074C174.345 154.261 170.81 158.104 165.628 161.195C164.251 162.001 159.69 163.936 159.151 163.936C159.124 163.936 159.124 162.646 159.151 161.087L159.205 158.212L160.446 157.567C165.628 154.96 169.487 150.203 171.16 144.398C171.943 141.657 171.997 136.255 171.268 133.568C169.379 126.499 163.928 120.856 156.803 118.571C154.725 117.926 154.131 117.846 150.595 117.846C147.276 117.873 146.385 117.953 144.658 118.491C138.505 120.399 133.458 124.86 131.083 130.504C129.841 133.433 129.463 135.368 129.436 138.808C129.436 143.35 130.381 146.682 132.756 150.311C135.59 154.611 139.908 157.782 145.063 159.314L145.872 159.556L145.953 162.136C145.98 163.587 145.926 164.742 145.791 164.742C145.656 164.742 144.334 164.447 142.877 164.071C137.236 162.646 131.434 158.991 127.925 154.637C124.201 150.015 122.554 145.634 122.338 139.856C122.096 134.159 123.229 130.02 126.279 125.317C130.408 118.947 137.236 114.513 145.144 113.008C148.463 112.39 154.886 112.632 158.287 113.519ZM198.311 123.194C198.77 124.376 199.309 125.989 199.525 126.741L199.93 128.139L193.183 130.047C189.459 131.122 186.355 131.928 186.301 131.848C186.112 131.659 187.38 130.235 192.562 124.753C196.233 120.883 196.934 120.238 197.204 120.587C197.393 120.829 197.879 121.984 198.311 123.194ZM107.9 128.569C111.111 129.832 114.08 130.961 114.458 131.122L115.16 131.364L114.809 133.352C114.296 136.121 114.323 141.818 114.836 144.533C115.294 146.871 116.536 150.714 117.427 152.434L117.939 153.455H110.275C106.037 153.455 102.529 153.348 102.448 153.213C102.097 152.676 100.694 146.709 100.397 144.613C100.019 141.791 100.019 135.691 100.397 133.03C100.721 130.799 101.719 126.311 101.908 126.311C101.962 126.311 104.661 127.333 107.9 128.569ZM241.951 132.277C242.329 137.384 242.086 145.93 241.438 150.149C241.195 151.681 241.006 153.025 241.006 153.186C241.006 153.374 236.283 153.455 227.215 153.455C214.234 153.455 213.451 153.428 213.586 152.971C214.477 150.069 215.367 143.699 215.367 140.044V137.411L228.133 133.756C235.123 131.74 241.06 130.101 241.33 130.101C241.681 130.074 241.789 130.45 241.951 132.277ZM200.686 145.822C200.443 147.113 199.93 149.343 199.525 150.821L198.797 153.455H191.051H183.305L184.358 151.09C184.925 149.8 185.545 148.107 185.734 147.301C185.896 146.494 186.22 145.796 186.463 145.715C186.706 145.607 190.052 144.613 193.912 143.511L200.929 141.496L201.01 142.463C201.064 143.001 200.902 144.506 200.686 145.822Z" fill="white" fill-opacity="0.05"/>
</svg>
